<svg width="90" height="90" viewBox="0 0 90 90" fill="none" xmlns="http://www.w3.org/2000/svg">
<path d="M9 47.205C9 67.095 25.11 83.205 45 83.205C64.89 83.205 81 67.095 81 47.205C81 27.315 64.89 11.205 45 11.205C25.11 11.205 9 27.3375 9 47.205Z" fill="#D9EDFF"/>
<path d="M26.7521 65.97C31.4096 65.97 35.1896 65.295 35.1896 64.44C35.1896 63.585 31.4096 62.8875 26.7521 62.865C22.0946 62.8425 18.3146 63.54 18.3146 64.395C18.2921 65.2725 22.0721 65.97 26.7521 65.97Z" fill="#B0D9FF"/>
<path d="M63.6084 66.0375C68.2659 66.0375 72.0459 65.3625 72.0684 64.5075C72.0684 63.6525 68.3109 62.955 63.6309 62.9325H63.6084C58.9509 62.9325 55.1709 63.6075 55.1484 64.4625C55.1484 65.3175 58.9059 66.015 63.5859 66.0375H63.6084Z" fill="#B0D9FF"/>
<path d="M61.043 61.02V57.78H66.443V61.02H61.043Z" fill="white"/>
<path d="M66.4418 61.47H61.0418C60.9293 61.47 60.8168 61.425 60.7268 61.335C60.6368 61.245 60.5918 61.1325 60.5918 61.02V57.78C60.5918 57.5325 60.7943 57.33 61.0418 57.33H66.4418C66.5543 57.33 66.6668 57.375 66.7568 57.465C66.8468 57.555 66.8918 57.6675 66.8918 57.78V61.02C66.8918 61.1325 66.8468 61.245 66.7568 61.335C66.6893 61.425 66.5768 61.47 66.4418 61.47ZM61.4918 60.57H65.9918V58.23H61.4918V60.57Z" fill="#020064"/>
<path d="M70.7627 63.2024L56.7227 63.1799C56.7227 61.9874 57.6902 61.0199 58.8827 61.0199L68.6027 61.0424C69.7952 61.0199 70.7627 61.9874 70.7627 63.2024Z" fill="white"/>
<path d="M70.7634 63.6524L56.7234 63.6299C56.4759 63.6299 56.2734 63.4274 56.2734 63.1799C56.2734 61.7399 57.4434 60.5699 58.8834 60.5699L68.6034 60.5924C70.0434 60.5924 71.2134 61.7624 71.2134 63.2024C71.2134 63.3149 71.1684 63.4499 71.0784 63.5174C71.0109 63.6074 70.8984 63.6524 70.7634 63.6524ZM57.2409 62.7299L70.2684 62.7524C70.0659 62.0324 69.4134 61.4924 68.6259 61.4924L58.9059 61.4699C58.0959 61.4699 57.4434 62.0099 57.2409 62.7299Z" fill="#020064"/>
<path d="M77.8279 32.9625L49.7479 32.9175C48.2629 32.9175 47.0479 34.1325 47.0479 35.6175L47.0254 53.4375L80.5054 53.4825L80.5279 35.6625C80.5279 34.1775 79.3354 32.9625 77.8279 32.9625Z" fill="#B0D9FF"/>
<path d="M80.5042 53.955L47.0242 53.8875C46.7767 53.8875 46.5742 53.685 46.5742 53.4375L46.5967 35.6175C46.5967 34.785 46.9342 33.975 47.5192 33.39C48.1042 32.805 48.9142 32.4675 49.7467 32.4675L77.8267 32.5125C79.5592 32.5125 80.9767 33.93 80.9767 35.6625L80.9542 53.4825C80.9542 53.595 80.9092 53.7075 80.8192 53.7975C80.7292 53.8875 80.6167 53.955 80.5042 53.955ZM47.4742 52.9875L80.0542 53.0325L80.0767 35.6625C80.0767 34.425 79.0642 33.4125 77.8267 33.4125L49.7467 33.3675C49.1392 33.3675 48.5767 33.5925 48.1492 34.02C47.7217 34.4475 47.4967 35.01 47.4967 35.6175L47.4742 52.9875Z" fill="#020064"/>
<path d="M77.8034 57.8025C79.2884 57.8025 80.5034 56.5875 80.5034 55.1025V53.4825L47.0234 53.4375V55.0575C47.0234 56.5425 48.2384 57.7575 49.7234 57.7575L77.8034 57.8025Z" fill="white"/>
<path d="M77.8042 58.2525L49.7242 58.2076C47.9917 58.2076 46.5742 56.79 46.5742 55.0575V53.4375C46.5742 53.325 46.6192 53.2126 46.7092 53.1226C46.7992 53.0326 46.9117 52.9875 47.0242 52.9875L80.5042 53.0325C80.7517 53.0325 80.9542 53.235 80.9542 53.4825V55.1025C80.9542 56.8575 79.5367 58.2525 77.8042 58.2525ZM47.4742 53.8875V55.0575C47.4742 56.295 48.4867 57.3075 49.7242 57.3075L77.8042 57.3525C79.0417 57.3525 80.0542 56.34 80.0542 55.1025V53.9325L47.4742 53.8875Z" fill="#020064"/>
<path d="M63.7652 56.52C63.2702 56.52 62.8652 56.115 62.8652 55.62C62.8652 55.125 63.2702 54.72 63.7652 54.72C64.2602 54.72 64.6652 55.125 64.6652 55.62C64.6652 56.115 64.2602 56.52 63.7652 56.52Z" fill="#020064"/>
<path d="M23.8281 60.9525V57.7125H29.2281V60.9525H23.8281Z" fill="white"/>
<path d="M29.227 61.425H23.827C23.5795 61.425 23.377 61.2225 23.377 60.975V57.735C23.377 57.6225 23.422 57.51 23.512 57.42C23.602 57.33 23.7145 57.285 23.827 57.285H29.227C29.4745 57.285 29.677 57.4875 29.677 57.735V60.975C29.677 61.0875 29.632 61.2 29.542 61.29C29.452 61.38 29.3395 61.425 29.227 61.425ZM24.277 60.5025H28.777V58.1625H24.277V60.5025Z" fill="#020064"/>
<path d="M33.5459 63.1349L19.5059 63.1124C19.5059 61.9199 20.4734 60.9524 21.6659 60.9524L31.3859 60.9749C32.5784 60.9749 33.5459 61.9424 33.5459 63.1349Z" fill="white"/>
<path d="M33.5466 63.5849L19.5066 63.5624C19.2591 63.5624 19.0566 63.3599 19.0566 63.1124C19.0566 61.6724 20.2266 60.5024 21.6666 60.5024L31.3866 60.5249C32.8266 60.5249 33.9966 61.6949 33.9966 63.1349C33.9966 63.2474 33.9516 63.3824 33.8616 63.4499C33.7716 63.5399 33.6591 63.5849 33.5466 63.5849ZM20.0241 62.6624L33.0516 62.6849C32.8491 61.9649 32.1966 61.4249 31.4091 61.4249L21.6891 61.4024C20.8791 61.4024 20.2041 61.9424 20.0241 62.6624Z" fill="#020064"/>
<path d="M40.613 32.9176L12.533 32.8726C11.048 32.8726 9.83305 34.0876 9.83305 35.5726L9.81055 53.3926L43.2905 53.4376L43.313 35.6176C43.313 34.1326 42.1205 32.9176 40.613 32.9176Z" fill="#B0D9FF"/>
<path d="M43.2894 53.8875L9.80938 53.8425C9.56188 53.8425 9.35938 53.64 9.35938 53.3925L9.38188 35.5725C9.38188 33.84 10.7994 32.4225 12.5319 32.4225L40.6119 32.4675C41.4444 32.4675 42.2544 32.805 42.8394 33.39C43.4244 33.975 43.7619 34.785 43.7619 35.6175L43.7394 53.4375C43.7394 53.55 43.6944 53.6625 43.6044 53.7525C43.5144 53.8425 43.4019 53.8875 43.2894 53.8875ZM10.2594 52.92L42.8394 52.965L42.8619 35.595C42.8619 34.9875 42.6369 34.425 42.2094 33.9975C41.7819 33.57 41.2194 33.345 40.6119 33.345L12.5319 33.3C11.2944 33.3 10.2819 34.3125 10.2819 35.55L10.2594 52.92Z" fill="#020064"/>
<path d="M40.5671 57.7575C42.0521 57.7575 43.2671 56.5425 43.2671 55.0575V53.4375L9.78711 53.3925V55.0125C9.78711 56.4975 11.0021 57.7125 12.4871 57.7125L40.5671 57.7575Z" fill="white"/>
<path d="M40.5679 58.2075L12.4879 58.1625C10.7554 58.1625 9.33789 56.745 9.33789 55.0125V53.3925C9.33789 53.28 9.38289 53.1675 9.47289 53.0775C9.56289 52.9875 9.67539 52.9425 9.78789 52.9425L43.2679 52.9875C43.5154 52.9875 43.7179 53.19 43.7179 53.4375V55.0575C43.7179 56.79 42.3004 58.2075 40.5679 58.2075ZM10.2379 53.82V54.99C10.2379 56.2275 11.2504 57.24 12.4879 57.24L40.5679 57.285C41.8054 57.285 42.8179 56.2725 42.8179 55.035V53.865L10.2379 53.82Z" fill="#020064"/>
<path d="M26.527 56.475C26.032 56.475 25.627 56.07 25.627 55.575C25.627 55.08 26.032 54.675 26.527 54.675C27.022 54.675 27.427 55.08 27.427 55.575C27.427 56.07 27.022 56.475 26.527 56.475Z" fill="#020064"/>
<path d="M44.7066 45.3825C45.1566 45.6525 45.7416 45.6525 46.1916 45.3825C49.3866 43.4925 61.7166 35.55 61.7391 25.245L61.7616 15.5475C61.7616 14.94 61.3791 14.4 60.7941 14.175C55.1241 12.1275 50.1966 10.395 46.1241 6.99745C45.7641 6.70495 45.2466 6.70495 44.9091 6.99745C40.8366 10.3725 35.9091 12.0825 30.2166 14.13C29.6541 14.3325 29.2716 14.8725 29.2491 15.5025L29.2266 25.2C29.2041 35.505 41.5341 43.4925 44.7066 45.3825Z" fill="white"/>
<path d="M44.8877 40.8375C45.2477 41.04 45.6752 41.04 46.0352 40.8375C48.4652 39.3975 57.9152 33.3225 57.9152 25.4475L57.9377 18.0225C57.9377 17.55 57.6452 17.145 57.1952 16.9875C52.9202 15.435 49.1852 14.13 46.1252 11.61C45.7652 11.3175 45.2702 11.3175 44.9102 11.61C41.8277 14.1075 38.0927 15.4125 33.8177 16.9425C33.3677 17.1 33.0752 17.5275 33.0752 17.9775L33.0527 25.4025C33.0527 33.2775 42.4577 39.375 44.8877 40.8375Z" fill="#B0D9FF"/>
<path d="M45.4509 46.035C45.1134 46.035 44.7759 45.945 44.4834 45.765C42.9534 44.8425 38.9934 42.3225 35.4609 38.745C31.0284 34.245 28.7784 29.6775 28.8009 25.1775L28.8234 15.48C28.8234 14.6925 29.3409 13.9725 30.0834 13.7025L30.5559 13.545C36.0234 11.5875 40.7484 9.89998 44.6409 6.65998C45.1584 6.23248 45.9234 6.23248 46.4409 6.65998C50.3334 9.89998 55.0584 11.61 60.5259 13.59L60.9759 13.7475C61.7184 14.0175 62.236 14.7375 62.236 15.5475L62.2134 25.245C62.2134 29.745 59.9409 34.3125 55.5084 38.79C51.9534 42.3675 47.9934 44.865 46.4634 45.765C46.1259 45.945 45.7884 46.035 45.4509 46.035ZM45.5184 7.24498C45.4059 7.24498 45.2934 7.28998 45.2034 7.35748C41.1759 10.6875 36.3834 12.3975 30.8259 14.4L30.3759 14.5575C29.9934 14.6925 29.7234 15.075 29.7234 15.5025L29.7009 25.2C29.7009 29.4525 31.8609 33.8175 36.1134 38.1375C39.5784 41.6475 43.4484 44.1 44.9559 45C45.2709 45.18 45.6759 45.18 45.9909 45C48.5559 43.4925 61.2909 35.46 61.3134 25.245L61.3359 15.5475C61.3359 15.12 61.066 14.7375 60.6835 14.6025L60.2335 14.445C54.676 12.4425 49.8834 10.71 45.8784 7.35748C45.7434 7.26748 45.6309 7.24498 45.5184 7.24498Z" fill="#020064"/>
<path d="M45.4716 41.4449C45.2016 41.4449 44.9091 41.3774 44.6616 41.2199C43.4916 40.5224 40.4541 38.5874 37.7316 35.8424C34.3116 32.3774 32.6016 28.8674 32.6016 25.4024L32.6241 17.9774C32.6241 17.3249 33.0516 16.7399 33.6591 16.5149L33.9966 16.3799C38.1141 14.8949 41.6691 13.6349 44.6166 11.2499C45.1341 10.8224 45.8766 10.8224 46.3941 11.2499C49.3416 13.6574 52.8741 14.9399 56.9916 16.4249L57.3291 16.5599C57.9366 16.7849 58.3641 17.3699 58.3641 18.0224L58.3416 25.4474C58.3416 28.9124 56.6091 32.4224 53.1891 35.8874C50.4666 38.6324 47.4291 40.5449 46.2366 41.2424C46.0116 41.3549 45.7416 41.4449 45.4716 41.4449ZM45.4941 11.8349C45.3816 11.8349 45.2691 11.8799 45.1791 11.9474C42.1191 14.4224 38.4966 15.7274 34.2891 17.2349L33.9516 17.3474C33.6816 17.4374 33.5241 17.6849 33.5016 17.9774L33.4791 25.4024C33.4791 33.1424 43.1541 39.2849 45.0891 40.4549C45.2916 40.5899 45.5616 40.5899 45.7641 40.4549C47.7216 39.3074 57.4191 33.1874 57.4191 25.4474L57.4416 18.0224C57.4416 17.7524 57.2616 17.5049 57.0141 17.3924L56.6766 17.2574C52.4916 15.7499 48.8691 14.4224 45.8091 11.9474C45.7416 11.8799 45.6291 11.8349 45.4941 11.8349Z" fill="#020064"/>
<path d="M43.4695 31.3425C43.0195 31.3425 42.5695 31.1625 42.2545 30.825L38.7895 27.36C38.1145 26.685 38.1145 25.5825 38.7895 24.9075C39.4645 24.2325 40.567 24.2325 41.242 24.9075C41.242 24.9075 41.242 24.9075 41.2645 24.93L43.492 27.18L50.557 20.1375C51.232 19.4625 52.3345 19.4625 53.0095 20.1375C53.6845 20.8125 53.6845 21.915 53.0095 22.59L44.7295 30.8475C44.392 31.1625 43.942 31.3425 43.4695 31.3425Z" fill="white"/>
<path d="M43.4923 31.7925C42.9073 31.7925 42.3448 31.5675 41.9398 31.14L38.4748 27.6975C38.0698 27.2925 37.8448 26.7525 37.8223 26.1675C37.8223 25.5825 38.0473 25.0425 38.4523 24.615C39.3073 23.76 40.6798 23.76 41.5348 24.615L41.5573 24.6375L43.4698 26.55L50.2198 19.8225C51.0748 18.9675 52.4473 18.9675 53.3023 19.8225C53.7073 20.2275 53.9323 20.79 53.9323 21.375C53.9323 21.96 53.7073 22.5 53.2798 22.905L44.9998 31.1625C44.6173 31.5675 44.0548 31.7925 43.4923 31.7925ZM40.0273 24.8625C39.6898 24.8625 39.3748 24.9975 39.1273 25.245C38.6323 25.74 38.6323 26.55 39.1273 27.045L42.5923 30.51C42.8398 30.7575 43.1548 30.8925 43.4923 30.8925C43.8298 30.8925 44.1448 30.7575 44.3923 30.51L52.6723 22.275C52.9198 22.0275 53.0548 21.7125 53.0548 21.375C53.0548 21.0375 52.9198 20.7 52.6723 20.475C52.1773 19.98 51.3673 19.98 50.8498 20.475L43.7848 27.5175C43.6948 27.6075 43.5823 27.6525 43.4698 27.6525C43.3573 27.6525 43.2448 27.6075 43.1548 27.5175L40.9273 25.2675C40.6798 24.9975 40.3423 24.8625 40.0273 24.8625Z" fill="#020064"/>
<path d="M44.9784 79.5375C52.6959 79.56 58.9509 78.8625 58.9509 78.0075C58.9509 77.1525 52.6959 76.455 44.9784 76.4325C37.2609 76.41 31.0059 77.1075 31.0059 77.9625C31.0059 78.8175 37.2609 79.5375 44.9784 79.5375Z" fill="#B0D9FF"/>
<path d="M62.3925 54.27C62.3925 52.9425 61.3125 51.8625 60.0075 51.8625L29.9925 51.8175C28.665 51.8175 27.585 52.8975 27.585 54.225L27.5625 72.225L62.37 72.27L62.3925 54.27Z" fill="white"/>
<path d="M62.3708 72.7201L27.5633 72.6751C27.3158 72.6751 27.1133 72.4726 27.1133 72.2251L27.1358 54.2251C27.1358 52.6501 28.4183 51.3676 29.9933 51.3676L60.0083 51.4126C61.5833 51.4126 62.8658 52.6951 62.8433 54.2701L62.8208 72.2701C62.8208 72.5176 62.6183 72.7201 62.3708 72.7201ZM28.0133 71.7751L61.9208 71.8201L61.9433 54.2701C61.9433 53.1901 61.0658 52.3126 59.9858 52.3126L29.9708 52.2676C28.8908 52.2676 28.0133 53.1451 28.0133 54.2251V71.7751Z" fill="#020064"/>
<path d="M59.3331 72.27L30.5781 72.225L30.6006 55.2375C30.6006 54.945 30.8256 54.72 31.1181 54.72L58.8381 54.765C59.1306 54.765 59.3556 54.99 59.3556 55.2825L59.3331 72.27Z" fill="#B0D9FF"/>
<path d="M57.9604 77.0625L31.9279 77.0175C29.4979 77.0175 27.2479 75.78 25.9204 73.755C25.6279 73.2825 25.7404 72.675 26.2129 72.36C26.3704 72.2475 26.5729 72.2025 26.7529 72.2025L63.1354 72.27C63.6979 72.27 64.1254 72.72 64.1254 73.2825C64.1254 73.485 64.0579 73.665 63.9679 73.8225C62.6629 75.8475 60.3904 77.085 57.9604 77.0625Z" fill="white"/>
<path d="M59.332 72.7201L30.577 72.6751C30.3295 72.6751 30.127 72.4726 30.127 72.2251L30.1495 55.2376C30.1495 54.9676 30.262 54.7426 30.442 54.5401C30.622 54.3601 30.8695 54.2476 31.117 54.2476L58.837 54.2926C59.107 54.2926 59.332 54.4051 59.5345 54.5851C59.7145 54.7651 59.827 55.0126 59.827 55.2826L59.8045 72.2701C59.8045 72.3826 59.7595 72.4951 59.6695 72.5851C59.5795 72.6751 59.467 72.7201 59.332 72.7201ZM31.027 71.7751L58.882 71.8201L58.9045 55.2826C58.9045 55.2601 58.9045 55.2376 58.882 55.2376C58.8595 55.2376 58.8595 55.2151 58.837 55.2151L31.117 55.1701C31.0945 55.1701 31.072 55.1701 31.072 55.1926C31.072 55.1926 31.0495 55.2151 31.0495 55.2376L31.027 71.7751Z" fill="#020064"/>
<path d="M33.7285 68.6699V62.6174L56.1835 62.6624V68.7149L33.7285 68.6699Z" fill="white"/>
<path d="M56.2058 69.165L33.7508 69.12C33.5033 69.12 33.3008 68.9175 33.3008 68.67V62.6175C33.3008 62.505 33.3458 62.3925 33.4358 62.3025C33.5258 62.2125 33.6383 62.1675 33.7508 62.1675L56.2058 62.2125C56.4533 62.2125 56.6558 62.415 56.6558 62.6625V68.715C56.6558 68.8275 56.6108 68.94 56.5208 69.03C56.4308 69.12 56.3183 69.165 56.2058 69.165ZM34.1783 68.22L55.7333 68.265V63.1125L34.1783 63.0675V68.22Z" fill="#020064"/>
<path d="M35.459 65.655C35.459 66.375 36.044 66.96 36.764 66.96C37.484 66.96 38.069 66.375 38.069 65.655C38.069 64.935 37.484 64.35 36.764 64.35C36.044 64.35 35.459 64.935 35.459 65.655Z" fill="#B0D9FF"/>
<path d="M36.7648 67.3874C35.7973 67.3874 35.0098 66.5999 35.0098 65.6324C35.0098 64.6649 35.7973 63.8774 36.7648 63.8774C37.7323 63.8774 38.5198 64.6649 38.5198 65.6324C38.4973 66.6224 37.7323 67.3874 36.7648 67.3874ZM36.7648 64.7999C36.2923 64.7999 35.9098 65.1824 35.9098 65.6549C35.9098 66.1274 36.2923 66.5099 36.7648 66.5099C37.2373 66.5099 37.6198 66.1274 37.6198 65.6549C37.6198 65.1824 37.2373 64.7999 36.7648 64.7999Z" fill="#020064"/>
<path d="M39.7793 65.655C39.7793 66.375 40.3643 66.96 41.0843 66.96C41.8043 66.96 42.3893 66.375 42.3893 65.655C42.3893 64.935 41.8043 64.35 41.0843 64.35C40.3643 64.35 39.7793 64.935 39.7793 65.655Z" fill="#B0D9FF"/>
<path d="M41.0851 67.41C40.1176 67.41 39.3301 66.6225 39.3301 65.655C39.3301 65.1825 39.5101 64.755 39.8476 64.4175C40.1851 64.08 40.6126 63.9 41.0851 63.9C41.5576 63.9 41.9851 64.08 42.3226 64.4175C42.6601 64.755 42.8401 65.1825 42.8401 65.655C42.8176 66.6225 42.0526 67.41 41.0851 67.41ZM41.0851 64.8C40.8601 64.8 40.6576 64.89 40.4776 65.0475C40.3201 65.205 40.2301 65.43 40.2301 65.655C40.2301 66.1275 40.6126 66.51 41.0851 66.51C41.5576 66.51 41.9401 66.1275 41.9401 65.655C41.9401 65.43 41.8501 65.205 41.6926 65.0475C41.5126 64.89 41.3101 64.8 41.0851 64.8Z" fill="#020064"/>
<path d="M44.0996 65.655C44.0996 66.375 44.6846 66.96 45.4046 66.96C46.1246 66.96 46.7096 66.375 46.7096 65.655C46.7096 64.935 46.1246 64.35 45.4046 64.35C44.6846 64.3725 44.0996 64.9575 44.0996 65.655Z" fill="#B0D9FF"/>
<path d="M45.4054 67.41C44.4379 67.41 43.6504 66.6225 43.6504 65.655C43.6504 64.6875 44.4379 63.9 45.4054 63.9C46.3729 63.9 47.1604 64.6875 47.1604 65.655C47.1604 66.6225 46.3729 67.41 45.4054 67.41ZM45.4054 64.8225C44.9329 64.8225 44.5504 65.205 44.5504 65.6775C44.5504 66.15 44.9329 66.5325 45.4054 66.5325C45.8779 66.5325 46.2604 66.15 46.2604 65.6775C46.2604 65.205 45.8779 64.8225 45.4054 64.8225Z" fill="#020064"/>
<path d="M50.1534 66.1275H48.8484C48.6009 66.1275 48.3984 65.925 48.3984 65.6775C48.3984 65.43 48.6009 65.2275 48.8484 65.2275H50.1534C50.4009 65.2275 50.6034 65.43 50.6034 65.6775C50.6034 65.925 50.4009 66.1275 50.1534 66.1275Z" fill="#020064"/>
<path d="M54.0441 66.1275H52.7391C52.4916 66.1275 52.2891 65.925 52.2891 65.6775C52.2891 65.43 52.4916 65.2275 52.7391 65.2275H54.0441C54.2916 65.2275 54.4941 65.43 54.4941 65.6775C54.4941 65.925 54.2916 66.1275 54.0441 66.1275Z" fill="#020064"/>
<path d="M58.0056 77.5124H57.9831L31.9506 77.4674C29.3631 77.4674 26.9781 76.1624 25.5831 74.0024C25.3806 73.6874 25.2906 73.2824 25.3806 72.9224C25.4706 72.5399 25.6731 72.2249 26.0106 71.9999C26.2356 71.8424 26.5281 71.7524 26.7981 71.7524L63.1806 71.8199C63.5631 71.8199 63.9231 71.9774 64.2156 72.2474C64.4856 72.5174 64.6431 72.8774 64.6431 73.2824C64.6431 73.5749 64.5531 73.8449 64.3956 74.0699C62.9556 76.2299 60.5706 77.5124 58.0056 77.5124ZM31.9281 76.5674L57.9606 76.6124H57.9831C60.2556 76.6124 62.3481 75.4874 63.5856 73.5749C63.6531 73.4849 63.6756 73.3724 63.6756 73.2824C63.6756 72.9674 63.4281 72.7199 63.1356 72.7199L26.7756 72.6749C26.6631 72.6749 26.5731 72.6974 26.4831 72.7649C26.3706 72.8549 26.2806 72.9674 26.2356 73.1024C26.2131 73.2374 26.2356 73.3949 26.3031 73.5074C27.5406 75.4424 29.6556 76.5674 31.9281 76.5674Z" fill="#020064"/>
</svg>
