<svg width="90" height="90" viewBox="0 0 90 90" fill="none" xmlns="http://www.w3.org/2000/svg">
<path d="M43.9206 80.4825C63.7206 80.4825 79.7631 64.44 79.7631 44.64C79.7631 24.84 63.7206 8.79749 43.9206 8.79749C24.1206 8.79749 8.07812 24.84 8.07812 44.64C8.07812 64.44 24.1206 80.4825 43.9206 80.4825Z" fill="#D9EDFF"/>
<path d="M9.31437 52.1326C9.24687 52.1326 9.20187 52.1101 9.13437 52.0876C8.90937 51.9976 8.79687 51.7276 8.90937 51.5026L21.2619 23.6476C21.3519 23.4226 21.6219 23.3101 21.8469 23.4226C22.0719 23.5126 22.1844 23.7826 22.0719 24.0076L9.71937 51.8626C9.65187 52.0426 9.47187 52.1326 9.31437 52.1326Z" fill="#020064"/>
<path d="M32.9852 70.5375C32.8952 70.5375 32.7827 70.515 32.7152 70.4475L9.02275 52.0425C8.82025 51.885 8.79775 51.615 8.93275 51.4125C9.09025 51.21 9.36025 51.1875 9.56275 51.3225L33.2552 69.7275C33.4577 69.885 33.4802 70.155 33.3452 70.3575C33.2552 70.47 33.1202 70.5375 32.9852 70.5375Z" fill="#020064"/>
<path d="M21.6667 24.2775C21.4642 24.2775 21.2617 24.1425 21.2167 23.9175C21.1717 23.67 21.3292 23.445 21.5542 23.3775L53.6842 16.5375C53.9317 16.4925 54.1567 16.65 54.2242 16.875C54.2917 17.1 54.1117 17.3475 53.8867 17.415L21.7567 24.255C21.7342 24.2775 21.6892 24.2775 21.6667 24.2775Z" fill="#020064"/>
<path d="M69.9534 42.975C69.7959 42.975 69.6609 42.9075 69.5709 42.7725L53.4159 17.235C53.2809 17.0325 53.3484 16.74 53.5509 16.605C53.7534 16.47 54.0459 16.5375 54.1809 16.74L70.3359 42.3C70.4709 42.5025 70.4034 42.795 70.2009 42.93C70.1109 42.9525 70.0434 42.975 69.9534 42.975Z" fill="#020064"/>
<path d="M9.31518 52.1324C9.09018 52.1324 8.88768 51.9524 8.86518 51.7274C8.84268 51.4799 9.02268 51.2549 9.27018 51.2324L43.6052 47.9699L69.8627 42.0974C70.1102 42.0524 70.3352 42.1874 70.4027 42.4349C70.4477 42.6824 70.3127 42.9074 70.0652 42.9749L43.7852 48.8474C43.7627 48.8474 43.7402 48.8474 43.7402 48.8474L9.36018 52.1324C9.33768 52.1324 9.31518 52.1324 9.31518 52.1324Z" fill="#020064"/>
<path d="M32.9843 70.5375C32.7818 70.5375 32.6018 70.4025 32.5568 70.2L21.2168 23.94C21.1493 23.6925 21.3068 23.445 21.5543 23.4C21.8018 23.3325 22.0493 23.49 22.0943 23.7375L33.4343 69.975C33.5018 70.2225 33.3443 70.47 33.0968 70.5149C33.0743 70.5375 33.0293 70.5375 32.9843 70.5375Z" fill="#020064"/>
<path d="M43.6734 48.8699C43.6284 48.8699 43.5834 48.8699 43.5384 48.8474C43.2909 48.7799 43.1784 48.5099 43.2459 48.2849L53.3709 16.8524C53.4384 16.6049 53.7084 16.4924 53.9334 16.5599C54.1809 16.6274 54.2934 16.8974 54.2259 17.1224L44.1009 48.5549C44.0334 48.7349 43.8534 48.8699 43.6734 48.8699Z" fill="#020064"/>
<path d="M57.6673 64.53C57.5548 64.53 57.4198 64.485 57.3298 64.3725L21.3298 24.12C21.1723 23.94 21.1723 23.6475 21.3748 23.49C21.5548 23.3325 21.8473 23.3325 22.0048 23.535L58.0273 63.7875C58.1848 63.9675 58.1848 64.26 57.9823 64.4175C57.8923 64.485 57.7798 64.53 57.6673 64.53Z" fill="#020064"/>
<path d="M32.9842 70.5375C32.7817 70.5375 32.6017 70.4025 32.5567 70.2C32.4892 69.9525 32.6467 69.705 32.8942 69.66L57.5767 63.6525C57.8242 63.585 58.0717 63.7425 58.1167 63.99C58.1842 64.2375 58.0267 64.485 57.7792 64.53L33.0967 70.5375C33.0742 70.5375 33.0292 70.5375 32.9842 70.5375Z" fill="#020064"/>
<path d="M9.31567 52.1325C9.18067 52.1325 9.04567 52.065 8.95567 51.9525C8.79817 51.75 8.84316 51.48 9.02316 51.3225L53.5057 16.6275C53.7082 16.47 53.9782 16.515 54.1357 16.695C54.2932 16.8975 54.2482 17.1675 54.0682 17.325L9.58566 52.0425C9.49566 52.11 9.40567 52.1325 9.31567 52.1325Z" fill="#020064"/>
<path d="M10.3267 59.9174C15.7717 59.9174 20.2042 55.4849 20.2042 50.0399C20.2042 44.5949 15.7717 40.1624 10.3267 40.1624C4.88172 40.1399 0.449219 44.5724 0.449219 50.0174C0.449219 55.4624 4.88172 59.9174 10.3267 59.9174Z" fill="white"/>
<path d="M10.3275 60.3674C4.635 60.3674 0 55.7324 0 50.0174C0 44.3249 4.635 39.6899 10.3275 39.6899C16.02 39.6899 20.655 44.3249 20.655 50.0174C20.655 55.7324 16.02 60.3674 10.3275 60.3674ZM10.3275 40.5899C5.13 40.5899 0.9 44.8199 0.9 50.0174C0.9 55.2149 5.13 59.4449 10.3275 59.4449C15.525 59.4449 19.755 55.2149 19.755 50.0174C19.755 44.8199 15.525 40.5899 10.3275 40.5899Z" fill="#020064"/>
<path d="M15.5926 52.5376C15.5926 52.3126 15.5251 52.1101 15.3676 51.9526C15.2326 51.7951 15.0301 51.6826 14.8276 51.6376V51.0301C14.8276 50.4226 14.7151 49.8376 14.5126 49.2751C14.2876 48.7126 13.9501 48.2176 13.5451 47.7901C13.1176 47.3626 12.6226 47.0251 12.0601 46.8001C11.4976 46.5751 10.9126 46.4401 10.3051 46.4401C9.69758 46.4401 9.11258 46.5526 8.55008 46.8001C7.98758 47.0251 7.49258 47.3626 7.06508 47.7901C6.63758 48.2176 6.32258 48.7126 6.09758 49.2751C5.87258 49.8376 5.76008 50.4226 5.78258 51.0301V51.6376C5.55758 51.6826 5.35508 51.7951 5.22008 51.9751C5.08508 52.1551 5.01758 52.3801 5.01758 52.6051C5.04008 52.8301 5.13008 53.0326 5.28758 53.1901C5.44508 53.3476 5.64758 53.4376 5.87258 53.4601C6.07508 54.4726 6.63758 55.3951 7.44758 56.0476C8.25758 56.7001 9.27008 57.0601 10.3051 57.0601C11.3401 57.0601 12.3526 56.7001 13.1626 56.0476C13.9726 55.3951 14.5351 54.4726 14.7376 53.4601C14.9626 53.4376 15.1876 53.3251 15.3451 53.1676C15.5026 53.0101 15.5926 52.7851 15.5926 52.5376Z" fill="white"/>
<path d="M10.3272 57.51C9.17971 57.51 8.07721 57.105 7.19971 56.385C6.38971 55.7325 5.80471 54.8325 5.53471 53.82C5.33221 53.7525 5.15221 53.64 4.99471 53.4825C4.76971 53.235 4.63471 52.92 4.61221 52.605C4.58971 52.2675 4.70221 51.9525 4.90471 51.6825C5.03971 51.525 5.19721 51.39 5.35471 51.3V51.0075C5.35471 50.355 5.46721 49.7025 5.71471 49.095C5.96221 48.4875 6.32221 47.925 6.79471 47.4525C7.26721 46.98 7.80721 46.62 8.41471 46.35C9.62971 45.8325 11.0247 45.8325 12.2622 46.35C12.8697 46.5975 13.4097 46.98 13.8822 47.4525C14.3547 47.925 14.7147 48.465 14.9622 49.095C15.2097 49.7025 15.3222 50.355 15.3222 51.03V51.3C15.4797 51.39 15.6372 51.5025 15.7497 51.6375C15.9522 51.885 16.0647 52.2 16.0647 52.515C16.0647 52.8525 15.9297 53.19 15.7047 53.4375C15.5472 53.6175 15.3672 53.73 15.1422 53.7975C14.8722 54.81 14.2872 55.71 13.4772 56.3625C12.5772 57.1275 11.4747 57.51 10.3272 57.51ZM10.3272 46.89C9.78721 46.89 9.24721 47.0025 8.75221 47.205C8.25721 47.4075 7.80721 47.7225 7.42471 48.105C7.04221 48.4875 6.74971 48.9375 6.54721 49.455C6.34471 49.95 6.25471 50.49 6.25471 51.03V51.6375C6.25471 51.8625 6.09721 52.0425 5.89471 52.0875C5.78221 52.11 5.66971 52.1775 5.60221 52.2675C5.53471 52.3575 5.48971 52.47 5.51221 52.5825C5.51221 52.695 5.55721 52.8075 5.64721 52.8975C5.73721 52.9875 5.82721 53.0325 5.93971 53.0325C6.14221 53.055 6.29971 53.19 6.34471 53.3925C6.52471 54.315 7.04221 55.125 7.76221 55.7325C8.48221 56.3175 9.40471 56.655 10.3272 56.655C11.2497 56.655 12.1722 56.34 12.8922 55.7325C13.6122 55.1475 14.1297 54.315 14.3097 53.3925C14.3547 53.19 14.5122 53.055 14.7147 53.0325C14.8272 53.0325 14.9397 52.965 15.0297 52.875C15.1197 52.785 15.1647 52.6725 15.1647 52.56C15.1647 52.4475 15.1197 52.335 15.0522 52.2675C14.9847 52.1775 14.8722 52.1325 14.7822 52.11C14.5797 52.065 14.4222 51.885 14.4222 51.66V51.0525C14.4222 50.5125 14.3322 49.9725 14.1297 49.4775C13.9272 48.9825 13.6347 48.5325 13.2522 48.1275C12.8697 47.745 12.4197 47.43 11.9247 47.2275C11.4297 47.025 10.8672 46.89 10.3272 46.89Z" fill="#020064"/>
<path d="M7.875 53.6851C8.19 53.6851 8.4375 53.4376 8.4375 53.1226C8.4375 52.8076 8.19 52.5601 7.875 52.5601C7.56 52.5601 7.3125 52.8076 7.3125 53.1226C7.3125 53.4151 7.56 53.6851 7.875 53.6851Z" fill="#B0D9FF"/>
<path d="M12.7793 53.6851C13.0943 53.6851 13.3418 53.4376 13.3418 53.1226C13.3418 52.8076 13.0943 52.5601 12.7793 52.5601C12.4643 52.5601 12.2168 52.8076 12.2168 53.1226C12.2168 53.4151 12.4643 53.6851 12.7793 53.6851Z" fill="#B0D9FF"/>
<path d="M10.3277 55.26C9.83274 55.26 9.36023 55.125 8.95523 54.8325C8.75273 54.6975 8.68524 54.405 8.82024 54.2025C8.95524 54 9.24773 53.9325 9.45023 54.0675C9.96773 54.4275 10.6877 54.4275 11.2052 54.0675C11.4077 53.9325 11.7002 53.9775 11.8352 54.2025C11.9702 54.405 11.9252 54.6975 11.7002 54.8325C11.2952 55.1025 10.8227 55.26 10.3277 55.26Z" fill="#020064"/>
<path d="M15.2319 49.905C15.2319 49.2525 15.1194 48.6225 14.8719 48.015C14.6244 47.4075 14.2644 46.8675 13.8144 46.395C13.3644 45.9225 12.8244 45.5625 12.2169 45.315C11.6094 45.0675 10.9794 44.9325 10.3269 44.9325C9.67438 44.9325 9.04437 45.0675 8.43687 45.315C7.82937 45.5625 7.28937 45.9225 6.83937 46.395C6.38937 46.8675 6.02938 47.4075 5.78188 48.015C5.53438 48.6225 5.42188 49.2525 5.42188 49.905V51.03C5.42188 51.12 5.46687 51.2325 5.53437 51.3C5.60187 51.3675 5.69187 51.4125 5.80437 51.4125H6.56938C6.65938 51.4125 6.77187 51.3675 6.83937 51.3C6.90687 51.2325 6.95187 51.1425 6.95187 51.03C6.95187 50.58 7.04187 50.13 7.22187 49.725C7.40187 49.32 7.64937 48.9375 7.98687 48.6225C8.07687 48.5325 8.16687 48.4875 8.27937 48.4425C8.39187 48.3975 8.50437 48.3975 8.61687 48.42C9.08937 48.4875 9.53938 48.69 9.87687 49.0275C10.3269 49.4775 10.9119 49.7925 11.5419 49.86C12.1719 49.95 12.8244 49.815 13.3644 49.4775C13.5444 49.8375 13.6794 50.2425 13.7244 50.6475C13.7244 50.7375 13.7919 50.8275 13.8594 50.895C13.9269 50.9625 14.0169 51.0075 14.1294 51.0075H14.8494C14.9394 51.0075 15.0519 50.9625 15.1194 50.895C15.1869 50.8275 15.2319 50.7375 15.2319 50.625V49.905Z" fill="white"/>
<path d="M6.57016 51.8625H5.80516C5.58016 51.8625 5.37766 51.7725 5.22016 51.615C5.06266 51.4575 4.97266 51.255 4.97266 51.03V49.905C4.97266 49.2075 5.08516 48.51 5.35516 47.835C5.62516 47.1825 6.00766 46.575 6.50266 46.08C6.99766 45.5625 7.58266 45.18 8.25766 44.91C9.56266 44.37 11.0702 44.37 12.3752 44.91C13.0277 45.18 13.6127 45.585 14.1302 46.08C14.6477 46.575 15.0302 47.1825 15.2777 47.835C15.5477 48.4875 15.6827 49.185 15.6602 49.905V50.6475C15.6602 50.8725 15.5702 51.075 15.4127 51.2325C15.2552 51.39 15.0527 51.48 14.8277 51.48H14.0627C13.8602 51.48 13.6577 51.39 13.5002 51.255C13.3427 51.12 13.2527 50.9175 13.2302 50.715C13.2077 50.5125 13.1627 50.31 13.0952 50.1075C12.5777 50.31 11.9927 50.4 11.4302 50.31C10.6877 50.22 10.0127 49.86 9.49516 49.3425C9.22516 49.0725 8.88766 48.915 8.50516 48.8475C8.46016 48.8475 8.41516 48.8475 8.37016 48.8475C8.32516 48.87 8.28016 48.8925 8.25766 48.915C7.96516 49.185 7.76266 49.5 7.60516 49.86C7.44766 50.22 7.38016 50.6025 7.38016 50.985C7.38016 51.21 7.29016 51.4125 7.13266 51.57C6.99766 51.7725 6.77266 51.8625 6.57016 51.8625ZM5.87266 50.9625H6.48016C6.48016 50.4675 6.59266 49.995 6.77266 49.545C6.97516 49.0725 7.26766 48.645 7.62766 48.3075C7.76266 48.1725 7.92016 48.0825 8.10016 48.015C8.28016 47.9475 8.46016 47.9475 8.64016 47.97C9.20266 48.0375 9.74266 48.3075 10.1477 48.7125C10.5302 49.095 11.0252 49.3425 11.5652 49.4325C12.1052 49.5 12.6452 49.3875 13.0952 49.1175C13.2077 49.05 13.3202 49.0275 13.4552 49.0725C13.5677 49.1175 13.6802 49.185 13.7252 49.2975C13.9277 49.7025 14.0627 50.13 14.1302 50.58H14.7602V49.905C14.7602 49.32 14.6702 48.735 14.4452 48.1725C14.2202 47.6325 13.9052 47.1375 13.4777 46.71C13.0502 46.2825 12.5777 45.9675 12.0152 45.72C10.9127 45.27 9.67516 45.27 8.57266 45.72C8.03266 45.945 7.53766 46.2825 7.13266 46.71C6.70516 47.1375 6.39016 47.6325 6.16516 48.1725C5.94016 48.7125 5.82766 49.2975 5.85016 49.905V50.9625H5.87266Z" fill="#020064"/>
<path d="M6.57016 51.8625H5.80516C5.58016 51.8625 5.37766 51.7725 5.22016 51.615C5.06266 51.4575 4.97266 51.255 4.97266 51.03V49.905C4.97266 49.2075 5.08516 48.51 5.35516 47.835C5.62516 47.1825 6.00766 46.575 6.50266 46.08C6.99766 45.5625 7.58266 45.18 8.25766 44.91C9.56266 44.37 11.0702 44.37 12.3752 44.91C13.0277 45.18 13.6127 45.585 14.1302 46.08C14.6477 46.575 15.0302 47.1825 15.2777 47.835C15.5477 48.4875 15.6827 49.185 15.6602 49.905V50.6475C15.6602 50.8725 15.5702 51.075 15.4127 51.2325C15.2552 51.39 15.0527 51.48 14.8277 51.48H14.0627C13.8602 51.48 13.6577 51.39 13.5002 51.255C13.3427 51.12 13.2527 50.9175 13.2302 50.715C13.2077 50.5125 13.1627 50.31 13.0952 50.1075C12.5777 50.31 11.9927 50.4 11.4302 50.31C10.6877 50.22 10.0127 49.86 9.49516 49.3425C9.22516 49.0725 8.88766 48.915 8.50516 48.8475C8.46016 48.8475 8.41516 48.8475 8.37016 48.8475C8.32516 48.87 8.28016 48.8925 8.25766 48.915C7.96516 49.185 7.76266 49.5 7.60516 49.86C7.44766 50.22 7.38016 50.6025 7.38016 50.985C7.38016 51.21 7.29016 51.4125 7.13266 51.57C6.99766 51.7725 6.77266 51.8625 6.57016 51.8625ZM5.87266 50.9625H6.48016C6.48016 50.4675 6.59266 49.995 6.77266 49.545C6.97516 49.0725 7.26766 48.645 7.62766 48.3075C7.76266 48.1725 7.92016 48.0825 8.10016 48.015C8.28016 47.9475 8.46016 47.9475 8.64016 47.97C9.20266 48.0375 9.74266 48.3075 10.1477 48.7125C10.5302 49.095 11.0252 49.3425 11.5652 49.4325C12.1052 49.5 12.6452 49.3875 13.0952 49.1175C13.2077 49.05 13.3202 49.0275 13.4552 49.0725C13.5677 49.1175 13.6802 49.185 13.7252 49.2975C13.9277 49.7025 14.0627 50.13 14.1302 50.58H14.7602V49.905C14.7602 49.32 14.6702 48.735 14.4452 48.1725C14.2202 47.6325 13.9052 47.1375 13.4777 46.71C13.0502 46.2825 12.5777 45.9675 12.0152 45.72C10.9127 45.27 9.67516 45.27 8.57266 45.72C8.03266 45.945 7.53766 46.2825 7.13266 46.71C6.70516 47.1375 6.39016 47.6325 6.16516 48.1725C5.94016 48.7125 5.82766 49.2975 5.85016 49.905V50.9625H5.87266Z" fill="#020064"/>
<path d="M13.3419 49.95C13.1844 49.95 13.0269 49.86 12.9594 49.725C12.8919 49.635 12.8919 49.5225 12.9144 49.41C12.3294 49.185 11.8344 48.78 11.4744 48.2625C11.3394 48.06 11.3844 47.7675 11.6094 47.6325C11.8119 47.4975 12.1044 47.5425 12.2394 47.7675C12.5094 48.195 12.9369 48.4875 13.4319 48.645C13.5669 48.69 13.6794 48.7575 13.7694 48.8475C13.8594 48.96 13.9044 49.0725 13.9269 49.2075C13.9494 49.3425 13.9269 49.4775 13.8594 49.59C13.7919 49.7025 13.7019 49.815 13.5894 49.8825C13.4994 49.9275 13.4094 49.95 13.3419 49.95Z" fill="#020064"/>
<path d="M8.64062 52.1775C8.95562 52.1775 9.20312 51.93 9.20312 51.615C9.20312 51.3 8.95562 51.0525 8.64062 51.0525C8.32563 51.0525 8.07812 51.3 8.07812 51.615C8.07812 51.9075 8.32563 52.1775 8.64062 52.1775Z" fill="#020064"/>
<path d="M12.0156 52.1775C12.3306 52.1775 12.5781 51.93 12.5781 51.615C12.5781 51.3 12.3306 51.0525 12.0156 51.0525C11.7006 51.0525 11.4531 51.3 11.4531 51.615C11.4531 51.9075 11.7231 52.1775 12.0156 52.1775Z" fill="#020064"/>
<path d="M10.3278 45C10.9803 45 11.6103 45.135 12.1953 45.36C12.7803 45.6075 13.3203 45.9675 13.7928 46.4175C13.9953 46.1025 14.1078 45.7425 14.1078 45.36C14.1078 43.8975 12.4203 42.7275 10.3278 42.7275C8.23531 42.7275 6.57031 43.92 6.57031 45.36C6.57031 45.7425 6.68281 46.1025 6.88531 46.4175C7.33531 45.9675 7.87531 45.6075 8.48281 45.36C9.04531 45.135 9.69781 45 10.3278 45Z" fill="white"/>
<path d="M13.7926 46.89C13.6801 46.89 13.5676 46.845 13.4776 46.755C13.0726 46.35 12.5776 46.0125 12.0376 45.7875C11.4976 45.5625 10.9351 45.45 10.3501 45.45C9.76508 45.45 9.20258 45.5625 8.66258 45.7875C8.12258 46.0125 7.62758 46.3275 7.22258 46.755C7.13258 46.845 6.99758 46.89 6.86258 46.89C6.72758 46.8675 6.61508 46.8 6.52508 46.6875C6.27758 46.305 6.14258 45.855 6.14258 45.405C6.14258 43.695 8.03258 42.3225 10.3501 42.3225C12.6676 42.3225 14.5801 43.7175 14.5801 45.405C14.5801 45.855 14.4451 46.305 14.1976 46.6875C14.1301 46.8 13.9951 46.8675 13.8601 46.89C13.8151 46.89 13.7926 46.89 13.7926 46.89ZM10.3276 44.55C11.0251 44.55 11.7226 44.685 12.3526 44.955C12.8026 45.135 13.2076 45.3825 13.5901 45.675C13.6126 45.585 13.6126 45.4725 13.6126 45.3825C13.6126 44.19 12.0826 43.2 10.2826 43.2C8.46008 43.2 6.97508 44.19 6.97508 45.3825C6.97508 45.4725 6.97508 45.585 6.99758 45.675C7.38008 45.3825 7.78508 45.135 8.23508 44.955C8.93258 44.685 9.63008 44.55 10.3276 44.55Z" fill="#020064"/>
<path d="M53.3013 26.6849C58.7463 26.6849 63.1788 22.2524 63.1788 16.8074C63.1788 11.3624 58.7463 6.92993 53.3013 6.92993C47.8563 6.92993 43.4238 11.3399 43.4238 16.8074C43.4238 22.2749 47.8338 26.6849 53.3013 26.6849Z" fill="white"/>
<path d="M53.3021 27.135C47.6096 27.135 42.9746 22.5 42.9746 16.8075C42.9746 11.115 47.6096 6.47998 53.3021 6.47998C58.9946 6.47998 63.6296 11.115 63.6296 16.8075C63.6296 22.5 58.9946 27.135 53.3021 27.135ZM53.3021 7.37998C48.1046 7.37998 43.8746 11.61 43.8746 16.8075C43.8746 22.005 48.1046 26.235 53.3021 26.235C58.4996 26.235 62.7296 22.005 62.7296 16.8075C62.7296 11.61 58.4996 7.37998 53.3021 7.37998Z" fill="#020064"/>
<path d="M59.7156 19.3726C59.7156 19.1251 59.6256 18.9001 59.4681 18.6976C59.3106 18.5176 59.0856 18.3826 58.8606 18.3376V17.6626C58.8606 16.3126 58.3206 15.0076 57.3531 14.0401C56.3856 13.0726 55.0806 12.5326 53.7306 12.5326C52.3806 12.5326 51.0756 13.0726 50.1081 14.0401C49.1406 15.0076 48.6006 16.3126 48.6006 17.6626V18.3376C48.3531 18.3826 48.1281 18.5176 47.9706 18.7201C47.8131 18.9226 47.7231 19.1701 47.7456 19.4176C47.7681 19.6651 47.8581 19.9126 48.0381 20.0926C48.2181 20.2726 48.4431 20.3851 48.7131 20.4076C48.9606 21.5551 49.5906 22.5901 50.4906 23.3326C51.3906 24.0751 52.5381 24.4801 53.7306 24.4801C54.9006 24.4801 56.0481 24.0751 56.9706 23.3326C57.8931 22.5901 58.5231 21.5551 58.7481 20.4076C59.0181 20.3851 59.2431 20.2726 59.4231 20.0701C59.6031 19.8901 59.6931 19.6201 59.7156 19.3726Z" fill="white"/>
<path d="M53.7298 24.9526C52.4473 24.9526 51.2098 24.5026 50.2198 23.6926C49.2973 22.9501 48.6448 21.9376 48.3523 20.7901C48.1273 20.7226 47.9023 20.5876 47.7448 20.4076C47.4973 20.1376 47.3398 19.8001 47.3173 19.4401C47.2948 19.0801 47.4073 18.7201 47.6323 18.4276C47.7673 18.2476 47.9698 18.0901 48.1723 18.0001V17.6401C48.1723 16.1551 48.7573 14.7601 49.8148 13.7026C50.8723 12.6451 52.2673 12.0601 53.7523 12.0601C55.2373 12.0601 56.6323 12.6451 57.6898 13.7026C58.7473 14.7601 59.3323 16.1551 59.3323 17.6401V18.0001C59.5348 18.0901 59.6923 18.2251 59.8273 18.3826C60.0523 18.6526 60.1648 18.9901 60.1873 19.3276C60.1873 19.7101 60.0523 20.0701 59.7823 20.3401C59.6023 20.5426 59.3773 20.6776 59.1298 20.7451C58.8373 21.8701 58.1623 22.9051 57.2623 23.6476C56.2498 24.5026 55.0123 24.9526 53.7298 24.9526ZM53.7298 12.9826C52.4698 12.9826 51.2998 13.4776 50.4223 14.3551C49.5448 15.2326 49.0498 16.4026 49.0498 17.6626V18.3376C49.0498 18.5626 48.8923 18.7426 48.6898 18.7876C48.5548 18.8101 48.4198 18.9001 48.3298 19.0126C48.2398 19.1251 48.1948 19.2601 48.1948 19.4176C48.1948 19.5526 48.2623 19.6876 48.3523 19.8001C48.4423 19.9126 48.5773 19.9576 48.7348 19.9801C48.9373 20.0026 49.0948 20.1376 49.1398 20.3401C49.3648 21.3976 49.9273 22.3426 50.7598 23.0176C51.5923 23.6926 52.6498 24.0751 53.7073 24.0751C54.7873 24.0751 55.8223 23.6926 56.6548 23.0176C57.4873 22.3426 58.0723 21.3976 58.2748 20.3401C58.3198 20.1376 58.4773 20.0026 58.6798 19.9801C58.8373 19.9576 58.9723 19.8901 59.0623 19.7776C59.1748 19.6651 59.2198 19.5301 59.2198 19.3726C59.2198 19.2376 59.1748 19.1026 59.0848 18.9901C58.9948 18.8776 58.8823 18.8101 58.7248 18.7876C58.5223 18.7426 58.3648 18.5626 58.3648 18.3376V17.6626C58.3648 16.4026 57.8698 15.2326 56.9923 14.3551C56.1373 13.4776 54.9673 12.9826 53.7298 12.9826Z" fill="#020064"/>
<path d="M53.7298 24.9526C52.4473 24.9526 51.2098 24.5026 50.2198 23.6926C49.2973 22.9501 48.6448 21.9376 48.3523 20.7901C48.1273 20.7226 47.9023 20.5876 47.7448 20.4076C47.4973 20.1376 47.3398 19.8001 47.3173 19.4401C47.2948 19.0801 47.4073 18.7201 47.6323 18.4276C47.7673 18.2476 47.9698 18.0901 48.1723 18.0001V17.6401C48.1723 16.1551 48.7573 14.7601 49.8148 13.7026C50.8723 12.6451 52.2673 12.0601 53.7523 12.0601C55.2373 12.0601 56.6323 12.6451 57.6898 13.7026C58.7473 14.7601 59.3323 16.1551 59.3323 17.6401V18.0001C59.5348 18.0901 59.6923 18.2251 59.8273 18.3826C60.0523 18.6526 60.1648 18.9901 60.1873 19.3276C60.1873 19.7101 60.0523 20.0701 59.7823 20.3401C59.6023 20.5426 59.3773 20.6776 59.1298 20.7451C58.8373 21.8701 58.1623 22.9051 57.2623 23.6476C56.2498 24.5026 55.0123 24.9526 53.7298 24.9526ZM53.7298 12.9826C52.4698 12.9826 51.2998 13.4776 50.4223 14.3551C49.5448 15.2326 49.0498 16.4026 49.0498 17.6626V18.3376C49.0498 18.5626 48.8923 18.7426 48.6898 18.7876C48.5548 18.8101 48.4198 18.9001 48.3298 19.0126C48.2398 19.1251 48.1948 19.2601 48.1948 19.4176C48.1948 19.5526 48.2623 19.6876 48.3523 19.8001C48.4423 19.9126 48.5773 19.9576 48.7348 19.9801C48.9373 20.0026 49.0948 20.1376 49.1398 20.3401C49.3648 21.3976 49.9273 22.3426 50.7598 23.0176C51.5923 23.6926 52.6498 24.0751 53.7073 24.0751C54.7873 24.0751 55.8223 23.6926 56.6548 23.0176C57.4873 22.3426 58.0723 21.3976 58.2748 20.3401C58.3198 20.1376 58.4773 20.0026 58.6798 19.9801C58.8373 19.9576 58.9723 19.8901 59.0623 19.7776C59.1748 19.6651 59.2198 19.5301 59.2198 19.3726C59.2198 19.2376 59.1748 19.1026 59.0848 18.9901C58.9948 18.8776 58.8823 18.8101 58.7248 18.7876C58.5223 18.7426 58.3648 18.5626 58.3648 18.3376V17.6626C58.3648 16.4026 57.8698 15.2326 56.9923 14.3551C56.1373 13.4776 54.9673 12.9826 53.7298 12.9826Z" fill="#020064"/>
<path d="M51.7941 18.9451C52.1541 18.9451 52.4241 18.6526 52.4241 18.3151C52.4241 17.9551 52.1316 17.6851 51.7941 17.6851C51.4341 17.6851 51.1641 17.9776 51.1641 18.3151C51.1641 18.6526 51.4566 18.9451 51.7941 18.9451Z" fill="#020064"/>
<path d="M55.6417 18.9451C56.0017 18.9451 56.2717 18.6526 56.2717 18.3151C56.2717 17.9551 55.9792 17.6851 55.6417 17.6851C55.2817 17.6851 55.0117 17.9776 55.0117 18.3151C55.0117 18.6526 55.2817 18.9451 55.6417 18.9451Z" fill="#020064"/>
<path d="M50.9405 20.655C51.3005 20.655 51.5705 20.3625 51.5705 20.025C51.5705 19.665 51.278 19.395 50.9405 19.395C50.603 19.395 50.3105 19.6875 50.3105 20.025C50.3105 20.3625 50.603 20.655 50.9405 20.655Z" fill="#B0D9FF"/>
<path d="M56.4972 20.655C56.8572 20.655 57.1272 20.3625 57.1272 20.025C57.1272 19.665 56.8347 19.395 56.4972 19.395C56.1372 19.395 55.8672 19.6875 55.8672 20.025C55.8672 20.3625 56.1372 20.655 56.4972 20.655Z" fill="#B0D9FF"/>
<path d="M53.7294 22.3875C53.1894 22.3875 52.6494 22.23 52.1994 21.915C51.9969 21.78 51.9294 21.4875 52.0644 21.285C52.1994 21.0825 52.4919 21.015 52.6944 21.15C53.3019 21.555 54.1344 21.555 54.7644 21.15C54.9669 21.015 55.2594 21.06 55.3944 21.285C55.5294 21.4875 55.4844 21.78 55.2594 21.915C54.8094 22.2075 54.2694 22.3875 53.7294 22.3875Z" fill="#020064"/>
<path d="M48.1719 13.8149V17.6624C48.1719 17.7749 48.2169 17.8874 48.3069 17.9549C48.3969 18.0449 48.4869 18.0899 48.5994 18.0899H49.0269L50.7369 13.8149H48.1719Z" fill="white"/>
<path d="M49.0277 18.54H48.6002C48.3752 18.54 48.1502 18.45 47.9702 18.2925C47.8127 18.135 47.7227 17.91 47.7227 17.6625V13.815C47.7227 13.5675 47.9252 13.365 48.1727 13.365H50.7377C50.8952 13.365 51.0302 13.4325 51.1202 13.5675C51.2102 13.68 51.2102 13.8375 51.1652 13.995L49.4552 18.27C49.3877 18.4275 49.2077 18.54 49.0277 18.54ZM48.6227 17.64H48.7352L50.0852 14.265H48.6452V17.64H48.6227Z" fill="#020064"/>
<path d="M59.2883 14.2426C59.2883 13.3426 58.9283 12.4651 58.2983 11.8351C57.6683 11.2051 56.7908 10.8451 55.8908 10.8451H52.0433C51.8858 10.8451 51.7283 10.8001 51.5933 10.7101C51.4583 10.6201 51.3458 10.5076 51.2783 10.3501C51.2333 10.2601 51.1658 10.1701 51.0758 10.1026C50.9858 10.0351 50.8733 10.0126 50.7833 9.99006H50.0633C49.4108 9.96756 48.7808 10.2151 48.2858 10.6426C47.7908 11.0701 47.4758 11.6776 47.3858 12.3076C47.3183 12.9826 47.5208 13.6351 47.9483 14.1751C48.3758 14.6926 48.9833 15.0301 49.6583 15.0976C49.7708 15.5476 50.0408 15.9526 50.3783 16.2676C50.7383 16.5826 51.1658 16.7626 51.6383 16.8301H52.4933C52.5383 16.8301 52.5608 16.8076 52.5833 16.8076C52.6058 16.7851 52.6283 16.7626 52.6283 16.7176C52.6283 16.6951 52.6283 16.6501 52.6283 16.6276C52.6058 16.6051 52.5833 16.5601 52.5608 16.5601C52.1783 16.3351 51.8858 15.9526 51.7733 15.5251C51.7508 15.4801 51.7508 15.4351 51.7733 15.3901C51.7733 15.3451 51.7958 15.3001 51.8183 15.2551C51.8408 15.2101 51.8858 15.1876 51.9308 15.1651C51.9758 15.1426 52.0208 15.1426 52.0658 15.1426H55.5533C55.6658 15.1426 55.7783 15.1651 55.8908 15.2101C56.0033 15.2551 56.0933 15.3226 56.1608 15.3901L58.4783 17.7076H58.9058C58.9508 17.7076 59.0183 17.7076 59.0633 17.6851C59.1083 17.6626 59.1533 17.6401 59.1983 17.5951C59.2433 17.5501 59.2658 17.5051 59.2883 17.4601C59.3108 17.4151 59.3108 17.3476 59.3108 17.3026L59.2883 14.2426Z" fill="white"/>
<path d="M58.8603 18.1125H58.4328C58.3203 18.1125 58.2077 18.0675 58.1177 17.9775L55.8003 15.66C55.7553 15.615 55.7102 15.5925 55.6652 15.57C55.6202 15.5475 55.5528 15.5475 55.5078 15.5475H52.2453C52.3577 15.795 52.5378 15.9975 52.7628 16.1325C52.8753 16.2 52.9653 16.3125 53.0103 16.425C53.0553 16.5375 53.0553 16.6725 53.0328 16.8075C52.9878 16.9425 52.9203 17.055 52.8303 17.1225C52.7178 17.2125 52.6052 17.2575 52.4703 17.2575H51.6152C51.5927 17.2575 51.5703 17.2575 51.5703 17.2575C51.0078 17.19 50.4903 16.965 50.0628 16.605C49.7253 16.3125 49.4553 15.93 49.2753 15.5025C48.6003 15.3675 47.9927 15.0075 47.5652 14.445C47.0702 13.8375 46.8228 13.05 46.9128 12.2625C47.0028 11.4975 47.3852 10.8 47.9702 10.2825C48.5552 9.78746 49.2978 9.51746 50.0628 9.51746H50.7827C50.8052 9.51746 50.8052 9.51746 50.8277 9.51746C51.0077 9.53996 51.1877 9.60746 51.3453 9.71996C51.5027 9.83246 51.6153 9.96746 51.7053 10.1475C51.7278 10.215 51.7953 10.2825 51.8628 10.305C51.9303 10.35 51.9978 10.3725 52.0878 10.3725H55.9353C56.9703 10.3725 57.9377 10.7775 58.6802 11.4975C59.4002 12.2175 59.8052 13.2075 59.8052 14.2425V17.235C59.8052 17.3475 59.7828 17.46 59.7378 17.5725C59.6928 17.685 59.6253 17.775 59.5578 17.865C59.4678 17.955 59.3777 18 59.2652 18.045C59.0852 18.09 58.9728 18.1125 58.8603 18.1125ZM58.6128 17.2125H58.8378V14.2425C58.8378 13.455 58.5228 12.7125 57.9603 12.15C57.3978 11.5875 56.6553 11.2725 55.8678 11.2725H52.0202C51.7727 11.2725 51.5253 11.205 51.3228 11.07C51.1203 10.935 50.9403 10.755 50.8503 10.5075C50.8278 10.485 50.8278 10.4625 50.8053 10.44C50.7828 10.4175 50.7603 10.4175 50.7378 10.4175H50.0402C49.4777 10.4175 48.9603 10.5975 48.5553 10.9575C48.1503 11.3175 47.8803 11.8125 47.8128 12.3525C47.7678 12.8925 47.9253 13.4325 48.2853 13.8825C48.6453 14.31 49.1402 14.58 49.7027 14.6475C49.8827 14.67 50.0403 14.805 50.0853 14.985C50.1753 15.345 50.3777 15.6825 50.6702 15.93C50.9627 16.1775 51.3003 16.335 51.6603 16.38H51.7277C51.5477 16.155 51.4352 15.9075 51.3453 15.615C51.3228 15.525 51.3003 15.39 51.3228 15.2775C51.3453 15.165 51.3903 15.0525 51.4577 14.9625C51.5252 14.8725 51.6152 14.7825 51.7277 14.7375C51.8402 14.6925 51.9527 14.6475 52.0652 14.6475H55.5527C55.7327 14.6475 55.8903 14.67 56.0478 14.7375C56.2053 14.805 56.3403 14.895 56.4753 15.03L58.6128 17.2125Z" fill="#020064"/>
<path d="M69.9974 59.9399L66.4199 63.5174L72.6974 69.7949L76.2749 66.2174L69.9974 59.9399Z" fill="white"/>
<path d="M72.6982 70.2674C72.5857 70.2674 72.4732 70.2225 72.3832 70.1325L66.1057 63.8549C65.9257 63.6749 65.9257 63.405 66.1057 63.225L69.6832 59.6475C69.7732 59.5575 69.8857 59.5125 69.9982 59.5125C70.1107 59.5125 70.2232 59.5575 70.3132 59.6475L76.5907 65.925C76.7707 66.105 76.7707 66.3749 76.5907 66.5549L73.0132 70.1325C72.9232 70.2 72.8107 70.2674 72.6982 70.2674ZM67.0507 63.5399L72.6982 69.1875L75.6457 66.2399L69.9982 60.5924L67.0507 63.5399Z" fill="#020064"/>
<path d="M88.4701 81.8326L88.2901 82.0126C87.5926 82.7101 86.6701 83.0926 85.6801 83.0926C84.7126 83.0926 83.7676 82.7101 83.0701 82.0126L71.7526 70.6951C71.5276 70.4701 71.3926 70.1551 71.3926 69.8176C71.3926 69.5026 71.5276 69.1876 71.7526 68.9401L75.3976 65.2951C75.6226 65.0701 75.9376 64.9351 76.2751 64.9351C76.5901 64.9351 76.9051 65.0701 77.1526 65.2951L88.4701 76.6126C88.8076 76.9501 89.0776 77.3551 89.2801 77.8051C89.4601 78.2551 89.5726 78.7276 89.5726 79.2226C89.5726 79.7176 89.4826 80.1901 89.2801 80.6401C89.0776 81.0901 88.8076 81.4951 88.4701 81.8326Z" fill="#B0D9FF"/>
<path d="M85.6809 83.52C84.5784 83.52 83.5434 83.0925 82.7559 82.3275L71.4384 70.9875C71.1234 70.6725 70.9434 70.245 70.9434 69.795C70.9434 69.345 71.1234 68.9175 71.4384 68.6025L75.0834 64.9575C75.3984 64.6425 75.8259 64.4625 76.2759 64.4625C76.7259 64.4625 77.1534 64.6425 77.4684 64.9575L88.7859 76.275C89.1684 76.6575 89.4834 77.1075 89.6859 77.625C89.8884 78.12 90.0009 78.66 90.0009 79.2C90.0009 79.74 89.8884 80.28 89.6859 80.775C89.4834 81.27 89.1684 81.72 88.7859 82.125L88.6059 82.305C87.8184 83.0925 86.7834 83.52 85.6809 83.52ZM76.2759 65.385C76.0734 65.385 75.8709 65.475 75.7359 65.61L72.0909 69.255C71.9559 69.4125 71.8659 69.5925 71.8659 69.795C71.8659 69.9975 71.9559 70.2 72.0909 70.3575L83.4084 81.675C84.0159 82.2825 84.8259 82.62 85.7034 82.62C86.5809 82.62 87.3684 82.2825 87.9984 81.675L88.1784 81.495C88.4709 81.2025 88.7184 80.8425 88.8759 80.4375C89.0334 80.0325 89.1234 79.6275 89.1234 79.2C89.1234 78.7725 89.0334 78.345 88.8759 77.9625C88.7184 77.5575 88.4709 77.22 88.1784 76.905L76.8609 65.5875C76.6809 65.475 76.4784 65.385 76.2759 65.385Z" fill="#020064"/>
<path d="M65.5874 66.3076C74.5424 60.8176 77.3549 49.1176 71.8874 40.1626C66.4199 31.2076 54.6974 28.3951 45.7424 33.8626C36.7874 39.3526 33.9749 51.0526 39.4424 60.0076C44.9099 68.9626 56.6099 71.7976 65.5874 66.3076Z" fill="white"/>
<path d="M55.6872 69.5475C54.1572 69.5475 52.6273 69.3675 51.0972 69.0075C46.0347 67.7925 41.7597 64.6875 39.0372 60.2325C36.3147 55.7775 35.5047 50.58 36.7197 45.5175C37.9347 40.455 41.0397 36.18 45.4947 33.4575C49.9497 30.735 55.1472 29.925 60.2097 31.14C65.2722 32.355 69.5472 35.46 72.2697 39.915C74.9922 44.37 75.8022 49.5675 74.5872 54.63C73.3722 59.6925 70.2672 63.9675 65.8122 66.69C62.7072 68.58 59.2197 69.5475 55.6872 69.5475ZM55.6197 31.5C52.2447 31.5 48.9147 32.4225 45.9672 34.245C37.2372 39.6 34.4697 51.0525 39.8247 59.7825C43.3122 65.4975 49.4322 68.6475 55.6872 68.6475C58.9947 68.6475 62.3247 67.77 65.3397 65.925C74.0697 60.57 76.8372 49.1175 71.4823 40.3875C68.8947 36.1575 64.8223 33.1875 59.9847 32.0175C58.5448 31.68 57.0822 31.5 55.6197 31.5Z" fill="#020064"/>
<path d="M66.4192 39.33C68.5567 41.4675 69.9967 44.1675 70.5817 47.115C71.1667 50.0625 70.8742 53.1225 69.7267 55.9125C68.5792 58.7025 66.6217 61.065 64.1242 62.73C61.6267 64.395 58.6792 65.295 55.6642 65.295C52.6492 65.295 49.7242 64.395 47.2042 62.73C44.7067 61.065 42.7492 58.68 41.6017 55.9125C40.4542 53.1225 40.1392 50.0625 40.7467 47.115C41.3317 44.1675 42.7717 41.445 44.9092 39.33C46.3267 37.9125 47.9917 36.7875 49.8367 36.0225C51.6817 35.2575 53.6617 34.875 55.6642 34.875C57.6667 34.875 59.6467 35.2575 61.4917 36.0225C63.3142 36.7875 65.0017 37.9125 66.4192 39.33Z" fill="#B0D9FF"/>
<path d="M55.2816 57.375C53.5266 57.375 51.8166 57.8475 50.3091 58.725C48.8016 59.6025 47.5191 60.84 46.6191 62.3475C49.1391 64.215 52.1766 65.25 55.3266 65.3175C58.4541 65.385 61.5366 64.485 64.1466 62.73C63.2916 61.1325 62.0091 59.7825 60.4566 58.8375C58.8816 57.8925 57.1041 57.375 55.2816 57.375Z" fill="white"/>
<path d="M55.6657 65.7451C55.5532 65.7451 55.4407 65.7451 55.3282 65.7451C52.0882 65.6776 48.9832 64.62 46.3732 62.6851C46.1932 62.5501 46.1257 62.3025 46.2607 62.1C47.1832 60.525 48.5107 59.2201 50.1082 58.3201C51.6832 57.4201 53.4832 56.925 55.3057 56.925C57.1957 56.925 59.0632 57.4651 60.7057 58.4326C62.3257 59.4226 63.6757 60.8176 64.5757 62.4826C64.6882 62.6851 64.6207 62.9325 64.4407 63.0675C61.8082 64.8225 58.7932 65.7451 55.6657 65.7451ZM47.2282 62.2125C49.6132 63.8775 52.4257 64.7776 55.3282 64.8451C58.2532 64.9126 61.0882 64.125 63.5407 62.55C62.7307 61.1775 61.5832 60.0301 60.2107 59.1976C58.7257 58.2976 57.0157 57.825 55.2832 57.825C53.6182 57.825 51.9757 58.2751 50.5132 59.1076C49.2082 59.8726 48.0607 60.93 47.2282 62.2125Z" fill="#020064"/>
<path d="M58.2975 57.87C58.14 57.825 57.9825 57.78 57.8025 57.735C57.6225 57.69 57.4425 57.5775 57.33 57.42C57.2175 57.2625 57.15 57.0825 57.15 56.88V53.8425H53.595V56.835C53.595 57.0375 53.5275 57.2175 53.415 57.375C53.3025 57.5325 53.1225 57.645 52.9425 57.69C52.74 57.735 52.5375 57.8025 52.335 57.87L52.3125 57.8925C52.3575 58.6575 52.7175 59.3775 53.2575 59.895C53.82 60.4125 54.5625 60.705 55.3275 60.705C56.0925 60.705 56.835 60.4125 57.3975 59.895C57.96 59.3775 58.2975 58.6575 58.3425 57.8925L58.2975 57.87Z" fill="white"/>
<path d="M55.2834 61.155C54.4059 61.155 53.5509 60.8175 52.9209 60.21C52.2909 59.6025 51.8859 58.7925 51.8184 57.915C51.8184 57.8025 51.8409 57.69 51.9084 57.6L51.9309 57.5775C51.9759 57.51 52.0659 57.4425 52.1559 57.42C52.3584 57.3525 52.5609 57.3075 52.8084 57.24C52.8984 57.2175 52.9884 57.1725 53.0334 57.0825C53.1009 57.015 53.1234 56.9025 53.1234 56.8125V53.82C53.1234 53.5725 53.3259 53.37 53.5734 53.37H57.1509C57.3984 53.37 57.6009 53.5725 57.6009 53.82V56.8575C57.6009 56.9475 57.6234 57.0375 57.6909 57.1275C57.7584 57.2175 57.8259 57.2625 57.9159 57.285C58.0959 57.33 58.2534 57.375 58.4334 57.42C58.5234 57.4425 58.6134 57.51 58.6584 57.6L58.6809 57.6225C58.7484 57.7125 58.7709 57.8025 58.7709 57.915C58.7034 58.7925 58.3209 59.625 57.6684 60.21C57.0159 60.8175 56.1834 61.155 55.2834 61.155ZM52.7634 58.185C52.8759 58.7025 53.1459 59.1975 53.5284 59.5575C54.0009 60.0075 54.6309 60.255 55.2834 60.255C55.9359 60.255 56.5659 60.0075 57.0384 59.5575C57.4434 59.1975 57.6909 58.7025 57.8034 58.185C57.7584 58.185 57.7134 58.1625 57.6909 58.1625C57.3984 58.095 57.1509 57.915 56.9709 57.69C56.7909 57.465 56.7009 57.1725 56.7009 56.88V54.2925H54.0459V56.835C54.0459 57.1275 53.9559 57.42 53.7534 57.645C53.5734 57.87 53.3034 58.05 53.0334 58.1175C52.9209 58.14 52.8534 58.1625 52.7634 58.185Z" fill="#020064"/>
<path d="M63.3151 46.35C63.3151 48.4875 62.4601 50.535 60.9526 52.0425C59.4451 53.55 57.3976 54.405 55.2601 54.405C53.1226 54.405 51.0751 53.55 49.5676 52.0425C48.0601 50.535 47.2051 48.4875 47.2051 46.35C47.2051 41.895 49.4776 38.385 51.7951 37.7325C51.9976 37.6875 52.2001 37.665 52.3801 37.7325C52.5826 37.7775 52.7626 37.89 52.8976 38.025C55.3726 40.5225 63.3151 37.395 63.3151 46.35Z" fill="white"/>
<path d="M55.2384 54.855C52.9659 54.855 50.8284 53.9775 49.2084 52.3575C47.6109 50.76 46.7109 48.6 46.7109 46.3275C46.7109 42.57 48.5559 38.16 51.6384 37.2825C51.9084 37.215 52.2009 37.1925 52.4709 37.2825C52.7409 37.35 52.9884 37.5075 53.1909 37.6875C53.9109 38.4075 55.2609 38.61 56.6784 38.835C59.8284 39.33 63.7434 39.9375 63.7434 46.3275C63.7434 48.6 62.8659 50.7375 61.2459 52.3575C59.6259 53.9775 57.5109 54.855 55.2384 54.855ZM52.0884 38.115C52.0209 38.115 51.9534 38.115 51.9084 38.1375C49.2759 38.9025 47.6334 42.975 47.6334 46.3275C47.6334 48.3525 48.4209 50.265 49.8609 51.705C51.3009 53.145 53.2134 53.9325 55.2384 53.9325C57.2634 53.9325 59.1759 53.145 60.6159 51.705C62.0559 50.265 62.8434 48.3525 62.8434 46.3275C62.8434 40.7025 59.6259 40.2075 56.5434 39.7125C54.9684 39.465 53.4834 39.24 52.5384 38.295C52.4484 38.205 52.3584 38.1375 52.2234 38.115C52.2009 38.1375 52.1334 38.115 52.0884 38.115Z" fill="#020064"/>
<path d="M61.9649 48.3525L60.6149 49.0275L59.6474 45.6075C59.5574 45.27 59.3324 45 59.0399 44.82C58.7474 44.64 58.4099 44.595 58.0724 44.6625C56.2049 45.1125 54.2699 45.1125 52.4024 44.6625C52.0649 44.595 51.7274 44.64 51.4349 44.82C51.1424 45 50.9399 45.27 50.8274 45.6075L49.8599 49.0275L48.5324 48.3525C46.6199 48.3525 46.7324 51.705 48.8699 51.705C49.2974 53.0775 50.1299 54.27 51.2774 55.1025C52.4249 55.9575 53.8199 56.4075 55.2374 56.4075C56.6549 56.4075 58.0499 55.9575 59.1974 55.1025C60.3449 54.2475 61.1999 53.055 61.6049 51.705C63.7649 51.7275 63.8999 48.3525 61.9649 48.3525Z" fill="white"/>
<path d="M55.2599 56.8799C53.7299 56.8799 52.2674 56.4074 51.0299 55.4849C49.8824 54.6299 49.0274 53.4824 48.5549 52.1549C47.3624 51.9749 46.7324 50.9174 46.7324 49.9049C46.7324 49.3874 46.8899 48.9149 47.1599 48.5549C47.4974 48.1499 47.9699 47.9024 48.5324 47.9024C48.5999 47.9024 48.6674 47.9249 48.7349 47.9474L49.5899 48.3749L50.4224 45.4724C50.5349 45.0449 50.8274 44.6624 51.2099 44.4149C51.5924 44.1899 52.0649 44.0999 52.5149 44.1899C54.3149 44.6174 56.1824 44.6174 57.9824 44.1899C58.4324 44.0999 58.9049 44.1674 59.2874 44.3924C59.6699 44.6174 59.9624 44.9999 60.0749 45.4499L60.9074 48.3524L61.7849 47.9249C61.8524 47.9024 61.9199 47.8799 61.9874 47.8799C62.5499 47.8799 63.0224 48.1049 63.3599 48.5324C63.6299 48.8924 63.7874 49.3649 63.7874 49.8824C63.7874 50.8949 63.1574 51.9749 61.9649 52.1324C61.4924 53.4599 60.6149 54.6299 59.4899 55.4624C58.2524 56.3849 56.7899 56.8799 55.2599 56.8799ZM48.4424 48.8024C48.2174 48.8249 48.0149 48.9149 47.8799 49.0949C47.7224 49.2974 47.6324 49.5674 47.6324 49.8824C47.6324 50.5349 48.0149 51.2549 48.8699 51.2549C49.0724 51.2549 49.2524 51.3899 49.2974 51.5699C49.7024 52.8524 50.4674 53.9549 51.5474 54.7424C52.6274 55.5299 53.9099 55.9574 55.2374 55.9574C56.5649 55.9574 57.8474 55.5299 58.9274 54.7424C59.9849 53.9549 60.7949 52.8299 61.1774 51.5699C61.2449 51.3899 61.4024 51.2549 61.6049 51.2549C62.4599 51.2549 62.8424 50.5349 62.8424 49.8824C62.8424 49.4099 62.6399 48.8474 62.0324 48.8024L60.7724 49.4324C60.6599 49.4999 60.5024 49.4999 60.3899 49.4324C60.2774 49.3874 60.1649 49.2749 60.1424 49.1399L59.1749 45.7199C59.1074 45.4949 58.9724 45.3149 58.7699 45.2024C58.5674 45.0899 58.3424 45.0449 58.1174 45.0899C56.2049 45.5399 54.1799 45.5399 52.2449 45.0899C52.0424 45.0449 51.7949 45.0899 51.6149 45.2024C51.4124 45.3149 51.2774 45.4949 51.2099 45.7199L50.2424 49.1399C50.1974 49.2749 50.1074 49.3649 49.9949 49.4324C49.8824 49.4774 49.7249 49.4774 49.6124 49.4324L48.4424 48.8024Z" fill="#020064"/>
<path d="M53.1674 49.32C53.5949 49.32 53.9549 48.96 53.9549 48.5325C53.9549 48.105 53.5949 47.745 53.1674 47.745C52.7399 47.745 52.3799 48.105 52.3799 48.5325C52.3574 48.96 52.7174 49.32 53.1674 49.32Z" fill="#020064"/>
<path d="M57.352 49.32C57.7795 49.32 58.1395 48.96 58.1395 48.5325C58.1395 48.105 57.7795 47.745 57.352 47.745C56.9245 47.745 56.5645 48.105 56.5645 48.5325C56.5645 48.96 56.9245 49.32 57.352 49.32Z" fill="#020064"/>
<path d="M51.9083 50.3776C51.9083 50.5126 51.8633 50.6476 51.7958 50.7601C51.7283 50.8726 51.6158 50.9626 51.5033 51.0076C51.3908 51.0526 51.2558 51.0751 51.1208 51.0526C50.9858 51.0301 50.8733 50.9626 50.7833 50.8726C50.6933 50.7826 50.6258 50.6476 50.6033 50.5351C50.5808 50.4001 50.5808 50.2651 50.6483 50.1526C50.6933 50.0401 50.7833 49.9276 50.8958 49.8601C51.0083 49.7926 51.1433 49.7476 51.2783 49.7476C51.3683 49.7476 51.4583 49.7701 51.5258 49.7926C51.6158 49.8376 51.6833 49.8826 51.7508 49.9276C51.8183 49.9951 51.8633 50.0626 51.8858 50.1526C51.8858 50.1976 51.9083 50.2876 51.9083 50.3776Z" fill="#B0D9FF"/>
<path d="M59.963 50.3776C59.963 50.5126 59.918 50.6476 59.8505 50.7601C59.783 50.8726 59.6705 50.9626 59.558 51.0076C59.4455 51.0526 59.3105 51.0751 59.1755 51.0526C59.0405 51.0301 58.928 50.9626 58.838 50.8726C58.748 50.7826 58.6805 50.6701 58.658 50.5351C58.6355 50.4001 58.6355 50.2651 58.703 50.1526C58.748 50.0401 58.838 49.9276 58.9505 49.8601C59.063 49.7926 59.198 49.7476 59.333 49.7476C59.513 49.7476 59.693 49.8151 59.8055 49.9501C59.8955 50.0176 59.963 50.1976 59.963 50.3776Z" fill="#B0D9FF"/>
<path d="M55.2594 53.505C54.5619 53.505 53.9094 53.3025 53.3244 52.92C53.1219 52.785 53.0544 52.4925 53.1894 52.29C53.3244 52.0875 53.6169 52.02 53.8194 52.155C54.6744 52.7175 55.8219 52.7175 56.6769 52.155C56.8794 52.02 57.1719 52.065 57.3069 52.29C57.4419 52.4925 57.3969 52.785 57.1719 52.92C56.6094 53.3025 55.9569 53.505 55.2594 53.505Z" fill="#020064"/>
<path d="M55.6418 65.745C52.5368 65.745 49.5218 64.8225 46.9343 63.1125C44.3468 61.38 42.3443 58.95 41.1743 56.0925C39.9818 53.2125 39.6668 50.085 40.2743 47.0475C40.8818 44.01 42.3668 41.22 44.5718 39.0375C46.0343 37.575 47.7443 36.4275 49.6568 35.64C51.5693 34.8525 53.5943 34.4475 55.6418 34.4475C57.6893 34.4475 59.7368 34.8525 61.6268 35.64C63.5393 36.4275 65.2493 37.575 66.7118 39.0375C68.9168 41.2425 70.4018 44.01 71.0093 47.0475C71.6168 50.085 71.3018 53.235 70.1093 56.0925C68.9168 58.9725 66.9143 61.4025 64.3493 63.1125C61.7618 64.8225 58.7693 65.745 55.6418 65.745ZM55.6418 35.325C53.6843 35.325 51.7943 35.7075 49.9943 36.45C48.1943 37.1925 46.5743 38.2725 45.2018 39.645C43.1318 41.715 41.7368 44.325 41.1518 47.205C40.5893 50.085 40.8818 53.0325 41.9843 55.7325C43.1093 58.4325 44.9768 60.7275 47.4293 62.37C49.8593 63.99 52.6943 64.8675 55.6418 64.8675C58.5893 64.8675 61.4018 64.0125 63.8543 62.37C66.2843 60.75 68.1743 58.455 69.2993 55.7325C70.4243 53.0325 70.7168 50.085 70.1318 47.205C69.5693 44.325 68.1743 41.715 66.0818 39.645C64.7093 38.2725 63.0893 37.1925 61.2893 36.45C59.5118 35.685 57.5993 35.325 55.6418 35.325Z" fill="#020064"/>
<path d="M32.7151 74.8799C36.1801 74.8799 38.9926 72.0675 38.9926 68.6024C38.9926 65.1374 36.1801 62.325 32.7151 62.325C29.2501 62.325 26.4376 65.1374 26.4376 68.6024C26.4151 72.0675 29.2276 74.8799 32.7151 74.8799Z" fill="white"/>
<path d="M32.7158 75.33C29.0033 75.33 25.9883 72.315 25.9883 68.6025C25.9883 64.89 29.0033 61.875 32.7158 61.875C36.4283 61.875 39.4433 64.89 39.4433 68.6025C39.4433 72.315 36.4283 75.33 32.7158 75.33ZM32.7158 62.775C29.4983 62.775 26.8883 65.385 26.8883 68.6025C26.8883 71.82 29.4983 74.43 32.7158 74.43C35.9333 74.43 38.5433 71.82 38.5433 68.6025C38.5433 65.385 35.9333 62.775 32.7158 62.775Z" fill="#020064"/>
<path d="M30.6895 68.4676C30.6895 69.0076 30.892 69.5251 31.2745 69.9076C31.657 70.2901 32.1745 70.4926 32.7145 70.4926C33.2545 70.4926 33.772 70.2901 34.1545 69.9076C34.537 69.5251 34.7395 69.0076 34.7395 68.4676V67.4551C34.7395 66.9151 34.537 66.3976 34.1545 66.0151C33.772 65.6326 33.2545 65.4301 32.7145 65.4301C32.1745 65.4301 31.657 65.6326 31.2745 66.0151C30.892 66.3976 30.6895 66.9151 30.6895 67.4551V68.4676Z" fill="white"/>
<path d="M32.7152 70.92C32.0627 70.92 31.4327 70.6725 30.9602 70.2C30.4877 69.7275 30.2402 69.12 30.2402 68.445V67.4325C30.2402 66.78 30.4877 66.15 30.9602 65.6775C31.4327 65.205 32.0402 64.9575 32.7152 64.9575C33.3677 64.9575 33.9977 65.205 34.4702 65.6775C34.9427 66.15 35.1902 66.7575 35.1902 67.4325V68.445C35.1902 69.0975 34.9427 69.7275 34.4702 70.2C33.9752 70.6725 33.3677 70.92 32.7152 70.92ZM32.7152 65.88C32.2877 65.88 31.9052 66.0375 31.6127 66.33C31.3202 66.6225 31.1627 67.0275 31.1627 67.4325V68.445C31.1627 68.85 31.3202 69.255 31.6127 69.5475C31.9052 69.84 32.3102 69.9975 32.7152 69.9975C33.1202 69.9975 33.5252 69.84 33.8177 69.5475C34.1102 69.255 34.2677 68.85 34.2677 68.445V67.4325C34.2677 67.005 34.1102 66.6225 33.8177 66.33C33.5252 66.0375 33.1202 65.88 32.7152 65.88Z" fill="#020064"/>
<path d="M36.8994 73.2826C35.7519 74.3176 34.2444 74.9026 32.6919 74.9026C31.1394 74.9026 29.6544 74.3401 28.4844 73.2826C28.8219 72.4501 29.4069 71.7526 30.1494 71.2576C30.8919 70.7626 31.7694 70.4926 32.6694 70.4926C33.5694 70.4926 34.4469 70.7626 35.1894 71.2576C35.9769 71.7301 36.5619 72.4501 36.8994 73.2826Z" fill="#B0D9FF"/>
<path d="M32.7158 75.33C31.0508 75.33 29.4533 74.7225 28.2158 73.5975C28.0808 73.4625 28.0358 73.26 28.1033 73.08C28.4858 72.1575 29.1158 71.3925 29.9483 70.8525C30.7808 70.3125 31.7258 70.02 32.7158 70.02C33.7058 70.02 34.6508 70.3125 35.4833 70.8525C36.2933 71.3925 36.9233 72.1575 37.3058 73.0575C37.3958 73.2375 37.3733 73.4625 37.2158 73.5975C35.9783 74.7225 34.3808 75.33 32.7158 75.33ZM29.0708 73.1475C30.1058 73.98 31.3883 74.43 32.7158 74.43C34.0433 74.43 35.3258 73.98 36.3608 73.1475C36.0458 72.5175 35.5733 72 34.9883 71.595C34.3133 71.145 33.5258 70.92 32.7158 70.92C31.9058 70.92 31.1183 71.1675 30.4433 71.6175C29.8583 72 29.3858 72.54 29.0708 73.1475Z" fill="#020064"/>
<path d="M30.6914 67.185C30.7364 66.78 30.9164 66.3975 31.1864 66.0825C31.4564 65.7675 31.8164 65.565 32.2214 65.475C32.6264 65.385 33.0314 65.4075 33.4139 65.565C33.7964 65.7225 34.1339 65.97 34.3589 66.33C33.8864 66.8025 33.2789 67.1175 32.6264 67.275C32.0189 67.41 31.3439 67.3875 30.6914 67.185Z" fill="#B0D9FF"/>
<path d="M31.8157 67.815C31.3882 67.815 30.9607 67.7475 30.5557 67.6125C30.3532 67.545 30.2182 67.3425 30.2407 67.1175C30.3082 66.6225 30.5107 66.15 30.8482 65.79C31.1857 65.4075 31.6357 65.16 32.1082 65.0475C32.6032 64.935 33.0982 64.9575 33.5707 65.16C34.0432 65.34 34.4482 65.655 34.7182 66.0825C34.8307 66.2625 34.8082 66.51 34.6507 66.645C34.1107 67.1625 33.4357 67.5225 32.7157 67.7025C32.4457 67.77 32.1307 67.815 31.8157 67.815ZM31.2532 66.8475C31.6807 66.915 32.1307 66.915 32.5582 66.8025C32.9857 66.69 33.3907 66.51 33.7507 66.24C33.6157 66.1275 33.4582 66.015 33.2782 65.9475C32.9857 65.835 32.6482 65.8125 32.3332 65.88C32.0182 65.9475 31.7482 66.1275 31.5232 66.3525C31.4107 66.5325 31.3207 66.69 31.2532 66.8475Z" fill="#020064"/>
<path d="M21.9144 29.5424C25.3794 29.5424 28.1919 26.7299 28.1919 23.2649C28.1919 19.7999 25.3794 16.9874 21.9144 16.9874C18.4494 16.9874 15.6369 19.7999 15.6369 23.2649C15.6144 26.7299 18.4269 29.5424 21.9144 29.5424Z" fill="white"/>
<path d="M21.915 29.9925C18.2025 29.9925 15.1875 26.9775 15.1875 23.265C15.1875 19.5525 18.2025 16.5375 21.915 16.5375C25.6275 16.5375 28.6425 19.5525 28.6425 23.265C28.6425 26.9775 25.6275 29.9925 21.915 29.9925ZM21.915 17.4375C18.6975 17.4375 16.0875 20.0475 16.0875 23.265C16.0875 26.4825 18.6975 29.0925 21.915 29.0925C25.1325 29.0925 27.7425 26.4825 27.7425 23.265C27.7425 20.0475 25.1325 17.4375 21.915 17.4375Z" fill="#020064"/>
<path d="M19.8887 23.13C19.8887 23.67 20.1137 24.165 20.4962 24.525C20.8787 24.885 21.3737 25.11 21.9137 25.11C22.4537 25.11 22.9487 24.9075 23.3312 24.525C23.7137 24.165 23.9162 23.6475 23.9387 23.13V22.1175C23.9387 21.5775 23.7137 21.0825 23.3312 20.7225C22.9487 20.3625 22.4537 20.1375 21.9137 20.1375C21.3737 20.1375 20.8787 20.34 20.4962 20.7225C20.1137 21.0825 19.9112 21.6 19.8887 22.1175V23.13Z" fill="white"/>
<path d="M21.9145 25.56C21.262 25.56 20.6545 25.3125 20.182 24.8625C19.7095 24.4125 19.462 23.805 19.4395 23.1525V22.14C19.462 21.4875 19.7095 20.88 20.182 20.4075C20.6545 19.9575 21.262 19.71 21.9145 19.71C22.567 19.71 23.1745 19.9575 23.647 20.4075C24.1195 20.8575 24.367 21.465 24.3895 22.1175V23.13C24.367 23.7825 24.1195 24.39 23.647 24.8625C23.1745 25.3125 22.567 25.56 21.9145 25.56ZM20.3395 23.1075C20.3395 23.5125 20.5195 23.895 20.812 24.1875C21.1045 24.48 21.5095 24.6375 21.9145 24.6375C22.3195 24.6375 22.7245 24.48 23.017 24.1875C23.3095 23.895 23.4895 23.5125 23.4895 23.1075V22.095C23.4895 21.69 23.3095 21.3075 23.017 21.015C22.7245 20.7225 22.3195 20.565 21.9145 20.565C21.5095 20.565 21.1045 20.7225 20.812 21.015C20.5195 21.3075 20.3395 21.69 20.3395 22.095V23.1075Z" fill="#020064"/>
<path d="M26.1005 27.945C24.953 28.98 23.4455 29.5425 21.893 29.5425C20.3405 29.5425 18.8555 28.98 17.6855 27.945C18.023 27.1125 18.608 26.415 19.3505 25.92C20.093 25.425 20.9705 25.155 21.8705 25.155C22.7705 25.155 23.648 25.425 24.3905 25.92C25.178 26.3925 25.763 27.1125 26.1005 27.945Z" fill="#B0D9FF"/>
<path d="M21.915 29.9925C20.25 29.9925 18.6525 29.385 17.415 28.26C17.28 28.125 17.235 27.9225 17.3025 27.7425C17.685 26.82 18.315 26.055 19.1475 25.515C19.98 24.975 20.925 24.6825 21.915 24.6825C22.905 24.6825 23.85 24.975 24.6825 25.515C25.4925 26.055 26.1225 26.82 26.505 27.72C26.595 27.9 26.5725 28.125 26.415 28.2825C25.1775 29.385 23.58 29.9925 21.915 29.9925ZM18.27 27.81C19.305 28.6425 20.5875 29.0925 21.915 29.0925C23.2425 29.0925 24.525 28.6425 25.56 27.81C25.245 27.18 24.7725 26.6625 24.1875 26.2575C23.5125 25.8075 22.725 25.5825 21.915 25.5825C21.105 25.5825 20.3175 25.83 19.6425 26.28C19.0575 26.6625 18.585 27.2025 18.27 27.81Z" fill="#020064"/>
<path d="M19.9121 21.8476C19.9571 21.4426 20.1371 21.0601 20.4071 20.7451C20.6771 20.4301 21.0371 20.2276 21.4421 20.1376C21.8471 20.0476 22.2521 20.0701 22.6346 20.2276C23.0171 20.3851 23.3546 20.6326 23.5796 20.9926C23.1071 21.4651 22.4996 21.7801 21.8471 21.9376C21.2171 22.0726 20.5421 22.0501 19.9121 21.8476Z" fill="#B0D9FF"/>
<path d="M21.0149 22.4776C20.5874 22.4776 20.1599 22.4101 19.7549 22.2751C19.5524 22.2076 19.4174 22.0051 19.4399 21.7801C19.5074 21.2851 19.7099 20.8126 20.0474 20.4301C20.3849 20.0476 20.8349 19.8001 21.3074 19.6876C21.8024 19.5751 22.2974 19.6201 22.7699 19.8001C23.2424 19.9801 23.6474 20.2951 23.9174 20.7226C24.0299 20.9026 24.0074 21.1501 23.8499 21.2851C23.3099 21.8026 22.6349 22.1626 21.9149 22.3426C21.6674 22.4326 21.3524 22.4776 21.0149 22.4776ZM20.4524 21.5326C20.8799 21.6001 21.3299 21.6001 21.7574 21.4876C22.1849 21.3751 22.5899 21.1951 22.9499 20.9251C22.8149 20.8126 22.6574 20.7001 22.4774 20.6326C22.1849 20.5201 21.8474 20.4976 21.5324 20.5651C21.2174 20.6326 20.9474 20.8126 20.7224 21.0376C20.6099 21.1951 20.5199 21.3526 20.4524 21.5326Z" fill="#020064"/>
</svg>
