<svg width="90" height="90" viewBox="0 0 90 90" fill="none" xmlns="http://www.w3.org/2000/svg">
<path d="M9.02344 45C9.02344 64.89 25.1334 81 45.0234 81C64.9134 81 81.0234 64.89 81.0234 45C81.0234 25.11 64.9134 9 45.0234 9C25.1334 9 9.02344 25.11 9.02344 45Z" fill="#D9EDFF"/>
<path d="M59.0398 30.8476C59.7373 30.8476 60.2998 30.2851 60.2998 29.5876V27.5851C60.2998 26.8876 59.7373 26.3251 59.0398 26.3251H57.0598C56.7673 24.9076 56.2048 23.5576 55.4173 22.3426L56.8348 20.9251C57.3298 20.4301 57.3298 19.6426 56.8348 19.1476L55.4173 17.7301C54.9223 17.2351 54.1348 17.2351 53.6398 17.7301L52.2223 19.1476C51.0073 18.3376 49.6573 17.7751 48.2398 17.5051V15.5026C48.2398 14.8051 47.6773 14.2426 46.9798 14.2426H44.9773C44.2798 14.2426 43.7173 14.8051 43.7173 15.5026V17.4826C42.2998 17.7751 40.9498 18.3376 39.7348 19.1251L38.3173 17.7301C37.8223 17.2351 37.0348 17.2351 36.5398 17.7301L35.1223 19.1476C34.6273 19.6426 34.6273 20.4301 35.1223 20.9251L36.5398 22.3426C35.7298 23.5576 35.1673 24.9076 34.8973 26.3251H32.8948C32.1973 26.3251 31.6348 26.8876 31.6348 27.5851V29.5876C31.6348 30.2851 32.1973 30.8476 32.8948 30.8476H34.8748C35.1673 32.2651 35.7298 33.6151 36.5173 34.8301L35.0998 36.2251C34.6048 36.7201 34.6048 37.5076 35.0998 38.0026L36.5173 39.4201C37.0123 39.9151 37.7998 39.9151 38.2948 39.4201L39.7123 38.0026C40.9273 38.8126 42.2773 39.3751 43.6948 39.6451V41.6251C43.6948 42.3226 44.2573 42.8851 44.9548 42.8851H46.9573C47.6548 42.8851 48.2173 42.3226 48.2173 41.6251V39.6451C49.6348 39.3526 50.9848 38.7901 52.1998 38.0026L53.6173 39.4201C54.1123 39.9151 54.8998 39.9151 55.3948 39.4201L56.8123 38.0026C57.3073 37.5076 57.3073 36.7201 56.8123 36.2251L55.3948 34.8076C56.2048 33.5926 56.7673 32.2426 57.0373 30.8251H59.0398V30.8476ZM45.9448 33.8626C43.0198 33.8626 40.6573 31.5001 40.6573 28.5751C40.6573 25.6501 43.0198 23.2876 45.9448 23.2876C48.8698 23.2876 51.2323 25.6501 51.2323 28.5751C51.2323 31.5001 48.8698 33.8626 45.9448 33.8626Z" fill="#B0D9FF"/>
<path d="M59.0398 30.8476C59.7373 30.8476 60.2998 30.2851 60.2998 29.5876V27.5851C60.2998 26.8876 59.7373 26.3251 59.0398 26.3251H57.0598C56.7673 24.9076 56.2048 23.5576 55.4173 22.3426L56.8348 20.9251C57.3298 20.4301 57.3298 19.6426 56.8348 19.1476L55.4173 17.7301C54.9223 17.2351 54.1348 17.2351 53.6398 17.7301L52.2223 19.1476C51.0073 18.3376 49.6573 17.7751 48.2398 17.5051V15.5026C48.2398 14.8051 47.6773 14.2426 46.9798 14.2426H44.9773C44.2798 14.2426 43.7173 14.8051 43.7173 15.5026V17.4826C42.2998 17.7751 40.9498 18.3376 39.7348 19.1251L38.3173 17.7301C37.8223 17.2351 37.0348 17.2351 36.5398 17.7301L35.1223 19.1476C34.6273 19.6426 34.6273 20.4301 35.1223 20.9251L36.5398 22.3426C35.7298 23.5576 35.1673 24.9076 34.8973 26.3251H32.8948C32.1973 26.3251 31.6348 26.8876 31.6348 27.5851V29.5876C31.6348 30.2851 32.1973 30.8476 32.8948 30.8476H34.8748C35.1673 32.2651 35.7298 33.6151 36.5173 34.8301L35.0998 36.2251C34.6048 36.7201 34.6048 37.5076 35.0998 38.0026L36.5173 39.4201C37.0123 39.9151 37.7998 39.9151 38.2948 39.4201L39.7123 38.0026C40.9273 38.8126 42.2773 39.3751 43.6948 39.6451V41.6251C43.6948 42.3226 44.2573 42.8851 44.9548 42.8851H46.9573C47.6548 42.8851 48.2173 42.3226 48.2173 41.6251V39.6451C49.6348 39.3526 50.9848 38.7901 52.1998 38.0026L53.6173 39.4201C54.1123 39.9151 54.8998 39.9151 55.3948 39.4201L56.8123 38.0026C57.3073 37.5076 57.3073 36.7201 56.8123 36.2251L55.3948 34.8076C56.2048 33.5926 56.7673 32.2426 57.0373 30.8251H59.0398V30.8476ZM45.9448 36.8776C41.3548 36.8776 37.6423 33.1651 37.6423 28.5751C37.6423 23.9851 41.3548 20.2726 45.9448 20.2726C50.5348 20.2726 54.2473 23.9851 54.2473 28.5751C54.2473 33.1651 50.5348 36.8776 45.9448 36.8776Z" fill="white"/>
<path d="M46.958 43.38H44.9555C44.0105 43.38 43.2455 42.615 43.2455 41.67V40.05C42.008 39.7575 40.8605 39.285 39.7805 38.61L38.633 39.7575C37.958 40.4325 36.878 40.4325 36.2255 39.7575L34.808 38.34C34.1555 37.665 34.1555 36.585 34.808 35.9325L35.9555 34.785C35.2805 33.705 34.808 32.5575 34.5155 31.32H32.8955C31.9505 31.32 31.1855 30.555 31.1855 29.61V27.6075C31.1855 26.6625 31.9505 25.8975 32.8955 25.8975H34.5155C34.808 24.66 35.2805 23.5125 35.9555 22.4325L34.808 21.285C34.133 20.61 34.133 19.53 34.808 18.8775L36.2255 17.46C36.9005 16.785 37.9805 16.785 38.633 17.46L39.7805 18.6075C40.8605 17.9325 42.008 17.46 43.2455 17.1675V15.5475C43.2455 14.6025 44.0105 13.8375 44.9555 13.8375H46.958C47.903 13.8375 48.668 14.6025 48.668 15.5475V17.1675C49.9055 17.46 51.053 17.9325 52.133 18.6075L53.2805 17.46C53.9555 16.785 55.0355 16.785 55.688 17.46L57.1055 18.8775C57.7805 19.5525 57.7805 20.6325 57.1055 21.285L55.958 22.4325C56.633 23.5125 57.1055 24.66 57.398 25.8975H59.018C59.963 25.8975 60.728 26.6625 60.728 27.6075V29.61C60.728 30.555 59.963 31.32 59.018 31.32H57.398C57.1055 32.5575 56.633 33.705 55.958 34.785L57.1055 35.9325C57.758 36.6075 57.758 37.6875 57.1055 38.34L55.688 39.7575C55.013 40.4325 53.933 40.4325 53.2805 39.7575L52.133 38.61C51.053 39.285 49.9055 39.7575 48.668 40.05V41.67C48.668 42.615 47.903 43.38 46.958 43.38ZM39.713 37.575C39.803 37.575 39.893 37.5975 39.9605 37.6425C41.1305 38.4075 42.413 38.9475 43.7855 39.24C43.988 39.285 44.1455 39.465 44.1455 39.69V41.67C44.1455 42.12 44.5055 42.48 44.9555 42.48H46.958C47.408 42.48 47.768 42.12 47.768 41.67V39.69C47.768 39.465 47.9255 39.285 48.128 39.24C49.5005 38.97 50.783 38.43 51.953 37.6425C52.133 37.53 52.358 37.5525 52.5155 37.71L53.933 39.1275C54.248 39.4425 54.7655 39.4425 55.0805 39.1275L56.498 37.71C56.813 37.395 56.813 36.8775 56.498 36.5625L55.0805 35.145C54.923 34.9875 54.9005 34.7625 55.013 34.5825C55.778 33.4125 56.318 32.13 56.6105 30.7575C56.6555 30.555 56.8355 30.3975 57.0605 30.3975H59.0405C59.4905 30.3975 59.8505 30.0375 59.8505 29.5875V27.585C59.8505 27.135 59.4905 26.775 59.0405 26.775H57.0605C56.8355 26.775 56.6555 26.6175 56.6105 26.415C56.3405 25.0425 55.8005 23.76 55.0355 22.59C54.923 22.41 54.9455 22.185 55.103 22.0275L56.5205 20.61C56.8355 20.295 56.8355 19.7775 56.5205 19.4625L55.103 18.045C54.788 17.73 54.2705 17.73 53.9555 18.045L52.538 19.4625C52.3805 19.62 52.1555 19.6425 51.9755 19.53C50.8055 18.765 49.523 18.225 48.1505 17.9325C47.948 17.8875 47.7905 17.7075 47.7905 17.4825V15.48C47.7905 15.03 47.4305 14.67 46.9805 14.67H44.978C44.528 14.67 44.168 15.03 44.168 15.48V17.46C44.168 17.685 44.0105 17.865 43.808 17.91C42.4355 18.18 41.153 18.72 39.983 19.5075C39.803 19.62 39.578 19.5975 39.4205 19.44L38.003 18.045C37.688 17.73 37.1705 17.73 36.8555 18.045L35.438 19.4625C35.123 19.7775 35.123 20.295 35.438 20.61L36.8555 22.0275C37.013 22.185 37.0355 22.41 36.923 22.59C36.158 23.76 35.618 25.0425 35.3255 26.415C35.2805 26.6175 35.1005 26.775 34.8755 26.775H32.873C32.423 26.775 32.063 27.135 32.063 27.585V29.5875C32.063 30.0375 32.423 30.3975 32.873 30.3975H34.853C35.078 30.3975 35.258 30.555 35.303 30.7575C35.573 32.13 36.113 33.4125 36.878 34.5825C36.9905 34.7625 36.968 34.9875 36.8105 35.145L35.393 36.5625C35.078 36.8775 35.078 37.395 35.393 37.71L36.8105 39.1275C37.1255 39.4425 37.643 39.4425 37.958 39.1275L39.3755 37.71C39.488 37.62 39.6005 37.575 39.713 37.575ZM45.9455 34.3125C42.773 34.3125 40.208 31.7475 40.208 28.575C40.208 25.4025 42.773 22.8375 45.9455 22.8375C49.118 22.8375 51.683 25.4025 51.683 28.575C51.683 31.7475 49.118 34.3125 45.9455 34.3125ZM45.9455 23.7375C43.2905 23.7375 41.108 25.8975 41.108 28.575C41.108 31.2525 43.268 33.4125 45.9455 33.4125C48.6005 33.4125 50.783 31.2525 50.783 28.575C50.783 25.92 48.623 23.7375 45.9455 23.7375Z" fill="#020064"/>
<path opacity="0.15" d="M20.7891 70.8525C20.7891 71.8875 32.0616 72.7425 45.9441 72.7425C59.8266 72.7425 71.0991 71.8875 71.0991 70.8525C71.0991 69.8175 59.8266 68.9625 45.9441 68.9625C32.0616 68.9625 20.7891 69.8175 20.7891 70.8525Z" fill="#020064"/>
<path d="M19.5293 36.8774H72.3593V70.0874H19.5293V36.8774Z" fill="white"/>
<path d="M30.1042 44.4375C30.1042 46.1025 28.7542 47.4525 27.0892 47.4525C25.4242 47.4525 24.0742 46.1025 24.0742 44.4375C24.0742 42.7725 25.4242 41.4225 27.0892 41.4225C28.7542 41.4 30.1042 42.75 30.1042 44.4375Z" fill="#B0D9FF"/>
<path d="M27.0666 47.9025C25.1541 47.9025 23.6016 46.35 23.6016 44.4375C23.6016 42.525 25.1541 40.9725 27.0666 40.9725C28.9791 40.9725 30.5316 42.525 30.5316 44.4375C30.5541 46.35 29.0016 47.9025 27.0666 47.9025ZM27.0891 41.85C25.6716 41.85 24.5241 42.9975 24.5241 44.415C24.5241 45.8325 25.6716 46.98 27.0891 46.98C28.5066 46.98 29.6541 45.8325 29.6541 44.415C29.6541 43.02 28.4841 41.85 27.0891 41.85Z" fill="#020064"/>
<path d="M24.0527 54.2475C24.0527 55.9125 25.4027 57.2625 27.0677 57.2625C28.7327 57.2625 30.0827 55.9125 30.0827 54.2475C30.0827 52.5825 28.7327 51.2325 27.0677 51.2325C25.4027 51.2325 24.0527 52.5825 24.0527 54.2475Z" fill="#B0D9FF"/>
<path d="M27.09 57.7125C25.1775 57.7125 23.625 56.16 23.625 54.2475C23.625 52.335 25.1775 50.7825 27.09 50.7825C29.0025 50.7825 30.555 52.335 30.555 54.2475C30.555 56.16 29.0025 57.7125 27.09 57.7125ZM27.09 51.6825C25.6725 51.6825 24.525 52.83 24.525 54.2475C24.525 55.665 25.6725 56.8125 27.09 56.8125C28.5075 56.8125 29.655 55.665 29.655 54.2475C29.655 52.83 28.485 51.6825 27.09 51.6825Z" fill="#020064"/>
<path d="M39.1498 64.0575C39.1273 64.89 38.4298 65.5425 37.5973 65.52C36.7873 65.4975 36.1348 64.845 36.1348 64.0575V42.165C36.1573 41.3325 36.8548 40.68 37.6873 40.7025C38.4973 40.725 39.1498 41.3775 39.1498 42.165V64.0575Z" fill="#B0D9FF"/>
<path d="M37.643 65.97C37.6205 65.97 37.6205 65.97 37.598 65.97C36.5405 65.9475 35.708 65.115 35.6855 64.0575V42.165C35.708 41.0625 36.608 40.23 37.688 40.2525C38.7455 40.275 39.578 41.1075 39.6005 42.165V64.0575C39.578 64.575 39.3755 65.07 38.993 65.43C38.633 65.79 38.1605 65.97 37.643 65.97ZM37.643 41.1525C37.0805 41.1525 36.608 41.6025 36.5855 42.1875V64.0575C36.608 64.62 37.058 65.07 37.6205 65.07C37.913 65.07 38.183 64.98 38.3855 64.7775C38.588 64.575 38.7005 64.3275 38.723 64.035V42.1425C38.7005 41.58 38.2505 41.13 37.688 41.13C37.6655 41.1525 37.6655 41.1525 37.643 41.1525Z" fill="#020064"/>
<path d="M33.1191 61.0425H42.1866V65.565H33.1191V61.0425Z" fill="white"/>
<path d="M42.1659 66.015H33.0984C32.8509 66.015 32.6484 65.8125 32.6484 65.565V61.0425C32.6484 60.795 32.8509 60.5925 33.0984 60.5925H42.1659C42.4134 60.5925 42.6159 60.795 42.6159 61.0425V65.565C42.6159 65.8125 42.4134 66.015 42.1659 66.015ZM33.5709 65.115H41.7384V61.4925H33.5709V65.115Z" fill="#020064"/>
<path d="M52.7396 64.0575C52.7396 64.89 52.0646 65.565 51.2321 65.565C50.3996 65.565 49.7246 64.89 49.7246 64.0575V42.165C49.7246 41.3325 50.3996 40.6575 51.2321 40.6575C52.0646 40.6575 52.7396 41.3325 52.7396 42.165V64.0575Z" fill="#B0D9FF"/>
<path d="M51.2329 66.015C50.1529 66.015 49.2754 65.1375 49.2754 64.0575V42.165C49.2754 41.085 50.1529 40.2075 51.2329 40.2075C52.3129 40.2075 53.1904 41.085 53.1904 42.165V64.0575C53.1904 65.1375 52.3129 66.015 51.2329 66.015ZM51.2329 41.1075C50.6479 41.1075 50.1754 41.58 50.1754 42.165V64.0575C50.1754 64.6425 50.6479 65.115 51.2329 65.115C51.8179 65.115 52.2904 64.6425 52.2904 64.0575V42.165C52.2904 41.58 51.8179 41.1075 51.2329 41.1075Z" fill="#020064"/>
<path d="M66.3295 64.0575C66.307 64.89 65.6095 65.5425 64.777 65.52C63.967 65.4975 63.3145 64.845 63.3145 64.0575V42.165C63.337 41.3325 64.0345 40.68 64.867 40.7025C65.677 40.725 66.3295 41.3775 66.3295 42.165V64.0575Z" fill="#B0D9FF"/>
<path d="M64.8227 65.9699C64.8002 65.9699 64.8002 65.9699 64.7777 65.9699C63.7202 65.9474 62.8877 65.1149 62.8652 64.0574V42.1649C62.8877 41.0849 63.7652 40.2524 64.8227 40.2524C64.8452 40.2524 64.8452 40.2524 64.8677 40.2524C65.9252 40.2749 66.7577 41.1074 66.7802 42.1649V64.0574C66.7577 64.5749 66.5552 65.0699 66.1727 65.4299C65.8127 65.7899 65.3177 65.9699 64.8227 65.9699ZM64.8227 41.1524C64.2602 41.1524 63.7877 41.6024 63.7652 42.1874V64.0574C63.7877 64.6199 64.2377 65.0699 64.8002 65.0699C65.0927 65.0699 65.3627 64.9799 65.5652 64.7774C65.7677 64.5749 65.8802 64.3274 65.9027 64.0349V42.1424C65.8802 41.5799 65.4302 41.1299 64.8677 41.1299C64.8452 41.1524 64.8227 41.1524 64.8227 41.1524Z" fill="#020064"/>
<path d="M46.7109 45.1801H55.7784V49.7026H46.7109V45.1801Z" fill="white"/>
<path d="M55.7558 50.1525H46.6883C46.4408 50.1525 46.2383 49.95 46.2383 49.7025V45.18C46.2383 44.9325 46.4408 44.73 46.6883 44.73H55.7558C56.0033 44.73 56.2058 44.9325 56.2058 45.18V49.7025C56.2058 49.9725 56.0033 50.1525 55.7558 50.1525ZM47.1608 49.2525H55.3283V45.63H47.1608V49.2525Z" fill="#020064"/>
<path d="M60.3008 52.74H69.3683V57.2625H60.3008V52.74Z" fill="white"/>
<path d="M69.3446 57.7125H60.2996C60.0521 57.7125 59.8496 57.51 59.8496 57.2625V52.74C59.8496 52.4925 60.0521 52.29 60.2996 52.29H69.3671C69.6146 52.29 69.8171 52.4925 69.8171 52.74V57.2625C69.7946 57.51 69.5921 57.7125 69.3446 57.7125ZM60.7496 56.8125H68.9171V53.19H60.7496V56.8125Z" fill="#020064"/>
<path d="M72.3601 70.5375H19.5301C19.2826 70.5375 19.0801 70.335 19.0801 70.0875V36.8775C19.0801 36.63 19.2826 36.4275 19.5301 36.4275H72.3601C72.6076 36.4275 72.8101 36.63 72.8101 36.8775V70.0875C72.8101 70.335 72.6076 70.5375 72.3601 70.5375ZM19.9801 69.6375H71.9101V37.3275H19.9801V69.6375Z" fill="#020064"/>
</svg>
