<svg width="90" height="90" viewBox="0 0 90 90" fill="none" xmlns="http://www.w3.org/2000/svg">
<path d="M9 45C9 64.89 25.11 81 45 81C64.89 81 81 64.89 81 45C81 25.11 64.89 9 45 9C25.11 9 9 25.11 9 45Z" fill="#D9EDFF"/>
<path d="M14.4902 18.6075H74.1602V63.2475H14.4902V18.6075Z" fill="#B0D9FF"/>
<path d="M74.1591 63.6975H14.4891C14.2416 63.6975 14.0391 63.495 14.0391 63.2475V18.6075C14.0391 18.36 14.2416 18.1575 14.4891 18.1575H74.1591C74.4066 18.1575 74.6091 18.36 74.6091 18.6075V63.2475C74.6091 63.495 74.4066 63.6975 74.1591 63.6975ZM14.9391 62.7975H73.7091V19.0575H14.9391V62.7975Z" fill="#020064"/>
<path d="M74.1592 22.095C74.1592 20.1825 72.6067 18.63 70.6942 18.63H17.9767C16.0642 18.63 14.5117 20.1825 14.5117 22.095V26.8875H74.1817L74.1592 22.095Z" fill="white"/>
<path d="M74.1591 27.3151H14.4891C14.2416 27.3151 14.0391 27.1126 14.0391 26.8651V22.0951C14.0391 19.9351 15.7941 18.1801 17.9541 18.1801H70.6716C72.8316 18.1801 74.5866 19.9351 74.5866 22.0951V26.8876C74.6091 27.1126 74.4066 27.3151 74.1591 27.3151ZM14.9391 26.4151H73.7091V22.0951C73.7091 20.4301 72.3591 19.0801 70.6941 19.0801H17.9766C16.3116 19.0801 14.9616 20.4301 14.9616 22.0951V26.4151H14.9391Z" fill="#020064"/>
<path d="M17.9766 22.7249C17.9766 23.6924 18.7641 24.4574 19.7091 24.4574C20.6766 24.4574 21.4416 23.6699 21.4416 22.7249C21.4416 21.7574 20.6541 20.9924 19.7091 20.9924C18.7416 20.9924 17.9766 21.7574 17.9766 22.7249Z" fill="#B0D9FF"/>
<path d="M19.7098 24.9075C18.4948 24.9075 17.5273 23.9175 17.5273 22.725C17.5273 21.51 18.5173 20.5425 19.7098 20.5425C20.2948 20.5425 20.8348 20.7675 21.2623 21.1725C21.6673 21.5775 21.8923 22.14 21.8923 22.725C21.8923 23.31 21.6673 23.85 21.2623 24.2775C20.8348 24.6825 20.2948 24.9075 19.7098 24.9075ZM19.7098 21.4425C18.9898 21.4425 18.4273 22.0275 18.4273 22.725C18.4273 23.445 19.0123 24.0075 19.7098 24.0075C20.0473 24.0075 20.3848 23.8725 20.6098 23.625C20.8573 23.3775 20.9923 23.0625 20.9923 22.725C20.9923 22.3875 20.8573 22.05 20.6098 21.825C20.3623 21.5775 20.0473 21.4425 19.7098 21.4425Z" fill="#020064"/>
<path d="M24.9062 22.7249C24.9062 23.6924 25.6938 24.4574 26.6388 24.4574C27.6063 24.4574 28.3713 23.6699 28.3713 22.7249C28.3713 21.7574 27.5838 20.9924 26.6388 20.9924C25.6938 20.9924 24.9062 21.7574 24.9062 22.7249Z" fill="#B0D9FF"/>
<path d="M26.6395 24.9075C26.0545 24.9075 25.5145 24.6825 25.087 24.2775C24.682 23.8725 24.457 23.31 24.457 22.725C24.457 21.51 25.447 20.5425 26.6395 20.5425C27.2245 20.5425 27.7645 20.7675 28.192 21.1725C28.597 21.5775 28.822 22.14 28.822 22.725C28.8445 23.9175 27.8545 24.9075 26.6395 24.9075ZM26.6395 21.4425C25.9195 21.4425 25.357 22.0275 25.357 22.725C25.357 23.0625 25.492 23.4 25.7395 23.625C25.987 23.8725 26.302 24.0075 26.6395 24.0075C27.3595 24.0075 27.922 23.4225 27.922 22.725C27.922 22.3875 27.787 22.05 27.5395 21.825C27.3145 21.5775 26.9995 21.4425 26.6395 21.4425Z" fill="#020064"/>
<path d="M31.8594 22.7251C31.8594 23.6926 32.6244 24.4576 33.5919 24.4576C34.5594 24.4576 35.3244 23.6926 35.3244 22.7251C35.3244 21.7576 34.5594 20.9926 33.5919 20.9926C32.6469 20.9926 31.8594 21.7576 31.8594 22.7251Z" fill="#B0D9FF"/>
<path d="M33.5927 24.9075C33.0077 24.9075 32.4677 24.6825 32.0402 24.255C31.6352 23.85 31.4102 23.2875 31.4102 22.7025C31.4102 22.1175 31.6352 21.5775 32.0627 21.15C32.4677 20.745 33.0302 20.52 33.6152 20.52C34.2002 20.52 34.7402 20.745 35.1677 21.1725C35.5727 21.5775 35.7977 22.14 35.7977 22.725C35.7752 23.94 34.8077 24.9075 33.5927 24.9075ZM33.5927 21.4425C33.2552 21.4425 32.9177 21.5775 32.6927 21.825C32.4452 22.0725 32.3102 22.3875 32.3102 22.725C32.3102 23.445 32.8952 24.0075 33.5927 24.0075C34.2902 24.0075 34.8752 23.4225 34.8752 22.725C34.8752 22.3875 34.7402 22.05 34.4927 21.8025C34.2452 21.555 33.9302 21.4425 33.5927 21.4425Z" fill="#020064"/>
<path d="M20.4297 31.23H27.2922V38.0925H20.4297V31.23Z" fill="white"/>
<path d="M27.293 38.5425H20.4305C20.183 38.5425 19.9805 38.34 19.9805 38.0925V31.23C19.9805 30.9825 20.183 30.78 20.4305 30.78H27.293C27.5405 30.78 27.743 30.9825 27.743 31.23V38.0925C27.743 38.34 27.5405 38.5425 27.293 38.5425ZM20.8805 37.6425H26.843V31.68H20.8805V37.6425Z" fill="#020064"/>
<path d="M20.4297 41.5125H27.2922V48.375H20.4297V41.5125Z" fill="white"/>
<path d="M27.293 48.825H20.4305C20.183 48.825 19.9805 48.6225 19.9805 48.375V41.5125C19.9805 41.265 20.183 41.0625 20.4305 41.0625H27.293C27.5405 41.0625 27.743 41.265 27.743 41.5125V48.375C27.743 48.6225 27.5405 48.825 27.293 48.825ZM20.8805 47.925H26.843V41.9625H20.8805V47.925Z" fill="#020064"/>
<path d="M20.4297 51.8175H27.2922V58.68H20.4297V51.8175Z" fill="white"/>
<path d="M27.293 59.1301H20.4305C20.183 59.1301 19.9805 58.9276 19.9805 58.68V51.8176C19.9805 51.5701 20.183 51.3676 20.4305 51.3676H27.293C27.5405 51.3676 27.743 51.5701 27.743 51.8176V58.68C27.743 58.9276 27.5405 59.1301 27.293 59.1301ZM20.8805 58.2301H26.843V52.2676H20.8805V58.2301Z" fill="#020064"/>
<path d="M68.3323 36.36C67.6573 36 66.9148 35.7975 66.1498 35.7975H47.9023C47.1373 35.7975 46.3948 36 45.7198 36.36L35.0098 42.21C34.5598 42.4575 34.3798 43.0425 34.6273 43.4925C34.6273 43.4925 34.6273 43.4925 34.6273 43.515L38.3173 49.9725C38.5423 50.3775 39.0598 50.5575 39.4873 50.3775L44.4373 48.3975V66.8925C44.4373 67.41 44.8648 67.8375 45.3823 67.8375H68.6473C69.1648 67.8375 69.5923 67.41 69.5923 66.8925V48.375L74.5423 50.355C74.9698 50.535 75.4873 50.355 75.7123 49.95L79.4023 43.4925C79.6498 43.0425 79.4923 42.4575 79.0423 42.21C79.0423 42.21 79.0423 42.21 79.0198 42.21L68.3323 36.36Z" fill="white"/>
<path d="M68.6477 68.265H45.3827C44.6177 68.265 43.9877 67.635 43.9877 66.87V49.05L39.6452 50.7825C38.9927 51.03 38.2502 50.7825 37.9127 50.175L34.2227 43.7175C34.2227 43.7175 34.2227 43.695 34.2002 43.695C33.8402 43.02 34.0877 42.165 34.7627 41.805L45.4727 35.955C46.2152 35.55 47.0477 35.3475 47.8802 35.3475H66.1502C66.9827 35.3475 67.8152 35.55 68.5577 35.955L79.2677 41.805L79.2902 41.8275C79.6052 42.0075 79.8302 42.3 79.9427 42.66C80.0327 43.02 79.9877 43.4025 79.8077 43.7175L76.0952 50.175C75.7577 50.7825 75.0152 51.03 74.3627 50.7825L70.0202 49.05V66.87C70.0427 67.635 69.4127 68.265 68.6477 68.265ZM44.4377 47.925C44.5277 47.925 44.6177 47.9475 44.6852 47.9925C44.7977 48.0825 44.8877 48.2175 44.8877 48.375V66.87C44.8877 67.14 45.1127 67.365 45.3827 67.365H68.6477C68.9177 67.365 69.1427 67.14 69.1427 66.87V48.375C69.1427 48.2175 69.2102 48.0825 69.3452 47.9925C69.4802 47.9025 69.6152 47.9025 69.7727 47.9475L74.7227 49.9275C74.9477 50.0175 75.2177 49.9275 75.3302 49.7025L79.0202 43.245C79.0877 43.1325 79.1102 42.9975 79.0652 42.8625C79.0202 42.7275 78.9527 42.6375 78.8402 42.57L68.1302 36.72C67.5227 36.3825 66.8477 36.225 66.1502 36.225H47.9027C47.2052 36.225 46.5302 36.405 45.9227 36.72L35.2127 42.57C35.1002 42.6375 35.0102 42.7275 34.9652 42.8625C34.9202 42.9975 34.9427 43.1325 35.0102 43.245L38.7002 49.725C38.8127 49.9275 39.0827 50.04 39.3077 49.95L44.2577 47.97C44.3252 47.9475 44.3702 47.925 44.4377 47.925Z" fill="#020064"/>
<path d="M62.7288 35.7975C62.6388 38.9475 60.0288 41.445 56.8788 41.3775C53.8413 41.31 51.3888 38.8575 51.2988 35.7975H62.7288Z" fill="#B0D9FF"/>
<path d="M57.0146 41.8275C56.9696 41.8275 56.9021 41.8275 56.8571 41.8275C53.5721 41.7375 50.9396 39.105 50.8496 35.82C50.8496 35.7075 50.8946 35.5725 50.9846 35.505C51.0746 35.415 51.1871 35.37 51.2996 35.37H62.7296C62.8421 35.37 62.9771 35.415 63.0446 35.505C63.1346 35.595 63.1796 35.7075 63.1796 35.82C63.1346 37.4625 62.4596 38.9925 61.2671 40.14C60.1196 41.22 58.6121 41.8275 57.0146 41.8275ZM51.7721 36.2475C52.0646 38.835 54.2246 40.86 56.8796 40.9275C58.2971 40.9725 59.6246 40.455 60.6371 39.4875C61.5371 38.6325 62.0996 37.485 62.2346 36.27H51.7721V36.2475Z" fill="#020064"/>
<path d="M66.171 52.74C66.171 53.55 65.6535 54.27 64.8885 54.54L63.3585 55.0575C62.976 55.1925 62.5485 55.1925 62.166 55.0575L60.636 54.54C59.871 54.2925 59.3535 53.55 59.3535 52.74V49.32C59.3535 48.8025 59.781 48.375 60.2985 48.375H65.271C65.7885 48.375 66.216 48.8025 66.216 49.32L66.171 52.74Z" fill="#B0D9FF"/>
<path d="M62.7294 55.5976C62.4819 55.5976 62.2344 55.5526 61.9869 55.4851L60.4569 54.9675C59.4894 54.6525 58.8594 53.7525 58.8594 52.74V49.32C58.8594 48.555 59.4894 47.925 60.2544 47.925H65.2269C65.9919 47.925 66.6219 48.555 66.6219 49.32V52.74C66.6219 53.7525 65.9694 54.63 65.0244 54.9675L63.4944 55.4851C63.2244 55.5526 62.9769 55.5976 62.7294 55.5976ZM60.2544 48.825C59.9844 48.825 59.7594 49.05 59.7594 49.32V52.74C59.7594 53.37 60.1644 53.91 60.7494 54.1125L62.2794 54.63C62.5719 54.72 62.8869 54.72 63.2019 54.63L64.7319 54.1125C65.3169 53.91 65.7219 53.37 65.7219 52.74V49.32C65.7219 49.05 65.4969 48.825 65.2269 48.825H60.2544Z" fill="#020064"/>
<path d="M29.4088 66.825C29.2063 67.545 28.8013 67.59 28.5313 66.8925L24.0313 56.0925C23.7388 55.395 24.0763 55.0575 24.7738 55.35L35.5738 59.85C36.2713 60.1425 36.2488 60.5475 35.5063 60.7275L32.0413 61.6725C31.2538 61.9425 30.6238 62.55 30.3538 63.36L29.4088 66.825Z" fill="white"/>
<path d="M28.9805 67.8376C28.7555 67.8376 28.373 67.7251 28.103 67.0501L23.603 56.2501C23.3105 55.5526 23.5355 55.1701 23.693 55.0126C23.8505 54.8551 24.233 54.6301 24.9305 54.9226L35.7305 59.4226C36.4505 59.7151 36.518 60.1201 36.518 60.3451C36.4955 60.5701 36.3605 60.9525 35.618 61.155L32.1755 62.1001C31.523 62.3251 31.0055 62.8426 30.7805 63.4726L29.8355 66.915C29.633 67.6575 29.228 67.7926 29.0255 67.8151C29.0255 67.8375 29.003 67.8376 28.9805 67.8376ZM24.368 55.6876C24.368 55.7326 24.3905 55.8001 24.4355 55.9126L28.9355 66.7126C28.9355 66.7351 28.958 66.7576 28.958 66.7576C28.958 66.7351 28.958 66.7126 28.9805 66.7126L29.9255 63.2476V63.2251C30.2405 62.3026 30.9605 61.56 31.883 61.2675H31.9055L35.3705 60.3226C35.393 60.3226 35.4155 60.3226 35.4155 60.3001C35.393 60.3001 35.393 60.2775 35.3705 60.2775L24.5705 55.7775C24.503 55.71 24.413 55.7101 24.368 55.6876Z" fill="#020064"/>
<path d="M14.9611 54.0675C15.7936 54.0675 17.4361 54.63 17.4361 55.305C17.4361 55.98 15.7711 56.5425 14.9611 56.5425C14.2861 56.52 13.7461 55.9575 13.7461 55.26C13.7911 54.6075 14.3086 54.09 14.9611 54.0675Z" fill="white"/>
<path d="M14.9619 56.9926C14.4894 56.9701 14.0844 56.7901 13.7694 56.4751C13.4544 56.1376 13.2969 55.7101 13.2969 55.2601C13.3194 54.3601 14.0394 53.6401 14.9394 53.6176C14.9394 53.6176 14.9394 53.6176 14.9619 53.6176C15.8394 53.6176 17.8869 54.2026 17.8869 55.3051C17.9094 56.4301 15.8394 56.9926 14.9619 56.9926ZM14.9844 54.5176C14.5569 54.5401 14.2419 54.8776 14.2194 55.2826C14.2194 55.4851 14.2869 55.6876 14.4444 55.8451C14.6019 56.0026 14.7819 56.0926 15.0069 56.0926C15.8169 56.0926 16.9869 55.5526 17.0319 55.3051C16.9644 55.0576 15.8169 54.5176 14.9844 54.5176Z" fill="#020064"/>
<path d="M32.3324 56.5425C31.4999 56.5425 29.8574 55.98 29.8574 55.305C29.8574 54.63 31.4999 54.0675 32.3324 54.0675C33.0074 54.09 33.5474 54.6525 33.5474 55.35C33.5249 56.0025 33.0074 56.52 32.3324 56.5425Z" fill="white"/>
<path d="M32.3332 56.9926C31.4557 56.9926 29.4082 56.4076 29.4082 55.3051C29.4082 54.1801 31.4557 53.6176 32.3332 53.6176C33.2782 53.6401 34.0207 54.4276 33.9982 55.3501C33.9757 56.2501 33.2557 56.9701 32.3332 56.9926ZM32.3332 54.5176C31.5007 54.5176 30.3532 55.0576 30.3082 55.3051C30.3532 55.5526 31.5007 56.0926 32.3332 56.0926C32.7607 56.0701 33.0757 55.7326 33.0982 55.3276C33.0982 54.9001 32.7607 54.5176 32.3332 54.5176Z" fill="#020064"/>
<path d="M16.6505 60.5699C17.2355 59.9849 18.788 59.2199 19.283 59.6924C19.778 60.1649 18.9905 61.7399 18.4055 62.3249C17.9105 62.8199 17.1455 62.8199 16.6505 62.3249C16.1555 61.8299 16.1555 61.0649 16.6505 60.5699Z" fill="white"/>
<path d="M17.5276 63.135C17.1001 63.135 16.6726 62.9775 16.3351 62.64C15.6826 61.9875 15.6826 60.9075 16.3351 60.255C16.9651 59.625 18.8101 58.59 19.5976 59.3775C19.8451 59.625 20.0476 60.1425 19.6651 61.1325C19.4401 61.695 19.0801 62.3025 18.7201 62.64C18.3826 62.9775 17.9551 63.135 17.5276 63.135ZM16.9651 60.885C16.6501 61.2 16.6501 61.695 16.9651 62.01C17.2801 62.325 17.7751 62.325 18.0901 62.01C18.6751 61.425 19.1251 60.2325 18.9676 60.0075C18.7426 59.8725 17.5501 60.3 16.9651 60.885Z" fill="#020064"/>
<path d="M30.6677 50.0399C30.0827 50.6249 28.5302 51.3899 28.0352 50.9174C27.5402 50.4449 28.3277 48.8699 28.9127 48.2849C29.4077 47.7899 30.1727 47.7899 30.6677 48.2849C31.1627 48.7799 31.1627 49.5449 30.6677 50.0399Z" fill="white"/>
<path d="M28.4847 51.525C28.1922 51.525 27.9222 51.435 27.7197 51.2325C27.4722 50.985 27.2697 50.4675 27.6522 49.4775C27.8772 48.915 28.2372 48.3075 28.5972 47.97C29.2497 47.3175 30.3297 47.3175 30.9822 47.97C31.2972 48.285 31.4772 48.7125 31.4772 49.1625C31.4772 49.6125 31.2972 50.04 30.9822 50.355C30.5322 50.8275 29.3847 51.525 28.4847 51.525ZM29.7897 48.375C29.5872 48.375 29.3847 48.4425 29.2272 48.6C28.6422 49.185 28.1922 50.3775 28.3497 50.6025C28.5522 50.7375 29.7447 50.31 30.3522 49.725C30.5097 49.5675 30.5772 49.3875 30.5772 49.1625C30.5772 48.96 30.4872 48.7575 30.3522 48.6C30.1947 48.4425 29.9922 48.375 29.7897 48.375Z" fill="#020064"/>
<path d="M22.4102 63.9899C22.4102 63.1574 22.9727 61.5149 23.6477 61.5149C24.3227 61.5149 24.8852 63.1799 24.8852 63.9899C24.8852 64.6649 24.3227 65.2274 23.6477 65.2274C22.9727 65.2274 22.4102 64.6649 22.4102 63.9899Z" fill="white"/>
<path d="M23.6484 65.6774C22.7259 65.6774 21.9609 64.9124 21.9609 63.9899C21.9609 63.1124 22.5459 61.0649 23.6484 61.0649C24.7734 61.0649 25.3359 63.1124 25.3359 63.9899C25.3359 64.9124 24.5934 65.6774 23.6484 65.6774ZM23.6484 61.9649C23.4009 62.0099 22.8609 63.1574 22.8609 63.9899C22.8609 64.4174 23.2209 64.7774 23.6484 64.7774C24.0759 64.7774 24.4359 64.4174 24.4359 63.9899C24.4359 63.1574 23.9184 62.0099 23.6484 61.9649Z" fill="#020064"/>
<path d="M24.8852 46.6199C24.8852 47.4524 24.3227 49.0949 23.6477 49.0949C22.9727 49.0949 22.4102 47.4299 22.4102 46.6199C22.4102 45.9449 22.9727 45.3824 23.6477 45.3824C24.3227 45.3824 24.8852 45.9449 24.8852 46.6199Z" fill="white"/>
<path d="M23.6484 49.545C22.5234 49.545 21.9609 47.4975 21.9609 46.62C21.9609 45.6975 22.7259 44.9325 23.6484 44.9325C24.5709 44.9325 25.3359 45.6975 25.3359 46.62C25.3359 47.4975 24.7734 49.545 23.6484 49.545ZM23.6484 45.8325C23.2209 45.8325 22.8609 46.1925 22.8609 46.62C22.8609 47.4525 23.4009 48.6 23.6484 48.645C23.8959 48.6 24.4359 47.4525 24.4359 46.62C24.4359 46.1925 24.0984 45.8325 23.6484 45.8325Z" fill="#020064"/>
<path d="M18.3821 48.2849C18.9671 48.8699 19.7546 50.4224 19.2596 50.9174C18.7646 51.4124 17.2121 50.6249 16.6271 50.0399C16.1321 49.5449 16.1321 48.7799 16.6271 48.2849C17.1221 47.8124 17.9096 47.8124 18.3821 48.2849Z" fill="white"/>
<path d="M18.8091 51.525C17.9316 51.525 16.7841 50.8275 16.3116 50.355C15.6591 49.7025 15.6591 48.6225 16.3116 47.97C16.9641 47.3175 18.0441 47.3175 18.6966 47.97C19.0341 48.3075 19.4166 48.915 19.6416 49.4775C20.0466 50.49 19.8216 50.985 19.5741 51.2325C19.3941 51.435 19.1241 51.525 18.8091 51.525ZM17.5266 48.375C17.3241 48.375 17.1216 48.4425 16.9641 48.6C16.6491 48.915 16.6491 49.41 16.9641 49.725C17.5491 50.31 18.7416 50.7375 18.9666 50.6025C19.1016 50.4 18.6741 49.2075 18.0891 48.6C17.9091 48.4425 17.7066 48.375 17.5266 48.375Z" fill="#020064"/>
</svg>
