<svg width="90" height="90" viewBox="0 0 90 90" fill="none" xmlns="http://www.w3.org/2000/svg">
<path d="M42.1191 82.08C62.0091 82.08 78.1191 65.97 78.1191 46.08C78.1191 26.19 62.0091 10.08 42.1191 10.08C22.2291 10.08 6.11914 26.19 6.11914 46.08C6.11914 65.97 22.2291 82.08 42.1191 82.08Z" fill="#D9EDFF"/>
<path d="M39.4642 24.8625C39.4642 24.8625 33.9067 42.8851 20.1817 44.9101C6.43422 46.9351 6.07422 51.0751 6.07422 51.0751C11.6992 49.7925 13.4767 55.0126 19.8667 54.8101C50.8942 53.8651 59.2192 60.5025 48.7342 24.8625H39.4642Z" fill="#B0D9FF"/>
<path d="M63.653 83.1375L52.1105 59.805C51.9755 59.4675 51.7505 59.175 51.458 58.95C51.1655 58.725 50.8055 58.635 50.423 58.635H35.483C35.123 58.635 34.763 58.7475 34.448 58.95C34.1555 59.1525 33.908 59.445 33.7955 59.805L22.2305 83.1375" fill="#B0D9FF"/>
<path d="M63.6523 83.5876C63.4948 83.5876 63.3373 83.4976 63.2473 83.3401L51.7048 60.0076C51.7048 59.9851 51.6823 59.9851 51.6823 59.9626C51.5923 59.6926 51.4123 59.4901 51.1873 59.3326C50.9623 59.1751 50.6923 59.0851 50.4223 59.0851H35.4823C35.2123 59.0851 34.9423 59.1751 34.7173 59.3326C34.4923 59.4901 34.3123 59.7151 34.2223 59.9626C34.2223 59.9851 34.1998 59.9851 34.1998 60.0076L22.6123 83.3401C22.4998 83.5651 22.2298 83.6551 22.0048 83.5426C21.7798 83.4301 21.6898 83.1601 21.8023 82.9351L33.3898 59.6251C33.5473 59.1976 33.8398 58.8376 34.1998 58.5901C34.5823 58.3201 35.0098 58.1851 35.4823 58.1851H50.4223C50.8723 58.1851 51.3223 58.3201 51.7048 58.5901C52.0873 58.8376 52.3573 59.1976 52.5148 59.6251L64.0573 82.9351C64.1698 83.1601 64.0798 83.4301 63.8548 83.5426C63.7873 83.5651 63.7198 83.5876 63.6523 83.5876Z" fill="#020064"/>
<path d="M19.5291 55.2601C16.5366 55.2601 14.4891 54.0901 12.6891 53.0551C10.6641 51.8851 8.93156 50.8951 6.16406 51.5251C6.02906 51.5476 5.87156 51.5251 5.75906 51.4351C5.64656 51.3451 5.60156 51.2101 5.60156 51.0526C5.62406 50.9176 5.75906 49.7701 7.69406 48.3976C10.1466 46.6426 14.3316 45.3376 20.0916 44.4826C33.3666 42.5251 38.9466 24.9301 39.0141 24.7501C39.0816 24.5701 39.2391 24.4351 39.4416 24.4351H48.7341C48.9366 24.4351 49.1166 24.5701 49.1616 24.7501C53.9316 40.9501 54.6291 47.9701 51.8616 51.6376C49.0716 55.3276 42.9066 55.2826 32.7141 55.1926C28.9566 55.1701 24.6816 55.1251 19.8666 55.2601C19.7541 55.2601 19.6416 55.2601 19.5291 55.2601ZM7.80656 50.4226C9.89906 50.4226 11.4741 51.3226 13.1166 52.2676C14.9841 53.3476 16.8966 54.4501 19.8441 54.3601C24.6816 54.2026 28.9566 54.2476 32.7366 54.2926C42.6591 54.3826 48.6216 54.4276 51.1416 51.0976C53.6616 47.7676 52.9191 40.7701 48.3966 25.3351H39.7791C39.3966 26.4601 38.0016 30.3076 35.3241 34.4026C31.1841 40.7476 25.9641 44.5501 20.2266 45.3826C10.4391 46.8226 7.62656 49.3426 6.81656 50.5126C7.17656 50.4451 7.49156 50.4226 7.80656 50.4226Z" fill="#020064"/>
<path d="M43.0654 41.2425H49.1404L49.1179 31.3875C49.2304 31.0275 49.4104 30.6901 49.6579 30.3976C49.9054 30.1051 50.1979 29.88 50.5354 29.7C50.8729 29.565 51.2329 29.5426 51.5929 29.6101C51.9529 29.6775 52.2679 29.8575 52.5154 30.1275C53.0104 30.645 53.3929 31.2525 53.6629 31.9275C53.9104 32.6025 54.0454 33.3225 54.0229 34.0425C54.0004 34.7625 53.8429 35.46 53.5279 36.1125C53.2354 36.765 52.8079 37.35 52.2679 37.845L50.9854 39.0375L53.4154 41.6925L54.6979 40.5C56.0254 39.2625 56.9704 37.665 57.3754 35.91C57.7804 34.1326 57.6454 32.2875 56.9929 30.6C56.3404 28.9125 55.1704 27.45 53.6854 26.4375C52.1779 25.425 50.4229 24.8625 48.6004 24.8625H37.5079C35.6854 24.8625 33.9304 25.4025 32.4229 26.4375C30.9154 27.45 29.7679 28.9125 29.1154 30.6C28.4629 32.2875 28.3279 34.1326 28.7329 35.91C29.1379 37.6875 30.0829 39.285 31.4104 40.5L32.6929 41.6925L35.1229 39.0375L33.8179 37.845C33.3004 37.35 32.8729 36.765 32.5579 36.1125C32.2654 35.46 32.0854 34.7625 32.0629 34.0425C32.0404 33.3225 32.1529 32.6025 32.4229 31.9275C32.6704 31.2525 33.0754 30.645 33.5704 30.1275C33.8179 29.8575 34.1329 29.6775 34.4929 29.6101C34.8529 29.5426 35.2129 29.565 35.5504 29.7C35.8879 29.835 36.1804 30.06 36.3829 30.3525C36.5854 30.645 36.6979 31.005 36.6979 31.365L36.6754 41.22L43.0654 41.2425Z" fill="white"/>
<path d="M36.6967 41.22L35.3242 57.42L39.7342 57.4425L41.3767 46.7775C41.3767 46.3725 41.5567 45.99 41.8492 45.72C42.1417 45.45 42.5242 45.2925 42.9292 45.2925C43.3342 45.2925 43.7167 45.45 44.0092 45.7425C44.3017 46.0125 44.4592 46.395 44.4592 46.8L46.0792 57.465H50.4892L49.1617 41.2425H36.6967V41.22Z" fill="white"/>
<path d="M39.7134 57.8925L35.3034 57.87C35.1684 57.87 35.0559 57.825 34.9659 57.7125C34.8759 57.6225 34.8309 57.4875 34.8534 57.375L36.2259 41.175C36.2484 40.95 36.4509 40.77 36.6759 40.77H49.1184C49.3434 40.77 49.5459 40.95 49.5684 41.175L50.8959 57.3975C50.8959 57.5325 50.8734 57.645 50.7834 57.735C50.6934 57.825 50.5809 57.87 50.4459 57.87H46.0359C45.8109 57.87 45.6309 57.7125 45.5859 57.4875L43.9659 46.8225C43.9659 46.8 43.9659 46.7775 43.9659 46.755C43.9659 46.4625 43.8534 46.1925 43.6509 46.0125C43.4484 45.81 43.1784 45.6975 42.8859 45.6975C42.5934 45.6975 42.3234 45.81 42.1209 46.0125C41.9184 46.215 41.8059 46.485 41.7834 46.755C41.7834 46.7775 41.7834 46.8 41.7834 46.8225L40.1409 57.4875C40.1409 57.735 39.9384 57.8925 39.7134 57.8925ZM46.4409 56.9925H49.9734L48.7134 41.67H37.0809L35.7759 56.97L39.3084 56.9925L40.8834 46.7325C40.9059 46.215 41.1084 45.7425 41.4909 45.3825C41.8734 45.0225 42.3459 44.82 42.8859 44.82C43.4034 44.82 43.8984 45.0225 44.2809 45.3825C44.6409 45.7425 44.8659 46.215 44.8659 46.7325L46.4409 56.9925Z" fill="#020064"/>
<path d="M39.1495 58.6349C39.3295 58.6349 39.5095 58.5899 39.667 58.4999C39.8245 58.4099 39.9595 58.2974 40.0495 58.1399C40.1395 57.9824 40.1845 57.8249 40.207 57.6449C40.207 57.4649 40.1845 57.2849 40.0945 57.1274C39.8245 56.6324 39.442 56.2274 38.947 55.9574C38.4745 55.6649 37.9345 55.5299 37.372 55.5299H36.8545C36.292 55.5299 35.752 55.6874 35.2795 55.9574C34.807 56.2499 34.402 56.6324 34.132 57.1274C34.042 57.2849 34.0195 57.4649 34.0195 57.6449C34.0195 57.8249 34.087 58.0049 34.177 58.1399C34.267 58.2974 34.402 58.4099 34.5595 58.4999C34.717 58.5899 34.897 58.6349 35.077 58.6349H39.1495Z" fill="#B0D9FF"/>
<path d="M35.0553 59.085C34.8078 59.085 34.5603 59.0175 34.3353 58.905C34.1103 58.7925 33.9303 58.6125 33.7953 58.3875C33.6603 58.1625 33.5928 57.915 33.5703 57.6675C33.5703 57.42 33.6153 57.15 33.7278 56.925C34.0428 56.3625 34.4928 55.89 35.0328 55.575C35.5728 55.26 36.2028 55.08 36.8328 55.08H37.3503C37.9803 55.08 38.6103 55.26 39.1503 55.575C39.6903 55.89 40.1403 56.3625 40.4553 56.925C40.5678 57.1725 40.6353 57.42 40.6128 57.6675C40.6128 57.915 40.5228 58.1625 40.3878 58.3875C40.2528 58.6125 40.0728 58.7925 39.8478 58.905C39.6228 59.0175 39.3753 59.085 39.1278 59.085H35.0553ZM36.8553 55.98C36.3828 55.98 35.9103 56.115 35.5053 56.34C35.1003 56.5875 34.7628 56.925 34.5378 57.3525C34.4928 57.42 34.4703 57.5325 34.4703 57.6225C34.4703 57.7125 34.4928 57.825 34.5603 57.915C34.6053 58.005 34.6953 58.0725 34.7853 58.1175C34.8753 58.1625 34.9653 58.185 35.0778 58.185H39.1728C39.2628 58.185 39.3753 58.1625 39.4428 58.1175C39.5328 58.0725 39.6003 58.005 39.6453 57.915C39.6903 57.825 39.7353 57.735 39.7353 57.6225C39.7353 57.5325 39.7128 57.42 39.6678 57.33C39.4428 56.925 39.1053 56.5875 38.7003 56.34C38.2953 56.0925 37.8228 55.98 37.3503 55.98H36.8553Z" fill="#020064"/>
<path d="M50.6925 58.6349C50.8725 58.6349 51.0525 58.5899 51.21 58.4999C51.3675 58.4099 51.5025 58.2974 51.5925 58.1399C51.6825 57.9824 51.7275 57.8249 51.75 57.6449C51.75 57.4649 51.7275 57.2849 51.6375 57.1274C51.3675 56.6324 50.985 56.2274 50.49 55.9574C50.0175 55.6649 49.4775 55.5299 48.915 55.5299H48.3975C47.835 55.5299 47.295 55.6874 46.8225 55.9574C46.35 56.2499 45.945 56.6324 45.675 57.1274C45.585 57.2849 45.5625 57.4649 45.5625 57.6449C45.5625 57.8249 45.63 58.0049 45.72 58.1399C45.81 58.2974 45.945 58.4099 46.1025 58.4999C46.26 58.5899 46.44 58.6349 46.62 58.6349H50.6925Z" fill="#B0D9FF"/>
<path d="M46.5983 59.085C46.3508 59.085 46.1033 59.0175 45.8783 58.905C45.6533 58.7925 45.4733 58.6125 45.3383 58.3875C45.2033 58.1625 45.1358 57.915 45.1133 57.6675C45.1133 57.42 45.1583 57.15 45.2708 56.925C45.5858 56.3625 46.0358 55.89 46.5758 55.575C47.1158 55.26 47.7458 55.08 48.3758 55.08H48.8933C49.5458 55.08 50.1533 55.26 50.6933 55.575C51.2333 55.89 51.6833 56.3625 51.9983 56.925C52.1108 57.1725 52.1783 57.42 52.1558 57.6675C52.1558 57.915 52.0658 58.1625 51.9308 58.3875C51.7958 58.6125 51.6158 58.7925 51.3908 58.905C51.1658 59.0175 50.9183 59.085 50.6708 59.085C50.6708 59.085 50.6708 59.085 50.6483 59.085H46.5983ZM48.3983 55.98C47.9258 55.98 47.4533 56.115 47.0483 56.34C46.6433 56.5875 46.3058 56.925 46.0808 57.3525C46.0358 57.42 46.0133 57.5325 46.0133 57.6225C46.0133 57.7125 46.0583 57.825 46.1033 57.915C46.1483 58.005 46.2383 58.0725 46.3058 58.1175C46.3958 58.1625 46.5083 58.185 46.5983 58.185H50.6933C50.7833 58.185 50.8958 58.1625 50.9633 58.1175C51.0533 58.0725 51.1208 58.005 51.1658 57.915C51.2108 57.825 51.2558 57.735 51.2558 57.6225C51.2558 57.5325 51.2333 57.42 51.1883 57.33C50.9633 56.925 50.6258 56.5875 50.2208 56.34C49.8158 56.0925 49.3433 55.98 48.8708 55.98H48.3983Z" fill="#020064"/>
<path d="M43.0652 41.6925C42.8177 41.6925 42.6152 41.49 42.6152 41.2425V27.945C42.6152 27.6975 42.8177 27.495 43.0652 27.495C43.3127 27.495 43.5152 27.6975 43.5152 27.945V41.2425C43.5152 41.49 43.3127 41.6925 43.0652 41.6925Z" fill="#020064"/>
<path d="M49.1398 39.0824H36.6973V41.2199H49.1398V39.0824Z" fill="#B0D9FF"/>
<path d="M49.1405 41.6699H36.698C36.4505 41.6699 36.248 41.4674 36.248 41.2199V39.0824C36.248 38.8349 36.4505 38.6324 36.698 38.6324H49.1405C49.388 38.6324 49.5905 38.8349 49.5905 39.0824V41.2199C49.5905 41.4674 49.388 41.6699 49.1405 41.6699ZM37.148 40.7699H48.6905V39.5324H37.148V40.7699Z" fill="#020064"/>
<path d="M19.5303 22.7925C19.1928 22.7925 18.8778 22.86 18.5628 22.9725C18.4053 21.915 17.8653 20.97 17.0553 20.2725C16.2453 19.575 15.2103 19.1925 14.1528 19.1925C13.0953 19.1925 12.0603 19.575 11.2503 20.2725C10.4403 20.97 9.90028 21.915 9.74278 22.9725C9.38278 22.8375 8.97778 22.77 8.57278 22.7925C8.16778 22.815 7.78528 22.9275 7.44778 23.13C7.11028 23.3325 6.79528 23.58 6.57028 23.9175C6.34528 24.255 6.18778 24.615 6.12028 24.9975C6.05278 25.38 6.05278 25.785 6.16528 26.1675C6.25528 26.55 6.45778 26.91 6.70528 27.2025C6.95278 27.5175 7.26778 27.7425 7.62778 27.9225C7.98778 28.08 8.37028 28.17 8.77528 28.17H19.5528C20.2503 28.1475 20.9253 27.8775 21.4203 27.36C21.9153 26.865 22.1853 26.1675 22.1853 25.47C22.1853 24.7725 21.9153 24.0975 21.4203 23.58C20.9253 23.1075 20.2503 22.815 19.5303 22.7925Z" fill="white"/>
<path d="M8.75327 28.6425C8.30327 28.6425 7.83077 28.53 7.42577 28.35C7.02077 28.1475 6.63827 27.8775 6.34577 27.5175C6.05327 27.1575 5.82827 26.7525 5.71577 26.3025C5.60327 25.8525 5.58077 25.38 5.67077 24.93C5.76077 24.48 5.94077 24.0525 6.21077 23.67C6.48077 23.2875 6.84077 22.9725 7.22327 22.77C7.62827 22.545 8.07827 22.41 8.52827 22.3875C8.82077 22.365 9.09077 22.3875 9.38327 22.455C9.63077 21.4875 10.1708 20.6325 10.9358 19.98C11.8358 19.215 12.9608 18.7875 14.1308 18.7875C15.3008 18.7875 16.4483 19.215 17.3258 19.98C18.0908 20.6325 18.6308 21.4875 18.8783 22.455C19.0808 22.41 19.2833 22.3875 19.5083 22.3875C20.3408 22.41 21.1058 22.7475 21.6908 23.3325C22.2758 23.9175 22.5908 24.705 22.5908 25.5375C22.5908 26.37 22.2758 27.1575 21.6908 27.7425C21.1058 28.3275 20.3408 28.665 19.5083 28.6875L8.75327 28.6425ZM8.75327 23.265C8.70827 23.265 8.66327 23.265 8.59577 23.265C8.25827 23.2875 7.94327 23.3775 7.65077 23.535C7.35827 23.6925 7.11077 23.9175 6.93077 24.1875C6.75077 24.4575 6.61577 24.7725 6.54827 25.0875C6.48077 25.4025 6.50327 25.74 6.59327 26.055C6.68327 26.37 6.84077 26.6625 7.04327 26.9325C7.24577 27.18 7.51577 27.3825 7.80827 27.5175C8.10077 27.6525 8.43827 27.72 8.75327 27.72H19.5308C20.1158 27.72 20.6783 27.4725 21.0833 27.045C21.4883 26.6175 21.7358 26.055 21.7358 25.47C21.7358 24.885 21.5108 24.3225 21.0833 23.895C20.6783 23.4675 20.1158 23.2425 19.5308 23.22C19.2608 23.22 18.9908 23.265 18.7208 23.3775C18.5858 23.4225 18.4508 23.4225 18.3383 23.355C18.2258 23.2875 18.1358 23.175 18.1133 23.04C17.9558 22.095 17.4833 21.24 16.7633 20.61C16.0433 19.98 15.0983 19.6425 14.1533 19.6425C13.1858 19.6425 12.2633 19.98 11.5433 20.61C10.8233 21.24 10.3283 22.095 10.1933 23.04C10.1708 23.175 10.0808 23.2875 9.96827 23.355C9.85577 23.4225 9.69827 23.445 9.58577 23.3775C9.31577 23.31 9.02327 23.265 8.75327 23.265Z" fill="#020064"/>
<path d="M19.5303 22.7925C19.1928 22.7925 18.8778 22.86 18.5628 22.9725C18.4053 21.915 17.8653 20.97 17.0553 20.2725C16.2453 19.575 15.2103 19.1925 14.1528 19.1925C13.0953 19.1925 12.0603 19.575 11.2503 20.2725C10.4403 20.97 9.90028 21.915 9.74278 22.9725C9.38278 22.8375 8.97778 22.77 8.57278 22.7925C8.16778 22.815 7.78528 22.9275 7.44778 23.13C7.11028 23.3325 6.79528 23.58 6.57028 23.9175C6.34528 24.255 6.18778 24.615 6.12028 24.9975C6.05278 25.38 6.05278 25.785 6.16528 26.1675C6.25528 26.55 6.45778 26.91 6.70528 27.2025C6.95278 27.5175 7.26778 27.7425 7.62778 27.9225C7.98778 28.08 8.37028 28.17 8.77528 28.17H19.5528C20.2503 28.1475 20.9253 27.8775 21.4203 27.36C21.9153 26.865 22.1853 26.1675 22.1853 25.47C22.1853 24.7725 21.9153 24.0975 21.4203 23.58C20.9253 23.1075 20.2503 22.815 19.5303 22.7925Z" fill="white"/>
<path d="M8.75327 28.6425C8.30327 28.6425 7.83077 28.53 7.42577 28.35C7.02077 28.1475 6.63827 27.8775 6.34577 27.5175C6.05327 27.1575 5.82827 26.7525 5.71577 26.3025C5.60327 25.8525 5.58077 25.38 5.67077 24.93C5.76077 24.48 5.94077 24.0525 6.21077 23.67C6.48077 23.2875 6.84077 22.9725 7.22327 22.77C7.62827 22.545 8.07827 22.41 8.52827 22.3875C8.82077 22.365 9.09077 22.3875 9.38327 22.455C9.63077 21.4875 10.1708 20.6325 10.9358 19.98C11.8358 19.215 12.9608 18.7875 14.1308 18.7875C15.3008 18.7875 16.4483 19.215 17.3258 19.98C18.0908 20.6325 18.6308 21.4875 18.8783 22.455C19.0808 22.41 19.2833 22.3875 19.5083 22.3875C20.3408 22.41 21.1058 22.7475 21.6908 23.3325C22.2758 23.9175 22.5908 24.705 22.5908 25.5375C22.5908 26.37 22.2758 27.1575 21.6908 27.7425C21.1058 28.3275 20.3408 28.665 19.5083 28.6875L8.75327 28.6425ZM8.75327 23.265C8.70827 23.265 8.66327 23.265 8.59577 23.265C8.25827 23.2875 7.94327 23.3775 7.65077 23.535C7.35827 23.6925 7.11077 23.9175 6.93077 24.1875C6.75077 24.4575 6.61577 24.7725 6.54827 25.0875C6.48077 25.4025 6.50327 25.74 6.59327 26.055C6.68327 26.37 6.84077 26.6625 7.04327 26.9325C7.24577 27.18 7.51577 27.3825 7.80827 27.5175C8.10077 27.6525 8.43827 27.72 8.75327 27.72H19.5308C20.1158 27.72 20.6783 27.4725 21.0833 27.045C21.4883 26.6175 21.7358 26.055 21.7358 25.47C21.7358 24.885 21.5108 24.3225 21.0833 23.895C20.6783 23.4675 20.1158 23.2425 19.5308 23.22C19.2608 23.22 18.9908 23.265 18.7208 23.3775C18.5858 23.4225 18.4508 23.4225 18.3383 23.355C18.2258 23.2875 18.1358 23.175 18.1133 23.04C17.9558 22.095 17.4833 21.24 16.7633 20.61C16.0433 19.98 15.0983 19.6425 14.1533 19.6425C13.1858 19.6425 12.2633 19.98 11.5433 20.61C10.8233 21.24 10.3283 22.095 10.1933 23.04C10.1708 23.175 10.0808 23.2875 9.96827 23.355C9.85577 23.4225 9.69827 23.445 9.58577 23.3775C9.31577 23.31 9.02327 23.265 8.75327 23.265Z" fill="#020064"/>
<path d="M83.9239 27.72C83.9239 27.135 83.7889 26.55 83.5189 26.01C83.2489 25.4925 82.8439 25.0425 82.3489 24.705C81.8539 24.3675 81.2914 24.165 80.7064 24.0975C80.1214 24.03 79.5139 24.12 78.9739 24.3225C78.7489 22.905 78.0289 21.6 76.9264 20.655C75.8239 19.71 74.4289 19.1925 72.9889 19.1925C71.5489 19.1925 70.1539 19.71 69.0514 20.655C67.9489 21.6 67.2289 22.8825 67.0039 24.3225C66.5089 24.12 65.9689 24.0525 65.4289 24.075C64.8889 24.12 64.3714 24.2775 63.8989 24.525C63.4264 24.795 63.0214 25.155 62.7064 25.5825C62.3914 26.01 62.1889 26.505 62.0764 27.045C61.9864 27.5625 61.9864 28.1025 62.1214 28.62C62.2564 29.1375 62.5039 29.61 62.8414 30.0375C63.1789 30.4425 63.6064 30.78 64.1014 31.005C64.5964 31.23 65.1139 31.3425 65.6539 31.3425H80.2339C80.7064 31.3425 81.1789 31.2525 81.6289 31.0725C82.0789 30.8925 82.4839 30.6225 82.8214 30.285C83.1589 29.9475 83.4289 29.5425 83.6089 29.0925C83.8339 28.665 83.9239 28.1925 83.9239 27.72Z" fill="white"/>
<path d="M65.6994 31.815C65.0919 31.815 64.5069 31.68 63.9669 31.4325C63.4269 31.185 62.9319 30.8025 62.5494 30.3525C62.1669 29.9025 61.8969 29.34 61.7394 28.7775C61.5819 28.1925 61.5594 27.585 61.6719 27C61.7844 26.415 62.0319 25.8525 62.3694 25.3575C62.7294 24.8625 63.1794 24.4575 63.6969 24.165C64.2144 23.8725 64.7994 23.6925 65.4069 23.6475C65.8344 23.625 66.2619 23.6475 66.6669 23.76C66.9819 22.4325 67.7244 21.2175 68.7594 20.34C69.9294 19.3275 71.4369 18.7875 72.9894 18.7875C74.5419 18.7875 76.0494 19.35 77.2194 20.34C78.2544 21.24 78.9969 22.4325 79.3119 23.76C79.7844 23.6475 80.2794 23.6025 80.7519 23.67C81.4044 23.7375 82.0569 23.985 82.5969 24.3675C83.1369 24.75 83.5869 25.245 83.9019 25.83C84.2169 26.415 84.3744 27.09 84.3744 27.7425C84.3744 28.2825 84.2619 28.8 84.0594 29.3175C83.8569 29.8125 83.5419 30.2625 83.1594 30.645C82.7769 31.0275 82.3269 31.32 81.8319 31.5225C81.3369 31.725 80.7969 31.8375 80.2569 31.8375H65.6994C65.6994 31.815 65.6994 31.815 65.6994 31.815ZM65.6769 24.525C65.6094 24.525 65.5419 24.525 65.4519 24.525C64.9794 24.5475 64.5294 24.705 64.1244 24.93C63.7194 25.155 63.3594 25.47 63.0894 25.8525C62.8194 26.235 62.6394 26.6625 62.5494 27.135C62.4594 27.585 62.4819 28.08 62.5944 28.53C62.7069 28.98 62.9319 29.4075 63.2244 29.7675C63.5169 30.1275 63.8994 30.42 64.3269 30.6225C64.7544 30.825 65.2044 30.9375 65.6769 30.915H80.2569C80.6844 30.915 81.0894 30.825 81.4719 30.6675C81.8544 30.51 82.2144 30.2625 82.5069 29.97C82.7994 29.6775 83.0469 29.3175 83.2044 28.935C83.3619 28.5525 83.4519 28.125 83.4519 27.72C83.4519 27.2025 83.3394 26.685 83.0919 26.235C82.8444 25.785 82.5069 25.38 82.0794 25.0875C81.6519 24.795 81.1569 24.615 80.6394 24.5475C80.1219 24.48 79.6044 24.57 79.1094 24.75C78.9744 24.795 78.8394 24.795 78.7269 24.7275C78.6144 24.66 78.5244 24.5475 78.5019 24.4125C78.2994 23.085 77.6244 21.8925 76.6119 21.015C75.5994 20.1375 74.2944 19.665 72.9669 19.665C71.6394 19.665 70.3344 20.1375 69.3219 21.015C68.3094 21.8925 67.6344 23.085 67.4319 24.4125C67.4094 24.5475 67.3194 24.66 67.2069 24.7275C67.0944 24.795 66.9369 24.8175 66.8244 24.75C66.4644 24.5925 66.0819 24.525 65.6769 24.525Z" fill="#020064"/>
<path d="M83.9239 27.72C83.9239 27.135 83.7889 26.55 83.5189 26.01C83.2489 25.4925 82.8439 25.0425 82.3489 24.705C81.8539 24.3675 81.2914 24.165 80.7064 24.0975C80.1214 24.03 79.5139 24.12 78.9739 24.3225C78.7489 22.905 78.0289 21.6 76.9264 20.655C75.8239 19.71 74.4289 19.1925 72.9889 19.1925C71.5489 19.1925 70.1539 19.71 69.0514 20.655C67.9489 21.6 67.2289 22.8825 67.0039 24.3225C66.5089 24.12 65.9689 24.0525 65.4289 24.075C64.8889 24.12 64.3714 24.2775 63.8989 24.525C63.4264 24.795 63.0214 25.155 62.7064 25.5825C62.3914 26.01 62.1889 26.505 62.0764 27.045C61.9864 27.5625 61.9864 28.1025 62.1214 28.62C62.2564 29.1375 62.5039 29.61 62.8414 30.0375C63.1789 30.4425 63.6064 30.78 64.1014 31.005C64.5964 31.23 65.1139 31.3425 65.6539 31.3425H80.2339C80.7064 31.3425 81.1789 31.2525 81.6289 31.0725C82.0789 30.8925 82.4839 30.6225 82.8214 30.285C83.1589 29.9475 83.4289 29.5425 83.6089 29.0925C83.8339 28.665 83.9239 28.1925 83.9239 27.72Z" fill="white"/>
<path d="M65.6994 31.815C65.0919 31.815 64.5069 31.68 63.9669 31.4325C63.4269 31.185 62.9319 30.8025 62.5494 30.3525C62.1669 29.9025 61.8969 29.34 61.7394 28.7775C61.5819 28.1925 61.5594 27.585 61.6719 27C61.7844 26.415 62.0319 25.8525 62.3694 25.3575C62.7294 24.8625 63.1794 24.4575 63.6969 24.165C64.2144 23.8725 64.7994 23.6925 65.4069 23.6475C65.8344 23.625 66.2619 23.6475 66.6669 23.76C66.9819 22.4325 67.7244 21.2175 68.7594 20.34C69.9294 19.3275 71.4369 18.7875 72.9894 18.7875C74.5419 18.7875 76.0494 19.35 77.2194 20.34C78.2544 21.24 78.9969 22.4325 79.3119 23.76C79.7844 23.6475 80.2794 23.6025 80.7519 23.67C81.4044 23.7375 82.0569 23.985 82.5969 24.3675C83.1369 24.75 83.5869 25.245 83.9019 25.83C84.2169 26.415 84.3744 27.09 84.3744 27.7425C84.3744 28.2825 84.2619 28.8 84.0594 29.3175C83.8569 29.8125 83.5419 30.2625 83.1594 30.645C82.7769 31.0275 82.3269 31.32 81.8319 31.5225C81.3369 31.725 80.7969 31.8375 80.2569 31.8375H65.6994C65.6994 31.815 65.6994 31.815 65.6994 31.815ZM65.6769 24.525C65.6094 24.525 65.5419 24.525 65.4519 24.525C64.9794 24.5475 64.5294 24.705 64.1244 24.93C63.7194 25.155 63.3594 25.47 63.0894 25.8525C62.8194 26.235 62.6394 26.6625 62.5494 27.135C62.4594 27.585 62.4819 28.08 62.5944 28.53C62.7069 28.98 62.9319 29.4075 63.2244 29.7675C63.5169 30.1275 63.8994 30.42 64.3269 30.6225C64.7544 30.825 65.2044 30.9375 65.6769 30.915H80.2569C80.6844 30.915 81.0894 30.825 81.4719 30.6675C81.8544 30.51 82.2144 30.2625 82.5069 29.97C82.7994 29.6775 83.0469 29.3175 83.2044 28.935C83.3619 28.5525 83.4519 28.125 83.4519 27.72C83.4519 27.2025 83.3394 26.685 83.0919 26.235C82.8444 25.785 82.5069 25.38 82.0794 25.0875C81.6519 24.795 81.1569 24.615 80.6394 24.5475C80.1219 24.48 79.6044 24.57 79.1094 24.75C78.9744 24.795 78.8394 24.795 78.7269 24.7275C78.6144 24.66 78.5244 24.5475 78.5019 24.4125C78.2994 23.085 77.6244 21.8925 76.6119 21.015C75.5994 20.1375 74.2944 19.665 72.9669 19.665C71.6394 19.665 70.3344 20.1375 69.3219 21.015C68.3094 21.8925 67.6344 23.085 67.4319 24.4125C67.4094 24.5475 67.3194 24.66 67.2069 24.7275C67.0944 24.795 66.9369 24.8175 66.8244 24.75C66.4644 24.5925 66.0819 24.525 65.6769 24.525Z" fill="#020064"/>
<path d="M31.0954 68.94C31.3879 69.255 31.7479 69.525 32.1754 69.705C32.5804 69.885 33.0304 69.975 33.4579 69.975C33.9079 69.975 34.3354 69.8851 34.7404 69.6826C35.1454 69.5026 35.5054 69.2326 35.7979 68.8951L36.0904 68.5576C36.3829 68.2426 36.7429 67.9725 37.1254 67.7925C37.5304 67.6125 37.9579 67.5226 38.3854 67.5451C38.8129 67.5676 39.2404 67.6575 39.6454 67.8375C40.0279 68.0175 40.3879 68.3101 40.6579 68.6475C40.9279 68.9851 41.2879 69.2776 41.6929 69.4576C42.0979 69.6376 42.5254 69.75 42.9754 69.75C43.4254 69.75 43.8529 69.6601 44.2579 69.4576C44.6629 69.2776 45.0229 68.9851 45.2929 68.6475C45.5629 68.3101 45.9004 68.04 46.3054 67.8375C46.6879 67.6575 47.1154 67.5451 47.5654 67.5451C47.9929 67.5451 48.4204 67.6125 48.8254 67.7925C49.2304 67.9725 49.5679 68.2201 49.8604 68.5576L50.2429 68.9851C50.5354 69.3 50.8729 69.57 51.2779 69.75C51.6604 69.93 52.0879 70.0425 52.5154 70.0425C52.9429 70.065 53.3704 69.975 53.7754 69.8175C54.1804 69.66 54.5404 69.4126 54.8554 69.1201L55.8904 68.085L52.1329 59.7826C51.9979 59.4451 51.7729 59.1525 51.4804 58.9275C51.1879 58.725 50.8279 58.6125 50.4454 58.6125H35.5054C35.1454 58.6125 34.7854 58.725 34.4704 58.9275C34.1779 59.13 33.9304 59.4226 33.8179 59.7826L30.1504 67.8826L31.0954 68.94Z" fill="white"/>
<path d="M52.6055 70.515C52.5605 70.515 52.538 70.515 52.493 70.515C51.998 70.4925 51.5255 70.38 51.0755 70.1775C50.6255 69.975 50.243 69.6825 49.9055 69.3L49.523 68.8725C49.2755 68.6025 48.983 68.3775 48.6455 68.22C48.308 68.0625 47.9255 67.995 47.5655 68.0175C47.2055 68.0175 46.823 68.1075 46.508 68.265C46.1705 68.4225 45.878 68.67 45.653 68.94C45.338 69.345 44.9105 69.66 44.4605 69.885C43.538 70.3125 42.413 70.3125 41.513 69.885C41.063 69.66 40.6355 69.345 40.3205 68.94C40.0955 68.6475 39.803 68.4225 39.4655 68.265C39.128 68.1075 38.768 68.0175 38.408 68.0175C38.048 68.0175 37.6655 68.085 37.328 68.22C36.9905 68.3775 36.6755 68.58 36.4505 68.8725L36.158 69.21C35.8205 69.5925 35.4155 69.885 34.943 70.11C34.4705 70.3125 33.998 70.425 33.4805 70.425C32.9855 70.425 32.468 70.335 32.018 70.1325C31.5455 69.93 31.1405 69.6375 30.803 69.255L29.858 68.22C29.7455 68.085 29.7005 67.905 29.768 67.725L33.4355 59.6475C33.593 59.22 33.8855 58.86 34.2455 58.6125C34.628 58.3425 35.078 58.2075 35.528 58.2075H50.468C50.918 58.2075 51.368 58.3425 51.7505 58.6125C52.133 58.8825 52.403 59.2425 52.5605 59.67L56.318 67.95C56.3855 68.13 56.363 68.31 56.228 68.445L55.193 69.48C54.833 69.84 54.428 70.11 53.978 70.29C53.5055 70.4475 53.0555 70.515 52.6055 70.515ZM47.6105 67.1175C48.083 67.1175 48.5555 67.2075 48.983 67.41C49.433 67.6125 49.8605 67.905 50.1755 68.2875L50.558 68.715C50.8055 68.985 51.098 69.21 51.4355 69.3675C51.773 69.525 52.133 69.615 52.493 69.615C52.853 69.6375 53.2355 69.57 53.573 69.435C53.9105 69.3 54.2255 69.0975 54.4955 68.8275L55.3055 67.995L51.683 59.985C51.683 59.985 51.683 59.9625 51.6605 59.9625C51.5705 59.6925 51.3905 59.49 51.1655 59.3325C50.9405 59.175 50.6705 59.085 50.4005 59.085H35.4605C35.1905 59.085 34.9205 59.175 34.6955 59.3325C34.4705 59.49 34.2905 59.715 34.2005 59.9625C34.2005 59.9625 34.2005 59.985 34.178 59.985L30.6455 67.815L31.388 68.625C31.6355 68.895 31.9505 69.12 32.3105 69.2775C32.6705 69.435 33.0305 69.5025 33.413 69.5025C33.7955 69.5025 34.1555 69.4125 34.5155 69.255C34.853 69.0975 35.168 68.8725 35.4155 68.58L35.708 68.2425C36.0455 67.86 36.4505 67.5675 36.9005 67.365C37.3505 67.1625 37.868 67.0725 38.363 67.0725C38.858 67.0725 39.353 67.2075 39.803 67.4325C40.253 67.6575 40.658 67.9725 40.973 68.355C41.2205 68.6475 41.513 68.895 41.8505 69.0525C42.5255 69.3675 43.358 69.3675 44.033 69.0525C44.3705 68.895 44.6855 68.6475 44.9105 68.355C45.2255 67.9725 45.6305 67.6575 46.0805 67.4325C46.5305 67.2075 47.0255 67.095 47.5205 67.095C47.5655 67.1175 47.588 67.1175 47.6105 67.1175Z" fill="#020064"/>
<path d="M32.6927 42.1425C32.5802 42.1425 32.4677 42.0975 32.3777 42.03L31.0952 40.8375C29.6777 39.5325 28.7102 37.8675 28.2827 36C27.8552 34.1325 27.9902 32.22 28.6877 30.42C29.3852 28.6425 30.5777 27.135 32.1752 26.055C33.7502 24.975 35.5952 24.4125 37.5077 24.4125H48.6002C50.5127 24.4125 52.3577 24.975 53.9327 26.055C55.5077 27.135 56.7227 28.6425 57.4202 30.42C58.1177 32.1975 58.2527 34.1325 57.8252 36C57.3977 37.8675 56.4302 39.5325 55.0127 40.8375L53.7302 42.03C53.5502 42.1875 53.2577 42.1875 53.1002 42.0075L50.6702 39.3525C50.5127 39.1725 50.5127 38.88 50.6927 38.7225L51.9752 37.53C52.4702 37.08 52.8527 36.54 53.1227 35.955C53.3927 35.3475 53.5502 34.7175 53.5727 34.0425C53.5952 33.39 53.4827 32.7375 53.2577 32.1075C53.0327 31.4775 52.6727 30.9375 52.2227 30.4425C52.0427 30.24 51.7952 30.105 51.5252 30.06C51.2777 29.9925 51.0077 30.015 50.7602 30.1275C50.4902 30.2625 50.2427 30.465 50.0402 30.69C49.8602 30.915 49.7027 31.1625 49.6127 31.455L49.6352 41.2425C49.6352 41.49 49.4327 41.6925 49.1852 41.6925H43.1102H36.7427C36.4952 41.6925 36.2927 41.49 36.2927 41.2425L36.3152 31.3875C36.3152 31.1175 36.2252 30.8475 36.0902 30.6225C35.9327 30.3975 35.7302 30.2175 35.4827 30.1275C35.2352 30.0375 34.9652 29.9925 34.6952 30.06C34.4252 30.1275 34.2002 30.2625 33.9977 30.4425C33.5477 30.915 33.1877 31.4775 32.9627 32.1075C32.7377 32.7375 32.6252 33.3675 32.6477 34.0425C32.6702 34.695 32.8277 35.3475 33.0977 35.955C33.3677 36.5625 33.7502 37.08 34.2452 37.53L35.5502 38.7225C35.6402 38.8125 35.6852 38.925 35.6852 39.0375C35.6852 39.15 35.6402 39.2625 35.5727 39.3525L33.1427 42.0075C32.9402 42.0975 32.8277 42.1425 32.6927 42.1425ZM37.5077 25.3125C35.7752 25.3125 34.1102 25.83 32.6702 26.7975C31.2302 27.765 30.1502 29.1375 29.5202 30.7575C28.8902 32.3775 28.7552 34.11 29.1602 35.7975C29.5427 37.485 30.4202 38.9925 31.7027 40.1625L32.6702 41.04L34.4927 39.06L33.5252 38.1825C32.9402 37.6425 32.4902 37.0125 32.1752 36.315C31.8602 35.595 31.6802 34.8525 31.6577 34.065C31.6352 33.2775 31.7702 32.5125 32.0402 31.7925C32.3102 31.0725 32.7377 30.3975 33.2777 29.835C33.5927 29.4975 33.9977 29.295 34.4252 29.1825C34.8752 29.0925 35.3252 29.115 35.7302 29.295C36.1577 29.4525 36.4952 29.745 36.7652 30.1275C37.0127 30.51 37.1477 30.9375 37.1477 31.3875L37.1252 40.7925H43.0427H48.6677L48.6452 31.3875C48.6452 31.3425 48.6452 31.2975 48.6677 31.2525C48.8027 30.825 49.0052 30.4425 49.2977 30.105C49.5902 29.7675 49.9277 29.4975 50.3327 29.295C50.3327 29.295 50.3552 29.295 50.3552 29.2725C50.7827 29.115 51.2327 29.07 51.6602 29.16C52.1102 29.25 52.4927 29.475 52.8077 29.8125C53.3477 30.375 53.7527 31.0275 54.0452 31.77C54.3152 32.49 54.4502 33.2775 54.4277 34.0425C54.4052 34.83 54.2252 35.5725 53.9102 36.2925C53.5952 37.0125 53.1227 37.6425 52.5602 38.16L51.5927 39.0375L53.4152 41.0175L54.3827 40.14C55.6652 38.97 56.5427 37.4625 56.9252 35.775C57.3077 34.0875 57.1952 32.355 56.5652 30.735C55.9352 29.115 54.8552 27.765 53.4152 26.775C51.9977 25.8075 50.3102 25.29 48.5777 25.29H37.5077C37.5077 25.3125 37.5077 25.3125 37.5077 25.3125Z" fill="#020064"/>
<path d="M45.9234 24.8624C45.6759 24.8624 45.4509 24.7724 45.2934 24.5924C45.1134 24.4124 45.0234 24.1874 45.0234 23.9624V21.8474H40.8834V23.9624C40.8834 24.2099 40.7934 24.4349 40.6134 24.5924C40.4334 24.7724 40.2084 24.8624 39.9834 24.8624H39.4434L43.0434 27.9449L46.6434 24.8624H45.9234Z" fill="white"/>
<path d="M43.0657 28.395C42.9532 28.395 42.8632 28.35 42.7732 28.2825L39.1732 25.2C39.0382 25.0875 38.9707 24.885 39.0382 24.705C39.1057 24.525 39.2632 24.4125 39.4657 24.4125H40.0057C40.1182 24.4125 40.2307 24.3675 40.3207 24.2775C40.4107 24.1875 40.4557 24.075 40.4557 23.9625V21.8475C40.4557 21.6 40.6582 21.3975 40.9057 21.3975H45.0457C45.2932 21.3975 45.4957 21.6 45.4957 21.8475V23.9625C45.4957 24.075 45.5407 24.1875 45.6307 24.2775C45.7207 24.3675 45.8332 24.4125 45.9457 24.4125H46.6657C46.8457 24.4125 47.0257 24.525 47.0932 24.705C47.1607 24.885 47.1157 25.0875 46.9582 25.2L43.3582 28.2825C43.2682 28.3725 43.1557 28.395 43.0657 28.395ZM40.5457 25.2L43.0657 27.36L45.5182 25.245C45.3157 25.1775 45.1357 25.065 44.9782 24.9075C44.7307 24.66 44.5732 24.3225 44.5732 23.9625V22.2975H41.3332V23.9625C41.3332 24.3225 41.1982 24.66 40.9282 24.9075C40.8157 25.0425 40.6807 25.1325 40.5457 25.2Z" fill="#020064"/>
<path d="M34.0208 42.8174C34.1783 42.9749 34.3808 43.0874 34.6058 43.1774C34.8308 43.2449 35.0558 43.2899 35.2808 43.2899C35.5058 43.2899 35.7308 43.2224 35.9333 43.1324C36.1358 43.0424 36.3383 42.9074 36.4733 42.7274C36.6083 42.5474 36.7433 42.3674 36.8333 42.1424C36.9008 41.9174 36.9458 41.6924 36.9458 41.4674C36.9458 41.2424 36.8783 41.0174 36.7883 40.8149C36.6983 40.6124 36.5633 40.4099 36.3833 40.2749L35.1008 39.0824L32.7383 41.6249L34.0208 42.8174Z" fill="white"/>
<path d="M35.1906 43.7399C34.9431 43.7399 34.6731 43.6949 34.4481 43.6049C34.1781 43.5149 33.9306 43.3574 33.7281 43.1549L32.4456 41.9624C32.2656 41.8049 32.2431 41.5124 32.4231 41.3324L34.7856 38.7674C34.8756 38.6774 34.9881 38.6324 35.1006 38.6324C35.2131 38.6324 35.3256 38.6774 35.4156 38.7449L36.6981 39.9374C36.9006 40.1399 37.0806 40.3649 37.1931 40.6349C37.3056 40.9049 37.3731 41.1749 37.3956 41.4674C37.4181 41.7599 37.3731 42.0299 37.2606 42.3224C37.1706 42.5924 37.0131 42.8399 36.8106 43.0424C36.6081 43.2449 36.3831 43.4249 36.1131 43.5374C35.8431 43.6499 35.5731 43.7174 35.2806 43.7399C35.2581 43.7399 35.2356 43.7399 35.1906 43.7399ZM34.3356 42.5024C34.4706 42.6149 34.6056 42.7049 34.7631 42.7724C34.9206 42.8399 35.1006 42.8624 35.2581 42.8399C35.4381 42.8399 35.5956 42.7949 35.7531 42.7274C35.9106 42.6599 36.0456 42.5474 36.1581 42.4349C36.2706 42.2999 36.3606 42.1649 36.4281 42.0074C36.4956 41.8499 36.5181 41.6699 36.4956 41.5124C36.4956 41.3324 36.4506 41.1749 36.3831 41.0174C36.3156 40.8599 36.2031 40.7249 36.0906 40.6124L35.1456 39.7349L33.3906 41.6249L34.3356 42.5024Z" fill="#020064"/>
<path d="M52.0873 42.8175C51.7498 43.1325 51.2998 43.29 50.8273 43.2675C50.3548 43.245 49.9273 43.0425 49.6123 42.705C49.2973 42.3675 49.1398 41.9175 49.1623 41.445C49.1848 40.9725 49.3873 40.545 49.7248 40.23L51.0073 39.0375L53.3698 41.6025L52.0873 42.8175Z" fill="white"/>
<path d="M50.9176 43.74C50.8951 43.74 50.8501 43.74 50.8276 43.74C50.2426 43.7175 49.7026 43.47 49.2976 43.0425C48.8926 42.615 48.6901 42.0525 48.7126 41.4675C48.7351 40.8825 48.9826 40.3425 49.4101 39.9375L50.6926 38.745C50.8726 38.5875 51.1651 38.5875 51.3226 38.7675L53.6851 41.3325C53.8426 41.5125 53.8426 41.805 53.6626 41.9625L52.3801 43.155C51.9751 43.5375 51.4576 43.74 50.9176 43.74ZM50.9851 39.7125L50.0401 40.59C49.7926 40.815 49.6351 41.1525 49.6351 41.49C49.6126 41.8275 49.7476 42.165 49.9726 42.4125C50.1976 42.66 50.5351 42.8175 50.8726 42.8175C51.2101 42.8175 51.5476 42.705 51.7951 42.48L52.7401 41.6025L50.9851 39.7125Z" fill="#020064"/>
<path d="M38.4975 23.8725C38.565 23.85 38.6325 23.8725 38.6775 23.8725C38.745 23.895 38.79 23.9175 38.835 23.94C39.6675 24.5475 42.8175 27.4275 42.8175 27.4275L42.3675 28.17C42.3 28.2825 42.21 28.35 42.0975 28.3725C41.985 28.395 41.8725 28.395 41.76 28.3275L36.225 25.11C36.135 25.065 36.09 24.9975 36.045 24.9075C36 24.8175 36 24.7275 36 24.6375C36.0225 24.5475 36.0675 24.4575 36.1125 24.39C36.18 24.3225 36.27 24.2775 36.36 24.255L38.4975 23.8725Z" fill="#B0D9FF"/>
<path d="M41.9853 28.8451C41.8278 28.8451 41.6703 28.8001 41.5353 28.7326L36.0003 25.4926C35.8428 25.4026 35.7078 25.2676 35.6403 25.0876C35.5728 24.9301 35.5278 24.7276 35.5728 24.5476C35.5953 24.3676 35.6853 24.2101 35.8203 24.0751C35.9553 23.9401 36.1128 23.8501 36.2928 23.8276L38.4303 23.4001C38.5428 23.3776 38.6778 23.3776 38.7903 23.4001C38.9028 23.4226 39.0153 23.4901 39.1278 23.5576C39.9828 24.1876 43.0203 26.9551 43.1553 27.0676C43.3128 27.2026 43.3578 27.4501 43.2453 27.6301L42.7953 28.3726C42.6828 28.5751 42.4803 28.7101 42.2553 28.7776C42.1428 28.8226 42.0753 28.8451 41.9853 28.8451ZM38.5878 24.3001L36.4503 24.7276L42.0078 27.9451L42.2778 27.5176C41.4678 26.7976 39.2403 24.7951 38.5878 24.3001Z" fill="#020064"/>
<path d="M47.611 23.8724C47.5435 23.8499 47.476 23.8724 47.431 23.8724C47.3635 23.8949 47.3185 23.9174 47.2735 23.9399C46.441 24.5474 43.291 27.4274 43.291 27.4274L43.741 28.1699C43.8085 28.2824 43.8985 28.3499 44.011 28.3724C44.1235 28.3949 44.236 28.3949 44.3485 28.3274L49.906 25.1099C49.996 25.0649 50.041 24.9974 50.086 24.9074C50.131 24.8174 50.131 24.7274 50.131 24.6374C50.1085 24.5474 50.0635 24.4574 50.0185 24.3899C49.951 24.3224 49.861 24.2774 49.771 24.2549L47.611 23.8724Z" fill="#B0D9FF"/>
<path d="M44.1232 28.845C44.0557 28.845 43.9657 28.845 43.8982 28.8225C43.6732 28.755 43.4707 28.62 43.3582 28.4175L42.9082 27.675C42.7957 27.495 42.8407 27.2475 42.9982 27.1125C43.1332 27 46.1707 24.21 47.0257 23.6025C47.1157 23.535 47.2507 23.4675 47.3632 23.445C47.4757 23.4225 47.6107 23.4225 47.7232 23.445L49.8607 23.85C50.0407 23.895 50.1982 23.9625 50.3332 24.0975C50.4682 24.2325 50.5357 24.39 50.5807 24.57C50.6032 24.75 50.5807 24.93 50.5132 25.11C50.4457 25.2675 50.3107 25.4025 50.1532 25.515L44.5957 28.7325C44.4382 28.8 44.2807 28.845 44.1232 28.845ZM43.8532 27.5175L44.1007 27.945L49.6582 24.7275L47.5207 24.3225C46.8682 24.795 44.6407 26.7975 43.8532 27.5175Z" fill="#020064"/>
<path d="M49.6575 18.225C49.6575 17.955 49.5675 17.685 49.3875 17.4825C49.2075 17.28 48.9825 17.1225 48.7125 17.0775V16.3125C48.69 14.805 48.0825 13.365 47.0025 12.3075C45.9225 11.25 44.4825 10.665 42.975 10.665C41.4675 10.665 40.0275 11.25 38.9475 12.3075C37.8675 13.365 37.26 14.805 37.215 16.3125V17.0775C36.9225 17.1225 36.675 17.28 36.495 17.505C36.315 17.73 36.225 18 36.2475 18.2925C36.27 18.585 36.3825 18.855 36.585 19.0575C36.7875 19.26 37.0575 19.395 37.35 19.395C37.62 20.6775 38.3175 21.8475 39.3525 22.68C40.365 23.5125 41.6475 23.9625 42.975 23.9625C44.3025 23.9625 45.585 23.5125 46.5975 22.68C47.6325 21.8475 48.33 20.7 48.6 19.395C48.8925 19.3725 49.1625 19.2375 49.365 19.0125C49.5675 18.7875 49.6575 18.5175 49.6575 18.225Z" fill="white"/>
<path d="M42.9534 24.4125C41.5134 24.4125 40.1409 23.9175 39.0384 23.0175C38.0259 22.185 37.2834 21.0375 36.9459 19.7775C36.6759 19.71 36.4284 19.5525 36.2484 19.35C35.9784 19.0575 35.7984 18.6975 35.7759 18.2925C35.7534 17.8875 35.8884 17.505 36.1359 17.19C36.2934 16.9875 36.5184 16.83 36.7434 16.7175V16.29C36.7659 14.6475 37.4409 13.1175 38.6109 11.97C39.7809 10.8225 41.3109 10.1925 42.9534 10.1925C44.5959 10.1925 46.1259 10.8225 47.2959 11.97C48.4659 13.1175 49.1184 14.6475 49.1409 16.29V16.74C49.3659 16.8525 49.5684 16.9875 49.7259 17.19C49.9734 17.4825 50.1084 17.8425 50.1084 18.225C50.1084 18.63 49.9509 19.0125 49.6809 19.3275C49.4784 19.5525 49.2309 19.71 48.9609 19.7775C48.6234 21.06 47.8809 22.185 46.8684 23.0175C45.7659 23.9175 44.3709 24.4125 42.9534 24.4125ZM42.9534 11.115C41.5584 11.115 40.2534 11.655 39.2409 12.6225C38.2509 13.59 37.6884 14.9175 37.6434 16.3125V17.0775C37.6434 17.3025 37.4859 17.4825 37.2609 17.5275C37.0809 17.55 36.9234 17.64 36.8109 17.7975C36.6984 17.9325 36.6534 18.1125 36.6534 18.2925C36.6534 18.4725 36.7434 18.63 36.8559 18.765C36.9909 18.9 37.1484 18.9675 37.3284 18.9675C37.5309 18.99 37.6884 19.125 37.7334 19.3275C37.9809 20.52 38.6334 21.6 39.5784 22.365C40.5234 23.13 41.6934 23.5575 42.9084 23.5575C44.1234 23.5575 45.3159 23.13 46.2609 22.3875C47.2059 21.6225 47.8584 20.5425 48.1059 19.3725C48.1509 19.17 48.3084 19.035 48.5109 19.0125C48.6909 18.99 48.8709 18.9225 48.9834 18.7875C49.0959 18.6525 49.1859 18.4725 49.1859 18.2925C49.1859 18.135 49.1184 17.955 49.0284 17.8425C48.9159 17.7075 48.7809 17.6175 48.6009 17.595C48.3984 17.55 48.2409 17.37 48.2409 17.145V16.38C48.2184 14.985 47.6559 13.68 46.6659 12.69C45.6759 11.655 44.3709 11.115 42.9534 11.115Z" fill="#020064"/>
<path d="M41.512 17.01C41.512 17.145 41.467 17.3025 41.3995 17.415C41.3095 17.5275 41.197 17.6175 41.0845 17.685C40.9495 17.73 40.8145 17.7525 40.6795 17.73C40.5445 17.7075 40.4095 17.64 40.3195 17.5275C40.2295 17.4375 40.1395 17.3025 40.117 17.1675C40.0945 17.0325 40.0945 16.875 40.162 16.7625C40.207 16.6275 40.3195 16.515 40.432 16.4475C40.5445 16.38 40.6795 16.335 40.837 16.335C41.017 16.335 41.2195 16.4025 41.3545 16.5375C41.4445 16.65 41.512 16.83 41.512 17.01Z" fill="#020064"/>
<path d="M44.3926 17.01C44.3926 17.145 44.4376 17.3025 44.5051 17.415C44.5951 17.5275 44.7076 17.6175 44.8201 17.685C44.9551 17.73 45.0901 17.7525 45.2251 17.73C45.3601 17.7075 45.4951 17.64 45.5851 17.5275C45.6751 17.4375 45.7651 17.3025 45.7876 17.1675C45.8101 17.0325 45.8101 16.875 45.7426 16.7625C45.6976 16.6275 45.5851 16.515 45.4726 16.4475C45.3601 16.3575 45.2251 16.335 45.0676 16.335C44.8876 16.335 44.6851 16.4025 44.5501 16.5375C44.4601 16.65 44.3926 16.83 44.3926 17.01Z" fill="#020064"/>
<path d="M40.5667 18.9226C40.5667 19.0576 40.5217 19.2151 40.4542 19.3276C40.3642 19.4401 40.2517 19.5301 40.1392 19.5976C40.0042 19.6426 39.8692 19.6651 39.7342 19.6426C39.5992 19.6201 39.4642 19.5526 39.3742 19.4401C39.2842 19.3501 39.1942 19.2151 39.1717 19.0801C39.1492 18.9451 39.1492 18.7876 39.2167 18.6751C39.2617 18.5401 39.3742 18.4276 39.4867 18.3601C39.5992 18.2701 39.7342 18.2476 39.8917 18.2476C40.0717 18.2476 40.2742 18.3151 40.4092 18.4501C40.4767 18.5626 40.5667 18.7426 40.5667 18.9226Z" fill="#B0D9FF"/>
<path d="M46.7776 18.945C46.7776 19.08 46.7326 19.2375 46.6651 19.35C46.5751 19.4625 46.4626 19.5525 46.3501 19.62C46.2151 19.665 46.0801 19.6875 45.9451 19.665C45.8101 19.6425 45.6751 19.575 45.5851 19.4625C45.4951 19.3725 45.4051 19.2375 45.3826 19.1025C45.3601 18.9675 45.3601 18.81 45.4276 18.6975C45.4726 18.5625 45.5851 18.45 45.6976 18.3825C45.8101 18.2925 45.9451 18.27 46.1026 18.27C46.2826 18.27 46.4851 18.3375 46.6201 18.4725C46.7101 18.5625 46.7776 18.7425 46.7776 18.945Z" fill="#B0D9FF"/>
<path d="M42.9534 21.5324C42.3459 21.5324 41.7609 21.3524 41.2659 21.0149C41.0634 20.8799 40.9959 20.5874 41.1534 20.3849C41.3109 20.1824 41.5809 20.1149 41.7834 20.2724C42.1434 20.4974 42.5484 20.6324 42.9759 20.6324C43.4034 20.6324 43.8084 20.5199 44.1684 20.2724C44.3709 20.1374 44.6634 20.1824 44.7984 20.4074C44.9334 20.6099 44.8884 20.9024 44.6634 21.0374C44.1459 21.3524 43.5609 21.5324 42.9534 21.5324Z" fill="#020064"/>
<path d="M49.1857 14.8725C49.1632 13.23 48.5107 11.6775 47.3407 10.5075C46.1707 9.36002 44.5957 8.70752 42.9757 8.70752C41.3332 8.70752 39.7582 9.33752 38.5882 10.5075C37.4182 11.655 36.7432 13.23 36.7207 14.85V16.7625C37.4632 16.5825 38.1607 16.2225 38.7457 15.7275C39.3307 15.2325 39.7807 14.6025 40.0957 13.905C42.7732 15.705 46.3057 15.345 49.1857 14.8725Z" fill="white"/>
<path d="M36.743 17.2124C36.653 17.2124 36.5405 17.1899 36.473 17.1224C36.3605 17.0324 36.293 16.8974 36.293 16.7624V14.8499C36.3155 13.0724 37.0355 11.4299 38.273 10.1699C39.5105 8.90995 41.198 8.25745 42.9755 8.25745C44.753 8.25745 46.418 8.95495 47.6555 10.1924C48.9155 11.4299 49.613 13.0949 49.6355 14.8724C49.6355 15.0974 49.478 15.2774 49.253 15.3224C44.1905 16.1549 41.8055 15.4574 40.2755 14.5574C39.9605 15.1424 39.533 15.6599 39.038 16.0874C38.408 16.6274 37.643 17.0099 36.833 17.2124C36.8105 17.2124 36.7655 17.2124 36.743 17.2124ZM42.953 9.15745C41.423 9.15745 39.983 9.74245 38.903 10.8224C37.823 11.9024 37.193 13.3199 37.1705 14.8499V16.1324C37.643 15.9524 38.0705 15.6824 38.453 15.3674C38.9705 14.9174 39.398 14.3324 39.668 13.7024C39.713 13.5674 39.8255 13.4774 39.9605 13.4549C40.0955 13.4099 40.2305 13.4324 40.343 13.5224C42.683 15.1199 45.743 14.9624 48.713 14.4899C48.6005 13.0949 48.0155 11.8124 47.0255 10.8224C45.9455 9.76495 44.5055 9.15745 42.953 9.15745Z" fill="#020064"/>
<path d="M40.0941 14.355C40.0041 14.355 39.9366 14.3325 39.8466 14.2875C39.3966 14.0175 39.0366 13.635 38.7441 13.185C38.6091 12.9825 38.6766 12.69 38.8791 12.555C39.0816 12.42 39.3741 12.4875 39.5091 12.69C39.7116 13.0275 40.0041 13.2975 40.3191 13.5C40.5216 13.635 40.5891 13.905 40.4541 14.13C40.3866 14.265 40.2291 14.355 40.0941 14.355Z" fill="#020064"/>
<path d="M35.5273 19.485C35.5273 19.5975 35.5723 19.71 35.6623 19.8C35.7523 19.89 35.8648 19.935 35.9773 19.935H37.1473C37.2598 19.935 37.3723 19.89 37.4623 19.8C37.5523 19.71 37.5973 19.5975 37.5973 19.485V15.21C37.5973 15.0975 37.5523 14.985 37.4623 14.895C37.3723 14.805 37.2598 14.76 37.1473 14.76H35.5273V19.485Z" fill="#B0D9FF"/>
<path d="M37.1481 20.3851H35.9781C35.7306 20.3851 35.5056 20.2951 35.3481 20.1151C35.1681 19.9351 35.0781 19.7101 35.0781 19.4851V14.7601C35.0781 14.5126 35.2806 14.3101 35.5281 14.3101H37.1481C37.3956 14.3101 37.6206 14.4001 37.7781 14.5801C37.9581 14.7601 38.0481 14.9851 38.0481 15.2101V19.4851C38.0481 19.7326 37.9581 19.9576 37.7781 20.1151C37.6206 20.2951 37.3731 20.3851 37.1481 20.3851ZM35.9781 15.2101V19.4851H37.1481V15.2101H35.9781Z" fill="#020064"/>
<path d="M34.492 19.4175H35.527V15.2775H34.492C34.222 15.2775 33.952 15.39 33.7495 15.57C33.547 15.7725 33.457 16.02 33.457 16.3125V18.3825C33.457 18.6525 33.5695 18.9225 33.7495 19.125C33.952 19.3275 34.222 19.4175 34.492 19.4175Z" fill="white"/>
<path d="M35.5278 19.8675H34.4928C34.0878 19.8675 33.7278 19.71 33.4353 19.44C33.1653 19.17 33.0078 18.7875 33.0078 18.3825V16.3125C33.0078 15.9075 33.1653 15.5475 33.4353 15.255C33.7053 14.985 34.0878 14.8275 34.4928 14.8275H35.5278C35.7753 14.8275 35.9778 15.03 35.9778 15.2775V19.4175C35.9778 19.6875 35.7753 19.8675 35.5278 19.8675ZM34.4928 15.7275C34.3353 15.7275 34.1778 15.795 34.0878 15.9075C33.9753 16.02 33.9078 16.155 33.9078 16.3125V18.3825C33.9078 18.54 33.9753 18.675 34.0878 18.7875C34.2003 18.9 34.3578 18.9675 34.4928 18.9675H35.0778V15.7275H34.4928Z" fill="#020064"/>
<path d="M50.3766 19.935H48.7566C48.6441 19.935 48.5316 19.89 48.4416 19.8C48.3516 19.71 48.3066 19.5975 48.3066 19.485V15.21C48.3066 15.0975 48.3516 14.985 48.4416 14.895C48.5316 14.805 48.6441 14.76 48.7566 14.76H50.3766V19.935Z" fill="#B0D9FF"/>
<path d="M50.3774 20.3851H48.7574C48.5099 20.3851 48.2849 20.2951 48.1274 20.1151C47.9474 19.9351 47.8574 19.7101 47.8574 19.4851V15.2101C47.8574 14.9626 47.9474 14.7376 48.1274 14.5801C48.3074 14.4001 48.5324 14.3101 48.7574 14.3101H50.3774C50.6249 14.3101 50.8274 14.5126 50.8274 14.7601V19.9351C50.8274 20.2051 50.6249 20.3851 50.3774 20.3851ZM48.7574 15.2101V19.4851H49.9274V15.2101H48.7574Z" fill="#020064"/>
<path d="M52.447 18.3825C52.447 18.6525 52.3345 18.9225 52.1545 19.125C51.952 19.3275 51.7045 19.4175 51.412 19.4175H50.377V15.2775H51.412C51.682 15.2775 51.952 15.39 52.1545 15.57C52.357 15.7725 52.447 16.02 52.447 16.3125V18.3825Z" fill="white"/>
<path d="M51.4127 19.8675H50.3777C50.1302 19.8675 49.9277 19.665 49.9277 19.4175V15.2775C49.9277 15.03 50.1302 14.8275 50.3777 14.8275H51.4127C51.8177 14.8275 52.1777 14.985 52.4702 15.255C52.7402 15.525 52.8977 15.9075 52.8977 16.3125V18.3825C52.8977 18.7875 52.7402 19.1475 52.4702 19.44C52.2002 19.7325 51.8177 19.8675 51.4127 19.8675ZM50.8277 18.9675H51.4127C51.5702 18.9675 51.7052 18.9 51.8177 18.7875C51.9302 18.675 51.9977 18.54 51.9977 18.3825V16.3125C51.9977 16.155 51.9302 16.02 51.8177 15.9075C51.7052 15.795 51.5702 15.7275 51.4127 15.7275H50.8277V18.9675Z" fill="#020064"/>
<path d="M48.3973 23.4224C48.1498 23.4224 47.9473 23.2199 47.9473 22.9724C47.9473 22.7249 48.1498 22.5224 48.3973 22.5224C49.7923 22.5224 49.9498 21.8249 49.9498 21.3074V19.9574C49.9498 19.7099 50.1523 19.5074 50.3998 19.5074C50.6473 19.5074 50.8498 19.7099 50.8498 19.9574V21.3074C50.8273 21.9374 50.6023 23.4224 48.3973 23.4224Z" fill="#020064"/>
<path d="M50.3781 15.2099C50.1306 15.2099 49.9281 15.0074 49.9281 14.7599V14.2874C49.9056 12.4424 49.1631 10.7099 47.8581 9.40494C46.5531 8.09994 44.7981 7.37994 42.9531 7.37994C41.1081 7.37994 39.3531 8.09994 38.0481 9.40494C36.7431 10.7099 36.0006 12.4424 35.9781 14.2874V14.7599C35.9781 15.0074 35.7756 15.2099 35.5281 15.2099C35.2806 15.2099 35.0781 15.0074 35.0781 14.7599V14.2874C35.1006 12.1949 35.9331 10.2374 37.4181 8.77494C38.9031 7.31244 40.8606 6.50244 42.9531 6.50244C45.0456 6.50244 47.0031 7.31244 48.4881 8.77494C49.9731 10.2374 50.8056 12.1949 50.8281 14.2874V14.7599C50.8281 15.0299 50.6256 15.2099 50.3781 15.2099Z" fill="#020064"/>
</svg>
