<svg width="90" height="90" viewBox="0 0 90 90" fill="none" xmlns="http://www.w3.org/2000/svg">
<path d="M9 47.5425C9 67.4325 25.11 83.5425 45 83.5425C64.89 83.5425 81 67.4325 81 47.5425C81 27.6525 64.89 11.5425 45 11.5425C25.11 11.5425 9 27.6525 9 47.5425Z" fill="#D9EDFF"/>
<path d="M31.8594 85.635C31.8594 86.625 37.7544 87.435 44.9994 87.435C52.2444 87.435 58.1394 86.625 58.1394 85.635C58.1394 84.645 52.2444 83.835 44.9994 83.835C37.7544 83.835 31.8594 84.645 31.8594 85.635Z" fill="#D9EDFF"/>
<path d="M37.2383 61.1324V83.8349H42.9758L43.6283 69.0074C43.6058 68.2424 44.1908 67.6124 44.9558 67.5899C45.7208 67.5674 46.3508 68.1524 46.3733 68.9174C46.3733 68.9399 46.3733 68.9849 46.3733 69.0074L47.0258 83.8349H52.7633V61.1324H37.2383Z" fill="white"/>
<path d="M52.7631 84.285H47.0256C46.7781 84.285 46.5756 84.105 46.5756 83.8575L45.9231 69.03C45.9231 69.0075 45.9231 69.0075 45.9231 68.985C45.9231 68.9625 45.9231 68.94 45.9231 68.9175C45.9231 68.67 45.8106 68.445 45.6306 68.265C45.4506 68.085 45.2031 68.0175 44.9556 68.0175C44.4381 68.04 44.0331 68.4675 44.0556 68.985C44.0556 69.0075 44.0556 69.0075 44.0556 69.03L43.4031 83.8575C43.4031 84.105 43.2006 84.285 42.9531 84.285H37.2156C36.9681 84.285 36.7656 84.0825 36.7656 83.835V61.1325C36.7656 60.885 36.9681 60.6825 37.2156 60.6825H52.7631C53.0106 60.6825 53.2131 60.885 53.2131 61.1325V83.835C53.2131 84.0825 53.0106 84.285 52.7631 84.285ZM47.4531 83.385H52.3131V61.5825H37.6656V83.385H42.5256L43.1556 69.0075C43.1331 68.535 43.3131 68.0625 43.6506 67.725C43.9881 67.365 44.4381 67.1625 44.9331 67.14C45.4281 67.1175 45.8781 67.2975 46.2381 67.635C46.5981 67.9725 46.8006 68.4225 46.8231 68.9175C46.8231 68.9625 46.8231 68.985 46.8231 69.03L47.4531 83.385Z" fill="#020064"/>
<path d="M54.8542 67.1175C53.7067 67.1175 52.7617 66.1725 52.7617 65.025V52.1775H56.9467V65.025C56.9467 66.1725 56.0242 67.1175 54.8542 67.1175Z" fill="white"/>
<path d="M54.855 67.5675C53.46 67.5675 52.3125 66.42 52.3125 65.025V52.1775C52.3125 51.93 52.515 51.7275 52.7625 51.7275H56.9475C57.195 51.7275 57.3975 51.93 57.3975 52.1775V65.025C57.3975 66.42 56.2725 67.5675 54.855 67.5675ZM53.2125 52.6275V65.025C53.2125 65.925 53.955 66.6675 54.855 66.6675C55.755 66.6675 56.4975 65.925 56.4975 65.025V52.6275H53.2125Z" fill="#020064"/>
<path d="M35.1433 67.1175C33.9958 67.1175 33.0508 66.1725 33.0508 65.025V52.1775H37.2358V65.025C37.2358 66.1725 36.2908 67.1175 35.1433 67.1175Z" fill="white"/>
<path d="M35.1441 67.5675C33.7491 67.5675 32.6016 66.42 32.6016 65.025V52.1775C32.6016 51.93 32.8041 51.7275 33.0516 51.7275H37.2366C37.4841 51.7275 37.6866 51.93 37.6866 52.1775V65.025C37.6866 66.42 36.5391 67.5675 35.1441 67.5675ZM33.5016 52.6275V65.025C33.5016 65.925 34.2441 66.6675 35.1441 66.6675C36.0441 66.6675 36.7866 65.925 36.7866 65.025V52.6275H33.5016Z" fill="#020064"/>
<path d="M45.0002 39.6224C38.8352 39.7349 33.0527 44.2799 33.0527 52.1774H37.2377V61.1324H52.7852V52.1774H56.9702C56.9477 44.2799 51.1652 39.7349 45.0002 39.6224Z" fill="#B0D9FF"/>
<path d="M52.7626 61.5825H37.2151C36.9676 61.5825 36.7651 61.38 36.7651 61.1325V52.6275H33.0301C32.7826 52.6275 32.5801 52.425 32.5801 52.1775C32.5801 43.8075 38.8126 39.3075 44.9776 39.1725H45.0001C51.1651 39.285 57.3976 43.8075 57.3976 52.1775C57.3976 52.425 57.1951 52.6275 56.9476 52.6275H53.2126V61.1325C53.2126 61.38 53.0101 61.5825 52.7626 61.5825ZM37.6876 60.6825H52.3351V52.1775C52.3351 51.93 52.5376 51.7275 52.7851 51.7275H56.5201C56.3176 45.9675 52.3801 40.23 45.0226 40.0725C37.6651 40.23 33.7276 45.9675 33.5251 51.7275H37.2601C37.5076 51.7275 37.7101 51.93 37.7101 52.1775V60.6825H37.6876Z" fill="#020064"/>
<path d="M52.7625 52.6275C52.515 52.6275 52.3125 52.425 52.3125 52.1775V48.24C52.3125 47.9925 52.515 47.79 52.7625 47.79C53.01 47.79 53.2125 47.9925 53.2125 48.24V52.1775C53.2125 52.425 53.01 52.6275 52.7625 52.6275Z" fill="#020064"/>
<path d="M37.2371 52.6275C36.9896 52.6275 36.7871 52.425 36.7871 52.1775V48.24C36.7871 47.9925 36.9896 47.79 37.2371 47.79C37.4846 47.79 37.6871 47.9925 37.6871 48.24V52.1775C37.6871 52.425 37.4846 52.6275 37.2371 52.6275Z" fill="#020064"/>
<path d="M48.3088 40.1174C47.9488 40.0049 47.7013 39.6674 47.7013 39.3074V36.7424H42.3013V39.3074C42.3013 39.6899 42.0538 40.0274 41.6938 40.1174C41.6038 40.1399 41.5138 40.1624 41.4238 40.2074C41.5363 42.1874 43.2463 43.6949 45.2263 43.5599C47.0263 43.4474 48.4663 42.0074 48.5788 40.2074C48.4888 40.1849 48.3988 40.1624 48.3088 40.1174Z" fill="white"/>
<path d="M45.0006 44.01C44.0106 44.01 43.0881 43.65 42.3231 42.9975C41.5131 42.2775 41.0406 41.2875 40.9731 40.23C40.9506 40.0275 41.0856 39.8475 41.2881 39.78C41.3781 39.7575 41.4681 39.7125 41.5581 39.69C41.7156 39.645 41.8506 39.4875 41.8506 39.3075V36.7425C41.8506 36.495 42.0531 36.2925 42.3006 36.2925H47.7006C47.9481 36.2925 48.1506 36.495 48.1506 36.7425V39.3075C48.1506 39.4875 48.2631 39.645 48.4431 39.69H48.4656C48.5556 39.7125 48.6231 39.735 48.7131 39.7575C48.9156 39.825 49.0281 40.005 49.0281 40.2075C48.8931 42.2325 47.2731 43.8525 45.2481 43.9875C45.1581 44.01 45.0681 44.01 45.0006 44.01ZM41.9181 40.5225C42.0306 41.22 42.3906 41.85 42.9306 42.3225C43.5606 42.885 44.3706 43.155 45.2031 43.11C46.6656 43.02 47.8581 41.94 48.1056 40.5225C47.6106 40.32 47.2731 39.8475 47.2731 39.3075V37.1925H42.7731V39.3075C42.7506 39.8475 42.4131 40.3425 41.9181 40.5225Z" fill="#020064"/>
<path d="M37.2609 85.0274C36.6084 85.0274 36.0684 84.51 36.0684 83.8575C36.0684 83.655 36.1134 83.475 36.2034 83.295C36.8334 82.1475 38.0484 81.45 39.3534 81.45H39.9609C41.2659 81.45 42.4584 82.17 43.1109 83.295C43.4034 83.88 43.1784 84.5999 42.5934 84.8924C42.4134 84.9824 42.2334 85.0274 42.0309 85.0274H37.2609Z" fill="#B0D9FF"/>
<path d="M37.2382 85.4775C36.8107 85.4775 36.4057 85.32 36.0907 85.005C35.7757 84.69 35.5957 84.285 35.5957 83.8575C35.5957 83.5875 35.6632 83.34 35.7757 83.0925C36.4957 81.7875 37.8457 81 39.3082 81H39.9157C41.3782 81 42.7282 81.7875 43.4482 83.0925C43.8757 83.9025 43.5382 84.8925 42.7507 85.32C42.5257 85.4325 42.2557 85.5 41.9857 85.5L37.2382 85.4775C37.2607 85.4775 37.2607 85.4775 37.2382 85.4775ZM39.3307 81.9C38.1832 81.9 37.1257 82.53 36.5857 83.52C36.5407 83.61 36.5182 83.7225 36.5182 83.8575C36.5182 84.2625 36.8557 84.6 37.2607 84.6C37.2607 84.6 37.2607 84.6 37.2832 84.6H42.0082C42.1432 84.6 42.2557 84.5775 42.3682 84.51C42.7282 84.33 42.8857 83.88 42.6832 83.52C42.1432 82.53 41.0857 81.9225 39.9382 81.9225H39.3307C39.3307 81.9 39.3307 81.9 39.3307 81.9Z" fill="#020064"/>
<path d="M48.0148 85.0274C47.3623 85.0274 46.8223 84.51 46.8223 83.8575C46.8223 83.655 46.8673 83.475 46.9573 83.295C47.5873 82.1475 48.7798 81.45 50.1073 81.45H50.7148C52.0198 81.45 53.2348 82.17 53.8648 83.295C54.1573 83.88 53.9323 84.5999 53.3473 84.8924C53.1673 84.9824 52.9873 85.0274 52.7848 85.0274H48.0148Z" fill="#B0D9FF"/>
<path d="M47.9921 85.4775C47.0921 85.4775 46.3496 84.7575 46.3496 83.8575C46.3496 83.5875 46.4171 83.34 46.5296 83.0925C47.2496 81.7875 48.5996 81 50.0621 81H50.6696C52.1321 81 53.4821 81.7875 54.2021 83.0925C54.6296 83.9025 54.3146 84.8925 53.5046 85.32C53.2796 85.4325 53.0096 85.5 52.7621 85.5C52.7621 85.5 52.7621 85.5 52.7396 85.5H47.9921C48.0146 85.4775 47.9921 85.4775 47.9921 85.4775ZM50.0621 81.9C48.9146 81.9 47.8571 82.53 47.3171 83.52C47.2721 83.61 47.2496 83.7225 47.2496 83.8575C47.2496 84.06 47.3396 84.24 47.4746 84.375C47.6096 84.51 47.8121 84.5775 47.9921 84.5775H52.7171C52.8296 84.5775 52.9646 84.555 53.0771 84.4875C53.4371 84.3075 53.5946 83.8575 53.3921 83.4975C52.8521 82.5075 51.7946 81.9 50.6471 81.9H50.0621Z" fill="#020064"/>
<path d="M53.3699 31.59C53.3699 30.8925 52.8524 30.285 52.1774 30.15V29.1825C52.1774 25.2225 48.9599 22.005 44.9999 22.005C41.0399 22.005 37.8224 25.2225 37.8224 29.1825V30.15C37.0349 30.3075 36.4949 31.05 36.6524 31.86C36.7649 32.5125 37.3274 33.0075 37.9799 33.0525C38.7899 36.9225 42.5924 39.42 46.4624 38.61C49.2524 38.025 51.4349 35.8425 52.0199 33.0525C52.7849 32.985 53.3699 32.355 53.3699 31.59Z" fill="white"/>
<path d="M45.0006 39.2176C41.5581 39.2176 38.4756 36.8776 37.6206 33.4576C36.9231 33.2776 36.3606 32.6926 36.2256 31.9501C36.1356 31.4551 36.2481 30.9376 36.5406 30.5101C36.7656 30.1951 37.0581 29.9476 37.3956 29.8126V29.1826C37.3956 24.9751 40.8156 21.5551 45.0231 21.5551C49.2306 21.5551 52.6506 24.9751 52.6506 29.1826V29.8126C53.3481 30.1051 53.8431 30.8026 53.8431 31.5676C53.8431 32.4451 53.2356 33.1876 52.4256 33.4126C51.7281 36.2476 49.4556 38.4301 46.5981 39.0151C46.0356 39.1726 45.5181 39.2176 45.0006 39.2176ZM45.0006 22.4776C41.2881 22.4776 38.2731 25.4926 38.2731 29.2051V30.1726C38.2731 30.3976 38.1156 30.5776 37.9131 30.6226C37.6431 30.6676 37.4181 30.8251 37.2606 31.0501C37.1031 31.2751 37.0581 31.5451 37.1031 31.8151C37.1931 32.2651 37.5531 32.6026 38.0256 32.6476C38.2281 32.6701 38.3856 32.8051 38.4306 33.0076C39.1956 36.6301 42.7506 38.9701 46.3731 38.2051C48.9831 37.6651 51.0306 35.6176 51.5706 33.0076C51.6156 32.8051 51.7731 32.6701 51.9756 32.6476C52.5156 32.6026 52.8981 32.1526 52.9206 31.6351C52.9206 31.1401 52.5606 30.7351 52.0881 30.6451C51.8856 30.6001 51.7281 30.4201 51.7281 30.1951V29.2276C51.7281 25.4926 48.7131 22.4776 45.0006 22.4776Z" fill="#020064"/>
<path d="M40.2305 32.49C40.2305 32.985 40.6355 33.39 41.1305 33.39C41.6255 33.39 42.0305 32.985 42.0305 32.49C42.0305 31.995 41.6255 31.59 41.1305 31.59C40.613 31.59 40.2305 31.995 40.2305 32.49Z" fill="#B0D9FF"/>
<path d="M47.9922 32.49C47.9922 32.985 48.3972 33.39 48.8922 33.39C49.3872 33.39 49.7922 32.985 49.7922 32.49C49.7922 31.995 49.3872 31.59 48.8922 31.59C48.3972 31.59 47.9922 31.995 47.9922 32.49Z" fill="#B0D9FF"/>
<path d="M45.0008 35.64C44.2808 35.64 43.5833 35.4375 42.9533 35.01C42.7508 34.875 42.6833 34.5825 42.8183 34.38C42.9533 34.1775 43.2458 34.11 43.4483 34.245C44.3933 34.875 45.6083 34.875 46.5308 34.245C46.7333 34.11 47.0258 34.155 47.1608 34.38C47.2958 34.5825 47.2508 34.875 47.0258 35.01C46.4183 35.4375 45.7208 35.64 45.0008 35.64Z" fill="#020064"/>
<path d="M41.4219 30.15C41.4219 30.645 41.8269 31.05 42.3219 31.05C42.8169 31.05 43.2219 30.645 43.2219 30.15C43.2219 29.655 42.8169 29.25 42.3219 29.25C41.8269 29.25 41.4219 29.655 41.4219 30.15Z" fill="#020064"/>
<path d="M46.8008 30.15C46.8008 30.645 47.2058 31.05 47.7008 31.05C48.1958 31.05 48.6008 30.645 48.6008 30.15C48.6008 29.655 48.1958 29.25 47.7008 29.25C47.2058 29.25 46.8008 29.655 46.8008 30.15Z" fill="#020064"/>
<path d="M44.774 19.4175C40.4315 19.665 37.0565 23.2875 37.124 27.63V28.9575C37.124 29.295 37.394 29.565 37.709 29.565C37.7765 29.565 37.8665 29.5425 37.934 29.52C39.0815 29.0475 41.0615 27.945 41.0615 25.8525C43.919 28.62 48.644 28.4625 51.929 27.585C52.514 27.4275 52.8965 26.865 52.8065 26.2575C52.289 22.23 48.8015 19.2825 44.774 19.4175Z" fill="white"/>
<path d="M37.7323 29.9925C37.1473 29.9925 36.6748 29.52 36.6748 28.935V27.6075C36.6073 23.0175 40.1398 19.215 44.7523 18.945C44.7523 18.945 44.7523 18.945 44.7748 18.945C49.0723 18.81 52.7398 21.915 53.3023 26.1675C53.4148 27 52.8748 27.765 52.0873 27.99C48.7798 28.8675 44.3698 28.9575 41.4448 26.7075C40.9948 28.485 39.2623 29.4525 38.1598 29.9025C38.0023 29.97 37.8673 29.9925 37.7323 29.9925ZM44.7973 19.845C40.6798 20.0925 37.5298 23.49 37.5748 27.6075V28.935C37.5748 29.025 37.6423 29.0925 37.7323 29.0925C37.7548 29.0925 37.7773 29.0925 37.7773 29.0925C38.8348 28.665 40.6123 27.675 40.6123 25.8525C40.6123 25.6725 40.7248 25.515 40.8823 25.4475C41.0398 25.38 41.2423 25.4025 41.3773 25.5375C44.0098 28.08 48.4873 28.035 51.8173 27.1575C52.1773 27.0675 52.4248 26.7075 52.3798 26.325C51.8848 22.5225 48.5998 19.7325 44.7973 19.845Z" fill="#020064"/>
<path d="M34.8515 10.8676C34.964 10.5301 34.7615 10.1476 34.424 10.0576C34.289 10.0126 34.154 10.0126 34.019 10.0576L31.499 10.9576C31.2965 11.0251 31.0715 11.0026 30.8915 10.8676L28.889 9.42756C28.5965 9.22506 28.1915 9.29255 27.989 9.58505C27.899 9.69755 27.854 9.83256 27.8765 9.99006L27.944 12.4651C27.944 12.6901 27.854 12.8926 27.674 13.0051L25.5365 14.5801C25.244 14.7826 25.1765 15.2101 25.4015 15.4801C25.4915 15.5926 25.604 15.6826 25.739 15.7276L28.304 16.4701C28.5065 16.5376 28.664 16.6951 28.7315 16.8976L29.564 19.4176C29.6765 19.7551 30.0365 19.9351 30.3965 19.8226C30.5315 19.7776 30.644 19.6876 30.734 19.5751L32.174 17.4601C32.2865 17.2801 32.489 17.1676 32.714 17.1676L35.279 17.1451C35.639 17.1451 35.9315 16.8526 35.9315 16.4926C35.9315 16.3576 35.8865 16.2001 35.7965 16.0876L34.154 13.9726C34.019 13.7926 33.974 13.5901 34.0415 13.3651L34.8515 10.8676Z" fill="white"/>
<path d="M30.1723 20.3175C29.9923 20.3175 29.8347 20.2725 29.6772 20.205C29.4072 20.07 29.2272 19.845 29.1147 19.575L28.2822 17.0325C28.2597 16.965 28.2148 16.92 28.1473 16.8975L25.5822 16.155C25.3572 16.0875 25.1548 15.9525 24.9973 15.75C24.8173 15.5025 24.7497 15.2325 24.7947 14.94C24.8397 14.6475 24.9973 14.4 25.2223 14.22L27.3598 12.645C27.4273 12.6 27.4498 12.5325 27.4498 12.465L27.3822 10.0125C27.3822 9.76501 27.4498 9.54001 27.5848 9.33751C27.9448 8.84251 28.6197 8.73001 29.1147 9.09001L31.1173 10.53C31.1623 10.575 31.2523 10.575 31.2973 10.5525L33.7948 9.65251C34.0197 9.56251 34.2673 9.56251 34.4923 9.63001C35.0773 9.81001 35.3923 10.44 35.2123 11.0025L34.4022 13.545C34.3797 13.6125 34.4023 13.68 34.4248 13.725L36.0673 15.84C36.2248 16.02 36.2923 16.2675 36.2923 16.515C36.2923 16.8075 36.1797 17.0775 35.9772 17.3025C35.7747 17.505 35.5047 17.6175 35.1897 17.6175L32.6248 17.64C32.5573 17.64 32.4898 17.6625 32.4673 17.73L31.0272 19.845C30.8922 20.0475 30.6897 20.205 30.4647 20.2725C30.4197 20.3175 30.2848 20.3175 30.1723 20.3175ZM28.5072 9.78751C28.4847 9.78751 28.4848 9.78751 28.4848 9.78751C28.4623 9.78751 28.3948 9.81001 28.3498 9.87751C28.3273 9.92251 28.3048 9.96751 28.3048 10.0125L28.3723 12.4875C28.3723 12.8475 28.2148 13.2075 27.9223 13.41L25.7848 14.985C25.7173 15.03 25.7172 15.075 25.6947 15.12C25.6947 15.1425 25.6948 15.21 25.7398 15.2775C25.7623 15.3225 25.8073 15.345 25.8523 15.345L28.4173 16.0875C28.7548 16.2 29.0473 16.4475 29.1598 16.8075L29.9923 19.35C30.0148 19.4175 30.0597 19.4625 30.0822 19.4625C30.1047 19.485 30.1722 19.5075 30.2397 19.4625C30.2847 19.44 30.3297 19.4175 30.3522 19.395L31.7923 17.28C31.9948 16.9875 32.3323 16.8075 32.6923 16.8075L35.2572 16.785C35.3247 16.785 35.3698 16.74 35.3923 16.7175C35.4148 16.695 35.4598 16.65 35.4598 16.5825C35.4598 16.5375 35.4372 16.4925 35.4147 16.47L33.7723 14.355C33.5473 14.0625 33.4798 13.68 33.5923 13.3425L34.4022 10.8C34.4247 10.7325 34.4023 10.665 34.3798 10.6425C34.3573 10.62 34.3348 10.575 34.2673 10.5525C34.2223 10.53 34.1772 10.53 34.1322 10.5525L31.6348 11.4525C31.2973 11.565 30.9148 11.52 30.6223 11.3175L28.6197 9.87751C28.5747 9.78751 28.5522 9.78751 28.5072 9.78751Z" fill="#020064"/>
<path d="M23.626 21.645C23.5585 21.375 23.266 21.2175 22.996 21.285C22.8835 21.3075 22.7935 21.375 22.726 21.465L21.466 23.1525C21.3535 23.2875 21.196 23.3775 21.0385 23.355L19.081 23.2875C18.7885 23.2875 18.5635 23.49 18.541 23.7825C18.541 23.895 18.5635 24.0075 18.631 24.0975L19.756 25.695C19.846 25.83 19.8685 26.01 19.8235 26.1675L19.081 28.1475C18.991 28.4175 19.126 28.71 19.396 28.8225C19.5085 28.8675 19.621 28.8675 19.7335 28.8225L21.7585 28.1925C21.916 28.1475 22.096 28.17 22.231 28.2825L23.896 29.5875C24.121 29.7675 24.436 29.7225 24.616 29.4975C24.6835 29.4075 24.7285 29.295 24.7285 29.1825L24.751 27.135C24.751 26.955 24.841 26.7975 24.976 26.7075L26.6635 25.5825C26.911 25.425 26.956 25.11 26.7985 24.8625C26.731 24.7725 26.641 24.705 26.5285 24.66L24.526 23.985C24.3685 23.94 24.2335 23.805 24.1885 23.625L23.626 21.645Z" fill="white"/>
<path d="M24.1884 30.195C23.9634 30.195 23.7609 30.1275 23.5809 29.9925L21.9159 28.6875C21.8934 28.665 21.8709 28.665 21.8484 28.665L19.8234 29.295C19.6209 29.3625 19.3959 29.3625 19.1934 29.2725C18.9459 29.1825 18.7659 29.0025 18.6534 28.7775C18.5409 28.5525 18.5409 28.2825 18.6309 28.035L19.3734 26.055C19.3734 26.0325 19.3734 26.01 19.3734 25.9875L18.2484 24.39C18.1359 24.21 18.0684 24.0075 18.0684 23.7825C18.0909 23.2425 18.5409 22.8375 19.0809 22.86L21.0384 22.9275C21.0609 22.9275 21.0834 22.9275 21.1059 22.905L22.3659 21.2175C22.5009 21.0375 22.6809 20.925 22.8834 20.8575C23.1309 20.79 23.4009 20.8125 23.6259 20.9475C23.8509 21.0825 24.0084 21.285 24.0759 21.5325L24.6609 23.58C24.6609 23.6025 24.6834 23.625 24.7059 23.625L26.7084 24.3C26.9109 24.3675 27.0909 24.5025 27.2034 24.6825C27.4959 25.1325 27.3834 25.7175 26.9334 26.0325L25.2459 27.1575C25.2234 27.18 25.2234 27.2025 25.2234 27.225L25.2009 29.2725C25.2009 29.475 25.1334 29.7 24.9984 29.8575C24.8409 30.06 24.6159 30.195 24.3459 30.2175C24.2559 30.195 24.2109 30.195 24.1884 30.195ZM21.8709 27.765C22.0959 27.765 22.2984 27.8325 22.4784 27.9675L24.1434 29.2725C24.1659 29.295 24.1884 29.295 24.1884 29.295C24.2109 29.295 24.2109 29.295 24.2334 29.2725C24.2334 29.25 24.2559 29.25 24.2559 29.2275L24.2784 27.18C24.2784 26.865 24.4359 26.5725 24.7059 26.3925L26.3934 25.2675C26.4159 25.245 26.4159 25.245 26.4159 25.2225C26.4159 25.2 26.4159 25.2 26.4159 25.1775C26.4159 25.155 26.3934 25.155 26.3709 25.155L24.3684 24.48C24.0759 24.3675 23.8284 24.1425 23.7384 23.8275L23.1534 21.78C23.1534 21.7575 23.1309 21.735 23.1309 21.735C23.1084 21.735 23.1084 21.7125 23.0859 21.735C23.0634 21.735 23.0634 21.7575 23.0409 21.7575L21.7809 23.445C21.6009 23.6925 21.2859 23.85 20.9709 23.8275L19.0134 23.76C18.9684 23.76 18.9459 23.7825 18.9459 23.8275C18.9459 23.85 18.9459 23.85 18.9684 23.8725L20.0934 25.47C20.2734 25.74 20.3184 26.055 20.2059 26.37L19.4634 28.3725C19.4634 28.395 19.4634 28.4175 19.4634 28.4175C19.4634 28.44 19.4859 28.44 19.5084 28.4625C19.5309 28.4625 19.5309 28.4625 19.5534 28.4625L21.5784 27.8325C21.6909 27.7875 21.7809 27.765 21.8709 27.765Z" fill="#020064"/>
<path d="M55.1474 10.8674C55.0349 10.5299 55.2374 10.1474 55.5749 10.0574C55.7099 10.0124 55.8449 10.0124 55.9799 10.0574L58.4774 10.9574C58.6799 11.0249 58.9049 11.0024 59.0849 10.8674L61.0874 9.42743C61.3799 9.22493 61.7849 9.29243 61.9874 9.58493C62.0774 9.69743 62.1224 9.83243 62.0999 9.98993L62.0324 12.4649C62.0324 12.6899 62.1224 12.8924 62.3024 13.0049L64.4399 14.5799C64.7324 14.7824 64.7999 15.2099 64.5749 15.4799C64.4849 15.5924 64.3724 15.6824 64.2374 15.7274L61.6724 16.4699C61.4699 16.5374 61.3124 16.6949 61.2449 16.8974L60.4124 19.4174C60.2999 19.7549 59.9399 19.9349 59.5799 19.8224C59.4449 19.7774 59.3324 19.6874 59.2424 19.5749L57.8024 17.4599C57.6899 17.2799 57.4874 17.1674 57.2624 17.1674L54.6974 17.1449C54.3374 17.1449 54.0449 16.8524 54.0449 16.4924C54.0449 16.3574 54.0899 16.1999 54.1799 16.0874L55.8224 13.9724C55.9574 13.7924 56.0024 13.5899 55.9349 13.3649L55.1474 10.8674Z" fill="white"/>
<path d="M59.8271 20.3175C59.7146 20.3175 59.6021 20.295 59.4896 20.2725C59.2646 20.205 59.0621 20.0475 58.9271 19.845L57.4871 17.73C57.4421 17.685 57.3971 17.64 57.3296 17.64L54.7646 17.6175C54.4721 17.6175 54.2021 17.505 53.9771 17.28C53.7746 17.0775 53.6621 16.785 53.6621 16.4925C53.6621 16.245 53.7521 16.02 53.8871 15.8175L55.5071 13.7025C55.5521 13.6575 55.5521 13.59 55.5296 13.5225L54.7196 11.025C54.5396 10.44 54.8546 9.83247 55.4396 9.65247C55.6646 9.58497 55.9121 9.58497 56.1371 9.67497L58.6571 10.575C58.7246 10.5975 58.7921 10.5975 58.8371 10.5525L60.8396 9.11247C61.3346 8.75247 62.0321 8.86497 62.3696 9.35997C62.5046 9.56247 62.5946 9.78747 62.5721 10.035L62.5046 12.51C62.5046 12.5775 62.5271 12.645 62.5946 12.6675L64.7321 14.2425C64.9796 14.4225 65.1146 14.67 65.1596 14.9625C65.2046 15.255 65.1371 15.5475 64.9571 15.7725C64.8221 15.975 64.6196 16.11 64.3721 16.1775L61.8071 16.92C61.7396 16.9425 61.6946 16.9875 61.6721 17.055L60.8621 19.575C60.7271 20.025 60.2771 20.3175 59.8271 20.3175ZM55.5971 10.7325L56.4071 13.275C56.5196 13.6125 56.4521 13.995 56.2271 14.2875L54.5846 16.4025C54.5621 16.4475 54.5396 16.4925 54.5396 16.515C54.5396 16.5825 54.5846 16.6275 54.6071 16.65C54.6296 16.6725 54.6746 16.7175 54.7421 16.7175L57.3071 16.74C57.6671 16.74 58.0046 16.92 58.2071 17.2125L59.6471 19.3275C59.6696 19.3725 59.7146 19.395 59.7596 19.395C59.8721 19.44 59.9846 19.3725 60.0071 19.26L60.8396 16.74C60.9521 16.4025 61.2221 16.1325 61.5821 16.02L64.1471 15.2775C64.1921 15.255 64.2371 15.2325 64.2596 15.21C64.3046 15.1425 64.3046 15.0975 64.3046 15.0525C64.3046 15.0075 64.2821 14.9625 64.2146 14.9175L62.0771 13.3425C61.7846 13.14 61.6046 12.78 61.6271 12.42L61.6946 9.94497C61.6946 9.89997 61.6721 9.85497 61.6496 9.80997C61.5821 9.71997 61.4471 9.69747 61.3571 9.76497L59.3546 11.205C59.0621 11.4075 58.6796 11.475 58.3421 11.34L55.8221 10.44C55.7771 10.4175 55.7321 10.4175 55.6871 10.44C55.6196 10.53 55.5521 10.6425 55.5971 10.7325Z" fill="#020064"/>
<path d="M66.3757 21.645C66.4432 21.375 66.7357 21.2175 67.0057 21.285C67.1182 21.3075 67.2082 21.375 67.2757 21.465L68.5357 23.1525C68.6482 23.2875 68.8057 23.3775 68.9632 23.355L70.9207 23.2875C71.2132 23.2875 71.4382 23.49 71.4607 23.7825C71.4607 23.895 71.4382 24.0075 71.3707 24.0975L70.2457 25.695C70.1557 25.83 70.1332 26.01 70.1782 26.1675L70.9207 28.1475C71.0107 28.4175 70.8757 28.71 70.6057 28.8225C70.4932 28.8675 70.3807 28.8675 70.2682 28.8225L68.2432 28.1925C68.0857 28.1475 67.9057 28.17 67.7707 28.2825L66.1057 29.5875C65.8807 29.7675 65.5657 29.7225 65.3857 29.4975C65.3182 29.4075 65.2732 29.295 65.2732 29.1825L65.2507 27.135C65.2507 26.955 65.1607 26.7975 65.0257 26.7075L63.3382 25.5825C63.0907 25.425 63.0457 25.11 63.2032 24.8625C63.2707 24.7725 63.3607 24.705 63.4732 24.66L65.4757 23.985C65.6332 23.94 65.7682 23.805 65.8132 23.625L66.3757 21.645Z" fill="white"/>
<path d="M65.8133 30.195C65.5208 30.195 65.2508 30.06 65.0483 29.835C64.9133 29.6775 64.8458 29.4525 64.8458 29.25L64.8233 27.2025C64.8233 27.18 64.8008 27.1575 64.8008 27.135L63.1133 26.01C62.8883 25.875 62.7533 25.65 62.7083 25.4025C62.6633 25.155 62.7083 24.885 62.8433 24.6825C62.9558 24.5025 63.1358 24.3675 63.3383 24.3L65.3408 23.625C65.3633 23.625 65.3858 23.6025 65.3858 23.58L65.9708 21.5325C66.1058 21.015 66.6458 20.7225 67.1633 20.8575C67.3658 20.925 67.5458 21.0375 67.6808 21.2175L68.9408 22.905C68.9633 22.9275 68.9858 22.9275 68.9858 22.9275L70.9433 22.86C71.4833 22.8375 71.9333 23.265 71.9558 23.7825C71.9558 23.985 71.9108 24.21 71.7758 24.39L70.6508 25.9875C70.6283 26.01 70.6283 26.0325 70.6508 26.055L71.3933 28.035C71.4833 28.2825 71.4833 28.53 71.3708 28.7775C71.2583 29.025 71.0783 29.1825 70.8308 29.2725C70.6283 29.34 70.4033 29.3625 70.2008 29.295L68.1758 28.665C68.1533 28.665 68.1308 28.665 68.1083 28.6875L66.4433 29.9925C66.2408 30.1275 66.0383 30.195 65.8133 30.195ZM66.8933 21.7125C66.8708 21.7125 66.8258 21.735 66.8258 21.7575L66.2408 23.805C66.1508 24.12 65.9258 24.345 65.6108 24.4575L63.6083 25.1325C63.5858 25.1325 63.5858 25.155 63.5633 25.155C63.5408 25.1775 63.5408 25.2 63.5633 25.2C63.5858 25.2 63.5633 25.2225 63.5858 25.245L65.2733 26.37C65.5433 26.55 65.7008 26.8425 65.7008 27.1575L65.7233 29.205C65.7233 29.2275 65.7233 29.2275 65.7458 29.25C65.7683 29.2725 65.8133 29.2725 65.8358 29.25L67.5008 27.945C67.7483 27.7425 68.0858 27.675 68.3783 27.7875L70.4033 28.4175C70.4258 28.4175 70.4258 28.4175 70.4483 28.4175C70.4708 28.4175 70.4708 28.395 70.4933 28.3725C70.5158 28.35 70.4933 28.35 70.4933 28.3275L69.7508 26.325C69.6383 26.0325 69.6833 25.695 69.8633 25.425L70.9883 23.8275C70.9883 23.805 71.0108 23.805 71.0108 23.7825C71.0108 23.7375 70.9658 23.715 70.9433 23.715L68.9858 23.7825C68.6708 23.805 68.3558 23.6475 68.1758 23.4L66.9158 21.7125C66.9383 21.735 66.9158 21.735 66.8933 21.7125Z" fill="#020064"/>
<path d="M51.592 8.21254C51.9295 7.89754 51.9295 7.35754 51.6145 7.04254C51.4795 6.90754 51.322 6.81754 51.142 6.79505L47.767 6.30005C47.497 6.25504 47.2495 6.09754 47.137 5.85004L45.742 3.01504C45.5395 2.61004 45.0445 2.43004 44.617 2.63254C44.4595 2.72254 44.3245 2.83504 44.2345 3.01504L42.862 5.85004C42.7495 6.09754 42.502 6.25504 42.232 6.30005L38.857 6.79505C38.407 6.86255 38.092 7.29005 38.1595 7.74005C38.182 7.92005 38.272 8.07755 38.407 8.21254L40.837 10.575C41.0395 10.755 41.1295 11.0475 41.0845 11.3175L40.4995 14.67C40.432 15.12 40.7245 15.5475 41.1745 15.6375C41.3545 15.66 41.5345 15.6375 41.7145 15.5475L44.617 14.0175C44.8645 13.8825 45.157 13.8825 45.382 14.0175L48.2845 15.5475C48.6895 15.7725 49.1845 15.615 49.4095 15.21C49.4995 15.0525 49.522 14.8725 49.4995 14.67L48.9145 11.3175C48.8695 11.0475 48.9595 10.7775 49.162 10.575L51.592 8.21254Z" fill="white"/>
<path d="M48.6671 16.0875C48.4646 16.0875 48.2621 16.0425 48.0821 15.93L45.1796 14.4C45.0671 14.3325 44.9321 14.3325 44.8196 14.4L41.9171 15.93C41.6696 16.065 41.3771 16.11 41.1071 16.065C40.4096 15.9525 39.9371 15.2775 40.0721 14.58L40.6571 11.2275C40.6796 11.0925 40.6346 10.98 40.5446 10.89L38.1146 8.52753C37.9121 8.32503 37.7771 8.07753 37.7321 7.78503C37.6871 7.44753 37.7771 7.11003 37.9796 6.84003C38.1821 6.57003 38.4746 6.39003 38.8121 6.34503L42.1871 5.85003C42.3221 5.82753 42.4121 5.76003 42.4796 5.64753L43.8746 2.83503C44.0096 2.58753 44.2121 2.38503 44.4596 2.25003C45.0896 1.93503 45.8546 2.20503 46.1696 2.83503L47.5646 5.67003C47.6096 5.78253 47.7221 5.85003 47.8571 5.87253L51.2321 6.36753C51.5021 6.41253 51.7721 6.54753 51.9746 6.75003C52.2221 6.99753 52.3346 7.31253 52.3346 7.65003C52.3346 7.98753 52.1996 8.30253 51.9521 8.55003L49.4996 10.9125C49.4096 11.0025 49.3646 11.115 49.3871 11.25L49.9721 14.6025C50.0171 14.8725 49.9721 15.165 49.8371 15.4125C49.6796 15.705 49.4096 15.93 49.0721 16.0425C48.9146 16.065 48.7796 16.0875 48.6671 16.0875ZM44.9996 13.4775C45.2021 13.4775 45.4046 13.5225 45.5846 13.635L48.4871 15.165C48.5771 15.21 48.6896 15.2325 48.7796 15.1875C48.8696 15.165 48.9596 15.0975 49.0046 15.0075C49.0496 14.94 49.0496 14.85 49.0496 14.76L48.4646 11.4075C48.3971 11.0025 48.5321 10.575 48.8246 10.2825L51.2771 7.92003C51.3446 7.85253 51.3896 7.76253 51.3896 7.65003C51.3896 7.53753 51.3446 7.44753 51.2771 7.38003C51.2096 7.31253 51.1421 7.29003 51.0521 7.26753L47.6996 6.75003C47.2946 6.68253 46.9121 6.43503 46.7321 6.05253L45.3371 3.21753C45.2471 3.03753 45.0221 2.94753 44.8196 3.03753C44.7521 3.08253 44.6846 3.12753 44.6396 3.21753L43.2446 6.03003C43.0646 6.41253 42.6821 6.66003 42.2771 6.72753L38.9246 7.24503C38.8346 7.26753 38.7446 7.31253 38.6771 7.40253C38.6096 7.49253 38.5871 7.58253 38.6096 7.69503C38.6321 7.78503 38.6546 7.85253 38.7221 7.92003L41.1521 10.2825C41.4446 10.575 41.6021 11.0025 41.5121 11.4075L40.9496 14.7375C40.9046 14.94 41.0621 15.1425 41.2646 15.1875C41.3546 15.21 41.4221 15.1875 41.5121 15.1425L44.4146 13.6125C44.5721 13.5225 44.7971 13.4775 44.9996 13.4775Z" fill="#020064"/>
</svg>
