<svg width="30" height="29" viewBox="0 0 30 29" fill="none" xmlns="http://www.w3.org/2000/svg">
    <path d="M28.163 2.70711C28.5535 2.31658 28.5535 1.68342 28.163 1.29289C27.7724 0.902369 27.1393 0.902369 26.7487 1.29289L14.7279 13.3137L2.70711 1.29289C2.31658 0.902369 1.68342 0.902369 1.29289 1.29289C0.902369 1.68342 0.902369 2.31658 1.29289 2.70711L13.3137 14.7279L2 26.0416C1.60947 26.4322 1.60947 27.0653 2 27.4558C2.39052 27.8464 3.02369 27.8464 3.41421 27.4558L14.7279 16.1421L26.0416 27.4558C26.4322 27.8464 27.0653 27.8464 27.4558 27.4558C27.8464 27.0653 27.8464 26.4322 27.4558 26.0416L16.1421 14.7279L28.163 2.70711Z" fill="#fff"/>
</svg>
