<svg width="387" height="416" viewBox="0 0 387 416" fill="none" xmlns="http://www.w3.org/2000/svg">
<g clip-path="url(#clip0_3608_109)">
<path d="M207.192 321.878C207.102 321.878 207.002 321.888 206.912 321.888C204.289 309.599 193.376 300.382 180.29 300.382C167.155 300.382 156.192 309.679 153.639 322.058C145.019 323.239 138.381 330.625 138.381 339.562C138.381 349.319 146.3 357.235 156.062 357.235C158.955 357.235 161.678 356.535 164.091 355.304C166.825 361.549 173.052 365.912 180.3 365.912C188.05 365.912 194.627 360.928 197.02 354.003C199.904 356.035 203.408 357.235 207.202 357.235C216.964 357.235 224.883 349.319 224.883 339.562C224.873 329.784 216.954 321.878 207.192 321.878Z" fill="#F3F8FE"/>
<path d="M356.681 258.9C356.561 258.9 356.431 258.91 356.311 258.91C352.867 242.767 338.53 230.658 321.36 230.658C304.109 230.658 289.712 242.877 286.358 259.12C275.035 260.671 266.314 270.368 266.314 282.107C266.314 294.927 276.707 305.315 289.532 305.315C293.326 305.315 296.911 304.395 300.074 302.783C303.659 310.98 311.838 316.714 321.36 316.714C331.532 316.714 340.172 310.169 343.316 301.072C347.1 303.744 351.706 305.315 356.692 305.315C369.517 305.315 379.909 294.927 379.909 282.107C379.909 269.288 369.507 258.9 356.681 258.9Z" fill="#F3F8FE"/>
<path d="M350.784 62.2277C350.664 62.2277 350.544 62.2377 350.414 62.2377C347.02 46.3054 332.863 34.3462 315.903 34.3462C298.873 34.3462 284.666 46.4055 281.342 62.4479C270.169 63.9791 261.559 73.5564 261.559 85.1454C261.559 97.8051 271.821 108.063 284.486 108.063C288.23 108.063 291.764 107.162 294.888 105.561C298.422 113.657 306.502 119.312 315.903 119.312C325.945 119.312 334.475 112.857 337.579 103.87C341.313 106.502 345.868 108.053 350.784 108.053C363.449 108.053 373.711 97.7951 373.711 85.1354C373.711 72.4756 363.439 62.2277 350.784 62.2277Z" fill="#F3F8FE"/>
<g opacity="0.35">
<path d="M-5.72983 347.208C-2.73289 347.208 -0.303393 344.779 -0.303393 341.784C-0.303393 338.788 -2.73289 336.359 -5.72983 336.359C-8.72676 336.359 -11.1562 338.788 -11.1562 341.784C-11.1562 344.779 -8.72676 347.208 -5.72983 347.208Z" stroke="white" stroke-miterlimit="10"/>
</g>
<g opacity="0.35">
<path d="M377.945 157.111C380.406 157.111 382.401 155.117 382.401 152.658C382.401 150.198 380.406 148.204 377.945 148.204C375.485 148.204 373.49 150.198 373.49 152.658C373.49 155.117 375.485 157.111 377.945 157.111Z" stroke="white" stroke-miterlimit="10"/>
<path d="M356.119 167.95L362.657 192.359L380.538 174.495L356.119 167.95Z" stroke="white" stroke-miterlimit="10"/>
</g>
<g opacity="0.35">
<path d="M2.20042 57.0839L-4.34734 32.675L-22.2285 50.5388L2.20042 57.0839Z" stroke="white" stroke-miterlimit="10"/>
</g>
<path d="M225.383 105.622L324.37 82.5737L254.788 120.993L225.383 105.622Z" fill="url(#paint0_linear_3608_109)"/>
<path d="M324.369 82.5737L302.223 149.906L266.49 127.158L324.369 82.5737Z" fill="url(#paint1_linear_3608_109)"/>
<path d="M254.787 120.993L258.902 149.906L266.491 127.158L324.37 82.5737L254.787 120.993Z" fill="#4A6FED"/>
<path d="M258.902 149.906L280.398 136.005L266.491 127.158L258.902 149.906Z" fill="#FF7A85"/>
<path d="M88.0708 403.391C35.1281 402.631 -40.8919 291.435 69.0683 263.583C179.018 235.732 95.6097 357.856 50.4362 298.15C5.26274 238.444 78.5695 193.429 153.228 202.366C227.886 211.303 250.964 154.249 250.964 154.249" stroke="#4A6FED" stroke-miterlimit="10" stroke-dasharray="12 12"/>
<path d="M232.533 210.262L284.755 198.103L248.052 218.369L232.533 210.262Z" fill="url(#paint2_linear_3608_109)"/>
<path d="M284.755 198.103L273.081 233.62L254.229 221.621L284.755 198.103Z" fill="url(#paint3_linear_3608_109)"/>
<path d="M248.051 218.369L250.223 233.62L254.228 221.621L284.754 198.103L248.051 218.369Z" fill="#4A6FED"/>
<path d="M250.225 233.62L261.558 226.294L254.229 221.621L250.225 233.62Z" fill="#FF7A85"/>
<path d="M201.666 318.556L253.888 306.406L217.184 326.672L201.666 318.556Z" fill="url(#paint4_linear_3608_109)"/>
<path d="M253.888 306.406L242.204 341.924L223.352 329.925L253.888 306.406Z" fill="url(#paint5_linear_3608_109)"/>
<path d="M217.184 326.672L219.346 341.924L223.351 329.925L253.887 306.406L217.184 326.672Z" fill="#4A6FED"/>
<path d="M219.348 341.924L230.691 334.588L223.352 329.924L219.348 341.924Z" fill="#FF7A85"/>
<path d="M126.668 136.225L178.89 124.066L142.186 144.331L126.668 136.225Z" fill="url(#paint6_linear_3608_109)"/>
<path d="M178.89 124.066L167.206 159.583L148.354 147.584L178.89 124.066Z" fill="url(#paint7_linear_3608_109)"/>
<path d="M142.186 144.331L144.348 159.583L148.353 147.584L178.889 124.066L142.186 144.331Z" fill="#4A6FED"/>
<path d="M144.35 159.583L155.693 152.257L148.354 147.583L144.35 159.583Z" fill="#FF7A85"/>
</g>
<defs>
<linearGradient id="paint0_linear_3608_109" x1="324.366" y1="101.783" x2="225.38" y2="101.783" gradientUnits="userSpaceOnUse">
<stop stop-color="#787CFF"/>
<stop offset="0.2729" stop-color="#7175FA"/>
<stop offset="0.6732" stop-color="#5F61EE"/>
<stop offset="1" stop-color="#4C4CE0"/>
</linearGradient>
<linearGradient id="paint1_linear_3608_109" x1="324.365" y1="116.239" x2="266.491" y2="116.239" gradientUnits="userSpaceOnUse">
<stop stop-color="#787CFF"/>
<stop offset="0.2729" stop-color="#7175FA"/>
<stop offset="0.6732" stop-color="#5F61EE"/>
<stop offset="1" stop-color="#4C4CE0"/>
</linearGradient>
<linearGradient id="paint2_linear_3608_109" x1="284.755" y1="208.237" x2="232.538" y2="208.237" gradientUnits="userSpaceOnUse">
<stop stop-color="#787CFF"/>
<stop offset="0.2729" stop-color="#7175FA"/>
<stop offset="0.6732" stop-color="#5F61EE"/>
<stop offset="1" stop-color="#4C4CE0"/>
</linearGradient>
<linearGradient id="paint3_linear_3608_109" x1="284.755" y1="215.863" x2="254.225" y2="215.863" gradientUnits="userSpaceOnUse">
<stop stop-color="#787CFF"/>
<stop offset="0.2729" stop-color="#7175FA"/>
<stop offset="0.6732" stop-color="#5F61EE"/>
<stop offset="1" stop-color="#4C4CE0"/>
</linearGradient>
<linearGradient id="paint4_linear_3608_109" x1="253.883" y1="316.536" x2="201.666" y2="316.536" gradientUnits="userSpaceOnUse">
<stop stop-color="#787CFF"/>
<stop offset="0.2729" stop-color="#7175FA"/>
<stop offset="0.6732" stop-color="#5F61EE"/>
<stop offset="1" stop-color="#4C4CE0"/>
</linearGradient>
<linearGradient id="paint5_linear_3608_109" x1="253.883" y1="324.162" x2="223.354" y2="324.162" gradientUnits="userSpaceOnUse">
<stop stop-color="#787CFF"/>
<stop offset="0.2729" stop-color="#7175FA"/>
<stop offset="0.6732" stop-color="#5F61EE"/>
<stop offset="1" stop-color="#4C4CE0"/>
</linearGradient>
<linearGradient id="paint6_linear_3608_109" x1="178.886" y1="134.202" x2="126.669" y2="134.202" gradientUnits="userSpaceOnUse">
<stop stop-color="#787CFF"/>
<stop offset="0.2729" stop-color="#7175FA"/>
<stop offset="0.6732" stop-color="#5F61EE"/>
<stop offset="1" stop-color="#4C4CE0"/>
</linearGradient>
<linearGradient id="paint7_linear_3608_109" x1="178.886" y1="141.828" x2="148.356" y2="141.828" gradientUnits="userSpaceOnUse">
<stop stop-color="#787CFF"/>
<stop offset="0.2729" stop-color="#7175FA"/>
<stop offset="0.6732" stop-color="#5F61EE"/>
<stop offset="1" stop-color="#4C4CE0"/>
</linearGradient>
<clipPath id="clip0_3608_109">
<rect width="387" height="416" fill="white"/>
</clipPath>
</defs>
</svg>
