<svg width="39" height="32" viewBox="0 0 39 32" fill="none" xmlns="http://www.w3.org/2000/svg">
<path d="M8.45 23V30H7.74V24.4L4.99 29.11H4.64L1.89 24.43V30H1.18V23H1.79L4.83 28.19L7.84 23H8.45ZM15.2389 27.59H10.8389C10.8789 28.1367 11.0889 28.58 11.4689 28.92C11.8489 29.2533 12.3289 29.42 12.9089 29.42C13.2356 29.42 13.5356 29.3633 13.8089 29.25C14.0822 29.13 14.3189 28.9567 14.5189 28.73L14.9189 29.19C14.6856 29.47 14.3922 29.6833 14.0389 29.83C13.6922 29.9767 13.3089 30.05 12.8889 30.05C12.3489 30.05 11.8689 29.9367 11.4489 29.71C11.0356 29.4767 10.7122 29.1567 10.4789 28.75C10.2456 28.3433 10.1289 27.8833 10.1289 27.37C10.1289 26.8567 10.2389 26.3967 10.4589 25.99C10.6856 25.5833 10.9922 25.2667 11.3789 25.04C11.7722 24.8133 12.2122 24.7 12.6989 24.7C13.1856 24.7 13.6222 24.8133 14.0089 25.04C14.3956 25.2667 14.6989 25.5833 14.9189 25.99C15.1389 26.39 15.2489 26.85 15.2489 27.37L15.2389 27.59ZM12.6989 25.31C12.1922 25.31 11.7656 25.4733 11.4189 25.8C11.0789 26.12 10.8856 26.54 10.8389 27.06H14.5689C14.5222 26.54 14.3256 26.12 13.9789 25.8C13.6389 25.4733 13.2122 25.31 12.6989 25.31ZM16.8205 24.74H17.5305V27.07H20.8405V24.74H21.5505V30H20.8405V27.68H17.5305V30H16.8205V24.74ZM28.0886 24.7C28.5819 24.7 29.0253 24.8133 29.4186 25.04C29.8186 25.2667 30.1319 25.5833 30.3586 25.99C30.5853 26.3967 30.6986 26.8567 30.6986 27.37C30.6986 27.8833 30.5853 28.3433 30.3586 28.75C30.1319 29.1567 29.8186 29.4767 29.4186 29.71C29.0253 29.9367 28.5819 30.05 28.0886 30.05C27.6219 30.05 27.1986 29.95 26.8186 29.75C26.4386 29.5433 26.1286 29.26 25.8886 28.9C25.6553 28.54 25.5186 28.1267 25.4786 27.66H24.2786V30H23.5686V24.74H24.2786V27.01H25.4886C25.5419 26.5567 25.6853 26.1567 25.9186 25.81C26.1586 25.4567 26.4653 25.1833 26.8386 24.99C27.2119 24.7967 27.6286 24.7 28.0886 24.7ZM28.0886 29.43C28.4486 29.43 28.7719 29.3433 29.0586 29.17C29.3519 28.9967 29.5819 28.7533 29.7486 28.44C29.9153 28.1267 29.9986 27.77 29.9986 27.37C29.9986 26.97 29.9153 26.6133 29.7486 26.3C29.5819 25.9867 29.3519 25.7467 29.0586 25.58C28.7719 25.4067 28.4486 25.32 28.0886 25.32C27.7286 25.32 27.4019 25.4067 27.1086 25.58C26.8219 25.7467 26.5953 25.9867 26.4286 26.3C26.2619 26.6133 26.1786 26.97 26.1786 27.37C26.1786 27.77 26.2619 28.1267 26.4286 28.44C26.5953 28.7533 26.8219 28.9967 27.1086 29.17C27.4019 29.3433 27.7286 29.43 28.0886 29.43Z" fill="#161616"/>
<line x1="1" y1="1.75" x2="39" y2="1.75" stroke="#4A6FED" stroke-width="2.5" stroke-linejoin="round"/>
<line x1="1" y1="7.75" x2="39" y2="7.75" stroke="#4A6FED" stroke-width="2.5" stroke-linejoin="round"/>
<line x1="1" y1="13.75" x2="20" y2="13.75" stroke="#4A6FED" stroke-width="2.5" stroke-linejoin="round"/>
</svg>
