<svg width="124" height="36" viewBox="0 0 124 36" fill="none" xmlns="http://www.w3.org/2000/svg">
<g clip-path="url(#clip0_3521_333)">
<mask id="mask0_3521_333" style="mask-type:luminance" maskUnits="userSpaceOnUse" x="0" y="0" width="124" height="36">
<path d="M123.908 0H0V36H123.908V0Z" fill="white"/>
</mask>
<g mask="url(#mask0_3521_333)">
<path d="M46.0059 12.0103H48.3809L51.8883 22.1904H51.9198L55.4271 12.0103H57.8021V24.1127H56.2607V13.9324H56.2293L52.7376 24.1127H51.0862L47.5945 13.9324H47.563V24.1127H46.0216V12.0103H46.0059Z" fill="black"/>
<path d="M67.7424 19.6839C67.7424 20.4067 67.648 21.0526 67.4593 21.637C67.2705 22.2213 66.9874 22.7134 66.6414 23.1133C66.2954 23.5131 65.8392 23.836 65.3202 24.0513C64.8011 24.2666 64.2192 24.3742 63.5586 24.3742C62.898 24.3742 62.3161 24.2666 61.7971 24.0513C61.278 23.836 60.8376 23.5284 60.4916 23.1133C60.1455 22.698 59.8625 22.2213 59.6737 21.637C59.485 21.0526 59.3906 20.4067 59.3906 19.6839C59.3906 18.9612 59.485 18.3307 59.6737 17.7463C59.8625 17.1773 60.1455 16.6852 60.4916 16.27C60.8376 15.8548 61.2938 15.5473 61.7971 15.3319C62.3161 15.1167 62.898 15.009 63.5586 15.009C64.2192 15.009 64.8011 15.1167 65.3202 15.3319C65.8392 15.5473 66.2796 15.8548 66.6414 16.27C67.0031 16.6852 67.2705 17.1619 67.4593 17.7463C67.648 18.3153 67.7424 18.9612 67.7424 19.6839ZM66.201 19.6839C66.201 19.1918 66.1381 18.7458 66.028 18.3307C65.9179 17.9154 65.7448 17.5772 65.5247 17.2695C65.3044 16.9774 65.0214 16.7467 64.6911 16.5775C64.3608 16.4084 63.9833 16.3315 63.5429 16.3315C63.1025 16.3315 62.725 16.4084 62.4105 16.5775C62.0801 16.7467 61.8128 16.9774 61.5925 17.2695C61.3724 17.5617 61.1994 17.9154 61.0892 18.3307C60.9791 18.7458 60.9162 19.1918 60.9162 19.6839C60.9162 20.176 60.9791 20.6374 61.0892 21.0526C61.1994 21.4677 61.3724 21.8214 61.5925 22.1136C61.8128 22.4058 62.0959 22.6365 62.4105 22.8056C62.7408 22.9748 63.1182 23.0517 63.5429 23.0517C63.9675 23.0517 64.3608 22.9748 64.6911 22.8056C65.0214 22.6365 65.2888 22.4058 65.5247 22.1136C65.7448 21.8214 65.9179 21.4677 66.028 21.0526C66.1381 20.6374 66.201 20.1914 66.201 19.6839Z" fill="black"/>
<path d="M69.4258 15.2858H70.9672V22.0367H70.9986L75.4341 15.2858H77.2114V24.0974H75.6542V17.3463H75.6228L71.2031 24.0974H69.4258V15.2858ZM71.8637 11.8564C71.9423 12.2102 72.0839 12.4869 72.3199 12.6868C72.5558 12.8867 72.8861 12.9944 73.3422 12.9944C73.7983 12.9944 74.1443 12.9022 74.3645 12.6868C74.6005 12.4869 74.742 12.2102 74.8049 11.841H76.2362C76.2362 12.164 76.1575 12.4716 76.016 12.733C75.8745 12.9944 75.6857 13.2251 75.4183 13.4096C75.1667 13.5942 74.8521 13.748 74.5061 13.8402C74.1443 13.9479 73.7511 13.994 73.3265 13.994C72.9018 13.994 72.5085 13.9479 72.1468 13.8402C71.8008 13.748 71.4862 13.5942 71.2345 13.4096C70.9829 13.2251 70.7785 12.9944 70.6368 12.733C70.4953 12.4716 70.4167 12.164 70.4167 11.8257H71.848L71.8637 11.8564Z" fill="black"/>
<path d="M90.7373 18.0538C90.7373 18.5767 90.6902 19.0995 90.5801 19.607C90.4699 20.1145 90.3127 20.622 90.0925 21.0833C89.8723 21.56 89.605 21.9906 89.2747 22.3905C88.9443 22.7903 88.5511 23.144 88.1107 23.4515C87.6546 23.7437 87.1513 23.9897 86.585 24.1435C86.0189 24.3127 85.3897 24.3896 84.7134 24.3896C84.037 24.3896 83.408 24.3127 82.8418 24.1435C82.2755 23.9744 81.7722 23.7437 81.3161 23.4515C80.8757 23.1593 80.4824 22.8056 80.1521 22.3905C79.8219 21.9906 79.5388 21.5447 79.3343 21.0833C79.1141 20.622 78.9568 20.1145 78.8468 19.607C78.7366 19.0995 78.6895 18.5767 78.6895 18.0538C78.6895 17.1158 78.831 16.2546 79.0984 15.4703C79.3658 14.686 79.759 14.0247 80.278 13.4558C80.7971 12.9022 81.4262 12.4562 82.1655 12.1486C82.9047 11.841 83.7697 11.6873 84.7134 11.6873C85.6571 11.6873 86.5064 11.841 87.2614 12.1486C88.0163 12.4562 88.6455 12.8867 89.1488 13.4558C89.6521 14.0247 90.061 14.686 90.3284 15.4703C90.5958 16.2546 90.7373 17.1158 90.7373 18.0538ZM89.0859 18.0538C89.0859 17.331 88.9915 16.6698 88.787 16.0701C88.5984 15.4703 88.2995 14.9474 87.9377 14.5015C87.5603 14.0709 87.1041 13.7172 86.5694 13.4866C86.0189 13.2405 85.4054 13.1174 84.7134 13.1174C84.0214 13.1174 83.3922 13.2405 82.8574 13.4866C82.307 13.7326 81.8508 14.0709 81.4891 14.5015C81.1116 14.9321 80.8285 15.4549 80.6398 16.0701C80.451 16.6698 80.3409 17.3465 80.3409 18.0538C80.3409 18.7612 80.4353 19.4532 80.6083 20.0684C80.7813 20.6834 81.0644 21.1909 81.4262 21.6215C81.7879 22.0521 82.2441 22.3905 82.7945 22.6365C83.3451 22.8826 83.9899 22.9902 84.7291 22.9902C85.4683 22.9902 86.1132 22.8671 86.6637 22.6365C87.2142 22.3905 87.6703 22.0675 88.0321 21.6215C88.3938 21.1755 88.6612 20.6681 88.85 20.0684C89.0387 19.4686 89.1173 18.792 89.1173 18.0538H89.0859Z" fill="black"/>
<path d="M97.8001 23.0363H97.768C97.6112 23.3131 97.4378 23.5438 97.2651 23.7129C97.0921 23.8821 96.9033 24.0204 96.7146 24.1127C96.5258 24.205 96.3214 24.2819 96.1011 24.3126C95.8967 24.3434 95.6765 24.3588 95.4563 24.3588C95.0159 24.3588 94.5912 24.2511 94.1823 24.0512C93.7734 23.8513 93.3959 23.5438 93.0813 23.1439C92.751 22.7441 92.4994 22.252 92.2949 21.6523C92.1062 21.0525 91.9961 20.3759 91.9961 19.6069C91.9961 19.2225 92.0276 18.8534 92.0747 18.469C92.1219 18.0845 92.2162 17.7308 92.3421 17.3925C92.4679 17.0543 92.6095 16.7313 92.7982 16.4391C92.9869 16.1469 93.2072 15.8855 93.4589 15.6702C93.7105 15.4549 94.0093 15.2858 94.3396 15.1627C94.6699 15.0397 95.0474 14.9782 95.4563 14.9782C95.7709 14.9782 96.0383 15.0243 96.2899 15.1012C96.5416 15.1935 96.7618 15.3011 96.9348 15.4242C97.1235 15.5625 97.2809 15.7009 97.4222 15.8547C97.5644 16.0085 97.6745 16.1469 97.7845 16.2853H97.8157V11.9487H99.3567V16.2853H99.3889C99.4824 16.1469 99.609 16.0085 99.7502 15.8547C99.8915 15.7009 100.049 15.5625 100.237 15.4242C100.426 15.2858 100.646 15.1781 100.883 15.1012C101.134 15.0089 101.401 14.9782 101.716 14.9782C102.125 14.9782 102.503 15.0397 102.833 15.1627C103.163 15.2858 103.462 15.4549 103.714 15.6702C103.965 15.8855 104.185 16.1315 104.374 16.4391C104.563 16.7313 104.704 17.0543 104.83 17.3925C104.94 17.7308 105.035 18.0845 105.098 18.469C105.16 18.8534 105.177 19.2225 105.177 19.6069C105.177 20.3759 105.082 21.0679 104.878 21.6523C104.673 22.252 104.422 22.7441 104.091 23.1439C103.761 23.5438 103.399 23.836 102.99 24.0512C102.581 24.2511 102.141 24.3588 101.716 24.3588C101.496 24.3588 101.276 24.3434 101.071 24.3126C100.867 24.2819 100.662 24.205 100.458 24.1127C100.269 24.0204 100.08 23.8821 99.8915 23.7129C99.7025 23.5438 99.5457 23.3131 99.3889 23.0363H99.3567V27.5728H97.8157V23.0363H97.8001ZM97.8001 18.9149C97.8001 18.4998 97.7524 18.1306 97.6423 17.8078C97.5323 17.4848 97.3909 17.2234 97.2179 16.9927C97.0449 16.7774 96.8247 16.6083 96.5888 16.4852C96.3528 16.3776 96.1011 16.3161 95.8495 16.3161C95.4406 16.3161 95.0789 16.4083 94.7957 16.5775C94.4969 16.7466 94.261 16.9927 94.0722 17.3003C93.8835 17.6078 93.7576 17.9615 93.6633 18.3613C93.5689 18.7612 93.5375 19.2071 93.5375 19.6684C93.5375 19.9145 93.5532 20.176 93.5846 20.4374C93.6161 20.7142 93.6633 20.9756 93.7263 21.2217C93.7891 21.4831 93.8835 21.7291 93.9936 21.9598C94.1037 22.1904 94.2452 22.3903 94.4182 22.5749C94.5912 22.7595 94.78 22.8824 95.0159 22.9902C95.2519 23.0978 95.5036 23.1439 95.8181 23.1439C96.4629 23.1439 96.9505 22.9132 97.2965 22.4673C97.6423 22.0213 97.8001 21.3908 97.8001 20.5604V18.8996V18.9149ZM101.307 23.1439C101.621 23.1439 101.889 23.0978 102.125 22.9902C102.361 22.8824 102.565 22.7441 102.739 22.5749C102.911 22.4058 103.053 22.1904 103.163 21.9598C103.273 21.7291 103.368 21.4831 103.43 21.2217C103.494 20.9603 103.54 20.6988 103.573 20.4374C103.604 20.176 103.619 19.9145 103.619 19.6684C103.619 19.2071 103.573 18.7765 103.494 18.3613C103.399 17.9615 103.273 17.5924 103.085 17.3003C102.896 16.9927 102.66 16.7621 102.376 16.5775C102.094 16.3929 101.732 16.3161 101.323 16.3161C101.071 16.3161 100.82 16.3776 100.584 16.4852C100.348 16.6083 100.144 16.7621 99.9548 16.9927C99.7814 17.208 99.6246 17.4848 99.5301 17.8078C99.42 18.1306 99.3723 18.4998 99.3723 18.9149V20.5758C99.3723 21.4062 99.5457 22.0367 99.8759 22.4826C100.206 22.9286 100.694 23.1593 101.323 23.1593L101.307 23.1439Z" fill="black"/>
<path d="M106.826 15.2858H108.367V22.0368H108.399L112.834 15.2858H114.612V24.0974H113.054V17.3465H113.023L108.604 24.0974H106.826V15.2858Z" fill="black"/>
<path d="M123.909 21.0064C123.893 21.2217 123.846 21.4524 123.783 21.7138C123.72 21.9598 123.626 22.2213 123.5 22.4674C123.375 22.7134 123.217 22.9594 123.028 23.1901C122.84 23.4208 122.603 23.6207 122.321 23.8053C122.037 23.9897 121.722 24.1282 121.346 24.2358C120.968 24.3434 120.543 24.3896 120.056 24.3896C119.788 24.3896 119.521 24.3589 119.222 24.2974C118.923 24.2358 118.64 24.1282 118.373 23.9744C118.089 23.8206 117.838 23.6361 117.587 23.4054C117.334 23.1748 117.114 22.8826 116.925 22.5442C116.737 22.2059 116.579 21.7907 116.469 21.3448C116.359 20.8834 116.297 20.3606 116.297 19.7608C116.297 19.038 116.407 18.3768 116.611 17.7924C116.832 17.208 117.114 16.7159 117.46 16.3008C117.822 15.901 118.231 15.578 118.703 15.3627C119.174 15.1474 119.678 15.0397 120.197 15.0397C120.669 15.0397 121.093 15.0859 121.44 15.1935C121.801 15.2858 122.116 15.4242 122.383 15.5934C122.651 15.7625 122.886 15.9471 123.06 16.1624C123.248 16.3776 123.39 16.6083 123.516 16.839C123.641 17.0696 123.72 17.3157 123.783 17.5617C123.846 17.8078 123.877 18.0385 123.893 18.2692H122.446C122.367 17.6694 122.163 17.208 121.817 16.8697C121.471 16.5314 120.983 16.3623 120.37 16.3623C119.946 16.3623 119.568 16.4545 119.253 16.6237C118.939 16.7929 118.672 17.0235 118.467 17.3311C118.263 17.6387 118.105 18.0077 117.995 18.4383C117.885 18.8689 117.838 19.3456 117.838 19.8531C117.838 20.4374 117.901 20.9295 118.011 21.3601C118.121 21.7754 118.278 22.1291 118.483 22.3905C118.687 22.6673 118.939 22.8672 119.238 22.9902C119.537 23.1133 119.882 23.1901 120.26 23.1901C120.527 23.1901 120.779 23.144 121.031 23.0517C121.267 22.9594 121.487 22.8211 121.676 22.6365C121.865 22.452 122.022 22.2213 122.163 21.9598C122.305 21.6985 122.399 21.3909 122.446 21.0526H123.893L123.909 21.0064Z" fill="black"/>
<path d="M31.6936 0H10.3809L18.4132 7.80597C18.5938 7.7957 18.7756 7.79055 18.9587 7.79055C20.7881 7.78973 22.5815 8.28483 24.137 9.22012C25.6926 10.1554 26.9485 11.4938 27.7634 13.0847C27.9203 13.0747 28.0791 13.0692 28.2388 13.0692C29.5585 13.0695 30.8518 13.4282 31.9726 14.1049C33.0934 14.7814 33.9971 15.749 34.5815 16.8983L37.1033 14.449V5.52723C37.0789 4.11506 36.5094 2.76327 35.5076 1.7396C34.5056 0.715942 33.1445 0.0950821 31.6936 0Z" fill="#00B4FF"/>
<path d="M34.5855 16.8983L24.334 26.8579L33.3722 35.6363C34.4584 35.2377 35.3959 34.5305 36.0624 33.6069C36.7287 32.6832 37.0932 31.5861 37.1081 30.4583V14.4454L34.5855 16.8983Z" fill="#FF6E6E"/>
<path d="M4.11848 23.6204C3.8453 22.9692 3.70539 22.2725 3.70659 21.5694C3.70659 18.6475 6.07239 16.2789 8.99018 16.2789C9.05836 16.2789 9.1256 16.2789 9.19285 16.2835C9.4489 14.0384 10.5166 11.9545 12.2059 10.4023C13.8953 8.85001 16.0968 7.9301 18.4188 7.8062L10.3865 0.00476074H5.45035C3.98214 0.0956528 2.60475 0.726417 1.5984 1.76871C0.592052 2.81102 0.0323624 4.18655 0.0332041 5.61545V27.5892L4.11848 23.6204Z" fill="#23D3FF"/>
<path d="M24.3253 26.8578H8.98822C8.19073 26.8586 7.40403 26.6787 6.69061 26.3326C5.52258 25.7608 4.60792 24.7967 4.11652 23.6193L0.03125 27.589V30.3748C0.03125 31.8665 0.641345 33.297 1.72732 34.3517C2.26504 34.874 2.90341 35.2883 3.60597 35.571C4.30853 35.8536 5.06154 35.9991 5.82199 35.9991H31.3171C32.0168 35.9988 32.7106 35.8758 33.3654 35.6362L24.3253 26.8578Z" fill="#00F5D0"/>
<path d="M37.0794 5.52723C37.0551 4.11382 36.4847 2.76093 35.4812 1.73705C34.4777 0.713167 33.1145 0.0931332 31.6623 0H5.41714C3.94941 0.0921622 2.57279 0.723314 1.56672 1.76534C0.560633 2.80736 0.000494219 4.18217 0 5.61069V30.3757C0 31.8673 0.610094 33.2979 1.69607 34.3527C2.78204 35.4074 4.25494 36 5.79074 36H31.2887C31.9884 35.9997 32.6822 35.8769 33.3369 35.6371H33.3434C34.4298 35.2387 35.3674 34.5315 36.0337 33.6078C36.7002 32.6842 37.0646 31.587 37.0794 30.4591V14.6304V5.52723Z" fill="url(#paint0_radial_3521_333)"/>
<path d="M34.6091 16.9091C34.0246 15.76 33.121 14.7924 32.0001 14.1157C30.8793 13.4391 29.5861 13.0804 28.2664 13.0801C28.1066 13.0801 27.9487 13.0855 27.7919 13.0955C26.9767 11.5047 25.7206 10.1664 24.1649 9.23106C22.6093 8.29578 20.8158 7.80067 18.9862 7.80145C18.7994 7.80145 18.6219 7.80689 18.4408 7.81687C16.1187 7.94078 13.9172 8.86068 12.2278 10.4129C10.5385 11.9652 9.47083 14.0491 9.21479 16.2941C9.14754 16.2941 9.0803 16.2896 9.01211 16.2896C6.09432 16.2896 3.72852 18.6582 3.72852 21.5801C3.72733 22.2832 3.86723 22.9799 4.14042 23.6311C4.63181 24.8085 5.54647 25.7726 6.7145 26.3444C7.42793 26.6906 8.21462 26.8704 9.01211 26.8696H24.3576L34.61 16.9101L34.6091 16.9091Z" fill="white"/>
<path fill-rule="evenodd" clip-rule="evenodd" d="M31.4478 16.2207C32.5468 16.2052 33.6344 16.4397 34.6233 16.9056L24.3672 26.8651V22.7893H24.3765C24.4586 21.021 25.2393 19.3515 26.5563 18.128C27.8734 16.9046 29.6254 16.2215 31.4478 16.2207Z" fill="#FFD12F"/>
</g>
</g>
<defs>
<radialGradient id="paint0_radial_3521_333" cx="0" cy="0" r="1" gradientUnits="userSpaceOnUse" gradientTransform="translate(18.5397 18.0005) scale(18.536 18.0031)">
<stop stop-color="#261C38" stop-opacity="0.6"/>
<stop offset="0.28" stop-color="#261C38" stop-opacity="0.3"/>
<stop offset="0.86" stop-color="#302640" stop-opacity="0.05"/>
<stop offset="1" stop-color="#302640" stop-opacity="0"/>
</radialGradient>
<clipPath id="clip0_3521_333">
<rect width="124" height="36" fill="white"/>
</clipPath>
</defs>
</svg>
