<svg width="128" height="50" viewBox="0 0 128 50" fill="none" xmlns="http://www.w3.org/2000/svg">
<path d="M12.9474 6.20703C20.7177 6.20703 25.8948 11.6049 25.8948 18.8878C25.8948 26.1707 20.7177 31.5593 12.9474 31.5593C5.17713 31.5593 0 26.1615 0 18.8786C0 11.5957 5.17713 6.20703 12.9474 6.20703ZM12.9474 27.5133C17.8027 27.5133 21.3062 24.0649 21.3062 18.8786C21.3062 13.8026 17.8027 10.2439 12.9474 10.2439C8.20248 10.2439 4.58861 13.7474 4.58861 18.8786C4.58861 23.9546 8.09214 27.5133 12.9474 27.5133Z" fill="#4A6FED"/>
<path d="M43.5041 6.20703C51.2743 6.20703 56.4515 11.6049 56.4515 18.8878C56.4515 26.1707 51.2743 31.5593 43.5041 31.5593C35.7338 31.5593 30.5566 26.1615 30.5566 18.8786C30.5566 11.5957 35.743 6.20703 43.5041 6.20703ZM43.5041 27.5133C48.3593 27.5133 51.8629 24.0649 51.8629 18.8786C51.8629 13.8026 48.3593 10.2439 43.5041 10.2439C38.7591 10.2439 35.1452 13.7474 35.1452 18.8786C35.1452 23.9546 38.6488 27.5133 43.5041 27.5133Z" fill="#4A6FED"/>
<path d="M114.854 6.20703C122.624 6.20703 127.801 11.6049 127.801 18.8878C127.801 26.1707 122.624 31.5685 114.854 31.5685C107.083 31.5685 101.906 26.1707 101.906 18.8878C101.906 11.6049 107.083 6.20703 114.854 6.20703ZM114.854 27.5133C119.709 27.5133 123.212 24.0649 123.212 18.8786C123.212 13.8026 119.709 10.2439 114.854 10.2439C110.109 10.2439 106.495 13.7474 106.495 18.8786C106.495 23.9546 109.998 27.5133 114.854 27.5133Z" fill="#4A6FED"/>
<path d="M61.8488 13.0578C61.8488 8.80019 65.2971 6.20703 70.1064 6.20703C74.0973 6.20703 77.0123 7.65994 78.4652 9.06687L76.4146 12.3589C74.9617 11.0623 72.8559 9.98643 70.3179 9.98643C67.8903 9.98643 66.4374 11.3934 66.4374 13.0118C66.4374 18.1337 79.5503 15.7061 79.5503 24.2304C79.5503 29.3524 75.0169 31.5685 70.1616 31.5685C66.2259 31.5685 62.3361 29.5179 61.2051 27.7891L63.6327 24.7178C65.0396 26.3362 68.2213 27.7891 70.649 27.7891C72.9111 27.7891 74.9617 26.6581 74.9617 24.4419C74.9617 19.5315 61.8488 21.9591 61.8488 13.0578Z" fill="#4A6FED"/>
<path d="M85.3164 0H89.6291V6.74038H89.9602H98.5305V10.7864H89.6291V21.3614C89.6291 25.196 90.8706 27.4029 93.9419 27.4029C95.6155 27.4029 96.9121 26.704 97.7765 26.0512L99.1282 29.3984C97.8316 30.4742 95.6247 31.449 92.9212 31.449C87.4682 31.449 85.3164 28.0006 85.3164 21.7936V0Z" fill="#4A6FED"/>
<path d="M22.8149 6.20703C24.3944 6.20703 25.6747 4.92664 25.6747 3.3472C25.6747 1.76776 24.3944 0.487366 22.8149 0.487366C21.2355 0.487366 19.9551 1.76776 19.9551 3.3472C19.9551 4.92664 21.2355 6.20703 22.8149 6.20703Z" fill="#4A6FED"/>
<path d="M16.966 49.1505H8.929C4.98409 49.1505 1.76562 45.9321 1.76562 41.9871C1.76562 38.0422 4.97489 34.8238 8.929 34.8238H16.966C20.9109 34.8238 24.1293 38.0422 24.1293 41.9871C24.1293 45.9321 20.9201 49.1505 16.966 49.1505ZM8.929 38.8698C7.20942 38.8698 5.81169 40.2676 5.81169 41.9871C5.81169 43.7067 7.20942 45.1045 8.929 45.1045H16.966C18.6855 45.1045 20.0833 43.7067 20.0833 41.9871C20.0833 40.2676 18.6855 38.8698 16.966 38.8698H8.929Z" fill="#4A6FED"/>
<path d="M127.799 18.7039L127.79 32.4789H123.744V18.7039H127.799Z" fill="#4A6FED"/>
<path d="M32.7603 45V39.82H34.7805C35.2344 39.82 35.6216 39.8915 35.9423 40.0346C36.263 40.1777 36.5096 40.3849 36.6823 40.6562C36.855 40.9275 36.9413 41.2507 36.9413 41.6256C36.9413 42.0005 36.855 42.3237 36.6823 42.595C36.5096 42.8614 36.263 43.0686 35.9423 43.2166C35.6216 43.3597 35.2344 43.4312 34.7805 43.4312H33.1673L33.5003 43.0834V45H32.7603ZM33.5003 43.1574L33.1673 42.7874H34.7583C35.2319 42.7874 35.5896 42.6863 35.8313 42.484C36.078 42.2817 36.2013 41.9956 36.2013 41.6256C36.2013 41.2556 36.078 40.9695 35.8313 40.7672C35.5896 40.5649 35.2319 40.4638 34.7583 40.4638H33.1673L33.5003 40.0938V43.1574ZM39.5176 45.0444C39.1229 45.0444 38.7727 44.9581 38.4668 44.7854C38.1609 44.6127 37.9192 44.3759 37.7416 44.075C37.564 43.7691 37.4752 43.4238 37.4752 43.039C37.4752 42.6493 37.564 42.3039 37.7416 42.003C37.9192 41.7021 38.1609 41.4677 38.4668 41.3C38.7727 41.1273 39.1229 41.041 39.5176 41.041C39.9073 41.041 40.2551 41.1273 40.561 41.3C40.8718 41.4677 41.1135 41.7021 41.2862 42.003C41.4638 42.299 41.5526 42.6443 41.5526 43.039C41.5526 43.4287 41.4638 43.7741 41.2862 44.075C41.1135 44.3759 40.8718 44.6127 40.561 44.7854C40.2551 44.9581 39.9073 45.0444 39.5176 45.0444ZM39.5176 44.4228C39.7692 44.4228 39.9937 44.3661 40.191 44.2526C40.3933 44.1391 40.5511 43.9788 40.6646 43.7716C40.7781 43.5595 40.8348 43.3153 40.8348 43.039C40.8348 42.7578 40.7781 42.5161 40.6646 42.3138C40.5511 42.1066 40.3933 41.9463 40.191 41.8328C39.9937 41.7193 39.7692 41.6626 39.5176 41.6626C39.266 41.6626 39.0415 41.7193 38.8442 41.8328C38.6469 41.9463 38.489 42.1066 38.3706 42.3138C38.2522 42.5161 38.193 42.7578 38.193 43.039C38.193 43.3153 38.2522 43.5595 38.3706 43.7716C38.489 43.9788 38.6469 44.1391 38.8442 44.2526C39.0415 44.3661 39.266 44.4228 39.5176 44.4228ZM44.2878 45.0444C43.8882 45.0444 43.5306 44.9581 43.2148 44.7854C42.904 44.6127 42.6598 44.3759 42.4822 44.075C42.3046 43.7741 42.2158 43.4287 42.2158 43.039C42.2158 42.6493 42.3046 42.3039 42.4822 42.003C42.6598 41.7021 42.904 41.4677 43.2148 41.3C43.5306 41.1273 43.8882 41.041 44.2878 41.041C44.643 41.041 44.9588 41.1125 45.235 41.2556C45.5162 41.3937 45.7333 41.6009 45.8862 41.8772L45.346 42.225C45.2178 42.0326 45.0599 41.892 44.8724 41.8032C44.6899 41.7095 44.4926 41.6626 44.2804 41.6626C44.0239 41.6626 43.7945 41.7193 43.5922 41.8328C43.39 41.9463 43.2296 42.1066 43.1112 42.3138C42.9928 42.5161 42.9336 42.7578 42.9336 43.039C42.9336 43.3202 42.9928 43.5644 43.1112 43.7716C43.2296 43.9788 43.39 44.1391 43.5922 44.2526C43.7945 44.3661 44.0239 44.4228 44.2804 44.4228C44.4926 44.4228 44.6899 44.3784 44.8724 44.2896C45.0599 44.1959 45.2178 44.0528 45.346 43.8604L45.8862 44.2008C45.7333 44.4721 45.5162 44.6818 45.235 44.8298C44.9588 44.9729 44.643 45.0444 44.2878 45.0444ZM48.4576 45.0444C48.058 45.0444 47.7003 44.9581 47.3846 44.7854C47.0738 44.6127 46.8296 44.3759 46.652 44.075C46.4744 43.7741 46.3856 43.4287 46.3856 43.039C46.3856 42.6493 46.4744 42.3039 46.652 42.003C46.8296 41.7021 47.0738 41.4677 47.3846 41.3C47.7003 41.1273 48.058 41.041 48.4576 41.041C48.8128 41.041 49.1285 41.1125 49.4048 41.2556C49.686 41.3937 49.903 41.6009 50.056 41.8772L49.5158 42.225C49.3875 42.0326 49.2296 41.892 49.0422 41.8032C48.8596 41.7095 48.6623 41.6626 48.4502 41.6626C48.1936 41.6626 47.9642 41.7193 47.762 41.8328C47.5597 41.9463 47.3994 42.1066 47.281 42.3138C47.1626 42.5161 47.1034 42.7578 47.1034 43.039C47.1034 43.3202 47.1626 43.5644 47.281 43.7716C47.3994 43.9788 47.5597 44.1391 47.762 44.2526C47.9642 44.3661 48.1936 44.4228 48.4502 44.4228C48.6623 44.4228 48.8596 44.3784 49.0422 44.2896C49.2296 44.1959 49.3875 44.0528 49.5158 43.8604L50.056 44.2008C49.903 44.4721 49.686 44.6818 49.4048 44.8298C49.1285 44.9729 48.8128 45.0444 48.4576 45.0444ZM50.9757 45V41.078H51.6861V43.9344L54.0911 41.078H54.7349V45H54.0245V42.1436L51.6269 45H50.9757ZM56.1138 45V41.078H56.8242V43.9344L59.2292 41.078H59.873V45H59.1626V42.1436L56.765 45H56.1138ZM57.949 40.5674C57.5888 40.5674 57.3052 40.4811 57.098 40.3084C56.8957 40.1308 56.7921 39.8767 56.7872 39.5462H57.2682C57.2731 39.7337 57.3348 39.8817 57.4532 39.9902C57.5765 40.0987 57.7393 40.153 57.9416 40.153C58.1438 40.153 58.3066 40.0987 58.43 39.9902C58.5533 39.8817 58.6174 39.7337 58.6224 39.5462H59.1182C59.1132 39.8767 59.0072 40.1308 58.8 40.3084C58.5928 40.4811 58.3091 40.5674 57.949 40.5674ZM62.9613 45.0444C62.5617 45.0444 62.204 44.9581 61.8883 44.7854C61.5775 44.6127 61.3333 44.3759 61.1557 44.075C60.9781 43.7741 60.8893 43.4287 60.8893 43.039C60.8893 42.6493 60.9781 42.3039 61.1557 42.003C61.3333 41.7021 61.5775 41.4677 61.8883 41.3C62.204 41.1273 62.5617 41.041 62.9613 41.041C63.3165 41.041 63.6322 41.1125 63.9085 41.2556C64.1897 41.3937 64.4067 41.6009 64.5597 41.8772L64.0195 42.225C63.8912 42.0326 63.7333 41.892 63.5459 41.8032C63.3633 41.7095 63.166 41.6626 62.9539 41.6626C62.6973 41.6626 62.4679 41.7193 62.2657 41.8328C62.0634 41.9463 61.9031 42.1066 61.7847 42.3138C61.6663 42.5161 61.6071 42.7578 61.6071 43.039C61.6071 43.3202 61.6663 43.5644 61.7847 43.7716C61.9031 43.9788 62.0634 44.1391 62.2657 44.2526C62.4679 44.3661 62.6973 44.4228 62.9539 44.4228C63.166 44.4228 63.3633 44.3784 63.5459 44.2896C63.7333 44.1959 63.8912 44.0528 64.0195 43.8604L64.5597 44.2008C64.4067 44.4721 64.1897 44.6818 63.9085 44.8298C63.6322 44.9729 63.3165 45.0444 62.9613 45.0444ZM68.321 45L66.804 43.0908L67.3886 42.7356L69.1572 45H68.321ZM65.4794 45V41.078H66.1898V45H65.4794ZM65.9752 43.3424V42.7356H67.2702V43.3424H65.9752ZM67.4478 43.1204L66.7892 43.0316L68.2914 41.078H69.0536L67.4478 43.1204ZM72.2348 45V44.1712L72.1978 44.0158V42.6024C72.1978 42.3015 72.109 42.0696 71.9314 41.9068C71.7587 41.7391 71.4973 41.6552 71.147 41.6552C70.9151 41.6552 70.6882 41.6947 70.4662 41.7736C70.2442 41.8476 70.0567 41.9487 69.9038 42.077L69.6078 41.5442C69.8101 41.3814 70.0518 41.2581 70.333 41.1742C70.6191 41.0854 70.9176 41.041 71.2284 41.041C71.7661 41.041 72.1805 41.1717 72.4716 41.4332C72.7627 41.6947 72.9082 42.0943 72.9082 42.632V45H72.2348ZM70.9472 45.0444C70.6561 45.0444 70.3996 44.9951 70.1776 44.8964C69.9605 44.7977 69.7928 44.6621 69.6744 44.4894C69.556 44.3118 69.4968 44.112 69.4968 43.89C69.4968 43.6779 69.5461 43.4855 69.6448 43.3128C69.7484 43.1401 69.9137 43.002 70.1406 42.8984C70.3725 42.7948 70.6833 42.743 71.073 42.743H72.3162V43.2536H71.1026C70.7474 43.2536 70.5081 43.3128 70.3848 43.4312C70.2615 43.5496 70.1998 43.6927 70.1998 43.8604C70.1998 44.0528 70.2763 44.2082 70.4292 44.3266C70.5821 44.4401 70.7943 44.4968 71.0656 44.4968C71.332 44.4968 71.5639 44.4376 71.7612 44.3192C71.9635 44.2008 72.109 44.0281 72.1978 43.8012L72.3384 44.2896C72.2447 44.5215 72.0794 44.7065 71.8426 44.8446C71.6058 44.9778 71.3073 45.0444 70.9472 45.0444ZM76.696 45V43.6236L76.807 43.7568H75.5564C75.0335 43.7568 74.624 43.6458 74.328 43.4238C74.037 43.2018 73.8914 42.8787 73.8914 42.4544C73.8914 42.0005 74.0468 41.6577 74.3576 41.4258C74.6734 41.1939 75.0927 41.078 75.6156 41.078H77.3324V45H76.696ZM73.8544 45L74.92 43.4978H75.6526L74.6166 45H73.8544ZM76.696 43.4016V41.4998L76.807 41.6996H75.6378C75.3122 41.6996 75.0606 41.7613 74.883 41.8846C74.7054 42.003 74.6166 42.2003 74.6166 42.4766C74.6166 42.9897 74.9472 43.2462 75.6082 43.2462H76.807L76.696 43.4016ZM80.7946 45V39.82H81.5346V45H80.7946ZM84.114 45V40.4638H82.338V39.82H86.6226V40.4638H84.8466V45H84.114ZM92.1687 45L90.6517 43.0908L91.2363 42.7356L93.0049 45H92.1687ZM89.3271 45V41.078H90.0375V45H89.3271ZM89.8229 43.3424V42.7356H91.1179V43.3424H89.8229ZM91.2955 43.1204L90.6369 43.0316L92.1391 41.078H92.9013L91.2955 43.1204ZM95.2994 45.0444C94.9048 45.0444 94.5545 44.9581 94.2486 44.7854C93.9428 44.6127 93.701 44.3759 93.5234 44.075C93.3458 43.7691 93.257 43.4238 93.257 43.039C93.257 42.6493 93.3458 42.3039 93.5234 42.003C93.701 41.7021 93.9428 41.4677 94.2486 41.3C94.5545 41.1273 94.9048 41.041 95.2994 41.041C95.6892 41.041 96.037 41.1273 96.3428 41.3C96.6536 41.4677 96.8954 41.7021 97.068 42.003C97.2456 42.299 97.3344 42.6443 97.3344 43.039C97.3344 43.4287 97.2456 43.7741 97.068 44.075C96.8954 44.3759 96.6536 44.6127 96.3428 44.7854C96.037 44.9581 95.6892 45.0444 95.2994 45.0444ZM95.2994 44.4228C95.551 44.4228 95.7755 44.3661 95.9728 44.2526C96.1751 44.1391 96.333 43.9788 96.4464 43.7716C96.5599 43.5595 96.6166 43.3153 96.6166 43.039C96.6166 42.7578 96.5599 42.5161 96.4464 42.3138C96.333 42.1066 96.1751 41.9463 95.9728 41.8328C95.7755 41.7193 95.551 41.6626 95.2994 41.6626C95.0478 41.6626 94.8234 41.7193 94.626 41.8328C94.4287 41.9463 94.2708 42.1066 94.1524 42.3138C94.034 42.5161 93.9748 42.7578 93.9748 43.039C93.9748 43.3153 94.034 43.5595 94.1524 43.7716C94.2708 43.9788 94.4287 44.1391 94.626 44.2526C94.8234 44.3661 95.0478 44.4228 95.2994 44.4228ZM98.3603 45V41.078H99.0929L100.78 43.9788H100.484L102.216 41.078H102.882V45H102.238V41.8772L102.356 41.9438L100.773 44.556H100.462L98.8709 41.892L99.0115 41.8624V45H98.3603ZM104.264 45V41.078H107.898V45H107.187V41.522L107.358 41.6996H104.805L104.975 41.522V45H104.264ZM111.677 45V44.1712L111.64 44.0158V42.6024C111.64 42.3015 111.552 42.0696 111.374 41.9068C111.201 41.7391 110.94 41.6552 110.59 41.6552C110.358 41.6552 110.131 41.6947 109.909 41.7736C109.687 41.8476 109.499 41.9487 109.346 42.077L109.05 41.5442C109.253 41.3814 109.494 41.2581 109.776 41.1742C110.062 41.0854 110.36 41.041 110.671 41.041C111.209 41.041 111.623 41.1717 111.914 41.4332C112.205 41.6947 112.351 42.0943 112.351 42.632V45H111.677ZM110.39 45.0444C110.099 45.0444 109.842 44.9951 109.62 44.8964C109.403 44.7977 109.235 44.6621 109.117 44.4894C108.999 44.3118 108.939 44.112 108.939 43.89C108.939 43.6779 108.989 43.4855 109.087 43.3128C109.191 43.1401 109.356 43.002 109.583 42.8984C109.815 42.7948 110.126 42.743 110.516 42.743H111.759V43.2536H110.545C110.19 43.2536 109.951 43.3128 109.827 43.4312C109.704 43.5496 109.642 43.6927 109.642 43.8604C109.642 44.0528 109.719 44.2082 109.872 44.3266C110.025 44.4401 110.237 44.4968 110.508 44.4968C110.775 44.4968 111.006 44.4376 111.204 44.3192C111.406 44.2008 111.552 44.0281 111.64 43.8012L111.781 44.2896C111.687 44.5215 111.522 44.7065 111.285 44.8446C111.048 44.9778 110.75 45.0444 110.39 45.0444ZM113.63 45V41.078H114.34V42.743H116.575V41.078H117.286V45H116.575V43.3572H114.34V45H113.63ZM118.667 45V41.078H119.377V43.9344L121.782 41.078H122.426V45H121.716V42.1436L119.318 45H118.667ZM126.314 45V43.6236L126.425 43.7568H125.174C124.651 43.7568 124.242 43.6458 123.946 43.4238C123.655 43.2018 123.509 42.8787 123.509 42.4544C123.509 42.0005 123.664 41.6577 123.975 41.4258C124.291 41.1939 124.71 41.078 125.233 41.078H126.95V45H126.314ZM123.472 45L124.538 43.4978H125.27L124.234 45H123.472ZM126.314 43.4016V41.4998L126.425 41.6996H125.255C124.93 41.6996 124.678 41.7613 124.501 41.8846C124.323 42.003 124.234 42.2003 124.234 42.4766C124.234 42.9897 124.565 43.2462 125.226 43.2462H126.425L126.314 43.4016Z" fill="#263238"/>
</svg>
