<svg width="156" height="26" viewBox="0 0 156 26" fill="none" xmlns="http://www.w3.org/2000/svg">
<path fill-rule="evenodd" clip-rule="evenodd" d="M2.69189 0.0129347H9.8228C10.7028 0.0905853 11.5441 0.569434 12.01 1.32006C14.236 5.28024 16.4619 9.24042 18.675 13.1877C18.8562 13.5241 19.2315 13.7312 19.6068 13.7183C20.0468 13.7183 20.4739 13.4336 20.6162 13.0065C20.7068 12.7606 20.668 12.4888 20.681 12.23C20.681 8.16625 20.668 4.0896 20.668 0.0258792H25.8577C25.8577 4.73668 25.8577 9.44749 25.8577 14.1583C25.8447 14.7148 25.6765 15.2842 25.3659 15.7501C24.9129 16.4231 24.1752 16.9019 23.3728 17.0184C23.0622 17.0572 22.7646 17.0702 22.454 17.0443C20.6551 17.0314 18.8432 17.0573 17.0314 17.0443C16.5266 17.0573 16.009 17.0831 15.5172 16.9408C15.1289 16.8243 14.4042 16.4878 14.1971 16.1125C11.9194 12.1135 9.64161 8.11448 7.36385 4.12842C7.20855 3.86958 7.02737 3.59781 6.74265 3.45545C6.43205 3.31309 6.05674 3.32603 5.7332 3.44251C5.31906 3.63663 5.16376 4.12842 5.16376 4.54256C5.1767 8.69686 5.15081 12.8512 5.16376 17.0184L0 17.0443V2.54952C0.258835 1.17769 1.2683 0.142352 2.69189 0.0129347ZM36.3534 0.0129347C35.6675 0.0905853 34.9946 0.401191 34.5157 0.90592C34.2569 1.16476 34.0627 1.4883 33.8945 1.81184C31.1379 6.88502 28.3942 11.9582 25.6377 17.0314L32.1215 17.0184C32.7686 15.7501 33.3768 14.4818 34.011 13.2135C35.4993 10.1852 36.9876 7.16974 38.4759 4.14136C38.6312 3.80488 38.8382 3.45545 39.1747 3.27427C39.4983 3.0672 39.9512 3.10602 40.2489 3.33897C40.6501 3.62369 40.8183 4.11548 41.0384 4.54256C43.0832 8.70981 45.128 12.8641 47.1728 17.0443H53.6307C50.9517 12.0358 48.2728 7.02738 45.5939 2.01891C45.4127 1.68243 45.2444 1.333 44.9985 1.04828C44.5326 0.478842 43.8338 0.129413 43.109 0.0258792H36.3534V0.0129347ZM52.5954 0.0129347H57.7721L57.9662 11.117C57.9662 12.1394 58.9239 12.4629 59.7651 12.6312C61.5122 12.9547 63.4406 12.7994 65.2265 12.8253C66.2231 12.7865 67.2454 12.7606 68.2161 12.45C68.8502 12.23 69.342 11.8158 69.3291 11.117L69.5232 0.194119C69.5232 0.12941 69.5362 0.0776435 69.562 0.0129347H74.7129L74.5964 12.1264C74.5834 12.8641 74.3375 14.1195 73.9881 14.7407C72.8881 17.1349 66.0807 17.0314 63.2594 17.0314C60.5804 17.0314 57.9144 17.0184 55.9214 16.5266C54.3037 16.1125 53.2166 15.2583 52.893 13.563C52.5695 11.7641 52.5824 9.92633 52.5954 8.10154C52.5954 5.39671 52.5954 2.70482 52.5954 0.0129347ZM78.6213 0.0129347H84.8722C85.6616 0.116469 86.3993 0.51767 86.8781 1.15182C87.137 1.47536 87.2793 1.86361 87.4605 2.23892C88.8065 5.1767 90.1395 8.11448 91.4983 11.0523C92.9219 7.9333 94.3585 4.81434 95.7821 1.69537C96.2091 0.763561 97.1539 0.116472 98.1633 0.0258792H104.634L104.557 0.0517584C104.841 0.116467 105.126 0.194119 105.385 0.336479C106.161 0.724732 106.744 1.47535 106.925 2.31657C107.016 2.70482 106.99 3.11897 106.99 3.50722V17.0443H101.955C101.955 12.7994 101.968 8.58039 101.981 4.33549C101.994 3.99901 101.852 3.64957 101.58 3.44251C101.114 3.05425 100.312 3.15779 99.9881 3.6884C99.8199 4.01195 99.6905 4.36137 99.5352 4.69786C97.9951 8.20508 96.455 11.7252 94.9279 15.2325C94.5138 16.2678 93.4525 17.0314 92.3266 17.0314C91.7183 17.0443 91.0971 17.0702 90.4889 17.0184C89.4147 16.9408 88.4441 16.2031 88.0558 15.2066C86.4252 11.5052 84.7816 7.79094 83.1509 4.0896C83.0603 3.85664 82.9438 3.61075 82.7368 3.44251C82.2579 3.02837 81.4167 3.14484 81.1061 3.70134C80.899 4.03782 80.9767 4.45196 80.9637 4.81433L80.9767 17.0184H75.9423V3.06719C75.9164 2.666 75.9811 2.25186 76.1235 1.87655C76.5118 0.867095 77.5212 0.103527 78.6213 0.0129347ZM110.82 0.0129347H128.9C128.874 0.232945 128.887 0.440013 128.887 0.660023C128.887 1.78596 128.887 2.89895 128.887 4.02488C124.099 4.02488 119.297 4.02488 114.509 4.02488C114.198 4.02488 113.901 4.16724 113.706 4.4002C113.422 4.76256 113.357 5.2673 113.461 5.70732C113.538 6.0438 113.745 6.36735 114.069 6.50971C114.328 6.63913 114.625 6.58736 114.91 6.6003C119.569 6.6003 124.228 6.6003 128.887 6.6003C128.887 7.85565 128.887 9.09807 128.887 10.3534C124.228 10.3534 119.569 10.3534 114.923 10.3534C114.625 10.3534 114.315 10.3146 114.043 10.4569C113.732 10.6122 113.538 10.9358 113.461 11.2723C113.37 11.6994 113.435 12.1653 113.693 12.5276C113.875 12.7735 114.159 12.9288 114.47 12.9288C119.284 12.9288 124.086 12.9159 128.9 12.9288C128.9 14.2877 128.9 15.6466 128.9 17.0184H111.157C110.652 17.0184 110.16 16.8761 109.733 16.6172C109.034 16.2031 108.517 15.4913 108.361 14.7018C108.297 14.3783 108.297 14.0548 108.297 13.7312C108.297 10.3146 108.297 6.9109 108.297 3.49427C108.297 2.96366 108.284 2.42011 108.478 1.91538C108.724 1.22946 109.242 0.647086 109.902 0.3106C110.186 0.16824 110.51 0.103527 110.82 0.0129347ZM132.783 0.0129347H139.875C140.742 0.0776435 141.583 0.543549 142.075 1.26829C144.262 5.13788 146.436 9.02041 148.61 12.9029C148.727 13.11 148.83 13.343 149.025 13.4983C149.4 13.7959 149.956 13.783 150.332 13.4983C150.603 13.3041 150.772 12.9676 150.759 12.6312L150.772 0H155.91L155.922 13.5371C155.91 14.0159 155.961 14.5077 155.806 14.9607C155.47 16.0866 154.408 16.9408 153.231 17.0055C152.752 17.0573 152.286 17.0055 151.807 17.0184C150.073 17.0055 148.352 17.0314 146.617 17.0055C146.035 17.0573 145.427 16.9278 144.922 16.6302C144.689 16.4749 144.43 16.3325 144.275 16.0866C142.049 12.1782 139.823 8.26979 137.597 4.36137C137.416 4.03783 137.235 3.6884 136.911 3.48133C136.575 3.23544 136.083 3.2225 135.72 3.45545C135.436 3.63664 135.254 3.96018 135.254 4.29667C135.254 8.52863 135.254 12.7606 135.254 17.0055H130.078C130.078 12.3853 130.078 7.76506 130.078 3.14485C130.052 2.67895 130.104 2.21304 130.298 1.77302C130.712 0.815325 131.708 0.0905853 132.783 0.0129347Z" fill="#F48221"/>
<path fill-rule="evenodd" clip-rule="evenodd" d="M7.98457 21.3153C8.21753 21.3153 8.45048 21.3153 8.69637 21.3153C8.68343 21.4706 8.67049 21.6388 8.67049 21.7941C9.00697 21.8459 9.36933 21.9365 9.62816 22.1694C10.0164 22.5059 10.0682 23.1401 9.79641 23.5542C9.55052 23.9295 9.08461 24.0719 8.65753 24.1236C8.67047 24.2919 8.68343 24.4601 8.69637 24.6154C8.45048 24.6154 8.21751 24.6025 7.97162 24.6025C7.98456 24.4472 7.9975 24.2789 8.01044 24.1236C7.66101 24.0719 7.29865 23.9813 7.03981 23.7354C6.6645 23.3989 6.61274 22.7647 6.88451 22.3506C7.13041 21.9753 7.59631 21.8459 8.01044 21.7941C7.9975 21.6388 7.99752 21.4706 7.98457 21.3153ZM7.63514 22.4153C7.28571 22.6483 7.27276 23.2436 7.60925 23.4895C7.73867 23.5801 7.89397 23.6189 8.03633 23.6448C8.04927 23.1918 8.06222 22.7259 8.03633 22.273C7.90691 22.2988 7.76456 22.3377 7.63514 22.4153ZM8.63166 22.273C8.60578 22.7259 8.60578 23.1918 8.63166 23.6448C8.7999 23.606 8.96815 23.5671 9.09757 23.4636C9.39523 23.2048 9.38227 22.6483 9.04579 22.4283C8.92931 22.3377 8.77402 22.3118 8.63166 22.273ZM11.3753 21.3412C11.7894 21.2635 12.2553 21.3023 12.6048 21.5612C12.9413 21.8071 13.1225 22.2212 13.1742 22.6353C13.226 23.0883 13.1872 23.5671 12.9542 23.9683C12.7601 24.3048 12.4236 24.5378 12.0483 24.5895C11.66 24.6543 11.22 24.6025 10.8965 24.3695C10.5729 24.1366 10.3788 23.7613 10.3141 23.373C10.2494 22.933 10.2623 22.4671 10.4565 22.0659C10.6247 21.7035 10.9741 21.4188 11.3753 21.3412ZM11.5436 21.8718C11.233 21.9365 11.0518 22.26 11.0129 22.5577C10.9612 22.9589 10.9482 23.386 11.1294 23.7483C11.3494 24.1883 12.0612 24.2142 12.3201 23.8001C12.4883 23.5413 12.5142 23.2177 12.5142 22.9201C12.5013 22.6224 12.4624 22.2859 12.2554 22.0529C12.0742 21.8588 11.7895 21.82 11.5436 21.8718ZM31.6162 21.3412C32.0563 21.2635 32.548 21.3153 32.8845 21.6259C33.2081 21.8977 33.3634 22.3247 33.3893 22.7389C33.4281 23.1659 33.3763 23.6318 33.1434 24.0072C32.9493 24.3307 32.6128 24.5507 32.2374 24.6025C31.8104 24.6672 31.3445 24.6025 31.008 24.3178C30.6974 24.0589 30.5291 23.6448 30.5033 23.2436C30.4644 22.8036 30.5033 22.3506 30.7233 21.9624C30.9174 21.6388 31.2409 21.4059 31.6162 21.3412ZM31.7069 21.8847C31.3962 21.9753 31.2539 22.2988 31.2151 22.5836C31.1633 22.9718 31.1633 23.3989 31.3574 23.7613C31.5904 24.1754 32.2763 24.1883 32.5351 23.8001C32.7034 23.5413 32.7292 23.2177 32.7292 22.9201C32.7163 22.6224 32.6904 22.3118 32.4963 22.0788C32.3022 21.8459 31.9657 21.8071 31.7069 21.8847ZM137.571 21.5612C138.011 21.3412 138.528 21.2376 139.02 21.3412C139.279 21.3929 139.525 21.5353 139.628 21.7812C139.719 22.0271 139.706 22.3247 139.577 22.5447C139.473 22.713 139.279 22.8165 139.098 22.8812C139.357 22.9201 139.628 23.0495 139.758 23.2954C139.913 23.6189 139.835 24.046 139.564 24.2919C139.227 24.5895 138.748 24.6413 138.321 24.6025C137.998 24.5766 137.674 24.486 137.389 24.3178C137.402 24.1236 137.467 23.9424 137.493 23.7613C137.907 24.0072 138.412 24.1883 138.891 24.0201C139.188 23.9166 139.292 23.4895 139.046 23.2954C138.774 23.0883 138.399 23.153 138.088 23.1659C138.101 22.9977 138.127 22.8295 138.14 22.6742C138.373 22.6871 138.645 22.7 138.852 22.5706C139.098 22.4153 139.072 21.9753 138.787 21.8718C138.438 21.7682 138.062 21.8976 137.752 22.0659C137.687 21.8976 137.622 21.7294 137.571 21.5612ZM149.775 21.3412C150.228 21.2506 150.758 21.3153 151.108 21.6518C151.418 21.9365 151.561 22.3636 151.587 22.7777C151.612 23.2177 151.561 23.6836 151.302 24.0589C151.108 24.3566 150.784 24.5507 150.435 24.6025C150.021 24.6672 149.555 24.6025 149.231 24.3307C148.908 24.0719 148.739 23.6577 148.701 23.2436C148.662 22.8165 148.7 22.3636 148.908 21.9882C149.089 21.6518 149.412 21.4188 149.775 21.3412ZM149.943 21.8718C149.606 21.9365 149.438 22.2859 149.399 22.5965C149.348 22.9848 149.348 23.4248 149.542 23.7742C149.723 24.0977 150.189 24.1754 150.512 23.9942C150.719 23.8777 150.823 23.6577 150.862 23.4377C150.926 23.1271 150.926 22.8165 150.862 22.5059C150.823 22.3247 150.745 22.1435 150.603 22.0141C150.435 21.8459 150.163 21.82 149.943 21.8718ZM2.09606 21.38C2.34196 21.38 2.58784 21.38 2.83373 21.38C2.74314 22.4412 2.74314 23.5024 2.83373 24.5637C2.5749 24.5637 2.32901 24.5637 2.07017 24.5637C2.12194 23.8777 2.13489 23.1918 2.12195 22.5059C1.68193 23.0754 1.26778 23.6707 0.853643 24.266C0.853643 24.3695 0.853643 24.4601 0.853643 24.5637C0.607749 24.5637 0.3748 24.5637 0.128906 24.5637C0.23244 23.5024 0.23244 22.4412 0.128906 21.38C0.3748 21.38 0.633638 21.38 0.879532 21.38C0.827765 22.0659 0.814831 22.7518 0.827773 23.4377C1.26779 22.8683 1.68193 22.2859 2.08313 21.6906C2.10901 21.587 2.09606 21.4835 2.09606 21.38ZM18.9851 21.38C19.2698 21.38 19.5545 21.38 19.8392 21.38C19.904 22.4541 20.0592 23.5154 20.3051 24.5637C20.0463 24.5637 19.7875 24.5637 19.5416 24.5637C19.5157 23.7354 19.451 22.9071 19.3216 22.0788C18.9851 22.8812 18.7392 23.7224 18.4933 24.5637C18.3509 24.5637 18.1956 24.5637 18.0533 24.5637C17.8074 23.7095 17.5226 22.8812 17.212 22.0529C17.0826 22.8812 17.0309 23.7224 16.992 24.5637C16.7461 24.5637 16.5002 24.5637 16.2414 24.5637C16.4614 23.5154 16.6167 22.4541 16.6944 21.38C16.9791 21.38 17.2638 21.38 17.5615 21.38C17.7944 22.1047 18.0144 22.8295 18.3121 23.5283C18.558 22.8165 18.778 22.1047 18.9851 21.38ZM21.5605 21.367C21.8323 21.38 22.117 21.38 22.3888 21.367C22.6735 22.4541 23.0488 23.5154 23.4759 24.5637C23.2041 24.5637 22.9323 24.5637 22.6605 24.5637C22.6088 24.2789 22.5182 23.9942 22.4405 23.7095C22.0911 23.6966 21.7417 23.7095 21.3923 23.7095C21.3146 23.9942 21.237 24.2789 21.1722 24.5637C20.9264 24.5637 20.6805 24.5637 20.4216 24.5637C20.8616 23.5154 21.2628 22.4541 21.5605 21.367ZM21.9358 21.9365C21.8064 22.3636 21.6511 22.7906 21.5217 23.2177C21.7805 23.2177 22.0523 23.2177 22.3111 23.2177C22.1946 22.7906 22.0782 22.3636 21.9358 21.9365ZM27.2808 21.38C27.5267 21.38 27.7855 21.38 28.0314 21.38C27.9796 22.0659 27.9796 22.7518 27.9667 23.4377C28.3938 22.8942 28.7949 22.3247 29.1832 21.7553C29.2608 21.6518 29.2091 21.5094 29.222 21.38C29.4679 21.38 29.7138 21.38 29.9597 21.38C29.8691 22.4412 29.8691 23.5024 29.9597 24.5637C29.7009 24.5637 29.455 24.5637 29.1961 24.5637C29.2479 23.8777 29.2608 23.1918 29.2479 22.5059C28.8079 23.0754 28.4067 23.6707 27.9925 24.266C27.9925 24.3695 27.9925 24.4731 27.9925 24.5766C27.7467 24.5766 27.5008 24.5766 27.2678 24.5766C27.3972 23.5024 27.3714 22.4412 27.2808 21.38ZM33.9328 21.38C34.1917 21.38 34.4505 21.38 34.7223 21.38C34.6964 21.7941 34.6705 22.2082 34.6576 22.6224C35.0717 22.6224 35.4729 22.6224 35.887 22.6224C35.8741 22.2082 35.8611 21.7941 35.8353 21.38C36.0941 21.38 36.3529 21.38 36.6118 21.38C36.5212 22.4412 36.5082 23.5024 36.6247 24.5507C36.3659 24.5507 36.107 24.5507 35.8353 24.5507C35.8611 24.0719 35.8741 23.593 35.887 23.1142C35.4858 23.1012 35.0717 23.1142 34.6705 23.1142C34.6705 23.593 34.6835 24.0848 34.7223 24.5637C34.4635 24.5637 34.1917 24.5637 33.9328 24.5637C34.0364 23.5024 34.0234 22.4412 33.9328 21.38ZM40.7014 21.38C40.9602 21.38 41.219 21.38 41.4649 21.38C41.4391 21.8071 41.4132 22.2212 41.4002 22.6483C41.8273 22.6483 42.2932 22.6483 42.6815 22.8553C43.0827 23.0883 43.1215 23.6707 42.9144 24.0589C42.6944 24.4084 42.2544 24.4989 41.8661 24.5378C41.4779 24.5766 41.0767 24.5637 40.6884 24.5637C40.8049 23.5024 40.792 22.4412 40.7014 21.38ZM41.4132 23.0883C41.4132 23.4118 41.4132 23.7483 41.4132 24.0719C41.685 24.0719 41.9697 24.0848 42.2026 23.9295C42.4485 23.7613 42.4226 23.3212 42.1509 23.1789C41.9179 23.0753 41.6591 23.0883 41.4132 23.0883ZM44.8169 21.38C45.4251 21.38 46.0205 21.38 46.6287 21.38C46.6546 21.5612 46.6675 21.7423 46.6934 21.9235C46.3181 21.8588 45.9299 21.8588 45.5545 21.8588C45.5545 22.1177 45.5545 22.3765 45.5545 22.6353C45.9299 22.6353 46.3052 22.6353 46.6934 22.6353C46.6675 22.8036 46.6287 22.9848 46.6028 23.153C46.2534 23.1142 45.904 23.1142 45.5545 23.1142C45.5545 23.4377 45.5545 23.7613 45.5545 24.0848C45.9428 24.0848 46.331 24.0719 46.7193 24.0072C46.6805 24.1883 46.6546 24.3825 46.6158 24.5637C46.0204 24.5637 45.4122 24.5637 44.8169 24.5637C44.9204 23.5024 44.9074 22.4412 44.8169 21.38ZM49.2171 21.5741C49.67 21.2894 50.2265 21.2764 50.7313 21.3929C50.7571 21.6 50.783 21.82 50.8089 22.0271C50.4724 21.8847 50.0712 21.82 49.7347 21.9624C49.4241 22.1047 49.2429 22.4412 49.2041 22.7647C49.1782 23.1012 49.1912 23.4636 49.3983 23.7483C49.5536 23.9554 49.7994 24.0589 50.0453 24.046C50.3301 24.0589 50.6018 23.9295 50.8477 23.7871C50.8218 23.9942 50.8218 24.2013 50.7701 24.3954C50.4336 24.5766 50.0195 24.6154 49.6441 24.5637C49.2818 24.5119 48.9453 24.3178 48.7512 24.0072C48.5053 23.6318 48.4794 23.153 48.5312 22.713C48.57 22.273 48.8159 21.82 49.2171 21.5741ZM55.4032 21.4835C55.8174 21.2894 56.2962 21.3023 56.7362 21.3929C56.7621 21.6 56.788 21.82 56.8139 22.0271C56.4903 21.8976 56.128 21.82 55.7915 21.9494C55.4938 22.053 55.2997 22.3377 55.235 22.6353C55.1703 22.9589 55.1832 23.3083 55.3256 23.6189C55.455 23.8907 55.7268 24.0589 56.0244 24.0589C56.3221 24.0719 56.6068 23.9425 56.8656 23.8001C56.8398 23.9942 56.8139 24.2013 56.801 24.3954C56.4256 24.6025 55.9727 24.6413 55.5585 24.5637C55.1832 24.486 54.8467 24.2272 54.6785 23.8777C54.4973 23.4765 54.4844 23.0106 54.562 22.5836C54.6397 22.1177 54.9632 21.6776 55.4032 21.4835ZM64.9801 21.38C65.2649 21.38 65.5496 21.38 65.8214 21.38C65.8861 22.4541 66.0414 23.5154 66.2873 24.5637C66.0284 24.5637 65.7825 24.5637 65.5237 24.5637C65.4978 23.7354 65.4331 22.9071 65.3037 22.0788C64.9672 22.8812 64.7213 23.7224 64.4754 24.5637C64.3331 24.5637 64.1778 24.5637 64.0354 24.5637C63.7895 23.7224 63.5177 22.8812 63.1942 22.0788C63.0648 22.9071 63.0259 23.7354 62.9612 24.5637C62.7153 24.5637 62.4695 24.5637 62.2236 24.5637C62.4436 23.5154 62.5989 22.4541 62.6636 21.38C62.9483 21.38 63.246 21.38 63.5307 21.38C63.7507 22.1047 63.9966 22.8165 64.2683 23.5283C64.5531 22.8295 64.7601 22.1047 64.9801 21.38ZM71.9428 21.38C72.2146 21.367 72.4864 21.38 72.7582 21.38C72.9135 22.0012 73.1593 22.5965 73.3923 23.2048C73.6382 22.6095 73.897 22.0141 74.0265 21.38C74.2723 21.38 74.5182 21.38 74.7641 21.38C74.3629 22.2083 74.0265 23.0753 73.5994 23.9036C73.457 24.1495 73.2888 24.3954 73.017 24.5119C72.7582 24.6413 72.4605 24.6413 72.1887 24.6154C72.1499 24.4342 72.1111 24.2531 72.0722 24.0719C72.2793 24.0978 72.5123 24.1236 72.7193 24.0201C72.8617 23.9554 72.9523 23.826 73.0299 23.7095C72.7193 22.9201 72.357 22.1306 71.9428 21.38ZM81.8433 21.367C82.1151 21.38 82.3998 21.38 82.6845 21.367C82.9692 22.4541 83.3445 23.5154 83.7716 24.5637C83.4998 24.5637 83.2281 24.5766 82.9692 24.5507C82.8916 24.266 82.8268 23.9813 82.7492 23.6966C82.3998 23.6966 82.0503 23.6966 81.7009 23.6966C81.6233 23.9813 81.5456 24.266 81.4809 24.5637C81.235 24.5637 80.9891 24.5637 80.7432 24.5637C81.1574 23.5154 81.5456 22.4541 81.8433 21.367ZM81.8174 23.2177C82.0762 23.2177 82.348 23.2177 82.6069 23.2177C82.5033 22.7906 82.3739 22.3765 82.2445 21.9494C82.0762 22.3636 81.9468 22.7906 81.8174 23.2177ZM87.4859 21.38C88.1977 21.38 88.9095 21.38 89.6213 21.38C89.5436 22.4412 89.5178 23.5024 89.6342 24.5507C89.3754 24.5507 89.1036 24.5507 88.8448 24.5507C88.8965 23.6448 88.9224 22.7518 88.8836 21.8459C88.6248 21.8459 88.3659 21.8459 88.1071 21.8459C88.0683 22.48 88.0295 23.1142 87.9 23.7354C87.8353 24.0201 87.7318 24.3178 87.4859 24.4989C87.2529 24.6672 86.9423 24.6413 86.6964 24.5248C86.6964 24.3436 86.6835 24.1754 86.6835 23.9942C86.8259 24.033 87.007 24.046 87.1235 23.9295C87.2529 23.7871 87.2788 23.5801 87.3306 23.3989C87.46 22.7389 87.4859 22.0529 87.4859 21.38ZM90.3201 21.38C90.9284 21.38 91.5237 21.38 92.132 21.38C92.1579 21.5612 92.1708 21.7423 92.1967 21.9235C91.8214 21.8588 91.4331 21.8588 91.0578 21.8588C91.0578 22.1177 91.0578 22.3765 91.0578 22.6353C91.4331 22.6353 91.8214 22.6353 92.1967 22.6353C92.1708 22.8036 92.132 22.9848 92.1061 23.153C91.7567 23.1142 91.4073 23.1142 91.0578 23.1142C91.0578 23.4377 91.0578 23.7613 91.0578 24.0719C91.4461 24.0848 91.8343 24.0589 92.2226 24.0072C92.1967 24.1883 92.1579 24.3695 92.119 24.5507C91.5237 24.5636 90.9155 24.5507 90.3201 24.5637C90.4237 23.5024 90.4107 22.4412 90.3201 21.38ZM99.8712 21.5612C100.234 21.3412 100.687 21.3929 101.088 21.38C101.321 21.38 101.567 21.38 101.799 21.38C101.709 22.4412 101.696 23.5024 101.799 24.5637C101.541 24.5637 101.269 24.5637 101.01 24.5637C101.036 24.0848 101.075 23.606 101.075 23.1401C100.907 23.153 100.751 23.2177 100.635 23.3471C100.324 23.7095 100.208 24.1883 100.014 24.6025C100.001 24.5895 99.9747 24.5766 99.9618 24.5637C99.7159 24.5507 99.47 24.5636 99.2241 24.5507C99.4182 24.2401 99.5606 23.9036 99.7288 23.5801C99.8453 23.3471 100.014 23.153 100.246 23.0365C100.014 22.9848 99.7676 22.8812 99.6253 22.6742C99.4053 22.3247 99.5088 21.7812 99.8712 21.5612ZM100.389 21.9365C100.091 22.0659 100.104 22.5318 100.363 22.6871C100.57 22.8295 100.842 22.8295 101.088 22.8165C101.088 22.493 101.101 22.1824 101.075 21.8588C100.842 21.8459 100.596 21.8329 100.389 21.9365ZM107.339 21.367C107.61 21.38 107.895 21.38 108.167 21.367C108.465 22.4541 108.827 23.5154 109.254 24.5637C108.982 24.5637 108.71 24.5637 108.452 24.5637C108.387 24.2789 108.309 23.9813 108.232 23.6966C107.882 23.6966 107.533 23.6966 107.196 23.6966C107.106 23.9813 107.041 24.266 106.976 24.5637C106.73 24.5637 106.484 24.5637 106.239 24.5637C106.64 23.5154 107.041 22.4541 107.339 21.367ZM107.727 21.9365C107.584 22.3636 107.442 22.7906 107.313 23.2177C107.572 23.2177 107.843 23.2177 108.102 23.2177C107.986 22.7906 107.856 22.3636 107.727 21.9365ZM110.134 21.5871C110.587 21.2894 111.156 21.2764 111.674 21.38C111.7 21.6 111.726 21.8071 111.752 22.0271C111.415 21.8847 111.001 21.8071 110.652 21.9753C110.328 22.1306 110.16 22.48 110.134 22.8165C110.108 23.153 110.134 23.5413 110.38 23.8001C110.535 23.9813 110.768 24.046 111.001 24.046C111.286 24.046 111.545 23.9295 111.791 23.7871C111.765 23.9942 111.752 24.1883 111.713 24.3954C111.363 24.5895 110.962 24.6284 110.574 24.5766C110.225 24.5248 109.888 24.3307 109.707 24.033C109.461 23.6577 109.435 23.1918 109.474 22.7647C109.513 22.3118 109.746 21.8588 110.134 21.5871ZM126.026 21.38C126.311 21.3929 126.609 21.3541 126.894 21.3929C127.14 22.1047 127.347 22.8295 127.644 23.5283C127.903 22.8165 128.136 22.1047 128.33 21.38C128.615 21.38 128.9 21.38 129.171 21.38C129.236 22.4541 129.391 23.5154 129.637 24.5637C129.378 24.5637 129.12 24.5637 128.874 24.5637C128.861 23.7354 128.77 22.9071 128.667 22.0788C128.33 22.8812 128.084 23.7224 127.838 24.5637C127.696 24.5637 127.541 24.5637 127.398 24.5637C127.152 23.7095 126.881 22.8683 126.544 22.0529C126.428 22.8812 126.363 23.7224 126.324 24.5637C126.078 24.5637 125.832 24.5637 125.586 24.5637C125.806 23.5154 125.949 22.4412 126.026 21.38ZM131.488 21.38C132.083 21.38 132.679 21.38 133.274 21.38C133.3 21.5612 133.326 21.7423 133.365 21.9235C132.976 21.8588 132.588 21.8588 132.2 21.8588C132.2 22.1177 132.2 22.3765 132.2 22.6353C132.575 22.6353 132.963 22.6224 133.313 22.7647C133.52 22.8424 133.701 22.9977 133.779 23.2048C133.921 23.6189 133.804 24.1625 133.377 24.3566C132.782 24.6284 132.122 24.5507 131.488 24.5637C131.604 23.5024 131.579 22.4412 131.488 21.38ZM132.2 23.0624C132.2 23.3989 132.2 23.7354 132.2 24.0719C132.459 24.0719 132.743 24.0848 132.976 23.9425C133.261 23.7742 133.235 23.2954 132.937 23.153C132.704 23.0495 132.446 23.0624 132.2 23.0624ZM134.309 21.38C134.555 21.38 134.814 21.38 135.06 21.38C135.008 22.0659 135.008 22.7518 135.008 23.4377C135.422 22.8942 135.823 22.3377 136.199 21.7682C136.289 21.6647 136.238 21.5094 136.25 21.38C136.496 21.38 136.742 21.38 136.988 21.38C136.898 22.4412 136.885 23.5024 137.001 24.5637C136.742 24.5637 136.483 24.5637 136.238 24.5637C136.289 23.8777 136.302 23.1918 136.302 22.5059C135.862 23.0754 135.448 23.6707 135.034 24.266C135.034 24.3695 135.034 24.4601 135.047 24.5637C134.801 24.5637 134.555 24.5637 134.309 24.5637C134.413 23.5024 134.4 22.4412 134.309 21.38ZM146.876 21.5094C147.303 21.2894 147.808 21.2894 148.273 21.38C148.312 21.587 148.325 21.8071 148.351 22.0271C147.963 21.8588 147.458 21.7941 147.109 22.0659C146.746 22.3506 146.682 22.8553 146.746 23.2695C146.785 23.5801 146.966 23.8907 147.277 23.9942C147.652 24.1366 148.066 23.9813 148.39 23.7871C148.364 23.9813 148.351 24.1883 148.325 24.3825C147.95 24.5895 147.497 24.6284 147.083 24.5507C146.707 24.4731 146.371 24.2142 146.216 23.8648C146.022 23.4507 146.022 22.9848 146.099 22.5447C146.19 22.1177 146.475 21.7165 146.876 21.5094ZM154.718 21.38C155.003 21.38 155.288 21.38 155.573 21.38C155.611 22.2341 155.728 23.0883 155.896 23.9295C155.935 24.1366 156 24.3436 156 24.5637C155.754 24.5637 155.508 24.5637 155.262 24.5637C155.236 23.7354 155.158 22.9071 155.042 22.0788C154.705 22.8812 154.46 23.7224 154.214 24.5637C154.071 24.5637 153.916 24.5637 153.774 24.5637C153.528 23.7095 153.256 22.8683 152.92 22.0529C152.803 22.8553 152.751 23.6707 152.712 24.486C152.738 24.5895 152.622 24.5637 152.557 24.5637C152.363 24.5637 152.156 24.5637 151.962 24.5637C152.182 23.5154 152.337 22.4541 152.415 21.38C152.7 21.38 152.997 21.38 153.282 21.38C153.515 22.1047 153.735 22.8295 154.033 23.5283C154.278 22.8165 154.511 22.1047 154.718 21.38ZM3.5326 21.38C3.79144 21.38 4.06321 21.38 4.32205 21.38C4.28322 21.7941 4.28322 22.2082 4.25734 22.6224C4.67147 22.6224 5.07266 22.6224 5.4868 22.6224C5.4868 22.2082 5.46093 21.7941 5.43504 21.38C5.69388 21.38 5.9527 21.38 6.21154 21.38C6.13389 22.4412 6.12096 23.5024 6.22449 24.5637C5.96566 24.5637 5.70682 24.5637 5.43504 24.5637C5.46093 24.0848 5.47386 23.606 5.4868 23.1271C5.08561 23.1271 4.67147 23.1271 4.27027 23.1271C4.27027 23.606 4.29616 24.0848 4.32205 24.5766C4.06321 24.5766 3.79144 24.5766 3.5326 24.5766C3.64908 23.5024 3.62319 22.4412 3.5326 21.38ZM13.7307 21.38C14.106 21.38 14.4684 21.367 14.8437 21.38C15.1543 21.3929 15.5037 21.4317 15.7237 21.6776C16.112 22.1047 16.0085 22.9071 15.4779 23.1789C15.1672 23.3601 14.8049 23.386 14.4555 23.386C14.4684 23.7742 14.4813 24.1625 14.5202 24.5507C14.2613 24.5507 13.9896 24.5507 13.7307 24.5507C13.8343 23.5024 13.8213 22.4412 13.7307 21.38ZM14.4684 21.8588C14.4425 22.2083 14.4555 22.5577 14.4555 22.9201C14.6884 22.9201 14.9343 22.933 15.1284 22.7777C15.3484 22.5965 15.3484 22.2212 15.1673 22.0141C14.9602 21.8459 14.7013 21.8588 14.4684 21.8588ZM23.8382 21.38C24.0971 21.38 24.3559 21.38 24.6277 21.38C24.5759 22.273 24.563 23.1789 24.5889 24.0719C24.9642 24.0719 25.3524 24.0719 25.7277 24.0719C25.7666 23.1789 25.7536 22.273 25.6889 21.38C25.9477 21.38 26.2066 21.38 26.4784 21.38C26.3878 22.273 26.3878 23.1659 26.4266 24.0589C26.569 24.0589 26.7113 24.0589 26.8537 24.0589C26.8278 24.4472 26.8278 24.8225 26.8537 25.2107H26.3101C26.336 24.9907 26.3231 24.7707 26.3231 24.5507C25.4948 24.5507 24.6536 24.5507 23.8253 24.5507C23.9418 23.5024 23.9547 22.4412 23.8382 21.38ZM37.3236 21.38C37.5824 21.38 37.8542 21.38 38.113 21.38C38.0742 21.7941 38.0483 22.2082 38.0483 22.6224C38.4624 22.6224 38.8636 22.6224 39.2778 22.6224C39.2648 22.2082 39.2648 21.7941 39.2131 21.38C39.4719 21.38 39.7307 21.38 40.0025 21.38C39.9119 22.4412 39.899 23.5024 40.0155 24.5637C39.7566 24.5637 39.4849 24.5637 39.226 24.5637C39.2519 24.0848 39.2648 23.606 39.2778 23.1142C38.8636 23.1142 38.4624 23.1142 38.0483 23.1142C38.0742 23.593 38.0742 24.0719 38.1001 24.5637C37.8412 24.5637 37.5695 24.5637 37.3106 24.5637C37.4271 23.5024 37.4012 22.4412 37.3236 21.38ZM43.3415 21.38C43.6003 21.38 43.8592 21.38 44.1051 21.38C44.0145 22.4412 44.0015 23.5024 44.118 24.5637C43.8592 24.5637 43.6003 24.5637 43.3415 24.5637C43.445 23.5024 43.4321 22.4412 43.3415 21.38ZM51.3007 21.38C51.5466 21.38 51.8054 21.38 52.0513 21.38C51.9996 22.0659 51.9995 22.7518 51.9866 23.4377C52.4137 22.8942 52.8019 22.3247 53.1902 21.7553C53.2808 21.6518 53.2161 21.4965 53.229 21.38C53.4749 21.38 53.7208 21.38 53.9667 21.38C53.8761 22.4412 53.8761 23.5024 53.9796 24.5637C53.7208 24.5637 53.462 24.5637 53.2161 24.5637C53.2808 23.8777 53.2808 23.1918 53.2808 22.5059C52.8537 23.0624 52.4525 23.6318 52.0513 24.2142C51.9737 24.3178 52.0254 24.4472 52.0254 24.5766C51.7795 24.5766 51.5336 24.5766 51.2877 24.5766C51.4172 23.5024 51.3913 22.4412 51.3007 21.38ZM57.0598 21.38C57.8492 21.38 58.6387 21.38 59.4281 21.38C59.454 21.5741 59.467 21.7553 59.4928 21.9494C59.1952 21.8847 58.8846 21.8588 58.574 21.8459C58.5481 22.7518 58.5481 23.6577 58.6387 24.5507C58.3669 24.5507 58.1081 24.5507 57.8363 24.5507C57.9269 23.6448 57.9269 22.7389 57.8881 21.8459C57.5775 21.8459 57.2798 21.8847 56.9821 21.9365C57.021 21.7553 57.0468 21.5612 57.0598 21.38ZM59.894 21.38C60.5023 21.38 61.0976 21.38 61.7059 21.38C61.7318 21.5612 61.7447 21.7423 61.7706 21.9235C61.3953 21.8588 61.007 21.8588 60.6317 21.8588C60.6317 22.1177 60.6317 22.3765 60.6317 22.6353C61.007 22.6353 61.3823 22.6353 61.7706 22.6353C61.7447 22.8036 61.7059 22.9848 61.68 23.153C61.3306 23.1142 60.9811 23.1142 60.6317 23.1142C60.6317 23.4377 60.6317 23.7613 60.6317 24.0719C61.02 24.0719 61.4082 24.0589 61.7965 23.9942C61.7577 24.1754 61.7318 24.3695 61.6929 24.5507C61.0976 24.5507 60.4894 24.5507 59.894 24.5507C60.0105 23.5024 59.9846 22.4412 59.894 21.38ZM66.7532 21.38C67.012 21.38 67.2708 21.38 67.5297 21.38C67.4909 21.7941 67.4779 22.2212 67.465 22.6483C67.9179 22.6612 68.4097 22.6353 68.798 22.9071C69.0956 23.1142 69.1345 23.5283 69.0568 23.8519C68.9921 24.1366 68.7462 24.3436 68.4874 24.4342C67.9309 24.6154 67.3356 24.5637 66.7532 24.5766C66.8697 23.5024 66.8438 22.4412 66.7532 21.38ZM67.452 23.0883C67.4391 23.4118 67.465 23.7483 67.465 24.0719C67.7238 24.0719 68.0085 24.0848 68.2415 23.9425C68.5003 23.7872 68.4874 23.3342 68.2156 23.1918C67.9826 23.0754 67.7109 23.0883 67.452 23.0883ZM69.3933 21.38C69.6521 21.38 69.911 21.38 70.1698 21.38C70.0792 22.4412 70.0663 23.5024 70.1698 24.5637C69.911 24.5637 69.6521 24.5637 69.3933 24.5637C69.4968 23.5024 69.4839 22.4412 69.3933 21.38ZM75.0488 21.38C75.9289 21.38 76.8089 21.38 77.689 21.38C77.5984 22.4412 77.5854 23.5024 77.689 24.5637C77.4301 24.5637 77.1713 24.5637 76.9125 24.5637C76.9513 23.6707 76.9772 22.7647 76.9513 21.8718C76.563 21.8588 76.1877 21.8718 75.8124 21.8588C75.7607 22.7648 75.7865 23.6707 75.8512 24.5637C75.5924 24.5637 75.3206 24.5637 75.0618 24.5637C75.1524 23.5024 75.1394 22.4412 75.0488 21.38ZM78.3878 21.38C78.8926 21.3929 79.4102 21.3412 79.902 21.4317C80.1997 21.4835 80.4714 21.7035 80.5491 22.0012C80.6526 22.3636 80.5879 22.8036 80.2903 23.0624C79.9667 23.3471 79.5138 23.3989 79.0996 23.386C79.0996 23.7742 79.1255 24.1754 79.1514 24.5637C78.8925 24.5637 78.6208 24.5637 78.3619 24.5637C78.5043 23.5024 78.4784 22.4412 78.3878 21.38ZM79.1126 21.8588C79.1255 22.2083 79.0867 22.5577 79.1126 22.9071C79.3843 22.92 79.7338 22.8942 79.8891 22.6353C79.9797 22.4283 79.9667 22.1435 79.7985 21.9753C79.6043 21.8329 79.3455 21.8588 79.1126 21.8588ZM84.134 21.38C84.5352 21.38 84.9364 21.38 85.3505 21.38C85.6352 21.3929 85.9458 21.4317 86.1658 21.6388C86.4247 21.8847 86.4376 22.3506 86.1788 22.5965C86.0623 22.713 85.907 22.7906 85.7517 22.8424C86.0105 22.8812 86.2823 22.9977 86.4117 23.2307C86.58 23.5413 86.5153 23.9554 86.2564 24.1883C86.0623 24.3825 85.7905 24.4731 85.5188 24.4989C85.0528 24.5507 84.5869 24.5378 84.121 24.5378C84.2505 23.5024 84.2246 22.4412 84.134 21.38ZM84.8587 22.6742C85.1046 22.6742 85.3634 22.6742 85.5705 22.5318C85.7776 22.3894 85.7776 22.04 85.5576 21.9235C85.3505 21.8071 85.1046 21.8329 84.8717 21.8329C84.8458 22.1177 84.8587 22.4024 84.8587 22.6742ZM84.8587 23.0883C84.8587 23.4118 84.8587 23.7483 84.8587 24.0719C85.1305 24.0978 85.4152 24.0978 85.6482 23.9425C85.8941 23.7742 85.8811 23.373 85.6352 23.2177C85.4152 23.0624 85.1175 23.0753 84.8587 23.0883ZM92.805 21.38C93.0638 21.38 93.3356 21.38 93.5944 21.38C93.5685 21.7941 93.5426 22.2082 93.5297 22.6224C93.9438 22.6224 94.345 22.6224 94.7592 22.6224C94.7592 22.2082 94.7333 21.7941 94.7074 21.38C94.9662 21.38 95.2251 21.38 95.4839 21.38C95.4063 22.4412 95.3933 23.5024 95.4968 24.5637C95.2251 24.5637 94.9533 24.5637 94.6945 24.5637C94.7462 24.3436 94.7333 24.1107 94.7462 23.8907C94.7462 23.6318 94.7721 23.373 94.7592 23.1142C94.358 23.1142 93.9568 23.1142 93.5426 23.1142C93.5426 23.593 93.5556 24.0719 93.5944 24.5637C93.3356 24.5637 93.0638 24.5637 92.805 24.5637C92.9085 23.5024 92.8956 22.4412 92.805 21.38ZM96.1957 21.38C96.4416 21.38 96.7004 21.38 96.9463 21.38C96.8946 22.0659 96.8946 22.7389 96.8946 23.4248C97.3216 22.8812 97.7099 22.3118 98.0981 21.7553C98.1887 21.6518 98.124 21.5094 98.137 21.38C98.3829 21.38 98.6288 21.38 98.8747 21.38C98.7841 22.4412 98.7711 23.5024 98.8876 24.5637C98.6288 24.5637 98.3829 24.5637 98.124 24.5637C98.1629 23.8777 98.2017 23.1918 98.1758 22.5059C97.7358 23.0883 97.3087 23.6707 96.9075 24.2789C96.9075 24.3695 96.9205 24.4601 96.9205 24.5637C96.6746 24.5637 96.4287 24.5637 96.1828 24.5637C96.2992 23.5024 96.2863 22.4412 96.1957 21.38ZM103.883 21.38C104.388 21.3929 104.918 21.3412 105.423 21.4317C105.721 21.4835 105.98 21.7035 106.057 21.9882C106.161 22.3506 106.096 22.8036 105.799 23.0624C105.475 23.3342 105.022 23.3989 104.608 23.386C104.621 23.7742 104.634 24.1625 104.673 24.5507C104.414 24.5507 104.142 24.5507 103.883 24.5507C103.987 23.5024 103.974 22.4412 103.883 21.38ZM104.621 21.8588C104.608 22.2083 104.608 22.5577 104.608 22.9201C104.841 22.9201 105.113 22.933 105.307 22.7647C105.488 22.5836 105.501 22.2471 105.346 22.04C105.151 21.8329 104.854 21.8588 104.621 21.8588ZM111.933 21.9365C111.959 21.7553 111.985 21.5612 112.011 21.38C112.8 21.38 113.589 21.38 114.379 21.38C114.405 21.5741 114.418 21.7553 114.444 21.9494C114.133 21.8847 113.835 21.8588 113.525 21.8588C113.499 22.7648 113.499 23.6707 113.589 24.5637C113.318 24.5637 113.059 24.5637 112.787 24.5637C112.891 23.6707 112.878 22.7518 112.852 21.8588C112.541 21.8459 112.231 21.8847 111.933 21.9365ZM114.508 21.38C114.793 21.38 115.065 21.38 115.35 21.38C115.505 22.0012 115.751 22.6095 115.984 23.2048C116.23 22.6095 116.475 22.0141 116.618 21.38C116.864 21.38 117.11 21.38 117.356 21.38C117.071 21.9753 116.812 22.5836 116.54 23.1789C116.359 23.5801 116.191 24.0201 115.867 24.3436C115.595 24.6154 115.168 24.6801 114.793 24.6284C114.728 24.4472 114.702 24.266 114.664 24.0848C114.884 24.1107 115.117 24.1366 115.311 24.033C115.453 23.9683 115.544 23.8389 115.621 23.7095C115.285 22.9201 114.961 22.1177 114.508 21.38ZM117.64 21.38C117.899 21.38 118.171 21.38 118.43 21.38C118.365 22.273 118.352 23.1789 118.391 24.0719C118.676 24.0719 118.973 24.0719 119.258 24.0719C119.323 23.1789 119.297 22.273 119.232 21.38C119.491 21.38 119.737 21.38 119.996 21.38C119.944 22.273 119.918 23.1789 119.97 24.0719C120.254 24.0719 120.539 24.0719 120.824 24.0719C120.863 23.1789 120.85 22.273 120.785 21.38C121.044 21.38 121.316 21.38 121.575 21.38C121.484 22.273 121.484 23.1659 121.523 24.0589C121.665 24.0589 121.807 24.0589 121.95 24.0589C121.924 24.4472 121.924 24.8225 121.95 25.2107H121.406C121.419 24.9907 121.419 24.7707 121.419 24.5507C120.164 24.5507 118.896 24.5507 117.64 24.5507C117.731 23.5024 117.744 22.4412 117.64 21.38ZM122.364 21.38C122.61 21.38 122.869 21.38 123.128 21.38C123.076 22.0659 123.063 22.7518 123.063 23.4377C123.49 22.8942 123.891 22.3247 124.266 21.7553C124.344 21.6518 124.292 21.5094 124.305 21.38C124.551 21.38 124.797 21.38 125.043 21.38C124.952 22.4412 124.952 23.5024 125.056 24.5637C124.797 24.5637 124.551 24.5637 124.292 24.5637C124.344 23.8777 124.357 23.1918 124.357 22.5059C123.93 23.0495 123.542 23.6189 123.153 24.1754C123.063 24.2789 123.102 24.4342 123.089 24.5637C122.843 24.5637 122.61 24.5637 122.364 24.5637C122.468 23.5024 122.455 22.4412 122.364 21.38ZM140.366 21.38C140.625 21.38 140.897 21.38 141.155 21.38C141.13 21.7941 141.091 22.2082 141.104 22.6224C141.505 22.6224 141.919 22.6224 142.32 22.6224C142.32 22.2082 142.307 21.7941 142.268 21.38C142.527 21.38 142.786 21.38 143.045 21.38C142.954 22.4412 142.954 23.5024 143.058 24.5637C142.799 24.5637 142.54 24.5637 142.281 24.5637C142.307 24.0848 142.333 23.593 142.333 23.1142C141.932 23.1142 141.518 23.1142 141.117 23.1142C141.117 23.593 141.143 24.0848 141.168 24.5637C140.91 24.5637 140.638 24.5637 140.379 24.5637C140.47 23.5024 140.457 22.4412 140.366 21.38ZM143.744 21.38C144.352 21.367 144.947 21.38 145.556 21.38C145.582 21.5612 145.594 21.7423 145.62 21.9235C145.245 21.8588 144.857 21.8588 144.481 21.8588C144.481 22.1177 144.481 22.3765 144.481 22.6353C144.857 22.6353 145.232 22.6353 145.607 22.6353C145.582 22.8036 145.543 22.9848 145.517 23.153C145.167 23.1142 144.818 23.1142 144.481 23.1142C144.481 23.4377 144.481 23.7613 144.481 24.0719C144.87 24.0719 145.258 24.0589 145.633 24.0072C145.594 24.1883 145.569 24.3825 145.53 24.5637C144.934 24.5637 144.326 24.5637 143.731 24.5637C143.847 23.5024 143.834 22.4412 143.744 21.38Z" fill="#231F20"/>
</svg>
