<svg width="90" height="90" viewBox="0 0 90 90" fill="none" xmlns="http://www.w3.org/2000/svg">
<path d="M2.56445 48.3075C2.56445 68.1975 18.6745 84.3075 38.5645 84.3075C58.4545 84.3075 74.5645 68.1975 74.5645 48.3075C74.5645 48.3075 74.5645 48.3075 74.5645 48.285C74.5645 28.395 58.4545 12.285 38.5645 12.285C18.697 12.3075 2.56445 28.4175 2.56445 48.3075Z" fill="#D9EDFF"/>
<path d="M54.2475 40.8149L47.925 42.9299L49.32 48.9824C49.545 49.9949 48.9375 50.9849 47.925 51.2324C47.79 51.2549 47.6325 51.2774 47.4975 51.2774C42.75 51.2324 32.3775 51.1424 30.8475 50.9849C30.285 50.9399 29.7225 50.8949 29.16 50.8949C19.575 50.8949 11.835 58.6574 11.8125 68.2199L11.9475 77.0174H43.515L43.38 68.2199V60.9524C43.38 59.9624 44.19 59.1524 45.18 59.1524H50.5125C54.1125 59.1524 57.015 56.2499 57.015 52.6499C57.015 52.1099 56.9475 51.5924 56.8125 51.0749L54.2475 40.8149Z" fill="white"/>
<path d="M54.2475 40.8149L47.925 42.9299L49.32 48.9824C49.545 49.9949 48.9375 50.9849 47.925 51.2324C47.79 51.2549 47.6325 51.2774 47.4975 51.2774C42.75 51.2324 32.3775 51.1424 30.8475 50.9849C30.285 50.9399 29.7225 50.8949 29.16 50.8949C19.575 50.8949 11.835 58.6574 11.8125 68.2199L11.9475 77.0174H43.515L43.38 68.2199V60.9524C43.38 59.9624 44.19 59.1524 45.18 59.1524H50.5125C54.1125 59.1524 57.015 56.2499 57.015 52.6499C57.015 52.1099 56.9475 51.5924 56.8125 51.0749L54.2475 40.8149Z" fill="#B0D9FF"/>
<path d="M11.9483 77.4675C11.7008 77.4675 11.4983 77.265 11.4983 77.0175L11.3633 68.22C11.3633 58.41 19.3508 50.4225 29.1608 50.4225C29.7458 50.4225 30.3083 50.445 30.8708 50.5125C32.4458 50.67 43.9658 50.76 47.4758 50.805C47.5883 50.805 47.7008 50.7825 47.8133 50.76C48.5783 50.58 49.0508 49.815 48.8708 49.05L47.4758 42.9975C47.4308 42.7725 47.5433 42.5475 47.7683 42.48L54.0908 40.365C54.2033 40.32 54.3383 40.3425 54.4508 40.3875C54.5633 40.455 54.6308 40.545 54.6758 40.68L57.2408 50.94C57.3758 51.48 57.4433 52.065 57.4433 52.6275C57.4433 54.495 56.7233 56.2275 55.4183 57.555C54.1133 58.86 52.3583 59.6025 50.4908 59.6025H45.1583C44.4158 59.6025 43.8083 60.21 43.8083 60.9525V68.22L43.9433 77.0175C43.9433 77.265 43.7408 77.4675 43.4933 77.4675C43.2458 77.4675 43.0433 77.265 43.0433 77.0175L42.9083 68.22V60.9525C42.9083 59.715 43.9208 58.7025 45.1583 58.7025H50.4908C52.1108 58.7025 53.6183 58.0725 54.7658 56.925C55.9133 55.7775 56.5433 54.27 56.5433 52.65C56.5433 52.155 56.4758 51.66 56.3633 51.1875L53.9333 41.4L48.4658 43.2225L49.7708 48.87C50.0633 50.1075 49.2758 51.3675 48.0383 51.66C47.8583 51.705 47.6783 51.7275 47.4983 51.7275C42.9983 51.6825 32.3783 51.5925 30.8258 51.435C30.2858 51.39 29.7233 51.3675 29.1833 51.3675C19.8683 51.3675 12.3083 58.95 12.2858 68.2425L12.4208 77.04C12.3983 77.265 12.1958 77.4675 11.9483 77.4675Z" fill="#020064"/>
<path d="M45.4948 34.6275C45.2923 34.0425 45.6073 33.39 46.2148 33.1875C46.7998 32.985 47.4523 33.3 47.6548 33.9075L48.3073 36.09C48.4423 36.54 48.8923 36.7875 49.3423 36.6525H49.3648C51.0973 36.0675 52.9873 36.99 53.5948 38.745L54.2698 40.815L47.9473 42.93L45.4948 34.6275Z" fill="white"/>
<path d="M47.9243 43.3575C47.8568 43.3575 47.7893 43.335 47.7218 43.3125C47.6093 43.245 47.5418 43.155 47.4968 43.0425L45.0668 34.7625C44.9318 34.3575 44.9768 33.93 45.1568 33.57C45.3368 33.1875 45.6743 32.9175 46.0568 32.7825C46.4618 32.6475 46.8893 32.67 47.2718 32.8725C47.6543 33.0525 47.9243 33.39 48.0593 33.7725L48.7118 35.9775C48.7793 36.18 48.9818 36.2925 49.1843 36.2475C51.1868 35.5725 53.3243 36.6525 53.9993 38.61V38.6325L54.6743 40.68C54.7418 40.905 54.6293 41.175 54.3818 41.2425L48.0593 43.3575C48.0143 43.3575 47.9693 43.3575 47.9243 43.3575ZM46.5518 33.57C46.4843 33.57 46.4168 33.5925 46.3268 33.615C46.1468 33.6825 46.0118 33.795 45.9443 33.9525C45.8543 34.11 45.8543 34.29 45.8993 34.47V34.4925L48.1943 42.345L53.6618 40.5225L53.1218 38.88V38.8575C52.6268 37.3725 50.9843 36.5625 49.4768 37.08C49.4543 37.08 49.4543 37.08 49.4318 37.1025C48.7568 37.305 48.0368 36.9 47.8343 36.225L47.1818 34.0425C47.1368 33.885 47.0018 33.75 46.8443 33.66C46.7543 33.615 46.6643 33.57 46.5518 33.57Z" fill="#020064"/>
<path d="M29.1592 51.3225V57.9825L24.7492 60.1875L23.8492 60.6375C23.3092 60.9075 22.6342 60.6825 22.3642 60.1425C22.3192 60.03 22.2742 59.9175 22.2517 59.805L21.5767 55.35C21.2392 53.325 22.1617 51.3 23.9167 50.22C24.0967 50.1075 24.2992 50.0175 24.5017 49.9725C25.1317 49.815 25.8067 51.0525 26.4817 50.9625L29.1592 51.3225Z" fill="#B0D9FF"/>
<path d="M23.3544 61.2225C23.1969 61.2225 23.0169 61.2 22.8594 61.1325C22.4544 60.9975 22.1394 60.7275 21.9594 60.345C21.8919 60.21 21.8469 60.0525 21.8019 59.8725L21.1269 55.4175C20.7444 53.2125 21.7569 51.0075 23.6694 49.8375C23.8944 49.7025 24.1194 49.6125 24.3444 49.545C24.9069 49.41 25.3569 49.7925 25.7619 50.1075C25.9869 50.2875 26.2794 50.535 26.4144 50.5125C26.4594 50.5125 26.4819 50.5125 26.5269 50.5125L29.2044 50.85C29.4294 50.8725 29.6094 51.075 29.6094 51.3V57.96C29.6094 58.14 29.5194 58.2975 29.3619 58.365L24.0744 61.02C23.8269 61.155 23.6019 61.2225 23.3544 61.2225ZM24.6144 50.445C24.4569 50.49 24.2994 50.5575 24.1419 50.6475C22.5219 51.615 21.6894 53.46 22.0044 55.305L22.6794 59.76C22.6794 59.8275 22.7019 59.895 22.7469 59.9625C22.8369 60.12 22.9719 60.2325 23.1294 60.3C23.2869 60.345 23.4669 60.345 23.6244 60.255L24.5244 59.805L28.6869 57.735V51.75L26.4594 51.48C25.9644 51.5025 25.5594 51.165 25.1769 50.85C25.0419 50.6925 24.7269 50.445 24.6144 50.445Z" fill="#020064"/>
<path d="M36.7212 55.395L36.0462 59.8275C35.9562 60.435 35.3937 60.84 34.7862 60.75C34.6737 60.7275 34.5612 60.705 34.4487 60.6375L33.5487 60.1875L29.1387 57.9825V51.3225L31.8162 50.985C32.4912 51.075 33.1662 49.815 33.7962 49.995C34.0212 50.0625 34.2237 50.1525 34.4262 50.265C36.1812 51.3675 37.0812 53.37 36.7212 55.395Z" fill="#B0D9FF"/>
<path d="M34.9659 61.2225C34.8984 61.2225 34.8084 61.2225 34.7409 61.2C34.5834 61.1775 34.4259 61.1325 34.2684 61.0425L33.3684 60.5925L28.9584 58.3875C28.8009 58.32 28.7109 58.1625 28.7109 57.9825V51.3225C28.7109 51.0975 28.8909 50.895 29.1159 50.8725L31.7934 50.535C31.8384 50.535 31.8609 50.535 31.9059 50.535C32.0409 50.5575 32.3559 50.2875 32.5584 50.13C32.9634 49.7925 33.4134 49.41 33.9534 49.545C34.2234 49.635 34.4709 49.7475 34.6959 49.8825C36.5859 51.075 37.5534 53.235 37.1934 55.44L36.5184 59.8725C36.3834 60.66 35.7084 61.2225 34.9659 61.2225ZM29.6109 57.7125L34.6734 60.2325C34.7409 60.255 34.8084 60.2775 34.8759 60.3C35.2359 60.3675 35.5734 60.0975 35.6184 59.76L36.2934 55.3275C36.6084 53.4825 35.7984 51.66 34.2009 50.67C34.0434 50.58 33.8634 50.49 33.6834 50.445C33.5934 50.4225 33.2784 50.715 33.0984 50.85C32.7384 51.165 32.3109 51.5025 31.8159 51.48L29.5659 51.75V57.7125H29.6109Z" fill="#020064"/>
<path d="M18.6084 77.49C18.3609 77.49 18.1584 77.2875 18.1584 77.04L18.0234 66.465C18.0234 66.2175 18.2259 66.015 18.4734 66.015C18.7209 66.015 18.9234 66.2175 18.9234 66.465L19.0584 77.04C19.0584 77.265 18.8559 77.49 18.6084 77.49Z" fill="#020064"/>
<path d="M33.1428 53.82L29.1378 58.005L25.1328 53.82V47.8125H33.1428V53.82Z" fill="white"/>
<path d="M29.1601 58.455C29.0476 58.455 28.9126 58.4101 28.8451 58.3201L24.8401 54.135C24.7501 54.0451 24.7051 53.9325 24.7051 53.82V47.8125C24.7051 47.565 24.9076 47.3625 25.1551 47.3625H33.1651C33.4126 47.3625 33.6151 47.565 33.6151 47.8125V53.82C33.6151 53.9325 33.5701 54.0451 33.4801 54.135L29.4751 58.3201C29.3851 58.4101 29.2726 58.455 29.1601 58.455ZM25.6051 53.64L29.1601 57.3525L32.7151 53.64V48.2625H25.6051V53.64Z" fill="#020064"/>
<path d="M33.5925 60.2099L30.5325 63.3149H27.855L24.75 60.1649L29.1375 57.9824L33.5925 60.2099Z" fill="white"/>
<path d="M30.5329 63.7874H27.8554C27.7429 63.7874 27.6079 63.7424 27.5404 63.6524L24.4354 60.5024C24.3454 60.3899 24.2779 60.2549 24.3229 60.1199C24.3454 59.9849 24.4354 59.8499 24.5704 59.7824L28.9579 57.5999C29.0929 57.5324 29.2279 57.5324 29.3629 57.5999L33.8179 59.8274C33.9529 59.8949 34.0429 60.0074 34.0654 60.1649C34.0879 60.2999 34.0429 60.4574 33.9529 60.5474L30.8929 63.6524C30.7804 63.7424 30.6679 63.7874 30.5329 63.7874ZM28.0579 62.8874H30.3529L32.8504 60.3449L29.1604 58.4999L25.5379 60.2999L28.0579 62.8874Z" fill="#020064"/>
<path d="M32.489 78.5925C32.6015 78.435 32.669 78.2325 32.669 78.0525L32.5565 70.56C32.5565 68.0175 31.859 65.52 30.554 63.36H27.899C26.594 65.5425 25.8965 68.04 25.8965 70.5825L26.009 78.075C26.009 78.2775 26.0765 78.4575 26.189 78.615L28.664 81.81C28.9565 82.1925 29.5415 82.2825 29.924 81.9675C29.9915 81.9225 30.0365 81.855 30.104 81.7875L32.489 78.5925Z" fill="white"/>
<path d="M29.3623 82.5975C28.9573 82.5975 28.5523 82.4174 28.2823 82.0799L25.8073 78.885C25.6273 78.66 25.5373 78.3675 25.5148 78.075L25.4023 70.5825C25.4023 67.95 26.1223 65.3625 27.4723 63.1125C27.5623 62.9775 27.6973 62.8875 27.8548 62.8875H30.5098C30.6898 62.8875 30.8473 63 30.9148 63.1575C32.2423 65.385 32.9623 67.95 32.9623 70.56L33.0748 78.0524C33.0748 78.3449 32.9848 78.6375 32.8048 78.885L30.4198 82.0799C30.3523 82.1699 30.2623 82.2599 30.1723 82.3274C29.9473 82.5075 29.6548 82.5975 29.3623 82.5975ZM28.1473 63.7875C26.9548 65.835 26.3248 68.175 26.3248 70.56L26.4373 78.0524C26.4373 78.1424 26.4823 78.255 26.5273 78.3225L29.0023 81.5174C29.0698 81.6074 29.1823 81.675 29.2948 81.6975C29.4073 81.72 29.5423 81.675 29.6323 81.6075C29.6548 81.585 29.6998 81.5624 29.7223 81.5174L32.1073 78.3225C32.1748 78.255 32.1973 78.1424 32.1973 78.0524L32.0848 70.56C32.0848 68.175 31.4548 65.835 30.2848 63.7875H28.1473Z" fill="#020064"/>
<path d="M41.7154 37.1026L42.0979 34.4701C43.2004 28.3051 39.0829 22.4101 32.9179 21.3301C26.7529 20.2276 20.8579 24.3451 19.7779 30.5101C19.7329 30.7126 19.7104 30.9376 19.6879 31.1401L19.3054 33.7726C18.2029 33.6151 17.1904 34.3576 17.0329 35.4601L16.9429 36.1126C16.7854 37.2151 17.5279 38.2276 18.6304 38.3851C18.6979 38.3851 18.7429 38.3851 18.8104 38.3851C18.9904 44.6401 24.1879 49.5676 30.4429 49.3876C35.1904 49.2526 39.3529 46.1701 40.8604 41.6476C40.9279 41.6701 40.9729 41.6926 41.0404 41.6926C42.1204 41.8501 43.1554 41.1076 43.3129 40.0051L43.4029 39.3526C43.5604 38.2951 42.7954 37.2826 41.7154 37.1026Z" fill="white"/>
<path d="M30.1048 49.8826C27.0898 49.8826 24.2323 48.7576 22.0273 46.6651C19.8448 44.5951 18.5398 41.8276 18.3598 38.8351C17.1223 38.5651 16.2898 37.3501 16.4698 36.0901L16.5598 35.4376C16.7398 34.2451 17.7298 33.3901 18.8773 33.3451L19.2148 31.1176C19.2373 30.9151 19.2823 30.6901 19.3048 30.4651C20.4298 24.0526 26.5723 19.7776 32.9623 20.9026C36.0673 21.4426 38.7673 23.1751 40.5673 25.7626C42.3673 28.3501 43.0648 31.4776 42.5248 34.5826L42.1873 36.8101C43.2898 37.1926 43.9873 38.2951 43.8073 39.4876L43.7173 40.1401C43.5373 41.4226 42.3898 42.3226 41.1298 42.2326C39.4648 46.7101 35.2123 49.7701 30.4198 49.9051C30.3073 49.8601 30.1948 49.8826 30.1048 49.8826ZM18.9898 34.2226C18.2248 34.2226 17.5723 34.7851 17.4598 35.5501L17.3698 36.2026C17.2348 37.0576 17.8198 37.8451 18.6748 37.9576C18.6973 37.9576 18.7198 37.9576 18.7423 37.9576C18.7648 37.9576 18.7873 37.9576 18.8323 37.9576C19.0573 37.9801 19.2598 38.1601 19.2598 38.3851C19.3498 41.2876 20.5423 43.9876 22.6573 45.9901C24.7723 47.9926 27.5398 49.0501 30.4423 48.9601C34.9873 48.8251 39.0148 45.8551 40.4548 41.5351C40.5223 41.3101 40.7698 41.1751 40.9948 41.2426C41.0173 41.2426 41.0623 41.2651 41.0848 41.2651C41.1073 41.2651 41.1298 41.2876 41.1298 41.2876C41.9848 41.4001 42.7723 40.8151 42.8848 39.9826L42.9748 39.3301C43.1098 38.4751 42.5248 37.6876 41.6698 37.5751C41.4223 37.5301 41.2648 37.3051 41.2873 37.0576L41.6698 34.4251C42.1873 31.5451 41.5348 28.6651 39.8698 26.2801C38.2048 23.8951 35.7073 22.2976 32.8498 21.8026C29.9923 21.2851 27.0898 21.9376 24.7048 23.6026C22.3198 25.2676 20.7223 27.7651 20.2273 30.6226C20.1823 30.8251 20.1598 31.0276 20.1373 31.2301L19.7548 33.8851C19.7098 34.1326 19.4848 34.2901 19.2373 34.2676C19.1473 34.2226 19.0573 34.2226 18.9898 34.2226Z" fill="#020064"/>
<path d="M37.8452 41.5125C37.7327 42.2325 37.0577 42.75 36.3377 42.6375C35.6177 42.525 35.1002 41.85 35.2127 41.13C35.3252 40.41 36.0002 39.8925 36.7202 40.005C37.4627 40.095 37.9577 40.77 37.8452 41.5125Z" fill="#B0D9FF"/>
<path d="M24.2553 39.4875C24.1428 40.2075 23.4678 40.725 22.7478 40.6125C22.0278 40.5 21.5103 39.825 21.6228 39.105C21.7353 38.385 22.4103 37.8675 23.1303 37.98C23.8503 38.0925 24.3678 38.7675 24.2553 39.4875Z" fill="#B0D9FF"/>
<path d="M36.3372 37.89C36.1347 37.89 35.9547 37.755 35.9097 37.5525C35.7297 36.8325 34.9872 36.3825 34.2672 36.5625C33.9072 36.6525 33.6147 36.8775 33.4347 37.17C33.2997 37.3725 33.0297 37.4625 32.8272 37.3275C32.6247 37.1925 32.5347 36.9225 32.6697 36.72C32.9847 36.2025 33.4797 35.8425 34.0422 35.685C35.2572 35.37 36.4722 36.1125 36.7872 37.3275C36.8547 37.575 36.6972 37.8225 36.4722 37.8675C36.4047 37.89 36.3597 37.89 36.3372 37.89Z" fill="#020064"/>
<path d="M27.5618 36.5851C27.3593 36.5851 27.1793 36.4501 27.1343 36.2476C26.9543 35.5276 26.2118 35.0776 25.4918 35.2576C25.1318 35.3476 24.8393 35.5726 24.6593 35.8651C24.5243 36.0676 24.2543 36.1576 24.0518 36.0226C23.8493 35.8876 23.7593 35.6176 23.8943 35.4151C24.2093 34.8976 24.7043 34.5376 25.2668 34.3801C26.4818 34.0651 27.6968 34.8076 28.0118 36.0226C28.0793 36.2701 27.9218 36.5176 27.6968 36.5626C27.6293 36.5851 27.5843 36.5851 27.5618 36.5851Z" fill="#020064"/>
<path d="M29.8799 44.5275C28.3049 44.5275 26.7524 43.83 25.7174 42.48C25.5599 42.2775 25.6049 42.0075 25.7849 41.85C25.9874 41.6925 26.2574 41.7375 26.4149 41.9175C27.8549 43.7625 30.4874 44.145 32.3999 42.795C32.6024 42.66 32.8949 42.705 33.0299 42.9075C33.1649 43.11 33.1199 43.4025 32.9174 43.5375C31.9949 44.2125 30.9374 44.5275 29.8799 44.5275Z" fill="#020064"/>
<path d="M31.5227 19.395C23.6027 18.225 19.4627 23.5125 18.5402 28.935L17.8652 33.5475C21.2852 34.0425 21.8702 30.105 21.8702 30.105C21.8702 30.105 29.5877 32.6025 35.4602 29.43C35.4602 29.43 37.7777 36.5175 43.0877 37.305L43.7627 32.6925C44.7077 26.055 43.6952 23.2425 37.1702 22.275C37.1702 22.2525 36.8102 20.1825 31.5227 19.395Z" fill="white"/>
<path d="M43.0641 37.7324C43.0416 37.7324 43.0191 37.7324 42.9966 37.7324C38.2491 37.0349 35.8191 31.7249 35.1891 30.0374C30.0816 32.5124 23.9616 31.1399 22.2066 30.6674C21.8016 32.2199 20.5416 34.4025 17.7966 33.9974C17.6841 33.9749 17.5716 33.9074 17.5041 33.8174C17.4366 33.7274 17.3916 33.5924 17.4141 33.4799L18.0891 28.8674C18.6066 25.8074 20.0241 23.1524 22.1166 21.3524C24.5691 19.2374 27.8541 18.4049 31.5891 18.9449C35.9091 19.5749 37.1466 21.0824 37.4841 21.8474C44.3466 22.9274 45.1116 26.2349 44.1891 32.7374L43.5141 37.3499C43.4691 37.5749 43.2891 37.7324 43.0641 37.7324ZM35.4366 28.9574C35.5041 28.9574 35.5491 28.9574 35.5941 28.9799C35.7291 29.025 35.8191 29.1374 35.8641 29.2499C35.8866 29.3174 38.0241 35.6849 42.7041 36.7424L43.3116 32.5799C44.1891 26.3699 43.5366 23.6249 37.1016 22.6799C36.9441 22.6574 36.8091 22.5449 36.7416 22.4099C36.7416 22.3874 36.7191 22.3424 36.7191 22.3199C36.6966 22.2299 36.1341 20.5199 31.4541 19.8224C26.5266 19.1024 20.3166 21.0599 18.9666 28.9799L18.3591 33.1199C18.3816 33.1199 18.4041 33.1199 18.4266 33.1199C20.9241 33.1199 21.3966 30.1499 21.3966 30.0149C21.4191 29.8799 21.4866 29.7674 21.5991 29.6999C21.7116 29.6324 21.8466 29.61 21.9816 29.6549C22.0491 29.6774 29.5866 32.0399 35.2116 29.0024C35.2791 28.9799 35.3466 28.9574 35.4366 28.9574Z" fill="#020064"/>
<path d="M26.5499 39.3525C26.4149 39.3525 26.3024 39.3525 26.1674 39.33C26.1674 39.33 26.1674 39.33 26.1449 39.33L22.5674 38.79C20.8574 38.4975 19.7099 36.9225 19.9574 35.2125L20.2949 33.0075C20.3624 32.6025 20.5649 32.2425 20.9024 31.995C21.2399 31.7475 21.6449 31.635 22.0499 31.7025L28.7099 32.6925C29.6774 32.8275 30.3524 33.75 30.2174 34.7175C30.2174 34.785 30.1949 34.8525 30.1724 34.92L29.6324 37.0125C29.2499 38.4075 27.9899 39.3525 26.5499 39.3525ZM26.2799 38.43C27.4274 38.565 28.4624 37.8675 28.7549 36.7425L29.2949 34.65C29.2949 34.6275 29.3174 34.5825 29.3174 34.56C29.3624 34.335 29.2949 34.0875 29.1599 33.9075C29.0249 33.7275 28.8224 33.5925 28.5749 33.57L21.9149 32.58C21.5549 32.535 21.2174 32.7825 21.1724 33.1425L20.8349 35.3475C20.6549 36.5625 21.4874 37.71 22.7024 37.9125L26.2799 38.43Z" fill="#020064"/>
<path d="M37.508 40.9725C37.373 40.9725 37.238 40.9725 37.103 40.95L33.5255 40.41C33.5255 40.41 33.5255 40.41 33.503 40.41C31.928 40.14 30.8255 38.7675 30.8705 37.17L30.9605 35.01C30.9605 34.9425 30.9605 34.875 30.983 34.8075C31.118 33.84 32.0405 33.165 33.008 33.3L39.668 34.29C39.713 34.29 39.7805 34.3125 39.8255 34.3125C40.208 34.4025 40.523 34.65 40.7255 34.965C40.928 35.3025 40.9955 35.685 40.9055 36.045L40.568 38.25C40.3655 39.8475 39.038 40.9725 37.508 40.9725ZM33.6605 39.5325L37.238 40.0725C38.4305 40.23 39.533 39.375 39.6905 38.1825V38.16L40.028 35.955C40.028 35.9325 40.028 35.9325 40.028 35.91C40.0955 35.595 39.9155 35.3025 39.6005 35.235C39.578 35.235 39.5555 35.235 39.533 35.2125L32.8505 34.2C32.378 34.1325 31.928 34.47 31.838 34.9425C31.838 34.965 31.838 35.01 31.838 35.0325L31.748 37.1925C31.7255 38.34 32.5355 39.33 33.6605 39.5325Z" fill="#020064"/>
<path d="M31.3868 36C31.3643 36 31.3418 36 31.3193 36L29.5643 35.73C29.3168 35.685 29.1593 35.46 29.1818 35.2125C29.2268 34.965 29.4518 34.8075 29.6993 34.83L31.4543 35.1C31.7018 35.145 31.8593 35.37 31.8368 35.6175C31.7918 35.8425 31.5893 36 31.3868 36Z" fill="#020064"/>
<path d="M68.243 5.51244C58.1405 6.00744 50.3555 14.5799 50.8505 24.6824C51.1205 30.3974 54.068 35.6624 58.7705 38.8799C58.163 41.5574 56.7905 43.9874 54.788 45.8774C54.5405 46.1024 54.5405 46.5074 54.7655 46.7549C54.9005 46.8899 55.058 46.9574 55.238 46.9349C61.268 46.5749 64.8005 44.5949 67.1855 42.0074C67.838 42.0749 68.468 42.1199 69.1205 42.1199C79.223 42.1199 87.4355 33.9299 87.4355 23.8274C87.4355 13.7249 79.2455 5.51244 69.143 5.51244C68.8505 5.48994 68.5355 5.51244 68.243 5.51244Z" fill="white"/>
<path d="M55.2143 47.385C54.9218 47.385 54.6518 47.2725 54.4493 47.07C54.2468 46.8675 54.1343 46.5975 54.1568 46.305C54.1568 46.0125 54.2693 45.765 54.4718 45.5625C56.3393 43.8075 57.6443 41.58 58.2518 39.0825C53.5943 35.775 50.6693 30.42 50.3768 24.705C50.1293 19.71 51.8618 14.895 55.2143 11.205C58.5668 7.515 63.2018 5.31 68.1968 5.085H68.2193C68.4893 5.0625 68.8043 5.0625 69.0968 5.0625C74.1143 5.0625 78.8168 7.02 82.3493 10.5525C85.8818 14.1075 87.8393 18.81 87.8393 23.8275C87.8393 34.1775 79.4243 42.57 69.0743 42.57C68.4893 42.57 67.9043 42.5475 67.3193 42.48C64.4843 45.4725 60.5243 47.07 55.2368 47.385C55.2593 47.385 55.2368 47.385 55.2143 47.385ZM68.2643 5.9625C63.4943 6.1875 59.1293 8.2575 55.9118 11.79C52.7168 15.3225 51.0743 19.89 51.2993 24.66C51.5693 30.195 54.4493 35.37 59.0393 38.52C59.1968 38.6325 59.2643 38.8125 59.2193 38.9925C58.5893 41.76 57.1718 44.2575 55.1018 46.215C55.0568 46.26 55.0568 46.305 55.0568 46.3275C55.0568 46.35 55.0568 46.395 55.1018 46.44C55.1243 46.485 55.1693 46.485 55.2368 46.485C60.4568 46.17 64.1693 44.6625 66.8693 41.6925C66.9593 41.58 67.0943 41.535 67.2518 41.5575C67.8818 41.625 68.5118 41.6475 69.1418 41.67C78.9968 41.67 87.0068 33.66 87.0068 23.8275C87.0068 19.0575 85.1618 14.58 81.7868 11.205C78.4118 7.83 73.9343 5.9625 69.1643 5.9625C68.8493 5.94 68.5568 5.9625 68.2643 5.9625Z" fill="#020064"/>
<path d="M69.0976 29.2725C67.8826 29.2725 66.8701 28.2825 66.8701 27.045V24.57C66.8701 23.355 67.8601 22.3425 69.0976 22.3425C71.2801 22.3425 73.0351 20.5875 73.0576 18.405C73.0576 16.2225 71.3026 14.4675 69.1201 14.445C66.9376 14.445 65.1826 16.2 65.1601 18.3825C65.1376 19.5975 64.1251 20.5875 62.8876 20.565C61.6951 20.5425 60.7276 19.575 60.7051 18.3825C60.7051 13.7475 64.4626 9.98999 69.0976 9.98999C73.7326 9.98999 77.4901 13.7475 77.4901 18.3825C77.4901 22.1625 74.9701 25.47 71.3251 26.46V27C71.3251 28.2825 70.3351 29.2725 69.0976 29.2725Z" fill="#B0D9FF"/>
<path d="M69.0973 29.7225C67.6348 29.7225 66.4198 28.53 66.4198 27.045V24.57C66.4198 23.1075 67.6123 21.8925 69.0973 21.8925C71.0323 21.8925 72.5848 20.3175 72.5848 18.405C72.5848 16.47 71.0098 14.9175 69.0973 14.895C67.1623 14.895 65.6098 16.47 65.6098 18.3825C65.5873 19.1025 65.2948 19.7775 64.7998 20.2725C64.2823 20.7675 63.6073 21.0375 62.8873 21.015C61.4473 20.9925 60.2998 19.845 60.2773 18.405C60.2773 16.0425 61.1998 13.815 62.8648 12.15C64.5298 10.485 66.7573 9.5625 69.1198 9.5625C71.4823 9.5625 73.7098 10.485 75.3748 12.15C77.0398 13.815 77.9623 16.0425 77.9623 18.405C77.9623 22.2525 75.4423 25.6725 71.7973 26.82V27.0225C71.7748 28.53 70.5823 29.7225 69.0973 29.7225ZM69.0973 22.815C68.1298 22.815 67.3198 23.6025 67.3198 24.5925V27.0675C67.3198 28.035 68.1073 28.845 69.0973 28.845C70.0648 28.845 70.8748 28.0575 70.8748 27.0675V26.5275C70.8748 26.325 71.0098 26.145 71.2123 26.1C74.6548 25.155 77.0398 22.005 77.0398 18.45C77.0398 16.335 76.2073 14.3325 74.7223 12.8475C73.2148 11.34 71.2348 10.53 69.1198 10.53C67.0048 10.53 65.0023 11.3625 63.5173 12.8475C62.0098 14.355 61.1998 16.335 61.1998 18.45C61.2223 19.395 61.9873 20.16 62.9323 20.1825C63.4048 20.1825 63.8548 20.025 64.1923 19.6875C64.5298 19.35 64.7323 18.9225 64.7323 18.45C64.7323 16.0425 66.7123 14.0625 69.1198 14.0625C71.5498 14.0625 73.5073 16.0425 73.5073 18.4725C73.5073 20.8575 71.5273 22.815 69.0973 22.815Z" fill="#020064"/>
<path d="M66.2617 33.84C66.2617 35.415 67.5217 36.675 69.0967 36.675C70.6717 36.675 71.9317 35.415 71.9317 33.84C71.9317 32.265 70.6717 31.005 69.0967 31.005C67.5217 31.005 66.2617 32.265 66.2617 33.84Z" fill="#B0D9FF"/>
<path d="M69.0975 37.1475C68.22 37.1475 67.3875 36.81 66.78 36.18C66.15 35.55 65.8125 34.74 65.8125 33.8625C65.8125 32.985 66.15 32.1525 66.78 31.545C67.41 30.915 68.22 30.5775 69.0975 30.5775C70.92 30.5775 72.3825 32.0625 72.3825 33.8625C72.3825 34.74 72.045 35.5725 71.415 36.2025C70.8075 36.7875 69.975 37.1475 69.0975 37.1475ZM69.0975 31.455C68.4675 31.455 67.86 31.7025 67.41 32.1525C66.96 32.6025 66.7125 33.21 66.7125 33.84C66.7125 34.47 66.96 35.0775 67.41 35.5275C67.86 35.9775 68.4675 36.225 69.0975 36.225C69.7275 36.225 70.335 35.9775 70.785 35.5275C71.235 35.0775 71.4825 34.47 71.4825 33.84C71.505 32.535 70.425 31.455 69.0975 31.455Z" fill="#020064"/>
</svg>
