<svg width="90" height="90" viewBox="0 0 90 90" fill="none" xmlns="http://www.w3.org/2000/svg">
<path d="M6.99805 45C6.99805 64.89 23.108 81 42.998 81C62.888 81 78.998 64.89 78.998 45C78.998 25.11 62.888 9 42.998 9C23.108 9 6.99805 25.11 6.99805 45Z" fill="#D9EDFF"/>
<path d="M22.2969 71.1901C22.2969 72.4726 28.5069 73.5076 36.1794 73.5076C43.8519 73.5076 50.0619 72.4726 50.0619 71.1901C50.0619 69.9076 43.8519 68.8726 36.1794 68.8726C28.5069 68.8726 22.2969 69.9076 22.2969 71.1901Z" fill="#B0D9FF"/>
<path d="M12.2617 28.3501H60.1867V62.5726H12.2617V28.3501Z" fill="#B0D9FF"/>
<path d="M60.1858 57.1499V59.0174C60.1858 60.9974 58.5883 62.5949 56.6083 62.5949H15.8158C13.8358 62.5949 12.2383 60.9974 12.2383 59.0174V57.1499H60.1858Z" fill="white"/>
<path d="M56.6091 63.045H15.8166C13.5891 63.045 11.7891 61.2449 11.7891 59.0174V57.15C11.7891 56.9025 11.9916 56.7 12.2391 56.7H60.1641C60.4116 56.7 60.6141 56.9025 60.6141 57.15V59.0174C60.6366 61.2224 58.8141 63.045 56.6091 63.045ZM12.7116 57.6V59.0174C12.7116 60.7499 14.1066 62.145 15.8391 62.145H56.6316C58.3416 62.145 59.7591 60.7499 59.7591 59.0174V57.6H12.7116Z" fill="#020064"/>
<path d="M37.2158 59.8275C37.1708 60.39 36.7208 60.84 36.1358 60.8625C35.5958 60.8175 35.1908 60.345 35.2358 59.805C35.2808 59.265 35.7533 58.86 36.2933 58.905C36.7883 58.9275 37.1933 59.3325 37.2158 59.8275Z" fill="#020064"/>
<path d="M60.1875 63.0449H12.2625C12.015 63.0449 11.8125 62.8424 11.8125 62.5949V28.3499C11.8125 28.1024 12.015 27.8999 12.2625 27.8999H60.1875C60.435 27.8999 60.6375 28.1024 60.6375 28.3499V62.5724C60.6375 62.8424 60.435 63.0449 60.1875 63.0449ZM12.7125 62.1449H59.7375V28.7999H12.7125V62.1449Z" fill="#020064"/>
<path d="M40.3199 68.0625H32.1074L32.7824 62.595H39.6224L40.3199 68.0625Z" fill="white"/>
<path d="M44.6398 69.255C44.9548 69.705 44.8423 70.3125 44.3923 70.6275C44.2348 70.74 44.0323 70.8075 43.8298 70.8075H28.6423C28.1023 70.8075 27.6523 70.3575 27.6523 69.8175C27.6523 69.615 27.7198 69.4125 27.8323 69.255C28.3498 68.5125 29.1823 68.0625 30.0823 68.0625H42.4123C43.2673 68.0625 44.1223 68.5125 44.6398 69.255Z" fill="white"/>
<path d="M28.6197 71.2576C28.2372 71.2576 27.8772 71.1 27.6072 70.83C27.3372 70.56 27.1797 70.2 27.1797 69.8175C27.1797 69.525 27.2697 69.2326 27.4272 68.9851C28.0122 68.1301 29.0022 67.6125 30.0372 67.6125H42.3672C43.4247 67.6125 44.3922 68.1301 44.9772 68.9851C45.4272 69.6376 45.2697 70.5375 44.6172 70.9875C44.3697 71.1675 44.0997 71.2351 43.7847 71.2351H28.6197C28.6197 71.2576 28.6197 71.2576 28.6197 71.2576ZM30.0597 68.5125C29.3172 68.5125 28.5972 68.8725 28.1697 69.5025C28.1022 69.5925 28.0797 69.705 28.0797 69.8175C28.0797 69.9525 28.1472 70.0875 28.2372 70.2C28.3272 70.3125 28.4622 70.3576 28.6197 70.3576H43.8072C43.9197 70.3576 44.0322 70.335 44.1222 70.2675C44.3697 70.0875 44.4372 69.75 44.2572 69.525C43.8297 68.895 43.1097 68.5351 42.3672 68.5351H30.0597V68.5125Z" fill="#020064"/>
<path d="M40.3206 68.5126H32.1081C31.9731 68.5126 31.8606 68.4676 31.7706 68.3551C31.6806 68.2651 31.6356 68.1301 31.6581 67.9951L32.3331 62.5276C32.3556 62.3026 32.5581 62.1226 32.7831 62.1226H39.6231C39.8481 62.1226 40.0506 62.3026 40.0731 62.5276L40.7481 67.9951C40.7706 68.1301 40.7256 68.2426 40.6356 68.3551C40.5681 68.4676 40.4556 68.5126 40.3206 68.5126ZM32.6256 67.6126H39.8256L39.2631 63.0451H33.2106L32.6256 67.6126Z" fill="#020064"/>
<path d="M64.5063 49.59H25.8513C24.4113 49.5675 23.2413 48.4425 23.1738 47.0025V18.4725L67.1388 18.4275V46.9575C67.1388 48.3975 65.9463 49.5675 64.5063 49.59Z" fill="white"/>
<path d="M64.5071 50.04H25.8521C24.1646 50.0175 22.7921 48.7125 22.7246 47.025V18.4725C22.7246 18.225 22.9271 18.0225 23.1746 18.0225L67.1396 17.9775C67.2521 17.9775 67.3646 18.0225 67.4546 18.1125C67.5446 18.2025 67.5896 18.315 67.5896 18.4275V46.9575C67.5896 48.645 66.1946 50.0175 64.5071 50.04ZM23.6021 18.9225V47.0025C23.6471 48.1725 24.6371 49.1175 25.8296 49.14H64.4846C65.6771 49.14 66.6671 48.15 66.6671 46.9575V18.8775L23.6021 18.9225Z" fill="#020064"/>
<path d="M67.1388 18.4049L23.1738 18.4724L23.2188 11.9699C23.2188 10.5074 24.3888 9.3374 25.8513 9.3374H64.5063C65.9688 9.3374 67.1388 10.5074 67.1388 11.9699V18.4049Z" fill="#B0D9FF"/>
<path d="M23.1746 18.9225C23.0621 18.9225 22.9496 18.8775 22.8596 18.7875C22.7696 18.6975 22.7246 18.585 22.7246 18.4725L22.7696 11.97C22.7696 10.2825 24.1646 8.88745 25.8521 8.88745H64.5071C66.1946 8.88745 67.5896 10.2825 67.5896 11.97V18.4275C67.5896 18.675 67.3871 18.8775 67.1396 18.8775L23.1746 18.9225ZM25.8521 9.78745C24.6596 9.78745 23.6696 10.7775 23.6696 11.97L23.6246 18.0225L66.6896 17.9775V11.97C66.6896 10.7775 65.6996 9.78745 64.5071 9.78745H25.8521Z" fill="#020064"/>
<path d="M26.2344 13.8825C26.2344 14.715 26.9094 15.39 27.7419 15.39C28.5744 15.39 29.2494 14.715 29.2494 13.8825C29.2494 13.05 28.5744 12.375 27.7419 12.375C26.9094 12.375 26.2344 13.0275 26.2344 13.8825C26.2344 13.86 26.2344 13.86 26.2344 13.8825Z" fill="white"/>
<path d="M27.7652 15.8401C27.2477 15.8401 26.7527 15.6376 26.3702 15.2551C25.9877 14.8726 25.7852 14.4001 25.7852 13.8601C25.7852 12.7801 26.6627 11.9026 27.7427 11.9026C28.8227 11.9026 29.7002 12.7801 29.7002 13.8601C29.7002 14.3776 29.4977 14.8726 29.1152 15.2551C28.7777 15.6376 28.2827 15.8401 27.7652 15.8401ZM27.7652 12.8026C27.1802 12.8026 26.7077 13.2751 26.7077 13.8601C26.7077 14.1526 26.8202 14.4226 27.0227 14.6026C27.2252 14.8051 27.4952 14.9176 27.7652 14.9176C28.0577 14.9176 28.3277 14.8051 28.5077 14.6026C28.7102 14.4001 28.8227 14.1301 28.8227 13.8601C28.8227 13.2751 28.3502 12.8026 27.7652 12.8026Z" fill="#020064"/>
<path d="M35.3262 13.8825C35.3037 14.7375 34.6287 15.435 33.7737 15.4575C32.9187 15.435 32.2437 14.7375 32.2662 13.905C32.2887 13.05 32.9862 12.375 33.8187 12.3975C34.6512 12.375 35.3262 13.05 35.3262 13.8825Z" fill="white"/>
<path d="M33.7734 15.8851C32.6484 15.8626 31.7709 14.9626 31.7934 13.8601C31.7934 13.3201 32.0184 12.8251 32.4009 12.4651C32.7834 12.1051 33.2784 11.9026 33.8184 11.9026C34.8984 11.9251 35.7534 12.7801 35.7759 13.8601V13.8826C35.7534 14.9851 34.8759 15.8626 33.7734 15.8851ZM33.7959 12.8026C33.5034 12.8026 33.2334 12.9151 33.0309 13.1176C32.8284 13.3201 32.6934 13.5901 32.6934 13.8826C32.6934 14.4901 33.1659 14.9851 33.7734 14.9851C34.3584 14.9626 34.8534 14.4901 34.8759 13.8601C34.8759 13.2751 34.4034 12.8251 33.7959 12.8026Z" fill="#020064"/>
<path d="M38.3613 13.8826C38.3613 14.7151 39.0363 15.3901 39.8688 15.3901C40.7013 15.3901 41.3763 14.7151 41.3763 13.8826C41.3763 13.0501 40.7013 12.3751 39.8688 12.3751C39.0363 12.3526 38.3613 13.0276 38.3613 13.8826Z" fill="white"/>
<path d="M39.8696 15.84C38.7896 15.84 37.9121 14.9625 37.9121 13.8825C37.9121 12.8025 38.7896 11.925 39.8696 11.925C40.9496 11.925 41.8271 12.8025 41.8271 13.8825C41.8271 14.9625 40.9496 15.84 39.8696 15.84ZM39.8696 12.8025C39.2846 12.8025 38.8121 13.275 38.8121 13.86C38.8121 14.445 39.2846 14.9175 39.8696 14.9175C40.4546 14.9175 40.9271 14.445 40.9271 13.86C40.9271 13.275 40.4546 12.8025 39.8696 12.8025Z" fill="#020064"/>
<path d="M50.1966 22.0274L50.9841 23.6249C51.0516 23.7599 51.1641 23.8499 51.3216 23.8724L53.0991 24.1199C53.3466 24.1649 53.5041 24.3674 53.4591 24.6149C53.4366 24.7049 53.3916 24.7949 53.3241 24.8624L52.0416 26.0999C51.9291 26.1899 51.8841 26.3474 51.9066 26.4824L52.1991 28.2374C52.2441 28.4849 52.0866 28.7099 51.8391 28.7324C51.7491 28.7549 51.6591 28.7324 51.5691 28.6874L49.9716 27.8549C49.8366 27.7874 49.7016 27.7874 49.5666 27.8549L47.9916 28.6874C47.7666 28.7999 47.5191 28.7099 47.4066 28.5074C47.3616 28.4174 47.3391 28.3274 47.3616 28.2374L47.6541 26.4824C47.6766 26.3474 47.6316 26.1899 47.5191 26.0999L46.2366 24.8624C46.0566 24.7049 46.0566 24.4124 46.2366 24.2549C46.3041 24.1874 46.3941 24.1424 46.4841 24.1199L48.2616 23.8724C48.3966 23.8499 48.5316 23.7599 48.5991 23.6249L49.3866 22.0274C49.4991 21.8024 49.7691 21.7349 49.9716 21.8474C50.0841 21.8924 50.1516 21.9599 50.1966 22.0274Z" fill="white"/>
<path d="M51.7948 29.2275C51.6598 29.2275 51.5248 29.205 51.3898 29.1375L49.7923 28.305L48.2173 29.1375C47.9923 29.25 47.7673 29.2725 47.5423 29.1825C47.3173 29.115 47.1373 28.9575 47.0248 28.7325C46.9348 28.5525 46.9123 28.3725 46.9348 28.1925L47.2273 26.4375L45.9448 25.2C45.5848 24.8625 45.5848 24.3 45.9223 23.94C46.0573 23.805 46.2373 23.715 46.4398 23.67L48.2173 23.4225L49.0048 21.825C49.2298 21.375 49.7698 21.2175 50.1973 21.4425C50.3548 21.5325 50.4898 21.6675 50.5798 21.825L51.3673 23.4225L53.1223 23.67C53.3473 23.715 53.5723 23.8275 53.7073 24.03C53.8423 24.21 53.9098 24.4575 53.8648 24.6825C53.8423 24.8625 53.7523 25.0425 53.6173 25.1775L52.3348 26.4375L52.6498 28.1925C52.7398 28.6875 52.4023 29.1375 51.9298 29.205C51.8848 29.2275 51.8398 29.2275 51.7948 29.2275ZM49.8148 27.405C49.9498 27.405 50.1073 27.4275 50.2198 27.495L51.7723 28.305L51.4798 26.5725C51.4348 26.28 51.5248 25.9875 51.7273 25.785L52.9873 24.5475L51.2548 24.3C50.9623 24.255 50.7148 24.075 50.5798 23.805L49.7923 22.23L49.0048 23.805C48.8698 24.075 48.6223 24.255 48.3298 24.3L46.5973 24.5475L47.8573 25.785C48.0598 25.9875 48.1723 26.28 48.1048 26.5725L47.8123 28.305L49.3648 27.495C49.5223 27.4275 49.6573 27.405 49.8148 27.405Z" fill="#020064"/>
<path d="M59.1291 22.0274L59.9166 23.6249C59.9841 23.7599 60.0966 23.8499 60.2541 23.8724L62.0316 24.1199C62.2791 24.1649 62.4366 24.3674 62.3916 24.6149C62.3691 24.7049 62.3241 24.7949 62.2566 24.8624L60.9741 26.0999C60.8616 26.1899 60.8166 26.3474 60.8391 26.4824L61.1316 28.2374C61.1766 28.4849 61.0191 28.7099 60.7716 28.7324C60.6816 28.7549 60.5916 28.7324 60.5016 28.6874L58.9266 27.8549C58.7916 27.7874 58.6566 27.7874 58.5216 27.8549L56.9466 28.6874C56.7216 28.7999 56.4741 28.7099 56.3616 28.5074C56.3166 28.4174 56.2941 28.3274 56.3166 28.2374L56.6091 26.4824C56.6316 26.3474 56.5866 26.1899 56.4741 26.0999L55.1916 24.8624C55.0116 24.6824 55.0116 24.4124 55.1916 24.2549C55.2591 24.1874 55.3491 24.1424 55.4391 24.1199L57.2166 23.8724C57.3516 23.8499 57.4866 23.7599 57.5541 23.6249L58.3416 22.0274C58.4541 21.8024 58.7241 21.7349 58.9266 21.8474C59.0166 21.8924 59.0841 21.9599 59.1291 22.0274Z" fill="white"/>
<path d="M60.7273 29.2275C60.5923 29.2275 60.4573 29.205 60.3223 29.1375L58.7248 28.305L57.1498 29.1375C56.6998 29.3625 56.1823 29.1825 55.9573 28.755C55.8673 28.575 55.8448 28.395 55.8673 28.215L56.1598 26.46L54.8998 25.2C54.5398 24.8625 54.5398 24.3 54.8773 23.94C55.0123 23.805 55.1923 23.715 55.3723 23.6925L57.1498 23.445L57.9373 21.8475C58.1623 21.3975 58.7023 21.24 59.1298 21.465C59.2873 21.555 59.4223 21.69 59.5123 21.8475L60.2998 23.445L62.0548 23.6925C62.5498 23.76 62.8648 24.21 62.7973 24.705C62.7748 24.9075 62.6848 25.065 62.5498 25.2L61.2673 26.4375L61.5823 28.1925C61.6273 28.4175 61.5598 28.665 61.4248 28.845C61.2898 29.0475 61.0873 29.16 60.8398 29.205C60.8173 29.2275 60.7723 29.2275 60.7273 29.2275ZM58.7473 27.405C58.8823 27.405 59.0398 27.4275 59.1523 27.495L60.7048 28.305L60.4123 26.5725C60.3673 26.28 60.4573 25.9875 60.6598 25.785L61.9198 24.5475L60.1873 24.3C59.8948 24.255 59.6473 24.075 59.5123 23.805L58.7248 22.23L57.9373 23.805C57.8023 24.075 57.5548 24.255 57.2623 24.3L55.5298 24.5475L56.7898 25.785C56.9923 25.9875 57.1048 26.28 57.0373 26.5725L56.7448 28.305L58.2973 27.495C58.4548 27.4275 58.5898 27.405 58.7473 27.405Z" fill="#020064"/>
<path d="M60.8849 35.2574H45.4949C45.2474 35.2574 45.0449 35.0549 45.0449 34.8074C45.0449 34.5599 45.2474 34.3574 45.4949 34.3574H60.8849C61.1324 34.3574 61.3349 34.5599 61.3349 34.8074C61.3349 35.0549 61.1324 35.2574 60.8849 35.2574Z" fill="#020064"/>
<path d="M60.8849 38.8351H45.4949C45.2474 38.8351 45.0449 38.6326 45.0449 38.3851C45.0449 38.1376 45.2474 37.9351 45.4949 37.9351H60.8849C61.1324 37.9351 61.3349 38.1376 61.3349 38.3851C61.3349 38.6326 61.1324 38.8351 60.8849 38.8351Z" fill="#020064"/>
<path d="M60.8849 42.4125H45.4949C45.2474 42.4125 45.0449 42.21 45.0449 41.9625C45.0449 41.715 45.2474 41.5125 45.4949 41.5125H60.8849C61.1324 41.5125 61.3349 41.715 61.3349 41.9625C61.3349 42.21 61.1324 42.4125 60.8849 42.4125Z" fill="#020064"/>
<path d="M31.4544 22.0274L32.2419 23.6249C32.3094 23.7599 32.4219 23.8499 32.5794 23.8724L34.3569 24.1199C34.6044 24.1649 34.7619 24.3674 34.7169 24.6149C34.6944 24.7049 34.6494 24.7949 34.5819 24.8624L33.2994 26.0999C33.1869 26.1899 33.1419 26.3474 33.1644 26.4824L33.4569 28.2374C33.5019 28.4849 33.3444 28.7099 33.0969 28.7324C33.0069 28.7549 32.9169 28.7324 32.8269 28.6874L31.2294 27.8549C31.0944 27.7874 30.9594 27.7874 30.8244 27.8549L29.2494 28.6874C29.0244 28.7999 28.7769 28.7099 28.6644 28.5074C28.6194 28.4174 28.5969 28.3274 28.6194 28.2374L28.9119 26.4824C28.9344 26.3474 28.8894 26.1899 28.7769 26.0999L27.4944 24.8624C27.3144 24.6824 27.3144 24.4124 27.4944 24.2549C27.5619 24.1874 27.6519 24.1424 27.7419 24.1199L29.5194 23.8724C29.6544 23.8499 29.7894 23.7599 29.8569 23.6249L30.6444 22.0274C30.7569 21.8024 31.0269 21.7349 31.2294 21.8249C31.3419 21.8699 31.4094 21.9374 31.4544 22.0274Z" fill="#B0D9FF"/>
<path d="M33.0526 29.2274C32.9176 29.2274 32.7826 29.2049 32.6476 29.1374L31.0501 28.3049L29.4751 29.1374C29.0476 29.3624 28.5076 29.1824 28.2826 28.7549C28.1926 28.5749 28.1701 28.3949 28.1926 28.1924L28.4851 26.4374L27.2251 25.1999C27.0451 25.0424 26.9551 24.8174 26.9551 24.5699C26.9551 24.3224 27.0451 24.1199 27.2026 23.9399C27.3376 23.8049 27.5176 23.7149 27.6976 23.6924L29.4751 23.4449L30.2626 21.8474C30.3751 21.6224 30.5551 21.4649 30.7801 21.3974C31.0051 21.3299 31.2526 21.3524 31.4551 21.4424C31.6351 21.5324 31.7701 21.6674 31.8376 21.8249L32.6251 23.4224L34.3801 23.6699C34.6051 23.6924 34.8301 23.8274 34.9651 24.0074C35.1001 24.1874 35.1676 24.4349 35.1226 24.6599C35.1001 24.8624 35.0101 25.0424 34.8526 25.1774L33.5701 26.4149L33.8851 28.1699C33.9751 28.6649 33.6376 29.1149 33.1651 29.1824C33.1426 29.2274 33.0976 29.2274 33.0526 29.2274ZM31.0501 27.4049C31.1851 27.4049 31.3426 27.4274 31.4551 27.4949L33.0076 28.3049L32.7151 26.5724C32.6701 26.2799 32.7601 25.9874 32.9626 25.7849L34.2226 24.5474L32.4901 24.2999C32.1976 24.2549 31.9501 24.0749 31.8151 23.8049L31.0276 22.2074L30.2626 23.8049C30.1276 24.0749 29.8801 24.2549 29.5876 24.2999L27.8551 24.5474L29.1151 25.7849C29.3176 25.9874 29.4301 26.2799 29.3626 26.5724L29.0701 28.3049L30.6226 27.4949C30.7801 27.4274 30.9151 27.4049 31.0501 27.4049Z" fill="#020064"/>
<path d="M40.8606 22.0276L41.6481 23.6251C41.7156 23.7601 41.8281 23.8501 41.9856 23.8726L43.7631 24.1201C44.0106 24.1651 44.1681 24.3676 44.1231 24.6151C44.1006 24.7051 44.0556 24.7951 43.9881 24.8626L42.7056 26.1001C42.5931 26.1901 42.5481 26.3476 42.5706 26.4826L42.8631 28.2376C42.9081 28.4851 42.7506 28.7101 42.5031 28.7326C42.4131 28.7551 42.3231 28.7326 42.2331 28.6876L40.6356 27.8551C40.5006 27.7876 40.3656 27.7876 40.2306 27.8551L38.6556 28.6876C38.4306 28.8001 38.1831 28.7101 38.0706 28.4851C38.0256 28.3951 38.0031 28.3051 38.0256 28.2151L38.3181 26.4601C38.3406 26.3251 38.2956 26.1676 38.1831 26.0776L36.9006 24.8401C36.7206 24.6601 36.7206 24.3901 36.9006 24.2326C36.9681 24.1651 37.0581 24.1201 37.1481 24.0976L38.9256 23.8501C39.0606 23.8276 39.1956 23.7376 39.2631 23.6026L40.0506 22.0051C40.1631 21.7801 40.4106 21.6901 40.6356 21.8026C40.7481 21.8701 40.8381 21.9376 40.8606 22.0276Z" fill="#B0D9FF"/>
<path d="M42.4569 29.2275C42.3219 29.2275 42.1869 29.205 42.0519 29.1375L40.4544 28.305L38.8794 29.1375C38.4294 29.3625 37.9119 29.1825 37.6869 28.755C37.5969 28.575 37.5744 28.395 37.5969 28.215L37.8894 26.46L36.6069 25.2225C36.2469 24.885 36.2469 24.3225 36.5844 23.9625C36.7194 23.8275 36.8994 23.7375 37.0794 23.715L38.8569 23.4675L39.6444 21.87C39.8694 21.4425 40.3869 21.24 40.8369 21.465C41.0169 21.555 41.1519 21.69 41.2419 21.87L42.0294 23.4675L43.7844 23.715C44.2794 23.7825 44.5944 24.2325 44.5269 24.7275C44.5044 24.9075 44.4144 25.0875 44.2794 25.2225L42.9969 26.4825L43.3119 28.2375C43.3569 28.485 43.2894 28.71 43.1544 28.9125C43.0194 29.115 42.8169 29.2275 42.5694 29.2725C42.5694 29.2275 42.5019 29.2275 42.4569 29.2275ZM40.4769 27.405C40.6119 27.405 40.7694 27.4275 40.8819 27.495L42.4344 28.305L42.1419 26.5725C42.0969 26.28 42.1869 25.9875 42.3894 25.785L43.6494 24.5475L41.9169 24.3C41.6244 24.255 41.3769 24.075 41.2419 23.805L40.4544 22.2075L39.6894 23.805C39.5544 24.075 39.3069 24.255 39.0144 24.3L37.2819 24.5475L38.5419 25.785C38.7444 25.9875 38.8569 26.28 38.7894 26.5725L38.4969 28.305L40.0494 27.495C40.1844 27.4275 40.3419 27.405 40.4769 27.405Z" fill="#020064"/>
<path d="M27.7656 33.7949H41.0856V42.9749H27.7656V33.7949Z" fill="#B0D9FF"/>
<path d="M41.0845 43.425H27.7645C27.517 43.425 27.3145 43.2225 27.3145 42.975V33.795C27.3145 33.5475 27.517 33.345 27.7645 33.345H41.0845C41.332 33.345 41.5345 33.5475 41.5345 33.795V42.975C41.5345 43.2225 41.332 43.425 41.0845 43.425ZM28.2145 42.525H40.6345V34.245H28.2145V42.525Z" fill="#020064"/>
<path d="M51.2559 62.2575C51.2559 71.0325 58.3659 78.1425 67.1184 78.1425C75.8709 78.1425 83.0034 71.0325 83.0034 62.28C83.0034 53.505 75.8934 46.395 67.1409 46.395C58.3884 46.395 51.2559 53.4825 51.2559 62.2575Z" fill="white"/>
<path d="M69.7731 60.6826C69.9756 58.5451 70.2681 53.9551 68.4906 53.9551C67.7706 53.9551 67.2081 54.5401 67.2081 55.2376V55.6651C67.2081 58.8151 65.8356 62.1001 63.2031 62.1001V68.6701H63.5406C65.1831 68.6701 65.9706 69.8176 68.9181 69.8176H73.9131C74.5431 69.8401 75.0606 69.3451 75.0831 68.7151C75.1056 68.0851 74.6106 67.5676 73.9806 67.5451C73.9581 67.5451 73.9356 67.5451 73.9131 67.5451H74.4756C75.1056 67.5226 75.6006 67.0051 75.5781 66.3751C75.5556 65.7676 75.0831 65.2726 74.4756 65.2726H75.0381C75.6681 65.2726 76.1856 64.7551 76.1856 64.1251C76.1856 63.4951 75.6681 62.9776 75.0381 62.9776H75.6006C76.2306 63.0001 76.7481 62.5051 76.7706 61.8751C76.7931 61.2451 76.2981 60.7276 75.6681 60.7051C75.6456 60.7051 75.6231 60.7051 75.6006 60.7051H69.7731V60.6826Z" fill="white"/>
<path d="M69.7733 61.1324H68.6258C68.3783 61.1324 68.1758 60.9299 68.1758 60.6824C68.1758 60.4349 68.3783 60.2324 68.6258 60.2324H69.7733C70.0208 60.2324 70.2233 60.4349 70.2233 60.6824C70.2233 60.9299 70.0208 61.1324 69.7733 61.1324Z" fill="#020064"/>
<path d="M73.9354 67.995H73.3504C73.1029 67.995 72.9004 67.7925 72.9004 67.545C72.9004 67.2975 73.1029 67.095 73.3504 67.095H73.9129C74.1604 67.095 74.3629 67.2975 74.3629 67.545C74.3629 67.7925 74.1829 67.995 73.9354 67.995Z" fill="#020064"/>
<path d="M74.4969 65.7225H73.9344C73.6869 65.7225 73.4844 65.52 73.4844 65.2725C73.4844 65.025 73.6869 64.8225 73.9344 64.8225H74.4969C74.7444 64.8225 74.9469 65.025 74.9469 65.2725C74.9469 65.52 74.7444 65.7225 74.4969 65.7225Z" fill="#020064"/>
<path d="M75.0828 63.4276H74.5203C74.2728 63.4276 74.0703 63.2251 74.0703 62.9776C74.0703 62.7301 74.2728 62.5276 74.5203 62.5276H75.0828C75.3303 62.5276 75.5328 62.7301 75.5328 62.9776C75.5328 63.2251 75.3303 63.4276 75.0828 63.4276Z" fill="#020064"/>
<path d="M73.957 70.2901C73.9345 70.2901 73.9345 70.2901 73.912 70.2901H68.917C67.1395 70.2901 66.082 69.8851 65.2495 69.5701C64.642 69.3451 64.147 69.1426 63.5395 69.1426H63.202C62.9545 69.1426 62.752 68.9401 62.752 68.6926V62.1226C62.752 61.8751 62.9545 61.6726 63.202 61.6726C65.5195 61.6726 66.757 58.5901 66.757 55.6876V55.2601C66.757 54.2926 67.5445 53.5276 68.4895 53.5276C68.8945 53.5276 69.2545 53.6851 69.5245 54.0001C70.312 54.8551 70.5595 56.9476 70.267 60.2551H75.6445C75.667 60.2551 75.6895 60.2551 75.712 60.2551C76.1395 60.2776 76.522 60.4351 76.8145 60.7501C77.107 61.0651 77.2645 61.4701 77.242 61.8976C77.2195 62.3251 77.062 62.7301 76.747 63.0226C76.6345 63.1351 76.522 63.2026 76.387 63.2926C76.5445 63.5401 76.657 63.8326 76.657 64.1701C76.657 64.5976 76.4995 65.0026 76.1845 65.2951C76.072 65.4076 75.937 65.5201 75.7795 65.5876C75.937 65.8351 76.027 66.1051 76.027 66.4201C76.0495 66.8476 75.892 67.2526 75.5995 67.5676C75.487 67.6801 75.3745 67.7701 75.2395 67.8601C75.442 68.1301 75.532 68.4676 75.532 68.8051C75.532 69.6151 74.812 70.2901 73.957 70.2901ZM63.652 68.2426C64.3945 68.2651 64.957 68.4901 65.587 68.7151C66.397 69.0301 67.3195 69.3901 68.9395 69.3901H73.9345C74.317 69.4126 74.6545 69.0976 74.6545 68.7151C74.6545 68.5351 74.587 68.3551 74.4745 68.2201C74.3395 68.0851 74.182 68.0176 74.002 67.9951H73.9345C73.687 67.9951 73.4845 67.7926 73.4845 67.5451C73.4845 67.2976 73.687 67.0951 73.9345 67.0951C73.957 67.0951 73.9795 67.0951 74.002 67.0951H74.497C74.677 67.0951 74.8345 67.0051 74.9695 66.8701C75.1045 66.7351 75.172 66.5551 75.1495 66.3751C75.1495 66.0151 74.8345 65.7001 74.4745 65.7001C74.227 65.7001 74.0245 65.4976 74.047 65.2501C74.0695 65.0026 74.2495 64.8001 74.497 64.8001H75.0595C75.2395 64.8001 75.4195 64.7326 75.5545 64.5976C75.6895 64.4626 75.757 64.2826 75.757 64.1026C75.757 63.7201 75.442 63.4051 75.0595 63.4051C74.812 63.4051 74.6095 63.2026 74.6095 62.9551C74.6095 62.7076 74.812 62.5051 75.0595 62.5051H75.622C75.8245 62.5051 76.0045 62.4376 76.1395 62.3251C76.2745 62.2126 76.342 62.0326 76.3645 61.8301C76.3645 61.6501 76.297 61.4701 76.1845 61.3351C76.0495 61.2001 75.892 61.1326 75.6895 61.1101H69.772C69.637 61.1101 69.5245 61.0651 69.4345 60.9526C69.3445 60.8626 69.2995 60.7276 69.322 60.6151C69.637 57.4426 69.4795 55.2376 68.8495 54.5626C68.737 54.4276 68.6245 54.3826 68.467 54.3826C67.9945 54.3826 67.6345 54.7651 67.6345 55.2151V55.6426C67.6345 58.8826 66.262 62.1676 63.6295 62.5051V68.2426H63.652Z" fill="#020064"/>
<path d="M57.4863 60.9749H63.2013V69.8399H57.4863V60.9749Z" fill="#B0D9FF"/>
<path d="M63.2021 70.2899H57.4871C57.2396 70.2899 57.0371 70.0874 57.0371 69.8399V60.9749C57.0371 60.7274 57.2396 60.5249 57.4871 60.5249H63.2021C63.4496 60.5249 63.6521 60.7274 63.6521 60.9749V69.8399C63.6521 70.0874 63.4496 70.2899 63.2021 70.2899ZM57.9371 69.3899H62.7521V61.4249H57.9371V69.3899Z" fill="#020064"/>
<path d="M67.1406 78.5926C62.7756 78.5926 58.6806 76.8826 55.5981 73.8001C52.5156 70.7176 50.8281 66.6226 50.8281 62.2576C50.8281 53.2576 58.1631 45.9451 67.1631 45.9451C71.5281 45.9451 75.6231 47.6551 78.7056 50.7376C81.7881 53.8201 83.4756 57.9151 83.4756 62.2801C83.4531 71.2801 76.1406 78.5926 67.1406 78.5926ZM67.1406 46.8451C58.6356 46.8451 51.7056 53.7526 51.7056 62.2576C51.7056 66.3751 53.3031 70.2451 56.2281 73.1701C59.1306 76.0951 63.0231 77.6926 67.1406 77.6926C75.6456 77.6926 82.5756 70.7851 82.5756 62.2801C82.5756 58.1626 80.9781 54.2701 78.0531 51.3676C75.1281 48.4426 71.2581 46.8451 67.1406 46.8451Z" fill="#020064"/>
</svg>
