<svg width="90" height="90" viewBox="0 0 90 90" fill="none" xmlns="http://www.w3.org/2000/svg">
<path d="M9 45C9 64.89 25.11 81 45 81C64.89 81 81 64.89 81 45C81 25.11 64.89 9 45 9C25.11 9 9 25.11 9 45Z" fill="#D9EDFF"/>
<path d="M34.875 28.7324C34.875 39.4424 43.56 48.1274 54.27 48.1499C64.98 48.1724 73.665 39.4649 73.6875 28.7549V28.7324C73.6875 18.0224 65.0025 9.33744 54.2925 9.31494C43.56 9.31494 34.875 17.9999 34.875 28.7324Z" fill="white"/>
<path d="M54.2708 48.5775C43.3133 48.5775 34.4258 39.6675 34.4258 28.71V28.6875C34.4258 23.3775 36.4958 18.405 40.2533 14.6475C44.0108 10.9125 48.9833 8.84253 54.2933 8.84253C59.6033 8.84253 64.5758 10.9125 68.3333 14.67C72.0908 18.4275 74.1383 23.4 74.1383 28.71C74.1158 39.69 65.2058 48.5775 54.2708 48.5775ZM54.2708 9.76503C49.2083 9.76503 44.4608 11.745 40.8833 15.3C37.3058 18.8775 35.3258 23.625 35.3258 28.6875L34.8758 28.71H35.3258C35.3258 39.15 43.8083 47.655 54.2708 47.6775C59.3333 47.6775 64.0808 45.6975 67.6583 42.1425C71.2358 38.565 73.2158 33.8175 73.2158 28.755C73.2158 18.27 64.7333 9.76503 54.2708 9.76503Z" fill="#020064"/>
<path d="M54.4711 43.4251C46.3486 43.3576 39.8236 36.7201 39.8911 28.6201C39.9586 20.5876 46.4386 14.1076 54.4711 14.0401C57.6886 14.0176 60.8386 15.0976 63.3811 17.0776L64.3486 16.1101C64.5961 15.8626 64.9561 15.7051 65.3161 15.7051C66.0586 15.7051 66.6661 16.3126 66.6661 17.0551V20.3851C66.6661 21.1276 66.0586 21.7351 65.3161 21.7351H61.9861C61.2436 21.7351 60.6361 21.1276 60.6361 20.3851C60.6361 20.0251 60.7711 19.6876 61.0411 19.4176L61.4686 18.9901C59.4436 17.5276 56.9911 16.7401 54.4936 16.7401C47.8786 16.7401 42.5236 22.0951 42.5236 28.7101C42.5236 35.3251 47.8786 40.6801 54.4936 40.6801C61.1086 40.6801 66.4636 35.3251 66.4636 28.7101C66.4861 27.9676 67.1161 27.3601 67.8586 27.3826C68.5786 27.4051 69.1636 27.9901 69.1861 28.7101C69.1636 36.8326 62.5936 43.4251 54.4711 43.4251Z" fill="#B0D9FF"/>
<path d="M54.4719 43.8751C46.1244 43.8076 39.3744 36.9676 39.4419 28.6201C39.4644 24.6151 41.0394 20.8576 43.8744 18.0226C46.7094 15.1876 50.4669 13.6126 54.4719 13.5901C54.4944 13.5901 54.5169 13.5901 54.5394 13.5901C57.6894 13.5901 60.8169 14.6026 63.3594 16.4701L64.0344 15.7951C64.3719 15.4576 64.8444 15.2551 65.3169 15.2551C65.3169 15.2551 65.3169 15.2551 65.3394 15.2551C65.8119 15.2551 66.2619 15.4351 66.5994 15.7726C66.9369 16.1101 67.1394 16.5601 67.1394 17.0551V20.3851C67.1394 21.3751 66.3294 22.1851 65.3394 22.1851H62.0094C61.5369 22.1851 61.0644 22.0051 60.7269 21.6451C60.3894 21.3076 60.1869 20.8576 60.1869 20.3626C60.1869 19.8901 60.3669 19.4176 60.7269 19.0801L60.7719 19.0351C58.9269 17.8201 56.7669 17.1676 54.5394 17.1676C54.5169 17.1676 54.5169 17.1676 54.4944 17.1676C48.1269 17.1676 42.9519 22.3426 42.9519 28.6876C42.9519 35.0551 48.1269 40.2076 54.4719 40.2076C60.8169 40.2076 65.9919 35.0326 65.9919 28.6876C66.0144 27.6751 66.8469 26.8876 67.8369 26.9101C68.8044 26.9326 69.5694 27.7201 69.5919 28.6651C69.6144 37.0801 62.8194 43.8751 54.4719 43.8751ZM54.5394 14.4901C54.5169 14.4901 54.4944 14.4901 54.4944 14.4901C50.7369 14.5126 47.2044 15.9976 44.5269 18.6526C41.8719 21.3076 40.3869 24.8626 40.3644 28.6201C40.2969 36.4726 46.6419 42.9076 54.4944 42.9751C62.3469 42.9751 68.7369 36.5851 68.7369 28.7326C68.7144 28.2601 68.3319 27.8776 67.8594 27.8551C67.3644 27.8326 66.9369 28.2376 66.9369 28.7326C66.9369 35.5726 61.3569 41.1526 54.5169 41.1526C47.6769 41.1526 42.0969 35.5726 42.0969 28.7326C42.0969 21.8701 47.6769 16.3126 54.5169 16.3126C54.5394 16.3126 54.5394 16.3126 54.5619 16.3126C57.1719 16.3126 59.6469 17.1226 61.7619 18.6526C61.8744 18.7201 61.9419 18.8551 61.9419 18.9901C61.9419 19.1251 61.8969 19.2601 61.8069 19.3501L61.3794 19.7776C61.1994 19.9576 61.1094 20.1826 61.1094 20.4301C61.1094 20.6776 61.1994 20.9026 61.3794 21.0826C61.5594 21.2626 61.7844 21.3526 62.0319 21.3526H65.3619C65.8569 21.3526 66.2619 20.9476 66.2619 20.4526V17.0551C66.2619 16.8076 66.1719 16.5826 65.9919 16.4026C65.8119 16.2226 65.5869 16.1326 65.3619 16.1326C65.1144 16.1326 64.8894 16.2226 64.7319 16.4026L63.7644 17.3701C63.6069 17.5276 63.3594 17.5501 63.1794 17.4151C60.6819 15.5251 57.6219 14.4901 54.5394 14.4901Z" fill="#020064"/>
<path d="M47.2051 34.83C46.3951 34.9425 45.6301 34.3575 45.5401 33.525C45.5401 33.4575 45.5176 33.39 45.5176 33.3225C45.5401 32.9175 45.6976 32.535 45.9901 32.2425C46.4176 31.7475 46.8451 31.2525 47.2951 30.7575C48.2176 29.745 49.0951 28.6875 49.9051 27.5625C50.1751 27.225 50.3551 26.7975 50.3776 26.3475C50.4001 25.9425 50.0851 25.605 49.6801 25.5825C49.1176 25.5825 48.9826 25.875 48.7351 26.64C48.5326 27.27 48.2626 28.1475 47.2051 28.1475C46.3501 28.1925 45.6526 27.54 45.6076 26.685C45.6076 26.64 45.6076 26.595 45.6076 26.5275C45.6751 24.2775 47.5201 22.5 49.7701 22.5C51.8176 22.365 53.5726 23.94 53.7076 25.9875C53.7076 26.0775 53.7076 26.145 53.7076 26.235C53.7076 28.125 52.1551 29.88 50.7826 31.4325C50.6701 31.5675 50.5351 31.7025 50.4226 31.8375H52.3351C53.1451 31.725 53.8876 32.31 54.0001 33.12C54.0001 33.1875 54.0226 33.255 54.0226 33.3225C54.0451 34.1325 53.4151 34.8075 52.6051 34.8075C52.5601 34.8075 52.4926 34.8075 52.4476 34.8075H47.2051V34.83Z" fill="#B0D9FF"/>
<path d="M47.0024 35.3025C46.5749 35.3025 46.1699 35.1675 45.8099 34.8975C45.4049 34.5825 45.1349 34.11 45.0674 33.615C45.0674 33.525 45.0449 33.435 45.0449 33.3675C45.0674 32.8275 45.2699 32.355 45.6299 31.9725C46.0799 31.455 46.5299 30.9375 46.9349 30.4875C47.8574 29.4975 48.7349 28.4175 49.5224 27.3375C49.7474 27.045 49.8824 26.7075 49.9049 26.3475C49.9049 26.2125 49.7924 26.0775 49.6574 26.055C49.4324 26.055 49.3874 26.0775 49.1624 26.775C48.9599 27.405 48.5999 28.5975 47.2049 28.5975C46.6874 28.62 46.1924 28.44 45.8099 28.08C45.4274 27.72 45.1799 27.2475 45.1574 26.7075C45.1574 26.64 45.1574 26.5725 45.1574 26.505C45.2249 24.0075 47.2499 22.05 49.7474 22.05C50.8499 21.9825 51.9074 22.3425 52.7399 23.085C53.5724 23.8275 54.0674 24.84 54.1349 25.9425C54.1349 26.0325 54.1349 26.1225 54.1349 26.2125C54.1349 28.125 52.7399 29.835 51.4124 31.365H52.3124C53.3699 31.2525 54.3149 31.995 54.4499 33.0525C54.4499 33.1425 54.4724 33.2325 54.4724 33.3C54.4949 33.795 54.2924 34.2675 53.9549 34.65C53.5949 35.01 53.1224 35.235 52.6274 35.235C52.5599 35.235 52.4924 35.235 52.4249 35.235H47.2049C47.1599 35.3025 47.0699 35.3025 47.0024 35.3025ZM49.6799 25.155H49.7024C50.3549 25.2 50.8499 25.74 50.8049 26.3925C50.7599 26.9325 50.5574 27.45 50.2424 27.855C49.4324 28.9575 48.5549 30.06 47.6099 31.0725C47.2274 31.5 46.7549 32.0175 46.3274 32.535C46.3274 32.535 46.3274 32.5575 46.3049 32.5575C46.1024 32.7825 45.9674 33.075 45.9674 33.3675C45.9674 33.39 45.9674 33.435 45.9674 33.48C46.0124 33.75 46.1474 33.9975 46.3724 34.1775C46.5974 34.3575 46.8674 34.425 47.1374 34.38C47.1599 34.38 47.1824 34.38 47.1824 34.38H52.4474C52.4699 34.38 52.4699 34.38 52.4924 34.38C52.5374 34.38 52.5599 34.38 52.6049 34.38C52.8749 34.38 53.1224 34.2675 53.3024 34.065C53.4824 33.8625 53.5949 33.615 53.5724 33.345C53.5724 33.2775 53.5724 33.2325 53.5724 33.1875C53.5049 32.625 52.9874 32.22 52.4024 32.2875C52.3799 32.2875 52.3574 32.2875 52.3349 32.2875H50.4224C50.2424 32.2875 50.0849 32.175 50.0174 32.0175C49.9499 31.86 49.9724 31.68 50.0849 31.545C50.1524 31.455 50.2199 31.3875 50.3099 31.2975L50.4449 31.14C51.7499 29.655 53.2574 27.945 53.2574 26.235C53.2574 26.1675 53.2574 26.0775 53.2574 26.01C53.2124 25.1325 52.8074 24.345 52.1549 23.76C51.5024 23.175 50.6699 22.905 49.7924 22.95H49.7699C49.7699 22.95 49.7699 22.95 49.7474 22.95C47.7224 22.95 46.1024 24.525 46.0574 26.55C46.0574 26.595 46.0574 26.6175 46.0574 26.6625C46.0799 26.955 46.1924 27.225 46.4174 27.405C46.6424 27.6075 46.9124 27.6975 47.2049 27.675C47.9024 27.675 48.1049 27.2025 48.3074 26.4825C48.5099 25.8525 48.7349 25.155 49.6799 25.155Z" fill="#020064"/>
<path d="M60.0523 34.9199C59.3323 34.9199 58.4773 34.6274 58.4773 33.2324V32.3324H55.1248C54.3373 32.3999 53.6398 31.7924 53.5723 31.0049C53.5723 30.9824 53.5723 30.9599 53.5723 30.9374C53.5723 30.6224 53.6623 30.3074 53.8423 30.0374L57.3748 23.6249C57.7348 22.8599 58.5448 22.4099 59.3773 22.4774C60.6148 22.4549 61.6273 23.4449 61.6498 24.6824C61.6498 24.7724 61.6498 24.8624 61.6498 24.9524V29.3624C62.4598 29.4299 63.0898 30.1499 63.0223 30.9599C62.9548 31.6799 62.3923 32.2649 61.6498 32.3324V33.2324C61.6498 34.6499 60.7948 34.9199 60.0523 34.9199ZM58.4773 29.3849V27.3374L57.4873 29.3849H58.4773Z" fill="#B0D9FF"/>
<path d="M60.053 35.3699C58.7705 35.3699 58.028 34.6049 58.028 33.2324V32.7824H55.148C54.113 32.8499 53.213 32.0849 53.123 31.0499C53.123 31.0274 53.123 31.0049 53.123 30.9824C53.123 30.5549 53.2355 30.1724 53.4605 29.8349L56.993 23.4449C57.443 22.5449 58.388 21.9824 59.4005 22.0499H59.423C60.1205 22.0499 60.7955 22.3199 61.2905 22.8149C61.808 23.3099 62.1005 23.9849 62.1005 24.7049C62.1005 24.7949 62.1005 24.9074 62.1005 24.9974V29.0249C62.4605 29.1374 62.753 29.3399 63.0005 29.6099C63.338 29.9924 63.4955 30.5099 63.4505 31.0274C63.383 31.8374 62.843 32.5124 62.078 32.7374V33.2774C62.1005 34.6049 61.358 35.3699 60.053 35.3699ZM55.1255 31.9049H58.478C58.7255 31.9049 58.928 32.1074 58.928 32.3549V33.2549C58.928 34.1099 59.288 34.4924 60.053 34.4924C60.8405 34.4924 61.2005 34.1099 61.2005 33.2549V32.3549C61.2005 32.1299 61.3805 31.9274 61.6055 31.9049C62.123 31.8599 62.528 31.4549 62.5505 30.9599C62.573 30.6899 62.483 30.4199 62.303 30.2174C62.123 30.0149 61.8755 29.8799 61.6055 29.8574C61.3805 29.8349 61.2005 29.6549 61.2005 29.4074V24.9974C61.2005 24.9749 61.2005 24.9749 61.2005 24.9524C61.2005 24.8849 61.2005 24.8174 61.2005 24.7499C61.2005 24.2774 60.998 23.8274 60.6605 23.4899C60.323 23.1524 59.873 22.9724 59.378 22.9949C59.3555 22.9949 59.3555 22.9949 59.333 22.9949C58.6805 22.9499 58.0505 23.3099 57.7805 23.8949C57.7805 23.8949 57.7805 23.9174 57.758 23.9174L54.2255 30.3299C54.2255 30.3524 54.203 30.3524 54.203 30.3524C54.068 30.5549 54.0005 30.7574 54.0005 31.0049V31.0274C54.0455 31.5674 54.518 31.9724 55.058 31.9274C55.103 31.9049 55.1255 31.9049 55.1255 31.9049ZM58.478 29.8349H57.488C57.3305 29.8349 57.1955 29.7449 57.1055 29.6324C57.0155 29.4974 57.0155 29.3399 57.083 29.2049L58.073 27.1574C58.163 26.9774 58.3655 26.8649 58.568 26.9099C58.7705 26.9549 58.928 27.1349 58.928 27.3374V29.3849C58.928 29.6324 58.7255 29.8349 58.478 29.8349Z" fill="#020064"/>
<path d="M53.5052 71.7524C53.5052 70.7624 47.5427 69.9524 40.2077 69.9524C32.8727 69.9524 26.9102 70.7624 26.9102 71.7524C26.9102 72.7424 32.8727 73.5524 40.2077 73.5524C47.5427 73.5524 53.5052 72.7424 53.5052 71.7524Z" fill="#B0D9FF"/>
<path d="M14.7141 36.225C14.8491 34.92 15.4341 33.7275 16.3791 32.8275L19.5066 29.8125C20.6091 28.62 22.4766 28.53 23.6691 29.6325C23.7591 29.7225 23.8266 29.79 23.9166 29.88C24.7716 30.69 25.5366 31.5675 26.3916 32.445L28.7991 34.92C30.0141 35.955 30.1716 37.7775 29.1366 39.015C29.0016 39.1725 28.8666 39.285 28.7316 39.42C27.6966 40.4325 26.7291 41.4225 25.6041 42.3675C25.3566 42.5475 25.2891 42.885 25.4241 43.155C26.0991 44.7525 26.9991 46.26 28.0566 47.655C30.1491 50.4225 32.7141 52.83 35.6166 54.7425C36.2466 55.1475 36.9891 55.44 37.5966 55.845C37.8666 56.0475 38.2716 55.98 38.4741 55.71L41.5791 52.695C42.6366 51.5025 44.4591 51.3675 45.6516 52.425C45.7641 52.5375 45.8766 52.65 45.9891 52.7625L50.8716 57.8025C52.0866 58.905 52.1766 60.795 51.0741 62.01C50.9841 62.1 50.8941 62.19 50.7816 62.28C49.8591 63.2475 48.8241 64.1025 47.9466 65.115C46.7091 66.42 44.9091 67.0725 43.1091 66.8475C40.4991 66.555 38.0016 65.7675 35.7066 64.485C30.4866 61.8525 25.8966 58.14 22.2291 53.595C19.4391 50.265 17.2566 46.5075 15.7716 42.435C14.9616 40.4325 14.5791 38.34 14.7141 36.225Z" fill="#B0D9FF"/>
<path d="M50.8721 57.7575L45.9896 52.7175C44.9771 51.48 43.1546 51.3 41.9171 52.3125C41.8046 52.4025 41.6921 52.515 41.5796 52.6275L40.1621 54L49.4096 63.5625C49.8821 63.135 50.3321 62.685 50.7821 62.235C52.0421 61.1775 52.1996 59.2875 51.1421 58.0275C51.0521 57.9375 50.9621 57.8475 50.8721 57.7575Z" fill="white"/>
<path d="M49.4107 64.2151L39.5332 54.0001L41.2657 52.3351C41.3782 52.2001 41.5132 52.0876 41.6482 51.9751C43.0657 50.8051 45.1582 51.0076 46.3507 52.4251L51.2107 57.4426C51.3232 57.5326 51.4132 57.6451 51.5257 57.7576C52.7407 59.1976 52.5607 61.3576 51.1432 62.5726C50.7382 63.0001 50.3107 63.3826 49.9057 63.7651L49.4107 64.2151ZM40.8157 54.0226L49.4332 62.9551C49.7707 62.6176 50.1307 62.2801 50.4682 61.9426L50.5132 61.9201C51.0307 61.4926 51.3457 60.8626 51.3907 60.2101C51.4582 59.5351 51.2332 58.8826 50.8057 58.3651C50.7382 58.2751 50.6482 58.2076 50.5807 58.1176L50.5582 58.0951L45.6532 53.0326C44.7982 51.9976 43.2457 51.8401 42.2107 52.6951C42.1207 52.7851 42.0082 52.8751 41.9182 52.9651L41.8957 52.9876L40.8157 54.0226Z" fill="#020064"/>
<path d="M43.8522 67.2975C43.6047 67.2975 43.3347 67.275 43.0872 67.2525C40.4097 66.96 37.8672 66.15 35.5272 64.8225C30.2397 62.1675 25.6497 58.455 21.9372 53.82C19.1247 50.4675 16.9197 46.665 15.4122 42.5475C14.5572 40.545 14.1747 38.3625 14.3097 36.2025C14.3097 36.2025 14.3097 36.2025 14.3097 36.18C14.4447 34.785 15.0972 33.4575 16.1097 32.49L19.2147 29.4975C20.4747 28.125 22.6347 28.035 24.0072 29.295C24.0972 29.385 24.1872 29.475 24.2772 29.565C24.8397 30.0825 25.3347 30.6225 25.8747 31.185C26.1672 31.5 26.4597 31.7925 26.7522 32.1075L29.1372 34.5825C29.8122 35.1675 30.2172 35.955 30.2847 36.855C30.3522 37.755 30.0822 38.61 29.4972 39.285C29.3622 39.4425 29.2047 39.6 29.0472 39.735C28.7997 39.9825 28.5522 40.23 28.3047 40.4775C27.5622 41.22 26.7747 41.985 25.9197 42.6825C25.9197 42.6825 25.8972 42.6825 25.8972 42.705C25.8297 42.75 25.8072 42.84 25.8522 42.9075C25.8522 42.93 25.8747 42.93 25.8747 42.9525C26.5497 44.5275 27.4047 45.99 28.4622 47.34C30.5322 50.085 33.0522 52.425 35.9097 54.3375C36.2022 54.5175 36.5172 54.6975 36.8547 54.855C37.1922 55.035 37.5522 55.215 37.8897 55.4175C37.9797 55.485 38.0922 55.4625 38.1597 55.395C38.1822 55.3725 38.1822 55.35 38.2047 55.35L41.3097 52.3575C41.8947 51.705 42.7047 51.3 43.6047 51.2325C44.5047 51.1875 45.3597 51.4575 46.0347 52.065C46.1697 52.1775 46.2822 52.3125 46.3947 52.4475L51.2547 57.465C52.6497 58.725 52.7397 60.9075 51.4797 62.3025C51.3897 62.415 51.2772 62.505 51.1647 62.595C50.7597 63.0225 50.3547 63.405 49.9497 63.7875C49.4097 64.305 48.8472 64.8225 48.3747 65.385C47.1372 66.6 45.5172 67.2975 43.8522 67.2975ZM15.1647 36.2475C15.0297 38.2725 15.3897 40.32 16.1997 42.1875V42.21C17.6847 46.2375 19.8222 49.95 22.5897 53.235C26.2347 57.78 30.7122 61.4025 35.9097 64.0125C38.1597 65.2725 40.5897 66.06 43.1547 66.33C44.8197 66.5325 46.4622 65.9475 47.6097 64.7325C48.1272 64.1475 48.6897 63.6075 49.2522 63.09C49.6572 62.7075 50.0847 62.3025 50.4672 61.8975C50.4672 61.875 50.4897 61.875 50.5122 61.875C50.6022 61.8075 50.6697 61.7175 50.7597 61.65C51.2097 61.155 51.4347 60.5025 51.4122 59.8275C51.3897 59.1525 51.0747 58.5225 50.5797 58.0725L50.5572 58.05L45.6747 53.0325L45.6522 53.01C45.5622 52.8975 45.4722 52.8075 45.3822 52.7175C44.8872 52.29 44.2572 52.065 43.6047 52.11C42.9522 52.155 42.3672 52.4475 41.9172 52.9425L41.8947 52.965L38.8122 55.9575C38.4522 56.4075 37.8222 56.4975 37.3497 56.16C37.0797 55.98 36.7422 55.8225 36.4047 55.6425C36.0672 55.4625 35.7072 55.2825 35.3697 55.08C32.4222 53.1225 29.8347 50.715 27.6972 47.88C26.6172 46.485 25.7172 44.955 25.0197 43.3125C24.7947 42.8625 24.9072 42.3 25.3122 41.985C26.1222 41.31 26.8647 40.59 27.6297 39.825C27.8772 39.5775 28.1472 39.33 28.3947 39.0825L28.4172 39.06C28.5522 38.97 28.6647 38.835 28.7772 38.7225C29.2047 38.2275 29.4072 37.5975 29.3397 36.945C29.2947 36.2925 28.9797 35.7075 28.4847 35.28C28.4622 35.28 28.4622 35.2575 28.4622 35.2575L26.0547 32.7825C25.7397 32.4675 25.4472 32.1525 25.1547 31.8375C24.6147 31.275 24.1197 30.735 23.5797 30.24C23.5572 30.24 23.5572 30.2175 23.5572 30.195C23.4897 30.1275 23.4222 30.0375 23.3547 29.9925C22.3422 29.07 20.7447 29.1375 19.8222 30.15L19.7997 30.1725L16.6722 33.1875C15.8397 33.975 15.2997 35.0775 15.1647 36.2475Z" fill="#020064"/>
<path d="M18.0918 31.185L19.5093 29.8125C20.6118 28.62 22.4793 28.53 23.6718 29.6325C23.7618 29.7225 23.8293 29.79 23.9193 29.88C24.7743 30.69 25.5393 31.5675 26.3943 32.445L28.8018 34.92C30.0168 35.955 30.1743 37.7775 29.1393 39.015C29.0043 39.1725 28.8693 39.285 28.7343 39.42C28.2618 39.87 27.8343 40.32 27.3618 40.7475L18.0918 31.185Z" fill="white"/>
<path d="M27.3384 41.3775L17.4609 31.1625L19.1934 29.4975C20.4534 28.125 22.6134 28.035 23.9859 29.295C24.0759 29.385 24.1659 29.475 24.2559 29.565C24.8184 30.0825 25.3134 30.6225 25.8534 31.185C26.1459 31.5 26.4384 31.7925 26.7309 32.1075L29.1159 34.5825C29.7909 35.1675 30.1959 35.955 30.2634 36.855C30.3309 37.755 30.0609 38.61 29.4759 39.285C29.3409 39.4425 29.1834 39.6 29.0259 39.735C28.7784 39.9825 28.5309 40.23 28.2834 40.4775C28.0809 40.68 27.8784 40.86 27.6984 41.0625L27.3384 41.3775ZM18.7434 31.185L27.3609 40.095C27.4509 40.005 27.5409 39.915 27.6309 39.825C27.8784 39.5775 28.1484 39.33 28.3959 39.06L28.4409 39.0375C28.5759 38.9475 28.6884 38.8125 28.8009 38.7C29.2284 38.205 29.4309 37.575 29.3634 36.9225C29.3184 36.27 29.0034 35.685 28.5084 35.2575L28.4859 35.235L26.0784 32.76C25.7634 32.445 25.4709 32.13 25.1784 31.815C24.6384 31.2525 24.1434 30.7125 23.6034 30.2175L23.5809 30.1725C23.5134 30.105 23.4459 30.015 23.3784 29.97C22.3659 29.0475 20.7684 29.115 19.8459 30.1275L19.8234 30.15L18.7434 31.185Z" fill="#020064"/>
</svg>
