<svg width="90" height="90" viewBox="0 0 90 90" fill="none" xmlns="http://www.w3.org/2000/svg">
<path d="M9 47.925C9 67.815 25.11 83.925 45 83.925C64.89 83.925 81 67.815 81 47.925C81 28.035 64.89 11.925 45 11.925C25.11 11.925 9 28.035 9 47.925Z" fill="#D9EDFF"/>
<path opacity="0.15" d="M19.7773 74.2051C19.7773 75.0601 31.0498 75.7576 44.9323 75.7576C58.8148 75.7576 70.0873 75.0601 70.0873 74.2051C70.0873 73.3501 58.8148 72.6526 44.9323 72.6526C31.0498 72.6526 19.7773 73.3501 19.7773 74.2051Z" fill="#020064"/>
<path d="M45.8997 45.54C44.7297 47.2725 43.9197 49.23 43.5147 51.3H40.2072C39.5322 51.3 38.9922 51.84 38.9922 52.515V56.1375C38.9922 56.8125 39.5322 57.3525 40.2072 57.3525H43.5147C43.9197 59.4225 44.7297 61.3575 45.8997 63.1125L43.5597 65.4525C43.0872 65.925 43.0872 66.69 43.5597 67.1625L46.1247 69.7275C46.5972 70.2 47.3622 70.2 47.8347 69.7275L50.1747 67.3875C51.9072 68.5575 53.8647 69.3675 55.9347 69.7725V73.08C55.9347 73.755 56.4747 74.295 57.1497 74.295H60.7722C61.4472 74.295 61.9872 73.755 61.9872 73.08V69.75C64.0347 69.345 65.9922 68.535 67.7472 67.365L70.0872 69.705C70.5597 70.1775 71.3247 70.1775 71.7972 69.705L74.3622 67.14C74.8347 66.6675 74.8347 65.9025 74.3622 65.43L72.0222 63.09C73.1922 61.3575 74.0022 59.4 74.4072 57.33H77.7147C78.3897 57.33 78.9297 56.79 78.9297 56.115V52.4925C78.9297 51.8175 78.3897 51.2775 77.7147 51.2775H74.4072C74.0022 49.23 73.1922 47.2725 72.0222 45.5175L74.3622 43.1775C74.8347 42.705 74.8347 41.94 74.3622 41.4675L71.7972 38.9025C71.3247 38.43 70.5597 38.43 70.0872 38.9025L67.7247 41.2425C65.9922 40.0725 64.0347 39.2625 61.9647 38.8575V35.55C61.9647 34.875 61.4247 34.335 60.7497 34.335H57.1272C56.4522 34.335 55.9122 34.875 55.9122 35.55V38.8575C53.8647 39.2625 51.9072 40.0725 50.1522 41.2425M58.9497 63.3825C53.9322 63.3825 49.8822 59.31 49.8822 54.315C49.8822 49.32 53.9322 45.225 58.9497 45.225C63.9672 45.225 68.0172 49.2975 68.0172 54.2925C68.0397 59.3325 63.9672 63.3825 58.9497 63.3825Z" fill="white"/>
<path d="M58.9502 63.8324C56.4077 63.8324 54.0002 62.8424 52.2002 61.0424C50.4002 59.2424 49.4102 56.8574 49.4102 54.2924C49.4102 51.7499 50.4002 49.3424 52.2002 47.5424C54.0002 45.7424 56.3852 44.7524 58.9502 44.7524C64.2152 44.7524 68.4902 49.0274 68.4902 54.2924C68.4902 59.5574 64.2152 63.8324 58.9502 63.8324ZM58.9502 62.9324C63.6977 62.9324 67.5677 59.0624 67.5677 54.3149C67.5677 49.5674 63.6977 45.6974 58.9502 45.6974C56.6552 45.6974 54.4727 46.5974 52.8527 48.2174C51.2327 49.8374 50.3327 52.0199 50.3327 54.3149C50.3327 56.6099 51.2327 58.7924 52.8527 60.4124C54.4727 62.0324 56.6552 62.9324 58.9502 62.9324Z" fill="#020064"/>
<path d="M60.772 74.745H57.1495C56.227 74.745 55.4845 74.0025 55.4845 73.08V70.1325C53.617 69.7275 51.862 68.985 50.242 67.95L48.1495 70.0425C47.497 70.695 46.4395 70.695 45.787 70.0425L43.222 67.4775C42.5695 66.825 42.5695 65.7675 43.222 65.115L45.3145 63.0225C44.2795 61.4025 43.5595 59.6475 43.132 57.78H40.1845C39.262 57.78 38.5195 57.0375 38.5195 56.115V52.4925C38.5195 51.57 39.262 50.8275 40.1845 50.8275H43.132C43.5595 48.825 44.3695 46.98 45.517 45.27C45.5395 45.2475 45.562 45.225 45.562 45.2025L49.837 40.9275C49.8595 40.905 49.882 40.8825 49.9045 40.8825C51.592 39.735 53.4595 38.9475 55.462 38.4975V35.55C55.462 34.6275 56.2045 33.885 57.127 33.885H60.7495C61.672 33.885 62.4145 34.6275 62.4145 35.55V38.4975C64.282 38.9025 66.037 39.645 67.657 40.68L69.7495 38.5875C70.402 37.935 71.4595 37.935 72.112 38.5875L74.677 41.1525C75.3295 41.805 75.3295 42.8625 74.677 43.515L72.5845 45.6075C73.6195 47.2275 74.3395 48.9825 74.767 50.85H77.7145C78.637 50.85 79.3795 51.5925 79.3795 52.515V56.1375C79.3795 57.06 78.637 57.8025 77.7145 57.8025H74.767C74.362 59.67 73.6195 61.425 72.5845 63.045L74.677 65.1375C75.3295 65.79 75.3295 66.8475 74.677 67.5L72.112 70.065C71.4595 70.7175 70.402 70.7175 69.7495 70.065L67.657 67.9725C66.037 69.0075 64.282 69.7275 62.4145 70.155V73.1025C62.437 73.98 61.6945 74.745 60.772 74.745ZM50.1745 66.915C50.2645 66.915 50.3545 66.9375 50.422 66.9825C52.1095 68.13 53.9995 68.895 56.002 69.3C56.2045 69.345 56.362 69.525 56.362 69.75V73.0575C56.362 73.485 56.6995 73.8225 57.127 73.8225H60.7495C61.177 73.8225 61.5145 73.485 61.5145 73.0575V69.75C61.5145 69.525 61.672 69.345 61.8745 69.3C63.877 68.9175 65.767 68.13 67.4545 66.9825C67.6345 66.87 67.882 66.8925 68.0395 67.0275L70.3795 69.3675C70.672 69.66 71.1445 69.66 71.437 69.3675L74.002 66.8025C74.2945 66.51 74.2945 66.0375 74.002 65.745L71.662 63.405C71.5045 63.2475 71.482 63 71.617 62.82C72.7645 61.1325 73.5295 59.2425 73.9345 57.24C73.9795 57.0375 74.1595 56.88 74.3845 56.88H77.692C78.1195 56.88 78.457 56.5425 78.457 56.115V52.4925C78.457 52.065 78.1195 51.7275 77.692 51.7275H74.3845C74.1595 51.7275 73.9795 51.57 73.9345 51.3675C73.552 49.365 72.7645 47.475 71.617 45.7875C71.5045 45.6075 71.527 45.36 71.662 45.2025L74.002 42.8625C74.2945 42.57 74.2945 42.0975 74.002 41.805L71.437 39.24C71.1445 38.9475 70.672 38.9475 70.3795 39.24L68.0395 41.58C67.882 41.7375 67.6345 41.76 67.4545 41.625C65.767 40.4775 63.877 39.7125 61.8745 39.3075C61.672 39.2625 61.5145 39.0825 61.5145 38.8575V35.55C61.5145 35.1225 61.177 34.785 60.7495 34.785H57.127C56.6995 34.785 56.362 35.1225 56.362 35.55V38.8575C56.362 39.0825 56.2045 39.2625 56.002 39.3075C53.9995 39.69 52.132 40.4775 50.4445 41.6025L46.237 45.81C45.112 47.4975 44.3245 49.365 43.942 51.3675C43.897 51.57 43.717 51.7275 43.492 51.7275H40.1845C39.757 51.7275 39.4195 52.065 39.4195 52.4925V56.115C39.4195 56.5425 39.757 56.88 40.1845 56.88H43.492C43.717 56.88 43.897 57.0375 43.942 57.24C44.3245 59.2425 45.112 61.1325 46.2595 62.82C46.372 63 46.3495 63.2475 46.2145 63.405L43.8745 65.7675C43.582 66.06 43.582 66.5325 43.8745 66.825L46.4395 69.39C46.732 69.6825 47.2045 69.6825 47.497 69.39L49.837 67.05C49.927 66.96 50.062 66.915 50.1745 66.915ZM58.9495 63.8325C56.407 63.8325 53.9995 62.8425 52.1995 61.0425C50.3995 59.2425 49.4095 56.8575 49.4095 54.2925C49.4095 51.75 50.3995 49.3425 52.1995 47.5425C53.9995 45.7425 56.3845 44.7525 58.9495 44.7525C64.2145 44.7525 68.4895 49.0275 68.4895 54.2925C68.4895 59.5575 64.2145 63.8325 58.9495 63.8325ZM58.9495 62.9325C63.697 62.9325 67.567 59.0625 67.567 54.315C67.567 49.5675 63.697 45.6975 58.9495 45.6975C56.6545 45.6975 54.472 46.5975 52.852 48.2175C51.232 49.8375 50.332 52.02 50.332 54.315C50.332 56.61 51.232 58.7925 52.852 60.4125C54.472 62.0325 56.6545 62.9325 58.9495 62.9325Z" fill="#020064"/>
<path d="M42.9293 40.8826H46.2143C45.7643 38.9476 44.7068 37.2376 43.1993 35.9551C42.6818 35.5276 41.9168 35.5951 41.4893 36.0901C41.3093 36.3151 41.1968 36.5851 41.1968 36.8776L40.5893 51.3226H24.8618L25.4693 36.5401C25.4693 35.8651 24.9293 35.3251 24.2543 35.3251C23.9618 35.3251 23.6918 35.4376 23.4668 35.6176C22.6343 36.3151 21.9818 37.1926 21.5318 38.1826C19.9118 41.6701 20.9243 45.8101 23.9618 48.1501L24.0293 48.2176C24.4793 48.5776 24.5693 49.2076 24.2093 49.6576L22.4993 51.8401C22.1393 52.2901 21.5093 52.3801 21.0593 52.0201L20.9918 51.9526C16.1768 48.2176 14.5793 41.6701 17.1443 36.1351C19.1693 31.7476 23.5568 28.9351 28.3943 28.9351H37.2593C43.9643 28.9351 49.7243 33.7051 51.0068 40.2751C51.4793 42.7501 49.8593 45.1576 47.3843 45.6301C47.0918 45.6751 46.7993 45.7201 46.5068 45.7201H43.0418" fill="#B0D9FF"/>
<path d="M26.9321 63.225L24.8846 51.3H40.6121L40.1396 60.705C40.0496 62.64 38.8121 64.3275 36.9896 65.0025L26.1446 69.03L23.8496 64.8226L26.9321 63.225Z" fill="white"/>
<path d="M21.7116 52.6724C21.3966 52.6724 21.0591 52.5599 20.7891 52.3574L20.7216 52.2899C15.7041 48.4199 14.0616 41.6924 16.7391 35.9324C18.8316 31.4099 23.3991 28.4624 28.3941 28.4624H37.2591C44.1666 28.4624 50.1291 33.3899 51.4566 40.1624C51.7041 41.4899 51.4341 42.8174 50.6916 43.9199C49.9491 45.0224 48.8016 45.7874 47.4741 46.0349C47.1591 46.1024 46.8441 46.1249 46.5291 46.1249H43.0641C42.8166 46.1249 42.6141 45.9224 42.6141 45.6749C42.6141 45.4274 42.8166 45.2249 43.0641 45.2249H46.5291C46.7991 45.2249 47.0466 45.2024 47.3166 45.1574C48.3966 44.9549 49.3191 44.3249 49.9491 43.4249C50.5566 42.5249 50.7816 41.4224 50.5791 40.3424C49.3416 33.9974 43.7391 29.3849 37.2816 29.3624H28.4166C23.7816 29.3624 19.5291 32.1074 17.5716 36.3149C15.0741 41.6699 16.6041 47.9474 21.2841 51.5699L21.3516 51.6374C21.5991 51.8399 21.9591 51.7949 22.1616 51.5249L23.8716 49.3424C24.0741 49.0949 24.0291 48.7349 23.7816 48.5324L23.7141 48.4874C20.4966 45.9899 19.4391 41.6699 21.1491 37.9574C21.6216 36.9224 22.3416 35.9774 23.2191 35.2349C23.5116 34.9874 23.8941 34.8299 24.2991 34.8299C24.7491 34.8299 25.1541 35.0099 25.4691 35.3249C25.7841 35.6399 25.9641 36.0674 25.9641 36.4949L25.3791 50.8274H40.1841L40.7691 36.8324C40.7691 36.4499 40.9041 36.0674 41.1516 35.7749C41.4441 35.4374 41.8491 35.2349 42.2766 35.1899C42.7266 35.1449 43.1541 35.3024 43.4916 35.5724C45.0666 36.8999 46.1916 38.7449 46.6641 40.7474C46.6866 40.8824 46.6641 41.0174 46.5741 41.1299C46.4841 41.2424 46.3491 41.3099 46.2141 41.3099H42.9291C42.6816 41.3099 42.4791 41.1074 42.4791 40.8599C42.4791 40.6124 42.6816 40.4099 42.9291 40.4099H45.6291C45.1341 38.8124 44.1891 37.3499 42.9066 36.2699C42.7491 36.1349 42.5466 36.0674 42.3666 36.0899C42.1641 36.1124 41.9841 36.2024 41.8491 36.3599C41.7366 36.4949 41.6691 36.6749 41.6691 36.8549L41.0616 51.3224C41.0616 51.5699 40.8591 51.7499 40.6116 51.7499H24.8841C24.7716 51.7499 24.6366 51.7049 24.5466 51.6149C24.4566 51.5249 24.4116 51.4124 24.4116 51.2774L24.4566 50.0624L22.8591 52.1099C22.5891 52.4924 22.1616 52.6724 21.7116 52.6724ZM24.2766 35.7524C24.0966 35.7524 23.9166 35.8199 23.7816 35.9324C23.0166 36.5849 22.3866 37.4174 21.9591 38.3399C20.4291 41.6474 21.3741 45.5174 24.2541 47.7674L24.3216 47.8349C24.4116 47.9024 24.4791 47.9699 24.5466 48.0599L25.0191 36.4949C25.0191 36.0899 24.6816 35.7524 24.2766 35.7524Z" fill="#020064"/>
<path d="M26.9316 63.2249L31.4316 60.9074C32.2416 60.5024 32.7366 59.6699 32.7366 58.7699V57.8699" fill="white"/>
<path d="M26.9319 63.675C26.7744 63.675 26.6169 63.585 26.5269 63.4275C26.4144 63.2025 26.5044 62.9325 26.7294 62.82L31.2294 60.5025C31.8819 60.165 32.2869 59.49 32.2869 58.7475V57.8475C32.2869 57.6 32.4894 57.3975 32.7369 57.3975C32.9844 57.3975 33.1869 57.6 33.1869 57.8475V58.7475C33.1869 59.8275 32.6019 60.795 31.6344 61.29L27.1344 63.6075C27.0669 63.675 26.9994 63.675 26.9319 63.675Z" fill="#020064"/>
<path d="M26.1442 69.4801C25.9867 69.4801 25.8292 69.3901 25.7392 69.2326L23.4667 65.0251C23.3992 64.9126 23.3992 64.8001 23.4217 64.6651C23.4667 64.5526 23.5342 64.4401 23.6467 64.3951L26.4142 62.9551L24.4342 51.3676C24.4117 51.2326 24.4567 51.0976 24.5242 51.0076C24.6142 50.8951 24.7267 50.8501 24.8617 50.8501H40.5892C40.7242 50.8501 40.8367 50.8951 40.9267 50.9851C41.0167 51.0751 41.0617 51.1876 41.0617 51.3226L40.5892 60.7276C40.4767 62.8426 39.1267 64.6876 37.1467 65.4301L26.3017 69.4576C26.2567 69.4801 26.1892 69.4801 26.1442 69.4801ZM24.4792 65.0026L26.3467 68.4676L36.8092 64.5976C38.4517 63.9901 39.5767 62.4601 39.6667 60.7051L40.1167 51.7726H25.4242L27.3817 63.1576C27.4042 63.3601 27.3142 63.5401 27.1342 63.6301L24.4792 65.0026Z" fill="#020064"/>
<path d="M33.3671 66.3525L33.9746 72.5175C33.9521 73.17 33.4121 73.6875 32.7596 73.6875H29.6996C29.0471 73.6875 28.5071 73.1925 28.4846 72.54L27.7871 68.4225L33.3671 66.3525Z" fill="white"/>
<path d="M29.7002 74.1375C28.8227 74.1375 28.1027 73.4625 28.0577 72.585L27.3602 68.5125C27.3152 68.2875 27.4502 68.085 27.6527 68.0175L33.2327 65.9475C33.3677 65.9025 33.5027 65.9025 33.6377 65.9925C33.7502 66.06 33.8402 66.195 33.8402 66.33L34.4252 72.45C34.4252 72.4725 34.4252 72.495 34.4252 72.5175C34.4027 73.4175 33.6602 74.1375 32.7602 74.1375H29.7002ZM28.3052 68.715L28.9577 72.45C28.9577 72.4725 28.9577 72.495 28.9577 72.5175C28.9802 72.9225 29.2952 73.2375 29.7002 73.2375H32.7602C33.1652 73.2375 33.4802 72.9225 33.5027 72.54L32.9627 67.005L28.3052 68.715Z" fill="#020064"/>
<path d="M33.3458 43.2226C33.1433 43.2226 32.9633 43.0876 32.9183 42.8851L29.1833 29.0476C29.1158 28.8001 29.2508 28.5526 29.4983 28.4851C29.7458 28.4176 29.9933 28.5526 30.0608 28.8001L33.3683 41.0176L36.6758 28.8001C36.7433 28.5526 36.9908 28.4176 37.2383 28.4851C37.4858 28.5526 37.6208 28.8001 37.5533 29.0476L33.8183 42.8851C33.7283 43.0876 33.5483 43.2226 33.3458 43.2226Z" fill="#020064"/>
<path d="M34.178 73.665C34.853 73.665 35.393 73.125 35.393 72.4725C35.393 72.27 35.348 72.09 35.258 71.91C34.628 70.7625 33.413 70.0425 32.0855 70.0425H31.478C30.1505 70.0425 28.9355 70.7625 28.3055 71.91C28.013 72.495 28.238 73.2375 28.823 73.53C29.003 73.62 29.183 73.665 29.3855 73.665H34.178Z" fill="#B0D9FF"/>
<path d="M29.385 74.1375C29.1375 74.1375 28.8675 74.07 28.6425 73.9575C27.8325 73.5525 27.495 72.54 27.9225 71.73C28.6425 70.425 30.015 69.615 31.5 69.615H32.1075C33.5925 69.615 34.965 70.425 35.685 71.73C35.82 71.9775 35.865 72.2475 35.865 72.5175C35.865 73.4175 35.1225 74.16 34.2 74.16C34.2 74.16 34.2 74.16 34.1775 74.16L29.385 74.1375ZM34.1775 73.215C34.38 73.215 34.5825 73.1475 34.7175 72.99C34.8525 72.855 34.9425 72.6525 34.9425 72.45C34.9425 72.3375 34.92 72.2025 34.8525 72.09C34.29 71.1 33.2325 70.47 32.085 70.47H31.4775C30.33 70.47 29.25 71.1 28.71 72.1125C28.62 72.27 28.62 72.4725 28.665 72.675C28.7325 72.855 28.8675 73.0125 29.0475 73.1025C29.16 73.1475 29.2725 73.1925 29.4075 73.1925H34.1775V73.215Z" fill="#020064"/>
<path d="M26.3688 50.3098C27.3138 51.0073 27.4938 52.3348 26.7963 53.2798C26.0988 54.2248 24.7713 54.4048 23.8263 53.7073C23.8038 53.6848 23.7813 53.6848 23.7588 53.6623L22.0938 52.3798L24.7038 49.0273L26.3688 50.3098Z" fill="white"/>
<path d="M25.1095 54.5849C24.5695 54.5849 24.0295 54.4274 23.5795 54.0674C23.557 54.0449 23.5345 54.0224 23.4895 53.9999L21.8245 52.7174C21.7345 52.6499 21.667 52.5374 21.6445 52.4249C21.622 52.3124 21.667 52.1774 21.7345 52.0874L24.3445 48.7349C24.412 48.6449 24.5245 48.5774 24.637 48.5549C24.7495 48.5324 24.8845 48.5774 24.9745 48.6449L26.6395 49.9499C27.7645 50.8049 28.012 52.4024 27.157 53.5499C26.662 54.2249 25.897 54.5849 25.1095 54.5849ZM22.747 52.2899L24.052 53.3024C24.0745 53.3249 24.097 53.3474 24.1195 53.3474C24.862 53.8874 25.897 53.7524 26.437 53.0099C26.977 52.2674 26.842 51.2324 26.0995 50.6924L24.7945 49.6799L22.747 52.2899Z" fill="#020064"/>
<path d="M43.0633 45.7201H41.3983C40.8358 45.7201 40.3633 45.2476 40.3633 44.6851V41.9176C40.3633 41.3551 40.8358 40.8826 41.3983 40.8826H42.9058" fill="#B0D9FF"/>
<path d="M41.3991 46.1701C40.9941 46.1701 40.6341 46.0126 40.3416 45.7426C40.0716 45.4726 39.9141 45.0901 39.9141 44.6851V41.9176C39.9141 41.1076 40.5891 40.4326 41.3991 40.4326H42.9066C43.1541 40.4326 43.3566 40.6351 43.3566 40.8826C43.3566 41.1301 43.1541 41.3326 42.9066 41.3326H41.3991C41.0841 41.3326 40.8141 41.6026 40.8141 41.9176V44.6851C40.8141 44.8426 40.8816 44.9776 40.9941 45.0901C41.1066 45.2026 41.2416 45.2701 41.3991 45.2701H43.0641C43.3116 45.2701 43.5141 45.4726 43.5141 45.7201C43.5141 45.9676 43.3116 46.1701 43.0641 46.1701H41.3991Z" fill="#020064"/>
<path d="M29.3166 28.9348H28.3941C27.8991 28.9348 27.4266 28.9573 26.9316 29.0248L29.2266 34.5373C29.4741 35.1448 30.1941 35.4373 30.8016 35.1898C30.9366 35.1223 31.0716 35.0323 31.1841 34.9198L33.5241 32.5798L29.3166 28.9348Z" fill="white"/>
<path d="M30.3525 35.7299C30.1275 35.7299 29.925 35.6849 29.7225 35.5949C29.3175 35.4149 28.98 35.0999 28.8225 34.6949L26.5275 29.1824C26.4825 29.0474 26.4825 28.9124 26.55 28.7774C26.6175 28.6424 26.7525 28.5749 26.8875 28.5524C27.3825 28.4849 27.9 28.4624 28.395 28.4624H29.3175C29.4525 28.4624 29.565 28.5074 29.6325 28.5974L33.84 32.1974C33.93 32.2874 33.9975 32.3999 33.9975 32.5349C33.9975 32.6699 33.9525 32.7824 33.8625 32.8724L31.5225 35.2124C31.365 35.3699 31.185 35.4824 30.9825 35.5724C30.78 35.6849 30.555 35.7299 30.3525 35.7299ZM27.585 29.4074L29.6325 34.3349C29.7 34.5149 29.8575 34.6724 30.0375 34.7399C30.2175 34.8074 30.42 34.8074 30.6225 34.7399C30.7125 34.6949 30.8025 34.6499 30.87 34.5824L32.8725 32.5799L29.1375 29.3849H28.395C28.125 29.3849 27.855 29.4074 27.585 29.4074Z" fill="#020064"/>
<path d="M40.0729 29.2275C39.3079 29.07 38.5429 28.98 37.7779 28.9575L33.5254 32.58L35.8654 34.965C36.3379 35.4375 37.1029 35.4375 37.5754 34.965C37.6879 34.8525 37.7779 34.7175 37.8454 34.5825L40.0729 29.2275Z" fill="white"/>
<path d="M36.7427 35.7526C36.2927 35.7526 35.8877 35.5726 35.5727 35.2576L33.2327 32.8726C33.1427 32.7826 33.0977 32.6701 33.0977 32.5351C33.0977 32.4001 33.1652 32.2876 33.2552 32.2201L37.5077 28.5976C37.5977 28.5301 37.7102 28.4851 37.8227 28.4851C38.6102 28.5076 39.4202 28.6201 40.1852 28.7776C40.3202 28.8001 40.4327 28.8901 40.5002 29.0026C40.5677 29.1151 40.5677 29.2726 40.5227 29.3851L38.2952 34.7176C38.2052 34.9201 38.0927 35.1001 37.9352 35.2576C37.5977 35.5726 37.1927 35.7526 36.7427 35.7526ZM34.2227 32.5801L36.2252 34.6051C36.3602 34.7401 36.5627 34.8301 36.7652 34.8301C36.9677 34.8301 37.1477 34.7626 37.3052 34.6051C37.3727 34.5376 37.4402 34.4476 37.4627 34.3576L39.4652 29.5426C38.9702 29.4526 38.4752 29.4076 37.9802 29.3851L34.2227 32.5801Z" fill="#020064"/>
<path d="M37.0339 28.935C36.5389 28.935 36.1339 28.53 36.1339 28.035V23.355H30.9139V28.035C30.9139 28.53 30.5089 28.935 30.0139 28.935H29.3164L33.5464 32.5575L37.7989 28.935C37.7089 28.935 37.3714 28.935 37.0339 28.935Z" fill="white"/>
<path d="M33.5473 33.0075C33.4348 33.0075 33.3448 32.9625 33.2548 32.895L29.0248 29.2725C28.8898 29.16 28.8223 28.9575 28.8898 28.7775C28.9573 28.5975 29.1148 28.485 29.3173 28.485H30.0148C30.2623 28.485 30.4648 28.2825 30.4648 28.035V23.355C30.4648 23.1075 30.6673 22.905 30.9148 22.905H36.1348C36.2473 22.905 36.3598 22.95 36.4498 23.04C36.5398 23.13 36.5848 23.2425 36.5848 23.355V28.035C36.5848 28.2825 36.7873 28.485 37.0348 28.485C37.5298 28.485 37.7323 28.485 37.8223 28.485C38.0023 28.5075 38.1598 28.62 38.2273 28.8C38.2948 28.98 38.2273 29.16 38.0923 29.295L33.8398 32.9175C33.7498 32.985 33.6373 33.0075 33.5473 33.0075ZM30.4423 29.3175L33.5248 31.9725L36.6073 29.34C36.0448 29.16 35.6398 28.665 35.6398 28.035V23.805H31.3198V28.035C31.3648 28.62 30.9823 29.1375 30.4423 29.3175Z" fill="#020064"/>
<path d="M30.2852 42.075H36.4277V48.87H30.2852V42.075Z" fill="white"/>
<path d="M36.405 49.3425H30.2625C30.015 49.3425 29.8125 49.14 29.8125 48.8925V42.075C29.8125 41.8275 30.015 41.625 30.2625 41.625H36.405C36.6525 41.625 36.855 41.8275 36.855 42.075V48.87C36.855 49.14 36.6525 49.3425 36.405 49.3425ZM30.735 48.42H35.955V42.525H30.735V48.42Z" fill="#020064"/>
<path d="M32.084 43.8975H34.604V47.0925H32.084V43.8975Z" fill="#B0D9FF"/>
<path d="M34.6048 47.52H32.0848C31.8373 47.52 31.6348 47.3175 31.6348 47.07V43.875C31.6348 43.6275 31.8373 43.425 32.0848 43.425H34.6048C34.8523 43.425 35.0548 43.6275 35.0548 43.875V47.07C35.0548 47.3175 34.8523 47.52 34.6048 47.52ZM32.5348 46.62H34.1548V44.3476H32.5348V46.62Z" fill="#020064"/>
<path d="M38.7895 41.2877C37.6195 41.2427 36.652 42.1652 36.607 43.3352C36.562 44.5052 37.4845 45.4727 38.6545 45.5177C38.6995 45.5177 38.7445 45.5177 38.767 45.5177H40.8595V41.2877H38.7895Z" fill="white"/>
<path d="M38.744 45.9676C38.7215 45.9676 38.699 45.9676 38.6765 45.9676C37.259 45.9226 36.134 44.7301 36.179 43.3351C36.2015 42.6601 36.494 42.0076 36.989 41.5351C37.484 41.0626 38.1365 40.8151 38.8115 40.8376H40.904C41.1515 40.8376 41.354 41.0401 41.354 41.2876V45.5176C41.354 45.7651 41.1515 45.9676 40.904 45.9676H38.8115C38.789 45.9676 38.7665 45.9676 38.744 45.9676ZM38.744 41.7376C38.3165 41.7376 37.9115 41.8951 37.5965 42.1876C37.2815 42.5026 37.079 42.9076 37.079 43.3576C37.0565 44.2801 37.7765 45.0451 38.699 45.0676C38.7215 45.0676 38.7665 45.0676 38.789 45.0676H40.454V41.7376H38.8115C38.8115 41.7376 38.8115 41.7376 38.789 41.7376C38.7665 41.7376 38.744 41.7376 38.744 41.7376Z" fill="#020064"/>
<path d="M25.3353 71.9099C25.4703 72.1574 25.7628 72.2474 26.0103 72.1124C26.0328 72.0899 26.0553 72.0899 26.0778 72.0674C27.8328 70.7174 27.4953 68.2649 26.5053 66.4424L24.9753 63.6299L22.8603 64.7774C22.2753 65.0924 22.0503 65.8349 22.3653 66.4199L25.3353 71.9099Z" fill="#B0D9FF"/>
<path d="M25.7849 72.6299C25.6949 72.6299 25.6049 72.6074 25.5149 72.5849C25.2674 72.5174 25.0649 72.3599 24.9524 72.1349L21.9824 66.6449C21.7799 66.2624 21.7349 65.8124 21.8474 65.3849C21.9824 64.9574 22.2524 64.5974 22.6574 64.3949L24.7724 63.2474C24.8849 63.1799 24.9974 63.1799 25.1099 63.2024C25.2224 63.2474 25.3124 63.3149 25.3799 63.4274L26.9099 66.2399C28.5524 69.2549 27.6299 71.4599 26.3474 72.4499C26.3024 72.4724 26.2574 72.5174 26.2124 72.5399C26.0774 72.5849 25.9199 72.6299 25.7849 72.6299ZM25.7399 71.7074C25.7399 71.7299 25.7849 71.7299 25.7849 71.7299C27.3824 70.5149 26.9549 68.2424 26.0999 66.6674L24.7949 64.2599L23.0624 65.2049C22.8824 65.2949 22.7474 65.4524 22.7024 65.6549C22.6349 65.8574 22.6574 66.0599 22.7699 66.2399L25.7399 71.7074Z" fill="#020064"/>
<path d="M42.0078 20.7674C42.0078 20.0474 41.4903 19.4624 40.7928 19.3274V18.3599C40.8378 14.3549 37.6203 11.0699 33.6153 11.0249C29.6103 10.9799 26.3253 14.1974 26.2803 18.2024C26.2803 18.2474 26.2803 18.3149 26.2803 18.3599V19.3274C25.4703 19.4849 24.9528 20.2499 25.0878 21.0599C25.2003 21.7124 25.7628 22.2074 26.4153 22.2749C27.2253 26.1899 31.0728 28.7099 34.9878 27.8999C37.8228 27.3149 40.0278 25.1099 40.6128 22.2749C41.4003 22.1849 42.0078 21.5549 42.0078 20.7674Z" fill="white"/>
<path d="M33.5248 28.4849C32.0398 28.4849 30.5773 28.0574 29.3173 27.2249C27.6748 26.1449 26.5273 24.5474 26.0548 22.6574C25.3348 22.4774 24.7948 21.8924 24.6373 21.1499C24.4573 20.2274 24.9748 19.3499 25.8073 19.0124V18.3824C25.8073 18.3374 25.8073 18.2699 25.8073 18.2249C25.8298 16.1774 26.6623 14.2424 28.1248 12.8024C29.5873 11.3624 31.5448 10.5749 33.5923 10.5974C37.8448 10.6424 41.2648 14.1524 41.2198 18.3824V19.0124C41.9398 19.3049 42.4123 20.0024 42.4348 20.7899C42.4348 21.6899 41.8273 22.4324 40.9948 22.6574C40.2748 25.5149 38.0023 27.7199 35.0773 28.3274C34.5823 28.4399 34.0423 28.4849 33.5248 28.4849ZM33.5248 11.4749C29.8123 11.4749 26.7748 14.4674 26.7298 18.2024C26.7298 18.2474 26.7298 18.2924 26.7298 18.3599V19.3274C26.7298 19.5524 26.5723 19.7324 26.3698 19.7774C25.8073 19.8899 25.4473 20.4074 25.5373 20.9699C25.6273 21.4199 26.0098 21.7574 26.4598 21.8024C26.6623 21.8249 26.8198 21.9599 26.8648 22.1624C27.2248 23.9399 28.2823 25.4699 29.7898 26.4599C31.3198 27.4499 33.1198 27.8099 34.8973 27.4274C37.5523 26.8649 39.6223 24.7949 40.1623 22.1624C40.2073 21.9599 40.3648 21.8249 40.5673 21.8024C41.1073 21.7574 41.5123 21.3074 41.5123 20.7674C41.5123 20.2724 41.1523 19.8449 40.6798 19.7549C40.4548 19.7099 40.3198 19.5299 40.3198 19.3049V18.3374C40.3648 14.5799 37.3498 11.4974 33.5923 11.4524C33.5923 11.4749 33.5698 11.4749 33.5248 11.4749Z" fill="#020064"/>
<path d="M28.7109 21.69C28.7109 22.185 29.1159 22.59 29.6109 22.59C30.1059 22.59 30.5109 22.185 30.5109 21.69C30.5109 21.195 30.1059 20.79 29.6109 20.79C29.1159 20.7675 28.7109 21.1725 28.7109 21.69Z" fill="#B0D9FF"/>
<path d="M36.5625 21.69C36.5625 22.185 36.9675 22.59 37.4625 22.59C37.9575 22.59 38.3625 22.185 38.3625 21.69C38.3625 21.195 37.9575 20.79 37.4625 20.79C36.9675 20.7675 36.5625 21.1725 36.5625 21.69Z" fill="#B0D9FF"/>
<path d="M41.3994 16.5374C41.4444 12.1949 37.9569 8.63991 33.6144 8.59491C29.2719 8.54991 25.7169 12.0374 25.6719 16.3799C25.6719 16.4249 25.6719 16.4924 25.6719 16.5374V18.9449C27.5844 18.4724 29.1369 17.1224 29.9019 15.3224C33.2994 17.6174 37.7769 17.1449 41.3994 16.5374Z" fill="white"/>
<path d="M25.6727 19.4175C25.5827 19.4175 25.4702 19.395 25.4027 19.3275C25.2902 19.2375 25.2227 19.1025 25.2227 18.9675V16.5375C25.2227 16.4925 25.2227 16.425 25.2227 16.3575C25.2452 14.13 26.1227 12.06 27.7202 10.5075C29.3177 8.955 31.3877 8.1 33.6152 8.145C35.8427 8.1675 37.9127 9.045 39.4652 10.6425C41.0177 12.24 41.8502 14.3325 41.8277 16.5375C41.8277 16.7625 41.6702 16.9425 41.4452 16.9875C37.4852 17.64 33.3902 17.955 30.0827 15.9975C29.2052 17.685 27.6302 18.945 25.7627 19.4175C25.7627 19.4175 25.7177 19.4175 25.6727 19.4175ZM33.5477 9.045C31.5902 9.045 29.7677 9.7875 28.3727 11.16C26.9552 12.555 26.1677 14.4 26.1452 16.38C26.1452 16.425 26.1452 16.4925 26.1452 16.5375V18.3375C27.6527 17.7975 28.8677 16.6275 29.4977 15.1425C29.5427 15.0075 29.6552 14.9175 29.7902 14.895C29.9252 14.85 30.0602 14.8725 30.1727 14.9625C33.2102 17.01 37.1252 16.785 40.9502 16.155C40.8827 14.31 40.1402 12.6 38.8352 11.2725C37.4402 9.855 35.5952 9.0675 33.6152 9.045C33.5927 9.045 33.5702 9.045 33.5477 9.045Z" fill="#020064"/>
<path d="M29.9021 15.795C29.8121 15.795 29.7446 15.7725 29.6546 15.7275C29.1146 15.39 28.6421 14.9175 28.3046 14.3775C28.1696 14.175 28.2371 13.8825 28.4396 13.7475C28.6421 13.6125 28.9346 13.68 29.0696 13.8825C29.3396 14.31 29.6996 14.67 30.1271 14.94C30.3296 15.075 30.3971 15.345 30.2621 15.57C30.2171 15.7275 30.0596 15.795 29.9021 15.795Z" fill="#020064"/>
<path d="M31.2973 19.7326C31.1848 19.7326 31.0723 19.6876 30.9823 19.5976C30.7573 19.3726 30.3973 19.3726 30.1723 19.5976C29.9923 19.7776 29.6998 19.7776 29.5198 19.5976C29.3398 19.4176 29.3398 19.1251 29.5198 18.9451C30.1048 18.3601 31.0498 18.3601 31.6123 18.9451C31.7923 19.1251 31.7923 19.4176 31.6123 19.5976C31.5223 19.6876 31.4098 19.7326 31.2973 19.7326Z" fill="#020064"/>
<path d="M37.1254 19.7326C37.0129 19.7326 36.9004 19.6876 36.8104 19.5976C36.5854 19.3726 36.2254 19.3726 36.0004 19.5976C35.8204 19.7776 35.5279 19.7776 35.3479 19.5976C35.1679 19.4176 35.1679 19.1251 35.3479 18.9451C35.9329 18.3601 36.8779 18.3601 37.4404 18.9451C37.6204 19.1251 37.6204 19.4176 37.4404 19.5976C37.3504 19.6876 37.2379 19.7326 37.1254 19.7326Z" fill="#020064"/>
<path d="M23.5577 23.6476H25.8752C26.1227 23.6476 26.3252 23.4451 26.3252 23.1976V17.1451C26.3252 16.8976 26.1227 16.6951 25.8752 16.6951H23.5352V23.6476H23.5577Z" fill="#B0D9FF"/>
<path d="M25.8759 24.0976H23.5359C23.2884 24.0976 23.0859 23.8951 23.0859 23.6476V16.6951C23.0859 16.4476 23.2884 16.2451 23.5359 16.2451H25.8759C26.3709 16.2451 26.7759 16.6501 26.7759 17.1451V23.1976C26.7984 23.6926 26.3934 24.0976 25.8759 24.0976ZM24.0084 23.1976H25.8759V17.1451H24.0084V23.1976Z" fill="#020064"/>
<path d="M22.1626 22.9498H23.5576V17.3923H22.1626C21.3976 17.3923 20.7676 18.0223 20.7676 18.7873V21.5773C20.7676 22.3423 21.3976 22.9498 22.1626 22.9498Z" fill="white"/>
<path d="M23.5584 23.3999H22.1634C21.1509 23.3999 20.3184 22.5674 20.3184 21.5549V18.7874C20.3184 17.7749 21.1509 16.9424 22.1634 16.9424H23.5584C23.8059 16.9424 24.0084 17.1449 24.0084 17.3924V22.9499C24.0084 23.1974 23.8059 23.3999 23.5584 23.3999ZM22.1634 17.8424C21.6459 17.8424 21.2184 18.2699 21.2184 18.7874V21.5774C21.2184 22.0949 21.6459 22.5224 22.1634 22.5224H23.1084V17.8424H22.1634Z" fill="#020064"/>
<path d="M43.5146 23.6476H41.1746C40.9271 23.6476 40.7246 23.4451 40.7246 23.1976V17.1451C40.7246 16.8976 40.9271 16.6951 41.1746 16.6951H43.5146V23.6476Z" fill="#B0D9FF"/>
<path d="M43.5154 24.0976H41.1754C40.6804 24.0976 40.2754 23.6926 40.2754 23.1976V17.1451C40.2754 16.6501 40.6804 16.2451 41.1754 16.2451H43.5154C43.7629 16.2451 43.9654 16.4476 43.9654 16.6951V23.6476C43.9654 23.8951 43.7629 24.0976 43.5154 24.0976ZM41.1979 17.1451V23.1976H43.0654V17.1451H41.1979Z" fill="#020064"/>
<path d="M44.9087 22.9498H43.5137V17.3923H44.9087C45.6737 17.3923 46.3037 18.0223 46.3037 18.7873V21.5773C46.3037 22.3423 45.6737 22.9498 44.9087 22.9498Z" fill="white"/>
<path d="M44.9095 23.3999H43.5145C43.267 23.3999 43.0645 23.1974 43.0645 22.9499V17.3924C43.0645 17.1449 43.267 16.9424 43.5145 16.9424H44.9095C45.922 16.9424 46.7545 17.7749 46.7545 18.7874V21.5774C46.7545 22.5899 45.922 23.3999 44.9095 23.3999ZM43.9645 22.4999H44.9095C45.427 22.4999 45.8545 22.0724 45.8545 21.5549V18.7874C45.8545 18.2699 45.427 17.8424 44.9095 17.8424H43.9645V22.4999Z" fill="#020064"/>
<path d="M40.8367 28.1475C40.5892 28.1475 40.3867 27.945 40.3867 27.6975C40.3867 27.45 40.5892 27.2475 40.8367 27.2475C42.3442 27.2475 43.0642 26.6625 43.0642 25.47V23.6475C43.0642 23.4 43.2667 23.1975 43.5142 23.1975C43.7617 23.1975 43.9642 23.4 43.9642 23.6475V25.47C43.9642 26.28 43.6717 28.1475 40.8367 28.1475Z" fill="#020064"/>
<path d="M43.5159 17.145C43.2684 17.145 43.0659 16.9425 43.0659 16.695V16.065C43.0659 10.8 38.7909 6.525 33.5259 6.525C28.2609 6.525 23.9859 10.8 23.9859 16.065V16.695C23.9859 16.9425 23.7834 17.145 23.5359 17.145C23.2884 17.145 23.0859 16.9425 23.0859 16.695V16.065C23.0859 10.305 27.7659 5.625 33.5259 5.625C39.2859 5.625 43.9659 10.305 43.9659 16.065V16.695C43.9659 16.9425 43.7634 17.145 43.5159 17.145Z" fill="#020064"/>
<path d="M33.5922 25.1999C32.7822 25.1999 31.9947 24.9524 31.2972 24.4799C31.0947 24.3449 31.0272 24.0524 31.1847 23.8499C31.3197 23.6474 31.6122 23.5799 31.8147 23.7374C32.8722 24.4574 34.2447 24.4799 35.3247 23.7824C35.5272 23.6474 35.8197 23.7149 35.9547 23.9174C36.0897 24.1199 36.0222 24.4124 35.8197 24.5474C35.1447 24.9749 34.3797 25.1999 33.5922 25.1999Z" fill="#020064"/>
</svg>
